<svg xmlns="http://www.w3.org/2000/svg" width="45.991" height="53.773" viewBox="0 0 45.991 53.773"><g transform="translate(0 0)"><path d="M4.251-.047,26.983-.053c1.477,1.5,10.351,10.46,13.454,13.6V49.4a4.278,4.278,0,0,1-4.251,4.3H4.251A4.278,4.278,0,0,1,0,49.4V4.257A4.278,4.278,0,0,1,4.251-.047Z" transform="translate(5.555 0.067)" fill="#fff"/><path d="M1496.692,662.327h-22.658a4.432,4.432,0,0,0-4.4,4.454v44.844a4.432,4.432,0,0,0,4.4,4.454h31.638a4.432,4.432,0,0,0,4.4-4.454V675.873Zm10.907,49.3a1.942,1.942,0,0,1-1.928,1.952h-31.638a1.942,1.942,0,0,1-1.928-1.952V666.781a1.942,1.942,0,0,1,1.928-1.952h21.634l.012.012V676.9h11.911l.008.008Z" transform="translate(-1464.117 -662.327)" fill="#e4d0f1"/><path d="M1459.213,950.207a1.715,1.715,0,0,1-1.653,1.762h-36.373a1.715,1.715,0,0,1-1.653-1.762V932.589a1.715,1.715,0,0,1,1.653-1.762h36.373a1.715,1.715,0,0,1,1.653,1.762Z" transform="translate(-1419.534 -906.092)" fill="#7714b7"/><text transform="translate(17.999 40)" fill="#f8f8f8" font-size="13" font-family="Montserrat-ExtraBold, Montserrat" font-weight="800" letter-spacing="0.04em" style="isolation:isolate"><tspan x="-13.936" y="0">JPG</tspan></text></g></svg>