<svg xmlns="http://www.w3.org/2000/svg" width="85" height="85" viewBox="0 0 85 85"><g transform="translate(903.604 -1257.738)"><path d="M42.5,0A42.5,42.5,0,1,1,0,42.5,42.5,42.5,0,0,1,42.5,0Z" transform="translate(-903.604 1342.738) rotate(-90)" fill="#ec9006"/><path d="M-829.223,1282.91a41.333,41.333,0,0,0-2.082-12.965,42.357,42.357,0,0,0-29.8-12.207,42.5,42.5,0,0,0-42.5,42.5,42.7,42.7,0,0,0,.936,8.88,41.313,41.313,0,0,0,32.045,15.191A41.4,41.4,0,0,0-829.223,1282.91Z" transform="translate(0 0)" fill="#ffb500"/><g transform="translate(-881.938 1282.317)"><path d="M-865.257,1312.234q0,8.08-9.107,8.079-9.084,0-9.084-8.079V1288.7q0-8.1,9.084-8.1,9.107,0,9.107,8.1Zm-6.332-23.531q0-2.607-2.752-2.609h-.045q-2.728,0-2.729,2.609v23.531q0,2.607,2.752,2.608,2.775,0,2.774-2.608Z" transform="translate(883.448 -1280.604)" fill="#fff"/><path d="M-854.99,1298.055a6.835,6.835,0,0,1,4.363-1.392c.313,0,.634.014.962.039a7.733,7.733,0,0,1,4.766,1.9q1.767,1.667,1.767,5.981v7.648q0,8.08-9.107,8.079-9.083,0-9.083-8.079V1288.7q0-8.1,9.083-8.1,9.107,0,9.107,8.1v5.158h-6.332V1288.7q0-2.607-2.752-2.609h-.045q-2.728,0-2.729,2.609Zm5.526,6.53q0-2.059-.985-2.412a4.988,4.988,0,0,0-1.722-.215q-.292,0-.6.019-2.216.078-2.215,2.608v7.648q0,2.607,2.752,2.608,2.775,0,2.774-2.608Z" transform="translate(885.106 -1280.604)" fill="#fff"/></g></g></svg>