<svg xmlns="http://www.w3.org/2000/svg" width="85" height="85" viewBox="0 0 85 85"><g transform="translate(782.866 -1164.384)"><path d="M42.5,0A42.5,42.5,0,1,1,0,42.5,42.5,42.5,0,0,1,42.5,0Z" transform="translate(-782.865 1164.384)" fill="#ec9006"/><path d="M-708.484,1189.556a41.329,41.329,0,0,0-2.083-12.965,42.35,42.35,0,0,0-29.8-12.207,42.5,42.5,0,0,0-42.5,42.5,42.643,42.643,0,0,0,.937,8.881,41.314,41.314,0,0,0,32.044,15.191A41.4,41.4,0,0,0-708.484,1189.556Z" transform="translate(0 0)" fill="#ffb500"/><g transform="translate(-761.199 1188.962)"><path d="M-744.519,1218.88q0,8.08-9.106,8.078-9.086,0-9.084-8.078v-23.532q0-8.1,9.084-8.1,9.105,0,9.106,8.1Zm-6.331-23.532q0-2.607-2.753-2.609h-.044q-2.73,0-2.73,2.609v23.532q0,2.607,2.753,2.608,2.773,0,2.774-2.608Z" transform="translate(762.709 -1187.249)" fill="#fff"/><path d="M-731.476,1187.267q9.105,0,9.106,8.079v6.687a5.456,5.456,0,0,1-3.468,5.353,5.457,5.457,0,0,1,3.468,5.354v6.138q0,8.08-9.106,8.078t-9.107-8.078v-6.138a5.457,5.457,0,0,1,3.468-5.354,5.456,5.456,0,0,1-3.468-5.353v-6.687Q-740.583,1187.266-731.476,1187.267Zm.6,17.315a2.966,2.966,0,0,0,1.341-.235q.827-.411.829-2.353v-6.647q0-2.588-2.753-2.609h-.044q-2.752.021-2.752,2.609v6.647q0,1.941.828,2.353a2.962,2.962,0,0,0,1.343.235Zm-.583,16.9q2.752-.019,2.753-2.608v-6.138q0-2.1-1.007-2.492a5.19,5.19,0,0,0-1.655-.2h-.225a5.19,5.19,0,0,0-1.655.2q-1.006.393-1.006,2.492v6.138q0,2.588,2.752,2.608Z" transform="translate(764.367 -1187.248)" fill="#fff"/></g></g></svg>