<svg xmlns="http://www.w3.org/2000/svg" width="85" height="85" viewBox="0 0 85 85"><g transform="translate(662.127 -1164.384)"><circle cx="42.5" cy="42.5" r="42.5" transform="translate(-662.127 1164.384)" fill="#ec9006"/><path d="M-587.746,1189.556a41.326,41.326,0,0,0-2.083-12.965,42.348,42.348,0,0,0-29.8-12.207,42.5,42.5,0,0,0-42.5,42.5,42.634,42.634,0,0,0,.936,8.881,41.316,41.316,0,0,0,32.045,15.191A41.4,41.4,0,0,0-587.746,1189.556Z" transform="translate(0 0)" fill="#ffb500"/><g transform="translate(-640.237 1189.589)"><path d="M-629.5,1187.832v33h5.929v5.471h-18.191v-5.471h5.929V1193.3h-5.929v-5.471Z" transform="translate(641.763 -1187.832)" fill="#fff"/><path d="M-607.167,1187.832v33h5.929v5.471h-18.19v-5.471h5.928V1193.3h-5.928v-5.471Z" transform="translate(643.437 -1187.832)" fill="#fff"/></g></g></svg>