<svg xmlns="http://www.w3.org/2000/svg" width="85.059" height="85.06" viewBox="0 0 85.059 85.06"><g transform="translate(1009.808 -1257.738)"><path d="M42.53,0A42.53,42.53,0,1,1,0,42.53,42.53,42.53,0,0,1,42.53,0Z" transform="translate(-1009.808 1257.738)" fill="#ec9006"/><path d="M-935.375,1282.927a41.362,41.362,0,0,0-2.085-12.974,42.383,42.383,0,0,0-29.819-12.215,42.53,42.53,0,0,0-42.529,42.53,42.651,42.651,0,0,0,.937,8.886,41.341,41.341,0,0,0,32.066,15.2A41.429,41.429,0,0,0-935.375,1282.927Z" transform="translate(0)" fill="#ffb500"/><g transform="translate(-988.126 1282.335)"><path d="M-971.448,1312.256q0,8.085-9.113,8.085-9.091,0-9.091-8.085v-23.548q0-8.106,9.091-8.1,9.112,0,9.113,8.1Zm-6.337-23.548q0-2.609-2.755-2.611h-.044q-2.732,0-2.732,2.611v23.548q0,2.609,2.755,2.609,2.775,0,2.776-2.609Z" transform="translate(989.652 -1280.604)" fill="#fff"/><path d="M-955.659,1288.707q0-2.591-2.754-2.611h-.045q-2.732,0-2.731,2.611v5.161h-6.337v-5.161q0-8.085,9.091-8.086,9.112,0,9.112,8.086v6.691a5.462,5.462,0,0,1-3.47,5.358,5.461,5.461,0,0,1,3.47,5.357v6.142q0,8.085-9.112,8.085-9.091,0-9.091-8.085v-5.161h6.337v5.161q0,2.609,2.731,2.609h.045q2.753-.019,2.754-2.609v-6.142q0-2.1-1.008-2.492a5.184,5.184,0,0,0-1.657-.2h-2.082v-5.475h2.575a2.986,2.986,0,0,0,1.344-.235q.828-.411.828-2.356Z" transform="translate(991.327 -1280.603)" fill="#fff"/></g></g></svg>