<svg xmlns="http://www.w3.org/2000/svg" width="85" height="85" viewBox="0 0 85 85"><g transform="translate(1009.808 -1164.384)"><circle cx="42.5" cy="42.5" r="42.5" transform="translate(-1009.808 1164.384)" fill="#ec9006"/><path d="M-935.427,1189.556a41.329,41.329,0,0,0-2.083-12.965,42.348,42.348,0,0,0-29.8-12.207,42.5,42.5,0,0,0-42.5,42.5,42.634,42.634,0,0,0,.936,8.881,41.315,41.315,0,0,0,32.044,15.191A41.4,41.4,0,0,0-935.427,1189.556Z" transform="translate(0 0)" fill="#ffb500"/><g transform="translate(-988.031 1188.962)"><path d="M-967.526,1218.094q0-5.2,5.907-8.9,5.929-3.705,5.952-6.294v-7.55q0-2.607-2.73-2.609h-.044q-2.752,0-2.752,2.609v5.158h-6.332v-5.158q0-8.1,9.084-8.1,9.105,0,9.106,8.1v7.688q0,5.293-5.929,9.02-5.929,3.705-5.928,6.511v2.313h11.858v5.471h-18.19Z" transform="translate(991.31 -1187.249)" fill="#fff"/><path d="M-629.5,1187.832v33h5.929v5.471h-18.191v-5.471h5.929V1193.3h-5.929v-5.471Z" transform="translate(641.986 -1187.205)" fill="#fff"/></g></g></svg>