<svg xmlns="http://www.w3.org/2000/svg" width="85" height="85" viewBox="0 0 85 85"><g transform="translate(903.604 -1164.384)"><path d="M42.5,0A42.5,42.5,0,1,1,0,42.5,42.5,42.5,0,0,1,42.5,0Z" transform="translate(-903.604 1164.384)" fill="#ec9006"/><path d="M-829.223,1189.556a41.329,41.329,0,0,0-2.082-12.965,42.353,42.353,0,0,0-29.8-12.207,42.5,42.5,0,0,0-42.5,42.5,42.7,42.7,0,0,0,.936,8.881,41.316,41.316,0,0,0,32.045,15.191A41.4,41.4,0,0,0-829.223,1189.556Z" transform="translate(0 0)" fill="#ffb500"/><g transform="translate(-881.938 1188.962)"><path d="M-865.257,1218.88q0,8.08-9.107,8.078-9.084,0-9.084-8.078v-23.532q0-8.1,9.084-8.1,9.107,0,9.107,8.1Zm-6.332-23.532q0-2.607-2.752-2.609h-.045q-2.728,0-2.729,2.609v23.532q0,2.607,2.752,2.608,2.775,0,2.774-2.608Z" transform="translate(883.448 -1187.249)" fill="#fff"/><path d="M-849.463,1207.913q0-2.039-.985-2.411a4.976,4.976,0,0,0-1.722-.217c-.195,0-.4.008-.6.021q-1.925.079-2.148,1.509l-.068,1.55h-6.331l.939-20.532h17.251v5.471H-854.3l-.447,8.276a5.89,5.89,0,0,1,4.386-1.629c.254,0,.514.014.783.04a6.9,6.9,0,0,1,5.035,2.333q1.409,1.688,1.409,5.59v10.924q0,8.08-9.107,8.078-9.083,0-9.083-8.078v-4.55h6.331v4.55q0,2.607,2.729,2.608h.045q2.752-.019,2.752-2.608Z" transform="translate(885.106 -1187.205)" fill="#fff"/></g></g></svg>