<svg xmlns="http://www.w3.org/2000/svg" width="85" height="85" viewBox="0 0 85 85"><g transform="translate(782.866 -1257.738)"><path d="M42.5,0A42.5,42.5,0,1,1,0,42.5,42.5,42.5,0,0,1,42.5,0Z" transform="translate(-782.865 1257.738)" fill="#ec9006"/><path d="M-708.484,1282.91a41.335,41.335,0,0,0-2.083-12.965,42.355,42.355,0,0,0-29.8-12.207,42.5,42.5,0,0,0-42.5,42.5,42.632,42.632,0,0,0,.937,8.88,41.31,41.31,0,0,0,32.044,15.191A41.4,41.4,0,0,0-708.484,1282.91Z" transform="translate(0)" fill="#ffb500"/><g transform="translate(-761.199 1282.317)"><path d="M-744.519,1312.234q0,8.08-9.106,8.079-9.086,0-9.084-8.079V1288.7q0-8.1,9.084-8.1,9.105,0,9.106,8.1Zm-6.331-23.531q0-2.607-2.753-2.609h-.044q-2.73,0-2.73,2.609v23.531q0,2.607,2.753,2.608,2.773,0,2.774-2.608Z" transform="translate(762.709 -1280.604)" fill="#fff"/><path d="M-728.724,1302.86a6.988,6.988,0,0,1-4.431,1.411q-.426,0-.894-.039a7.717,7.717,0,0,1-4.766-1.9q-1.767-1.685-1.767-5.981V1288.7q0-8.08,9.107-8.1,9.083,0,9.083,8.1v23.531q0,8.08-9.106,8.079-9.084,0-9.084-8.079v-5.177h6.332v5.177q0,2.589,2.752,2.608h.044q2.73,0,2.73-2.608Zm-5.526-6.511q0,2.041.984,2.412a5.125,5.125,0,0,0,1.678.2c.193,0,.4-.006.627-.02q2.238-.058,2.238-2.588V1288.7q0-2.607-2.752-2.609-2.777,0-2.774,2.609Z" transform="translate(764.367 -1280.604)" fill="#fff"/></g></g></svg>