<svg xmlns="http://www.w3.org/2000/svg" width="85" height="85" viewBox="0 0 85 85"><g transform="translate(662.127 -1071.03)"><path d="M42.5,0A42.5,42.5,0,1,1,0,42.5,42.5,42.5,0,0,1,42.5,0Z" transform="translate(-662.127 1071.03)" fill="#ec9006"/><path d="M-587.746,1096.2a41.333,41.333,0,0,0-2.083-12.965,42.352,42.352,0,0,0-29.8-12.206,42.5,42.5,0,0,0-42.5,42.5,42.641,42.641,0,0,0,.936,8.881,41.316,41.316,0,0,0,32.045,15.191A41.4,41.4,0,0,0-587.746,1096.2Z" transform="translate(0 0)" fill="#ffb500"/><g transform="translate(-640.237 1095.608)"><path d="M-629.5,1094.478v33h5.929v5.471h-18.191v-5.471h5.929v-27.533h-5.929v-5.47Z" transform="translate(641.763 -1093.851)" fill="#fff"/><path d="M-601.446,1125.525q0,8.08-9.107,8.079-9.084,0-9.084-8.079v-23.531q0-8.1,9.084-8.1,9.107,0,9.107,8.1Zm-6.331-23.531q0-2.607-2.753-2.609h-.045q-2.728,0-2.729,2.609v23.531q0,2.609,2.752,2.608,2.775,0,2.775-2.608Z" transform="translate(643.421 -1093.895)" fill="#fff"/></g></g></svg>