<svg xmlns="http://www.w3.org/2000/svg" width="330" height="237" viewBox="0 0 330 237"><g transform="translate(-635 -2399)"><rect width="330" height="237" transform="translate(635 2399)" fill="#f5db9a"/><path d="M12.432,16.264a5.031,5.031,0,0,1-1.694,3.613A5.951,5.951,0,0,1,6.709,21.2a5.351,5.351,0,0,1-4.3-1.841A7.548,7.548,0,0,1,.84,14.3v-.869a8.523,8.523,0,0,1,.723-3.613,5.416,5.416,0,0,1,2.065-2.4,5.786,5.786,0,0,1,3.12-.835A5.8,5.8,0,0,1,10.713,7.9a5.407,5.407,0,0,1,1.738,3.7H9.521a2.97,2.97,0,0,0-.767-2,2.839,2.839,0,0,0-2.007-.62,2.489,2.489,0,0,0-2.192,1.05,5.883,5.883,0,0,0-.747,3.257v1.074a6.3,6.3,0,0,0,.7,3.369,2.443,2.443,0,0,0,2.2,1.064,2.892,2.892,0,0,0,2.026-.62A2.8,2.8,0,0,0,9.5,16.264Zm1.3-.645a6.267,6.267,0,0,1,.605-2.8,4.432,4.432,0,0,1,1.743-1.9,5.086,5.086,0,0,1,2.642-.674,4.812,4.812,0,0,1,3.491,1.309A5.252,5.252,0,0,1,23.721,15.1l.02.723a5.523,5.523,0,0,1-1.357,3.9A4.718,4.718,0,0,1,18.74,21.2a4.742,4.742,0,0,1-3.647-1.465,5.62,5.62,0,0,1-1.362-3.984Zm2.822.205a3.939,3.939,0,0,0,.566,2.3,2.037,2.037,0,0,0,3.223.01,4.31,4.31,0,0,0,.576-2.515,3.9,3.9,0,0,0-.576-2.285,1.874,1.874,0,0,0-1.621-.811,1.843,1.843,0,0,0-1.6.806A4.383,4.383,0,0,0,16.553,15.824Zm11.523-5.391.088,1.221A3.689,3.689,0,0,1,31.2,10.238a3.066,3.066,0,0,1,2.5.986,4.6,4.6,0,0,1,.84,2.949V21H31.719V14.242a1.831,1.831,0,0,0-.391-1.3,1.749,1.749,0,0,0-1.3-.405,1.942,1.942,0,0,0-1.787,1.016V21H25.42V10.434ZM42.4,18.08a.909.909,0,0,0-.513-.815,5.824,5.824,0,0,0-1.646-.532q-3.77-.791-3.77-3.2a2.9,2.9,0,0,1,1.167-2.349,4.707,4.707,0,0,1,3.052-.942,5.067,5.067,0,0,1,3.218.947,2.985,2.985,0,0,1,1.206,2.461H42.295a1.366,1.366,0,0,0-.391-1,1.653,1.653,0,0,0-1.221-.4,1.689,1.689,0,0,0-1.1.322,1.017,1.017,0,0,0-.391.82.87.87,0,0,0,.444.757,4.571,4.571,0,0,0,1.5.5,12.244,12.244,0,0,1,1.777.474,2.92,2.92,0,0,1,2.236,2.842,2.756,2.756,0,0,1-1.24,2.339,5.35,5.35,0,0,1-3.2.894,5.588,5.588,0,0,1-2.358-.474,3.957,3.957,0,0,1-1.616-1.3,3.018,3.018,0,0,1-.586-1.782h2.676a1.473,1.473,0,0,0,.557,1.152,2.208,2.208,0,0,0,1.387.4,2.044,2.044,0,0,0,1.226-.308A.957.957,0,0,0,42.4,18.08ZM51.826,21.2a5.187,5.187,0,0,1-3.784-1.426,5.068,5.068,0,0,1-1.46-3.8V15.7a6.383,6.383,0,0,1,.615-2.847,4.515,4.515,0,0,1,1.743-1.934,4.893,4.893,0,0,1,2.573-.679,4.385,4.385,0,0,1,3.413,1.367,5.555,5.555,0,0,1,1.245,3.877v1.152H49.443a2.622,2.622,0,0,0,.825,1.66,2.5,2.5,0,0,0,1.743.625,3.046,3.046,0,0,0,2.549-1.182l1.387,1.553a4.237,4.237,0,0,1-1.719,1.4A5.639,5.639,0,0,1,51.826,21.2ZM51.5,12.523a1.767,1.767,0,0,0-1.362.566,2.926,2.926,0,0,0-.669,1.621H53.4v-.225a2.086,2.086,0,0,0-.508-1.45A1.824,1.824,0,0,0,51.5,12.523Zm5.859,3.115a6.193,6.193,0,0,1,1.157-3.916,3.75,3.75,0,0,1,3.12-1.484,3.289,3.289,0,0,1,2.705,1.191l.117-1h2.559V20.648a4.516,4.516,0,0,1-.63,2.412,4.045,4.045,0,0,1-1.772,1.563,6.231,6.231,0,0,1-2.676.537,5.794,5.794,0,0,1-2.266-.464,4.021,4.021,0,0,1-1.67-1.2l1.25-1.719a3.306,3.306,0,0,0,2.559,1.182,2.42,2.42,0,0,0,1.748-.6,2.253,2.253,0,0,0,.625-1.7v-.566a3.264,3.264,0,0,1-2.568,1.1,3.74,3.74,0,0,1-3.081-1.489,6.191,6.191,0,0,1-1.177-3.95Zm2.822.205a3.846,3.846,0,0,0,.576,2.251,1.834,1.834,0,0,0,1.582.815,1.961,1.961,0,0,0,1.846-.967V13.5a1.956,1.956,0,0,0-1.826-.967,1.845,1.845,0,0,0-1.6.83A4.334,4.334,0,0,0,60.186,15.844Zm15.332,4.082a3.539,3.539,0,0,1-2.891,1.27,3.338,3.338,0,0,1-2.593-.977,4.169,4.169,0,0,1-.913-2.861V10.434h2.822V17.26q0,1.65,1.5,1.65a2.038,2.038,0,0,0,1.973-1v-7.48h2.832V21H75.6ZM83.359,21H80.527V10.434h2.832Zm-3-13.3a1.39,1.39,0,0,1,.425-1.045,1.831,1.831,0,0,1,2.31,0,1.382,1.382,0,0,1,.43,1.045,1.386,1.386,0,0,1-.435,1.055,1.81,1.81,0,0,1-2.295,0A1.386,1.386,0,0,1,80.361,7.7Zm11.26,5.381A7.667,7.667,0,0,0,90.605,13a2.067,2.067,0,0,0-2.1,1.084V21H85.684V10.434H88.35l.078,1.26a2.615,2.615,0,0,1,2.354-1.455,2.957,2.957,0,0,1,.879.127Zm11.2,8.115a5.187,5.187,0,0,1-3.784-1.426,5.068,5.068,0,0,1-1.46-3.8V15.7a6.383,6.383,0,0,1,.615-2.847,4.515,4.515,0,0,1,1.743-1.934,4.893,4.893,0,0,1,2.573-.679,4.385,4.385,0,0,1,3.413,1.367,5.555,5.555,0,0,1,1.245,3.877v1.152h-6.729a2.622,2.622,0,0,0,.825,1.66,2.5,2.5,0,0,0,1.743.625,3.046,3.046,0,0,0,2.549-1.182l1.387,1.553a4.237,4.237,0,0,1-1.719,1.4A5.639,5.639,0,0,1,102.822,21.2Zm-.322-8.672a1.767,1.767,0,0,0-1.362.566,2.926,2.926,0,0,0-.669,1.621h3.926v-.225a2.086,2.086,0,0,0-.508-1.45A1.824,1.824,0,0,0,102.5,12.523ZM111.748,21h-2.832V6h2.832ZM121.7,10.434l.088,1.182a3.713,3.713,0,0,1,3.037-1.377,2.818,2.818,0,0,1,2.8,1.611,3.628,3.628,0,0,1,3.174-1.611,3.152,3.152,0,0,1,2.559,1,4.6,4.6,0,0,1,.84,3.013V21h-2.832V14.262a2.012,2.012,0,0,0-.352-1.313,1.558,1.558,0,0,0-1.24-.415,1.761,1.761,0,0,0-1.758,1.211l.01,7.256h-2.822V14.271a1.988,1.988,0,0,0-.361-1.328,1.573,1.573,0,0,0-1.23-.41,1.829,1.829,0,0,0-1.738,1V21h-2.822V10.434ZM141.23,21.2a5.187,5.187,0,0,1-3.784-1.426,5.068,5.068,0,0,1-1.46-3.8V15.7a6.383,6.383,0,0,1,.615-2.847,4.515,4.515,0,0,1,1.743-1.934,4.893,4.893,0,0,1,2.573-.679,4.385,4.385,0,0,1,3.413,1.367,5.555,5.555,0,0,1,1.245,3.877v1.152h-6.729a2.622,2.622,0,0,0,.825,1.66,2.5,2.5,0,0,0,1.743.625,3.046,3.046,0,0,0,2.549-1.182l1.387,1.553a4.237,4.237,0,0,1-1.719,1.4A5.639,5.639,0,0,1,141.23,21.2Zm-.322-8.672a1.767,1.767,0,0,0-1.362.566,2.926,2.926,0,0,0-.669,1.621H142.8v-.225a2.086,2.086,0,0,0-.508-1.45A1.824,1.824,0,0,0,140.908,12.523Zm9.258-2.09V21.576a3.78,3.78,0,0,1-.928,2.72,3.526,3.526,0,0,1-2.676.972,5.738,5.738,0,0,1-1.4-.166V22.865a5.3,5.3,0,0,0,.889.088q1.279,0,1.279-1.357V10.434ZM147.109,7.7a1.39,1.39,0,0,1,.425-1.045,1.838,1.838,0,0,1,2.314,0,1.39,1.39,0,0,1,.425,1.045,1.386,1.386,0,0,1-.435,1.055,1.81,1.81,0,0,1-2.295,0A1.386,1.386,0,0,1,147.109,7.7Zm4.824,7.92a6.267,6.267,0,0,1,.605-2.8,4.432,4.432,0,0,1,1.743-1.9,5.086,5.086,0,0,1,2.642-.674,4.812,4.812,0,0,1,3.491,1.309,5.252,5.252,0,0,1,1.509,3.555l.02.723a5.523,5.523,0,0,1-1.357,3.9,5.261,5.261,0,0,1-7.29,0,5.62,5.62,0,0,1-1.362-3.984Zm2.822.205a3.939,3.939,0,0,0,.566,2.3,2.037,2.037,0,0,0,3.223.01,4.31,4.31,0,0,0,.576-2.515,3.9,3.9,0,0,0-.576-2.285,1.874,1.874,0,0,0-1.621-.811,1.843,1.843,0,0,0-1.6.806A4.383,4.383,0,0,0,154.756,15.824Zm14.863-2.744A7.667,7.667,0,0,0,168.6,13a2.067,2.067,0,0,0-2.1,1.084V21h-2.822V10.434h2.666l.078,1.26a2.615,2.615,0,0,1,2.354-1.455,2.957,2.957,0,0,1,.879.127ZM5.479,43.92a1.851,1.851,0,0,0,1.27-.43,1.506,1.506,0,0,0,.508-1.143H9.9a3.62,3.62,0,0,1-.586,1.968A3.866,3.866,0,0,1,7.739,45.7a4.936,4.936,0,0,1-2.212.493,4.587,4.587,0,0,1-3.574-1.44A5.7,5.7,0,0,1,.645,40.775V40.59a5.635,5.635,0,0,1,1.3-3.9,4.534,4.534,0,0,1,3.564-1.455,4.444,4.444,0,0,1,3.179,1.128,3.994,3.994,0,0,1,1.216,3H7.256a1.923,1.923,0,0,0-.508-1.333,1.7,1.7,0,0,0-1.289-.513,1.7,1.7,0,0,0-1.489.718,4.155,4.155,0,0,0-.5,2.329v.293a4.207,4.207,0,0,0,.5,2.344A1.722,1.722,0,0,0,5.479,43.92Zm5.6-3.3a6.267,6.267,0,0,1,.605-2.8,4.432,4.432,0,0,1,1.743-1.9,5.086,5.086,0,0,1,2.642-.674,4.812,4.812,0,0,1,3.491,1.309A5.252,5.252,0,0,1,21.064,40.1l.02.723a5.523,5.523,0,0,1-1.357,3.9,4.718,4.718,0,0,1-3.643,1.47,4.742,4.742,0,0,1-3.647-1.465,5.62,5.62,0,0,1-1.362-3.984Zm2.822.205a3.939,3.939,0,0,0,.566,2.3,1.869,1.869,0,0,0,1.621.8,1.874,1.874,0,0,0,1.6-.786,4.31,4.31,0,0,0,.576-2.515,3.9,3.9,0,0,0-.576-2.285,1.874,1.874,0,0,0-1.621-.811,1.843,1.843,0,0,0-1.6.806A4.383,4.383,0,0,0,13.9,40.824ZM28.545,43.08a.909.909,0,0,0-.513-.815,5.824,5.824,0,0,0-1.646-.532q-3.77-.791-3.77-3.2a2.9,2.9,0,0,1,1.167-2.349,4.708,4.708,0,0,1,3.052-.942,5.067,5.067,0,0,1,3.218.947,2.985,2.985,0,0,1,1.206,2.461H28.438a1.366,1.366,0,0,0-.391-1,1.653,1.653,0,0,0-1.221-.4,1.689,1.689,0,0,0-1.1.322,1.017,1.017,0,0,0-.391.82.87.87,0,0,0,.444.757,4.571,4.571,0,0,0,1.5.5,12.244,12.244,0,0,1,1.777.474,2.92,2.92,0,0,1,2.236,2.842,2.756,2.756,0,0,1-1.24,2.339,5.35,5.35,0,0,1-3.2.894,5.588,5.588,0,0,1-2.358-.474,3.957,3.957,0,0,1-1.616-1.3,3.018,3.018,0,0,1-.586-1.782h2.676a1.473,1.473,0,0,0,.557,1.152,2.208,2.208,0,0,0,1.387.4,2.044,2.044,0,0,0,1.226-.308A.957.957,0,0,0,28.545,43.08Zm7.939-10.244v2.6h1.807V37.5H36.484v5.273a1.259,1.259,0,0,0,.225.84,1.128,1.128,0,0,0,.859.254,4.5,4.5,0,0,0,.83-.068v2.139a5.81,5.81,0,0,1-1.709.254q-2.969,0-3.027-3V37.5H32.119v-2.07h1.543v-2.6Zm2.646,7.783a6.267,6.267,0,0,1,.605-2.8,4.432,4.432,0,0,1,1.743-1.9,5.086,5.086,0,0,1,2.642-.674,4.812,4.812,0,0,1,3.491,1.309A5.252,5.252,0,0,1,49.121,40.1l.02.723a5.523,5.523,0,0,1-1.357,3.9,5.261,5.261,0,0,1-7.29,0,5.62,5.62,0,0,1-1.362-3.984Zm2.822.205a3.939,3.939,0,0,0,.566,2.3,2.037,2.037,0,0,0,3.223.01,4.31,4.31,0,0,0,.576-2.515,3.9,3.9,0,0,0-.576-2.285,1.874,1.874,0,0,0-1.621-.811,1.843,1.843,0,0,0-1.6.806A4.383,4.383,0,0,0,41.953,40.824Z" transform="translate(693 2563)" fill="#12263f"/><g transform="translate(692.451 2429.537)"><path d="M168.79,26.2V89.474c0,.126,0,.253-.008.379a8.17,8.17,0,0,1-8.161,7.789H114.693a8.169,8.169,0,0,1-8.17-8.168V16.214a8.157,8.157,0,0,1,8.17-8.17h36.482a8.143,8.143,0,0,1,3.548.813c2.207,1.062,2.829,2.4,6.795,6.46,4.563,4.955,5.652,5.462,6.582,7.607A8.08,8.08,0,0,1,168.79,26.2Z" transform="translate(-83.779 -6.359)" fill="#ffc477"/><path d="M192.635,26.2V89.473c0,.126,0,.253-.008.379a8.2,8.2,0,0,1-1.844.208H144.855a8.169,8.169,0,0,1-8.17-8.168V8.633c0-.128,0-.255.008-.381a8.207,8.207,0,0,1,1.844-.208H175.02a8.182,8.182,0,0,1,5.97,2.594l4.373,4.679,5.007,5.239a8.221,8.221,0,0,1,2.266,5.643Z" transform="translate(-107.624 -6.359)" fill="#ffdaaa"/><path d="M303.5,186.441v45.932a11.546,11.546,0,0,1-11.545,11.545h-30a11.546,11.546,0,0,1-11.545-11.545V186.441A11.54,11.54,0,0,1,261.959,174.9h30A11.544,11.544,0,0,1,303.5,186.441Z" transform="translate(-197.535 -138.267)" fill="#4cba68"/><path d="M321.523,186.441v45.932a11.484,11.484,0,0,1-2.236,6.828,11.5,11.5,0,0,1-4.535.927h-30a11.546,11.546,0,0,1-11.545-11.545V182.651a11.484,11.484,0,0,1,2.236-6.828,11.5,11.5,0,0,1,4.535-.927h30A11.544,11.544,0,0,1,321.523,186.441Z" transform="translate(-215.553 -138.267)" fill="#7ccc92"/><path d="M364.887,367.7v5.395a1.726,1.726,0,0,1-1.724,1.727h-5.4a1.726,1.726,0,0,1-1.727-1.727V367.7a1.726,1.726,0,0,1,1.727-1.727h5.4A1.726,1.726,0,0,1,364.887,367.7Z" transform="translate(-281.038 -289.323)" fill="#2c733f"/><path d="M325.52,210.8v5.78A3.723,3.723,0,0,1,321.8,220.3H292.02a3.724,3.724,0,0,1-3.723-3.723V210.8a3.724,3.724,0,0,1,3.723-3.723H321.8A3.723,3.723,0,0,1,325.52,210.8Z" transform="translate(-227.484 -163.709)" fill="#1e81ce"/><path d="M349.364,210.8v5.78a3.723,3.723,0,0,1-3.723,3.723H322.181a3.724,3.724,0,0,1-3.723-3.723V210.8a3.724,3.724,0,0,1,3.723-3.723h23.461A3.723,3.723,0,0,1,349.364,210.8Z" transform="translate(-251.328 -163.709)" fill="#3d9ae2"/><g transform="translate(60.813 62.539)"><path d="M297.147,367.7v5.395a1.726,1.726,0,0,1-1.727,1.727h-5.4a1.728,1.728,0,0,1-1.727-1.727V367.7a1.728,1.728,0,0,1,1.727-1.727h5.4A1.726,1.726,0,0,1,297.147,367.7Z" transform="translate(-288.297 -351.861)" fill="#2c733f"/><path d="M364.887,300.335v5.395a1.726,1.726,0,0,1-1.724,1.727h-5.4a1.726,1.726,0,0,1-1.727-1.727v-5.395a1.726,1.726,0,0,1,1.727-1.727h5.4A1.726,1.726,0,0,1,364.887,300.335Z" transform="translate(-341.852 -298.608)" fill="#2c733f"/></g><path d="M433.444,300.335v5.395a1.726,1.726,0,0,1-1.727,1.727h-5.395a1.726,1.726,0,0,1-1.727-1.727v-5.395a1.726,1.726,0,0,1,1.727-1.727h5.395A1.726,1.726,0,0,1,433.444,300.335Z" transform="translate(-335.237 -236.069)" fill="#ee8700"/><g transform="translate(60.813 62.539)"><path d="M297.147,300.335v5.395a1.726,1.726,0,0,1-1.727,1.727h-5.4a1.728,1.728,0,0,1-1.727-1.727v-5.395a1.728,1.728,0,0,1,1.727-1.727h5.4A1.726,1.726,0,0,1,297.147,300.335Z" transform="translate(-288.297 -298.608)" fill="#2c733f"/><path d="M364.887,431.755v5.4a1.726,1.726,0,0,1-1.724,1.727h-5.4a1.726,1.726,0,0,1-1.727-1.727v-5.4a1.726,1.726,0,0,1,1.727-1.724h5.4A1.725,1.725,0,0,1,364.887,431.755Z" transform="translate(-341.852 -402.507)" fill="#2c733f"/><path d="M297.147,431.755v5.4a1.726,1.726,0,0,1-1.727,1.727h-5.4a1.728,1.728,0,0,1-1.727-1.727v-5.4a1.727,1.727,0,0,1,1.727-1.724h5.4A1.726,1.726,0,0,1,297.147,431.755Z" transform="translate(-288.297 -402.507)" fill="#2c733f"/></g><path d="M433.444,368.533v16.754a2.944,2.944,0,0,1-2.944,2.946H427.54a2.944,2.944,0,0,1-2.944-2.946V368.533a2.565,2.565,0,0,1,2.565-2.565h3.719A2.564,2.564,0,0,1,433.444,368.533Z" transform="translate(-335.237 -289.322)" fill="#ee8700"/><g transform="translate(60.813 62.539)"><path d="M364.887,367.7v1.6a1.726,1.726,0,0,1-1.724,1.727h-5.4a1.726,1.726,0,0,1-1.727-1.727v-1.6a1.726,1.726,0,0,1,1.727-1.727h5.4A1.726,1.726,0,0,1,364.887,367.7Z" transform="translate(-341.852 -351.861)" fill="#317f46"/><path d="M297.147,367.7v1.6a1.726,1.726,0,0,1-1.727,1.727h-5.4A1.728,1.728,0,0,1,288.3,369.3v-1.6a1.728,1.728,0,0,1,1.727-1.727h5.4A1.726,1.726,0,0,1,297.147,367.7Z" transform="translate(-288.297 -351.861)" fill="#317f46"/><path d="M364.887,300.335v1.6a1.726,1.726,0,0,1-1.724,1.727h-5.4a1.726,1.726,0,0,1-1.727-1.727v-1.6a1.726,1.726,0,0,1,1.727-1.727h5.4A1.726,1.726,0,0,1,364.887,300.335Z" transform="translate(-341.852 -298.608)" fill="#317f46"/></g><path d="M433.444,300.335v1.6a1.726,1.726,0,0,1-1.727,1.727h-5.395a1.726,1.726,0,0,1-1.727-1.727v-1.6a1.726,1.726,0,0,1,1.727-1.727h5.395A1.726,1.726,0,0,1,433.444,300.335Z" transform="translate(-335.237 -236.069)" fill="#ff9811"/><g transform="translate(60.813 62.539)"><path d="M297.147,300.335v1.6a1.726,1.726,0,0,1-1.727,1.727h-5.4a1.728,1.728,0,0,1-1.727-1.727v-1.6a1.728,1.728,0,0,1,1.727-1.727h5.4A1.726,1.726,0,0,1,297.147,300.335Z" transform="translate(-288.297 -298.608)" fill="#317f46"/><path d="M364.887,431.755v1.607a1.726,1.726,0,0,1-1.724,1.727h-5.4a1.726,1.726,0,0,1-1.727-1.727v-1.607a1.726,1.726,0,0,1,1.727-1.724h5.4A1.725,1.725,0,0,1,364.887,431.755Z" transform="translate(-341.852 -402.507)" fill="#317f46"/><path d="M297.147,431.755v1.607a1.726,1.726,0,0,1-1.727,1.727h-5.4a1.728,1.728,0,0,1-1.727-1.727v-1.607a1.727,1.727,0,0,1,1.727-1.724h5.4A1.726,1.726,0,0,1,297.147,431.755Z" transform="translate(-288.297 -402.507)" fill="#317f46"/></g><path d="M433.444,368.533V381.5a2.944,2.944,0,0,1-2.944,2.946H427.54A2.944,2.944,0,0,1,424.6,381.5V368.533a2.565,2.565,0,0,1,2.565-2.565h3.719A2.564,2.564,0,0,1,433.444,368.533Z" transform="translate(-335.237 -289.322)" fill="#ff9811"/><path d="M350.039,25.991H339.8a3.141,3.141,0,0,1-3.141-3.141V11.924a8.159,8.159,0,0,1,2.421,1.78l4.375,4.679,5.007,5.24A8.089,8.089,0,0,1,350.039,25.991Z" transform="translate(-265.719 -9.427)" fill="#ffb655"/><path d="M101.966,465.652a4.012,4.012,0,0,1-4,4H73.457a4,4,0,0,1,0-8H97.966A4.012,4.012,0,0,1,101.966,465.652Z" transform="translate(-54.475 -364.966)" fill="#aa6100"/><path d="M101.966,427.447a4.012,4.012,0,0,1-4,4H73.457a4,4,0,0,1,0-8H97.966A4.012,4.012,0,0,1,101.966,427.447Z" transform="translate(-54.475 -334.762)" fill="#cc7400"/><path d="M101.966,389.243a4.011,4.011,0,0,1-4,4H73.457a4,4,0,0,1,0-8H97.966A4.012,4.012,0,0,1,101.966,389.243Z" transform="translate(-54.475 -304.559)" fill="#ee8700"/><path d="M101.966,351.037a4.011,4.011,0,0,1-4,4H73.457a4.012,4.012,0,0,1-4-4,4.011,4.011,0,0,1,4-4H97.966A4.013,4.013,0,0,1,101.966,351.037Z" transform="translate(-54.475 -274.355)" fill="#ff9811"/><path d="M97.965,316.835H73.457a4.012,4.012,0,0,1-4-4h0a4.012,4.012,0,0,1,4-4H97.965a4.012,4.012,0,0,1,4,4h0A4.012,4.012,0,0,1,97.965,316.835Z" transform="translate(-54.475 -244.154)" fill="#ffa733"/><path d="M39.8,390.1a13.017,13.017,0,0,0-13.566-12.465h-5.1c-11.565.5-16.955,14.906-8.1,22.765a12.99,12.99,0,0,0,9.214,3.28h3.986v0c.364.015.731.018,1.1,0a13.241,13.241,0,0,0,2.421-.331A13.035,13.035,0,0,0,39.8,391.124v-.015C39.814,390.774,39.814,390.437,39.8,390.1Z" transform="translate(-6.383 -298.533)" fill="#cc7400"/><path d="M81.652,392.4v.015a13.035,13.035,0,0,1-10.046,12.219A13.04,13.04,0,0,1,61.573,392.5c0-.03,0-.057,0-.086V392.4a13.039,13.039,0,0,1,10.044-13.147A13.038,13.038,0,0,1,81.649,391.39C81.664,391.731,81.664,392.068,81.652,392.4Z" transform="translate(-48.233 -299.826)" fill="#ee8700"/><path d="M94.425,35.05H86.7V19.839a9.879,9.879,0,0,0-2.731-6.807L78.97,7.805C74.731,3.438,74.2,2.2,71.672.979A9.877,9.877,0,0,0,67.4,0H30.914a9.866,9.866,0,0,0-9.854,9.854V63H18.981a5.682,5.682,0,0,0-4.034,9.686,5.664,5.664,0,0,0-1.651,4,5.832,5.832,0,0,0,.112,1.124C1.071,79.061-3.844,94.331,5.185,102.619a14.235,14.235,0,0,0,10.271,3.763l28.034-.01a5.682,5.682,0,0,0,4.034-9.686,5.655,5.655,0,0,0,1.642-3.719H51.3v1.139A13.139,13.139,0,0,0,64.424,107.23h30a13.139,13.139,0,0,0,13.124-13.124V48.174A13.139,13.139,0,0,0,94.425,35.05ZM72.628,5.957c6.616,6.993,8.107,8.57,8.387,8.867,0,0,0,0,0,0h0a.046.046,0,0,0,.008.01l0,0a.036.036,0,0,0,.013.013.029.029,0,0,1,.006.008s0,0,0,0,0,0,.006.006.006.006.008.008H72.627V5.957ZM18.981,66.365H43.49a2.316,2.316,0,1,1,0,4.632H18.981a2.316,2.316,0,1,1,0-4.632Zm0,8H43.49a2.316,2.316,0,1,1,0,4.632H26.561a13.72,13.72,0,0,0-2.133-.771,14.2,14.2,0,0,0-3.369-.495c-.33-.008-.661-.006-.992.008H16.924a2.277,2.277,0,0,1-.259-1.059A2.32,2.32,0,0,1,18.981,74.366ZM45.806,84.683A2.319,2.319,0,0,1,43.49,87H34.064A14.17,14.17,0,0,0,31.2,82.367H43.49A2.32,2.32,0,0,1,45.806,84.683ZM10.786,81.66a14.535,14.535,0,0,0-2.653,3.4H6.171A11.125,11.125,0,0,1,10.786,81.66ZM4.379,88.221H6.832a14.543,14.543,0,0,0-.459,2.525H3.781A11.069,11.069,0,0,1,4.379,88.221ZM4.65,96.57A11.05,11.05,0,0,1,3.859,93.9H6.432a12.711,12.711,0,0,0,.6,2.666Zm2.1,3.158c1.034,0,1.634,0,1.775,0a14.224,14.224,0,0,0,2.266,2.741A11.128,11.128,0,0,1,6.752,99.728Zm14.373,3.5A11.174,11.174,0,1,1,28.2,83.831,11.165,11.165,0,0,1,21.125,103.225ZM43.49,103h-13.6a14.43,14.43,0,0,0,3.619-4.632H43.49a2.316,2.316,0,1,1,0,4.632Zm2.3-10.035A2.317,2.317,0,0,1,43.49,95H34.676a14.472,14.472,0,0,0,.2-4.632h8.61A2.318,2.318,0,0,1,45.788,92.967ZM51.3,89.6H48.259a5.589,5.589,0,0,0-.735-.914,5.672,5.672,0,0,0,0-8,5.673,5.673,0,0,0,0-8A5.69,5.69,0,0,0,43.49,63H24.428V9.854a6.494,6.494,0,0,1,6.485-6.485H69.259v13.2a1.684,1.684,0,0,0,1.684,1.684H83.126c.352,1.364.135.914.2,16.8h-18.9A13.139,13.139,0,0,0,51.3,48.174V89.6Zm53.091,4.508a9.977,9.977,0,0,1-9.966,9.966h-30a9.978,9.978,0,0,1-9.966-9.966V48.174a9.978,9.978,0,0,1,9.966-9.966h30a9.977,9.977,0,0,1,9.966,9.966V94.106Z"/><path d="M291.788,212.763h-5.729a2.15,2.15,0,0,1-2.144-2.144v-5.78a2.15,2.15,0,0,1,2.144-2.144h29.778a2.146,2.146,0,0,1,2.144,2.144v5.78a2.146,2.146,0,0,1-2.144,2.144H298.6a1.579,1.579,0,0,0,0,3.158h17.238a5.308,5.308,0,0,0,5.3-5.3v-5.78a5.308,5.308,0,0,0-5.3-5.3H286.059a5.3,5.3,0,0,0-5.3,5.3v5.78a5.3,5.3,0,0,0,5.3,5.3h5.729a1.579,1.579,0,0,0,0-3.158Z" transform="translate(-221.523 -157.748)"/><path d="M284.063,370.435h5.4a3.309,3.309,0,0,0,3.306-3.306v-5.395a3.309,3.309,0,0,0-3.306-3.306h-5.4a3.31,3.31,0,0,0-3.306,3.306v5.395A3.31,3.31,0,0,0,284.063,370.435Zm-.147-8.7a.148.148,0,0,1,.147-.147h5.4a.148.148,0,0,1,.147.147v5.395a.148.148,0,0,1-.147.147h-5.4a.148.148,0,0,1-.147-.147Z" transform="translate(-221.523 -283.362)"/><path d="M425.756,291.068h-5.395a3.309,3.309,0,0,0-3.306,3.306v5.395a3.309,3.309,0,0,0,3.306,3.306h5.395a3.309,3.309,0,0,0,3.306-3.306v-5.395A3.309,3.309,0,0,0,425.756,291.068Zm.147,8.7a.147.147,0,0,1-.147.147h-5.395a.148.148,0,0,1-.147-.147c.065-5.338-.137-5.542.147-5.542h5.395a.147.147,0,0,1,.147.147Z" transform="translate(-329.276 -230.108)"/><path d="M284.063,303.074h5.4a3.309,3.309,0,0,0,3.306-3.306v-5.395a3.309,3.309,0,0,0-3.306-3.306h-5.4a3.31,3.31,0,0,0-3.306,3.306v5.395A3.31,3.31,0,0,0,284.063,303.074Zm-.147-8.7a.148.148,0,0,1,.147-.147h5.4a.148.148,0,0,1,.147.147v5.395a.148.148,0,0,1-.147.147h-5.4a.148.148,0,0,1-.147-.147Z" transform="translate(-221.523 -230.109)"/><path d="M291.912,423.6a3.3,3.3,0,0,0-2.474-1.114h-5.4a3.3,3.3,0,0,0-2.472,1.114c-1.147,1.287-.758,2.689-.834,3.369v4.218a3.31,3.31,0,0,0,3.306,3.306h5.4a3.309,3.309,0,0,0,3.306-3.306v-4.218C292.668,426.309,293.053,424.891,291.912,423.6Zm-2.474,7.734c-5.331-.065-5.544.137-5.544-.147,0-5.713-.063-5.542.147-5.542h5.4c.259,0,.1.36.147,1.324C289.585,426.974,289.722,431.339,289.438,431.339Z" transform="translate(-221.502 -334.007)"/><path d="M424.917,358.428H421.2a4.149,4.149,0,0,0-4.144,4.144v16.754a4.53,4.53,0,0,0,4.523,4.525h2.961a4.528,4.528,0,0,0,4.523-4.525V362.572A4.148,4.148,0,0,0,424.917,358.428Zm.986,20.9a1.366,1.366,0,0,1-1.365,1.367h-2.961a1.367,1.367,0,0,1-1.364-1.367V362.572a.987.987,0,0,1,.985-.985h3.719a.987.987,0,0,1,.985.985v16.754Z" transform="translate(-329.275 -283.361)"/><path d="M169.4,178.124h0c-1.926-.707-3.317-1.218-3.317-3,0-1.626,1.08-2.45,3.209-2.45,2.26,0,2.869,1,3.665,1a1.517,1.517,0,0,0,1.346-1.556c0-1.316-2.146-1.968-4.064-2.14v-1.186a1.5,1.5,0,1,0-2.993,0v1.375a4.894,4.894,0,0,0-4.064,5.119c0,3.676,2.706,4.692,4.881,5.51,2.129.8,3.811,1.432,3.811,3.863,0,2.008-1.115,3.026-3.314,3.026-3.219,0-3.249-2.173-4.476-2.173a1.579,1.579,0,0,0-1.373,1.556c0,1.244,1.853,2.88,4.536,3.3v1.146a1.5,1.5,0,0,0,2.993,0v-1.177c2.886-.543,4.536-2.662,4.536-5.84C174.771,180.1,171.791,179,169.4,178.124Z" transform="translate(-128.197 -132.252)"/><path d="M357.182,422.491h-5.4a3.3,3.3,0,0,0-2.474,1.114c-1.143,1.289-.756,2.689-.832,3.369v4.218a3.309,3.309,0,0,0,3.306,3.306h5.4a3.308,3.308,0,0,0,3.3-3.306v-5.4a3.309,3.309,0,0,0-3.3-3.3Zm0,8.848c-5.331-.065-5.544.137-5.544-.147v-5.4a.148.148,0,0,1,.147-.145h5.4a.146.146,0,0,1,.145.145C357.264,431.139,357.462,431.339,357.182,431.339Z" transform="translate(-275.058 -334.007)"/><path d="M357.2,291.068h-5.4a3.309,3.309,0,0,0-3.306,3.306v5.395a3.309,3.309,0,0,0,3.306,3.306h5.4a3.256,3.256,0,0,0,1.2-.227,3.31,3.31,0,0,0,2.1-3.078v-5.395A3.31,3.31,0,0,0,357.2,291.068Zm.145,8.7a.146.146,0,0,1-.145.147h-5.4a.148.148,0,0,1-.147-.147v-5.395c0-.284.2-.084,5.544-.147a.146.146,0,0,1,.145.147v5.395Z" transform="translate(-275.077 -230.108)"/><path d="M358.4,358.655a3.256,3.256,0,0,0-1.2-.227h-5.4a3.309,3.309,0,0,0-3.306,3.306v5.395a3.309,3.309,0,0,0,3.306,3.306h5.4a3.308,3.308,0,0,0,3.3-3.306v-5.395A3.309,3.309,0,0,0,358.4,358.655Zm-1.057,8.473a.146.146,0,0,1-.145.147h-5.4a.148.148,0,0,1-.147-.147v-5.395a.148.148,0,0,1,.147-.147h5.4a.146.146,0,0,1,.145.147Z" transform="translate(-275.077 -283.361)"/><path d="M321.626,106.2h3.967a1.579,1.579,0,1,0,0-3.158h-3.967a1.579,1.579,0,1,0,0,3.158Z" transform="translate(-252.584 -81.462)"/><path d="M157.749,106.2h28a1.579,1.579,0,1,0,0-3.158h-28a1.579,1.579,0,1,0,0,3.158Z" transform="translate(-123.029 -81.462)"/><path d="M162.769,143.63a1.579,1.579,0,0,0,0-3.158h-5.02a1.579,1.579,0,1,0,0,3.158Z" transform="translate(-123.029 -111.052)"/><path d="M240.409,142.051a1.58,1.58,0,0,0-1.579-1.579H211.878a1.579,1.579,0,0,0,0,3.158H238.83A1.58,1.58,0,0,0,240.409,142.051Z" transform="translate(-165.821 -111.052)"/><path d="M80.8,403.748c0-.4.146-.511.283-.587a2.714,2.714,0,0,1,2.289.155,1.805,1.805,0,0,0,.855.26c1.558,0,2.789-2.894-.931-3.534v-.1a1.6,1.6,0,1,0-3.2,0v.3a3.591,3.591,0,0,0-2.441,3.6c0,2.693,1.957,3.429,3.386,3.965,1.363.512,1.834.736,1.834,1.663,0,.58-.156,1.116-1.289,1.116-1.651,0-1.453-1.3-2.689-1.3a1.65,1.65,0,0,0-1.526,1.636c0,1.094,1.138,2.132,2.724,2.553v.12a1.6,1.6,0,1,0,3.2,0v-.162a3.956,3.956,0,0,0,2.724-4.053C86.018,404.578,80.8,405.3,80.8,403.748Z" transform="translate(-60.731 -314.916)"/></g></g></svg>