<svg xmlns="http://www.w3.org/2000/svg" width="37.253" height="85" viewBox="0 0 37.253 85"><g transform="translate(0 85) rotate(-90)"><g transform="translate(0 0)"><path d="M177.828,71.056c-3.343,0-4.994,2.821-6.319,5.089-1.343,2.294-2.253,3.7-3.964,3.7s-2.62-1.406-3.96-3.7c-1.326-2.268-2.976-5.089-6.318-5.089s-4.994,2.821-6.319,5.089c-1.341,2.294-2.251,3.7-3.961,3.7s-2.618-1.406-3.96-3.7c-1.326-2.268-2.976-5.089-6.318-5.089s-4.992,2.823-6.316,5.09c-1.341,2.293-2.249,3.7-3.958,3.7s-2.617-1.406-3.958-3.7c-1.326-2.269-2.974-5.09-6.316-5.09s-4.991,2.821-6.316,5.09c-1.341,2.293-2.249,3.7-3.958,3.7a1.467,1.467,0,0,0,0,2.929c3.34,0,4.991-2.821,6.316-5.089,1.34-2.294,2.249-3.7,3.958-3.7s2.617,1.406,3.958,3.7c1.326,2.268,2.976,5.089,6.316,5.089s4.991-2.821,6.315-5.089c1.341-2.294,2.249-3.7,3.96-3.7s2.618,1.406,3.96,3.7c1.326,2.268,2.976,5.089,6.318,5.089s4.992-2.821,6.319-5.089c1.34-2.294,2.249-3.7,3.961-3.7s2.618,1.406,3.96,3.7c1.324,2.268,2.976,5.089,6.318,5.089s5-2.821,6.321-5.089c1.343-2.294,2.253-3.7,3.963-3.7s2.621,1.406,3.964,3.7c1.326,2.268,2.978,5.089,6.321,5.089a1.467,1.467,0,0,0,0-2.929c-1.712,0-2.621-1.406-3.964-3.7C182.823,73.877,181.173,71.056,177.828,71.056Z" transform="translate(-104.499 -45.522)" fill="#78b62e"/><path d="M177.828,78.718c-3.343,0-4.994,2.823-6.319,5.089-1.343,2.3-2.253,3.7-3.964,3.7s-2.62-1.406-3.96-3.7c-1.326-2.268-2.976-5.09-6.318-5.09s-4.994,2.823-6.319,5.09c-1.341,2.294-2.251,3.7-3.961,3.7s-2.618-1.406-3.96-3.7c-1.326-2.268-2.976-5.09-6.318-5.09s-4.992,2.824-6.316,5.09c-1.341,2.294-2.249,3.7-3.958,3.7s-2.617-1.406-3.958-3.7c-1.326-2.268-2.974-5.09-6.316-5.09s-4.991,2.823-6.316,5.09c-1.341,2.294-2.249,3.7-3.958,3.7a1.467,1.467,0,0,0,0,2.929c3.34,0,4.991-2.823,6.316-5.09,1.34-2.293,2.249-3.7,3.958-3.7s2.617,1.406,3.958,3.7c1.326,2.268,2.976,5.09,6.316,5.09s4.991-2.823,6.315-5.09c1.341-2.293,2.249-3.7,3.96-3.7s2.618,1.406,3.96,3.7c1.326,2.268,2.976,5.09,6.318,5.09s4.992-2.823,6.319-5.09c1.34-2.293,2.249-3.7,3.961-3.7s2.618,1.406,3.96,3.7c1.324,2.268,2.976,5.09,6.318,5.09s5-2.823,6.321-5.09c1.343-2.293,2.253-3.7,3.963-3.7s2.621,1.406,3.964,3.7c1.326,2.268,2.978,5.09,6.321,5.09a1.467,1.467,0,0,0,0-2.929c-1.712,0-2.621-1.406-3.964-3.7C182.823,81.541,181.173,78.718,177.828,78.718Z" transform="translate(-104.499 -65.953)" fill="#78b62e"/><path d="M177.828,86.38c-3.343,0-4.994,2.821-6.319,5.089-1.343,2.294-2.253,3.7-3.964,3.7s-2.62-1.406-3.96-3.7c-1.326-2.268-2.976-5.089-6.318-5.089s-4.994,2.821-6.319,5.089c-1.341,2.294-2.251,3.7-3.961,3.7s-2.618-1.406-3.96-3.7c-1.326-2.268-2.976-5.089-6.318-5.089s-4.992,2.821-6.316,5.089c-1.341,2.294-2.249,3.7-3.958,3.7s-2.617-1.406-3.958-3.7c-1.326-2.268-2.974-5.089-6.316-5.089s-4.991,2.821-6.316,5.089c-1.341,2.294-2.249,3.7-3.958,3.7a1.467,1.467,0,0,0,0,2.929c3.34,0,4.991-2.823,6.316-5.09,1.34-2.293,2.249-3.7,3.958-3.7s2.617,1.406,3.958,3.7c1.326,2.268,2.976,5.09,6.316,5.09s4.991-2.823,6.315-5.089c1.341-2.294,2.249-3.7,3.96-3.7s2.618,1.406,3.96,3.7c1.326,2.266,2.976,5.089,6.318,5.089s4.992-2.823,6.319-5.089c1.34-2.294,2.249-3.7,3.961-3.7s2.618,1.406,3.96,3.7c1.324,2.266,2.976,5.089,6.318,5.089s5-2.823,6.321-5.089c1.343-2.294,2.253-3.7,3.963-3.7s2.621,1.406,3.964,3.7c1.326,2.266,2.978,5.089,6.321,5.089a1.467,1.467,0,0,0,0-2.929c-1.712,0-2.621-1.406-3.964-3.7C182.823,89.2,181.173,86.38,177.828,86.38Z" transform="translate(-104.499 -86.38)" fill="#78b62e"/></g></g></svg>