<svg xmlns="http://www.w3.org/2000/svg" width="130" height="130" viewBox="0 0 130 130"><g transform="translate(-407 -3981)"><circle cx="65" cy="65" r="65" transform="translate(407 3981)" fill="#efefef"/><g transform="translate(420.299 3974.638)"><g transform="translate(62.294 81.617)"><path d="M338.623,332.2l-4.753,4.753a3.029,3.029,0,0,1-4.284,0l-21.137-21.137,9.037-9.037,21.137,21.137A3.029,3.029,0,0,1,338.623,332.2Z" transform="translate(-308.449 -306.778)" fill="#ffb500"/></g><g transform="translate(67.574 81.617)"><path d="M359.489,327.914l-21.136-21.136-3.757,3.757,17.573,17.573a2.758,2.758,0,0,1,0,3.9l-3.331,3.331,1.614,1.614a3.03,3.03,0,0,0,4.286,0l4.752-4.752A3.03,3.03,0,0,0,359.489,327.914Z" transform="translate(-334.596 -306.778)" fill="#f5db9a"/></g><g transform="translate(22.819 42.142)"><circle cx="29.359" cy="29.359" r="29.359" transform="translate(0 0)" fill="#78b62e"/></g><g transform="translate(26.404 45.727)"><path d="M177.274,134.081a29.367,29.367,0,0,0-6.689-5.014,29.367,29.367,0,0,1-39.845,39.845,29.362,29.362,0,1,0,46.535-34.831Z" transform="translate(-130.739 -129.067)" fill="#bada95"/></g><g transform="translate(32.13 60.247)"><path d="M198.221,209.985a3.275,3.275,0,0,1,0,4.748c-3.519,3.341-10.73,9.025-19.053,9.025s-15.535-5.684-19.053-9.025a3.275,3.275,0,0,1,0-4.748c3.519-3.341,10.73-9.025,19.053-9.025S194.7,206.644,198.221,209.985Z" transform="translate(-159.095 -200.96)" fill="#fceed9"/></g><g transform="translate(32.213 65.726)"><path d="M198.546,231.635a42.038,42.038,0,0,0-4.265-3.546,3.269,3.269,0,0,1-.937,3.093c-3.519,3.341-10.73,9.025-19.053,9.025-5.741,0-10.953-2.7-14.789-5.479a3.252,3.252,0,0,0,.937,1.655c3.519,3.341,10.73,9.025,19.053,9.025s15.535-5.685,19.053-9.025A3.275,3.275,0,0,0,198.546,231.635Z" transform="translate(-159.502 -228.089)" fill="#fad59a"/></g><g transform="translate(46.283 65.726)"><circle cx="5.92" cy="5.92" r="5.92" fill="#7c8b96"/></g><g transform="translate(46.611 66.054)"><path d="M238.33,229.714a5.92,5.92,0,0,1-7.536,7.536,5.92,5.92,0,1,0,7.536-7.536Z" transform="translate(-230.794 -229.714)" fill="#465961"/></g><g transform="translate(0 24.637)"><path d="M172.74,159.946a1.515,1.515,0,1,0-2.143,2.143l4.978,4.978a1.567,1.567,0,0,1,0,2.143l-4.752,4.752a1.517,1.517,0,0,1-2.143,0l-14.216-14.216a30.756,30.756,0,0,0,6.9-6.891l4.4,4.4a1.515,1.515,0,0,0,2.143-2.143l-4.849-4.849a30.876,30.876,0,1,0-49.181,5.642,1.515,1.515,0,1,0,2.206-2.078,27.844,27.844,0,1,1,39.969.609,28.02,28.02,0,0,1-34.581,3.846,1.515,1.515,0,0,0-1.623,2.559,30.867,30.867,0,0,0,32.025.6l14.67,14.67a4.551,4.551,0,0,0,6.428,0l4.752-4.752a4.551,4.551,0,0,0,0-6.428Z" transform="translate(-84.18 -87.879)"/><path d="M183.325,197.558a1.515,1.515,0,0,0-.777-2,23.276,23.276,0,0,0-9.369-2.1c-8.832,0-16.382,5.915-20.1,9.441a4.791,4.791,0,0,0,0,6.946c3.714,3.526,11.264,9.441,20.1,9.441s16.382-5.915,20.1-9.441a4.791,4.791,0,0,0,0-6.946,43.472,43.472,0,0,0-4.176-3.5,1.515,1.515,0,0,0-1.794,2.442,40.445,40.445,0,0,1,3.883,3.253,1.76,1.76,0,0,1,0,2.55c-3.387,3.215-10.23,8.609-18.01,8.609s-14.624-5.393-18.01-8.609a1.76,1.76,0,0,1,0-2.55c3.387-3.215,10.23-8.609,18.01-8.609a20.272,20.272,0,0,1,8.149,1.846,1.515,1.515,0,0,0,2-.777Z" transform="translate(-120.977 -159.363)"/><path d="M221.667,228.021a7.435,7.435,0,1,0,7.435-7.435,7.444,7.444,0,0,0-7.435,7.435Zm11.841,0a4.4,4.4,0,1,1-4.405-4.405A4.41,4.41,0,0,1,233.508,228.021Z" transform="translate(-176.9 -181.013)"/><path d="M382.248,53.977a1.511,1.511,0,0,0,1.071-.444l6.611-6.611,2.854,2.854a2.263,2.263,0,0,0,3.2,0L404,41.759v2.034a1.515,1.515,0,0,0,3.03,0V38.179a1.515,1.515,0,0,0-1.515-1.515H399.9a1.515,1.515,0,0,0,0,3.03h1.877l-7.394,7.394-2.854-2.854a2.262,2.262,0,0,0-3.2,0l-7.156,7.156a1.515,1.515,0,0,0,1.072,2.587Z" transform="translate(-303.841 -34.235)"/><path d="M8.742,40.242a7.8,7.8,0,1,0-7.8-7.8A7.811,7.811,0,0,0,8.742,40.242Zm0-12.574A4.772,4.772,0,1,1,3.97,32.439a4.777,4.777,0,0,1,4.772-4.772Z" transform="translate(-0.75 -24.637)"/><path d="M9.889,127.624a7.8,7.8,0,1,0,7.8,7.8,7.811,7.811,0,0,0-7.8-7.8Zm0,12.574a4.772,4.772,0,1,1,4.772-4.772A4.777,4.777,0,0,1,9.889,140.2Z" transform="translate(-1.666 -106.825)"/><path d="M9.889,229.406a7.8,7.8,0,1,0,7.8,7.8,7.811,7.811,0,0,0-7.8-7.8Zm0,12.574a4.772,4.772,0,1,1,4.772-4.772A4.777,4.777,0,0,1,9.889,241.98Z" transform="translate(-1.666 -188.051)"/><path d="M102.7,39.641h13.409a1.515,1.515,0,1,0,0-3.03H102.7a1.515,1.515,0,1,0,0,3.03Z" transform="translate(-80.752 -34.193)"/><path d="M102.7,71.612h6.7a1.515,1.515,0,0,0,0-3.03h-6.7a1.515,1.515,0,0,0,0,3.03Z" transform="translate(-80.752 -59.707)"/><path d="M469.274,142.775h-7.4a1.515,1.515,0,0,0,0,3.03h7.4a1.515,1.515,0,0,0,0-3.03Z" transform="translate(-367.387 -118.916)"/><circle cx="1.683" cy="1.683" r="1.683" transform="translate(87.187 23.73)"/><path d="M469.274,173.356h-7.4a1.515,1.515,0,0,0,0,3.03h7.4a1.515,1.515,0,0,0,0-3.03Z" transform="translate(-367.387 -143.321)"/><circle cx="1.683" cy="1.683" r="1.683" transform="translate(87.187 29.906)"/><path d="M270.963,440.751h-7.4a1.515,1.515,0,0,0,0,3.03h7.4a1.515,1.515,0,0,0,0-3.03Z" transform="translate(-209.126 -356.714)"/><path d="M235.08,440.115a1.683,1.683,0,1,0,1.683,1.683A1.683,1.683,0,0,0,235.08,440.115Z" transform="translate(-186.261 -356.206)"/><path d="M270.963,471.333h-7.4a1.515,1.515,0,0,0,0,3.03h7.4a1.515,1.515,0,1,0,0-3.03Z" transform="translate(-209.126 -381.119)"/><circle cx="1.683" cy="1.683" r="1.683" transform="translate(47.136 90.085)"/><path d="M469.274,204h-7.4a1.515,1.515,0,0,0,0,3.03h7.4a1.515,1.515,0,0,0,0-3.03Z" transform="translate(-367.387 -167.777)"/><path d="M469.274,234.583h-7.4a1.515,1.515,0,0,0,0,3.03h7.4a1.515,1.515,0,0,0,0-3.03Z" transform="translate(-367.387 -192.183)"/><circle cx="1.683" cy="1.683" r="1.683" transform="translate(87.187 42.272)"/><path d="M469.274,265.165h-7.4a1.515,1.515,0,0,0,0,3.03h7.4a1.515,1.515,0,0,0,0-3.03Z" transform="translate(-367.387 -216.589)"/><path d="M469.274,295.746h-7.4a1.515,1.515,0,0,0,0,3.03h7.4a1.515,1.515,0,0,0,0-3.03Z" transform="translate(-367.387 -240.994)"/><path d="M433.391,295.11a1.683,1.683,0,1,0,1.683,1.683A1.683,1.683,0,0,0,433.391,295.11Z" transform="translate(-344.521 -240.486)"/><path d="M40.89,406.544H35.221v-8.663a2.326,2.326,0,0,0-2.323-2.323H27.4a2.326,2.326,0,0,0-2.323,2.323v8.663h-2.16V392.457a2.326,2.326,0,0,0-2.323-2.323H15.1a2.326,2.326,0,0,0-2.323,2.323v14.087H10.911v-4.788a2.326,2.326,0,0,0-2.323-2.323h-5.5a2.326,2.326,0,0,0-2.323,2.323v4.986a1.515,1.515,0,0,0,.746,2.833H40.89a1.515,1.515,0,0,0,0-3.03Zm-12.781-7.956H32.19v7.956H28.109Zm-12.3-5.424h4.081v13.379H15.807ZM3.8,402.462H7.881v4.081H3.8Z" transform="translate(0 -316.319)"/></g></g></g></svg>