<svg xmlns="http://www.w3.org/2000/svg" width="330" height="237" viewBox="0 0 330 237"><g transform="translate(-635 -2884)"><rect width="330" height="237" transform="translate(635 2884)" fill="#f5db9a"/><path d="M1.27,21V6.781H6.25a6.54,6.54,0,0,1,3.926.991,3.389,3.389,0,0,1,1.338,2.905,3.212,3.212,0,0,1-.537,1.841,3.1,3.1,0,0,1-1.494,1.167,3,3,0,0,1,1.724,1.1,3.262,3.262,0,0,1,.63,2.031,3.752,3.752,0,0,1-1.309,3.105A5.891,5.891,0,0,1,6.8,21ZM4.2,14.809v3.838h2.51a2.422,2.422,0,0,0,1.616-.493,1.691,1.691,0,0,0,.581-1.362,1.786,1.786,0,0,0-2.021-1.982Zm0-2.07H6.367q2.217-.039,2.217-1.768a1.633,1.633,0,0,0-.562-1.392A2.953,2.953,0,0,0,6.25,9.154H4.2Zm15.977,7.188a3.539,3.539,0,0,1-2.891,1.27,3.338,3.338,0,0,1-2.593-.977,4.169,4.169,0,0,1-.913-2.861V10.434H16.6V17.26q0,1.65,1.5,1.65a2.038,2.038,0,0,0,1.973-1v-7.48H22.91V21H20.254ZM29.9,21.2a5.187,5.187,0,0,1-3.784-1.426,5.068,5.068,0,0,1-1.46-3.8V15.7a6.383,6.383,0,0,1,.615-2.847,4.515,4.515,0,0,1,1.743-1.934,4.893,4.893,0,0,1,2.573-.679A4.385,4.385,0,0,1,33,11.605a5.555,5.555,0,0,1,1.245,3.877v1.152H27.52a2.622,2.622,0,0,0,.825,1.66,2.5,2.5,0,0,0,1.743.625,3.046,3.046,0,0,0,2.549-1.182l1.387,1.553a4.237,4.237,0,0,1-1.719,1.4A5.639,5.639,0,0,1,29.9,21.2Zm-.322-8.672a1.767,1.767,0,0,0-1.362.566,2.926,2.926,0,0,0-.669,1.621h3.926v-.225a2.086,2.086,0,0,0-.508-1.45A1.824,1.824,0,0,0,29.58,12.523Zm8.867-2.09.088,1.221a3.689,3.689,0,0,1,3.037-1.416,3.066,3.066,0,0,1,2.5.986,4.6,4.6,0,0,1,.84,2.949V21H42.09V14.242a1.831,1.831,0,0,0-.391-1.3,1.749,1.749,0,0,0-1.3-.405,1.942,1.942,0,0,0-1.787,1.016V21H35.791V10.434ZM53.174,21a3.134,3.134,0,0,1-.283-.947A3.415,3.415,0,0,1,50.225,21.2a3.752,3.752,0,0,1-2.573-.9,2.89,2.89,0,0,1-1.021-2.266,2.986,2.986,0,0,1,1.245-2.578,6.144,6.144,0,0,1,3.6-.908h1.3v-.605a1.741,1.741,0,0,0-.376-1.172,1.479,1.479,0,0,0-1.187-.439,1.682,1.682,0,0,0-1.118.342,1.161,1.161,0,0,0-.405.938H46.865a2.835,2.835,0,0,1,.566-1.7,3.744,3.744,0,0,1,1.6-1.226,5.837,5.837,0,0,1,2.324-.444,4.611,4.611,0,0,1,3.1.981,3.433,3.433,0,0,1,1.147,2.759v4.58a5.052,5.052,0,0,0,.42,2.275V21ZM50.84,19.037a2.431,2.431,0,0,0,1.152-.278,1.828,1.828,0,0,0,.781-.747V16.2H51.719q-2.119,0-2.256,1.465l-.01.166a1.13,1.13,0,0,0,.371.869A1.441,1.441,0,0,0,50.84,19.037ZM65.732,21H62.9V10.434h2.832Zm-3-13.3a1.39,1.39,0,0,1,.425-1.045,1.831,1.831,0,0,1,2.31,0A1.382,1.382,0,0,1,65.9,7.7a1.386,1.386,0,0,1-.435,1.055,1.81,1.81,0,0,1-2.295,0A1.386,1.386,0,0,1,62.734,7.7ZM70.7,10.434l.088,1.182a3.713,3.713,0,0,1,3.037-1.377,2.818,2.818,0,0,1,2.8,1.611A3.628,3.628,0,0,1,79.8,10.238a3.152,3.152,0,0,1,2.559,1,4.6,4.6,0,0,1,.84,3.013V21H80.371V14.262a2.012,2.012,0,0,0-.352-1.313,1.558,1.558,0,0,0-1.24-.415,1.762,1.762,0,0,0-1.758,1.211L77.031,21H74.209V14.271a1.988,1.988,0,0,0-.361-1.328,1.573,1.573,0,0,0-1.23-.41,1.829,1.829,0,0,0-1.738,1V21H68.057V10.434ZM91.494,21a3.134,3.134,0,0,1-.283-.947A3.415,3.415,0,0,1,88.545,21.2a3.752,3.752,0,0,1-2.573-.9,2.89,2.89,0,0,1-1.021-2.266A2.986,2.986,0,0,1,86.2,15.453a6.144,6.144,0,0,1,3.6-.908h1.3v-.605a1.741,1.741,0,0,0-.376-1.172,1.479,1.479,0,0,0-1.187-.439,1.682,1.682,0,0,0-1.118.342,1.161,1.161,0,0,0-.405.938H85.186a2.835,2.835,0,0,1,.566-1.7,3.744,3.744,0,0,1,1.6-1.226,5.837,5.837,0,0,1,2.324-.444,4.611,4.611,0,0,1,3.1.981,3.433,3.433,0,0,1,1.147,2.759v4.58a5.052,5.052,0,0,0,.42,2.275V21ZM89.16,19.037a2.431,2.431,0,0,0,1.152-.278,1.828,1.828,0,0,0,.781-.747V16.2H90.039q-2.119,0-2.256,1.465l-.01.166a1.13,1.13,0,0,0,.371.869A1.441,1.441,0,0,0,89.16,19.037Zm6.523-3.4a6.193,6.193,0,0,1,1.157-3.916,3.75,3.75,0,0,1,3.12-1.484,3.289,3.289,0,0,1,2.705,1.191l.117-1h2.559V20.648a4.516,4.516,0,0,1-.63,2.412,4.045,4.045,0,0,1-1.772,1.563,6.231,6.231,0,0,1-2.676.537A5.794,5.794,0,0,1,98,24.7a4.021,4.021,0,0,1-1.67-1.2l1.25-1.719a3.306,3.306,0,0,0,2.559,1.182,2.42,2.42,0,0,0,1.748-.6,2.253,2.253,0,0,0,.625-1.7v-.566a3.264,3.264,0,0,1-2.568,1.1,3.74,3.74,0,0,1-3.081-1.489,6.191,6.191,0,0,1-1.177-3.95Zm2.822.205a3.845,3.845,0,0,0,.576,2.251,1.834,1.834,0,0,0,1.582.815,1.961,1.961,0,0,0,1.846-.967V13.5a1.956,1.956,0,0,0-1.826-.967,1.845,1.845,0,0,0-1.6.83A4.334,4.334,0,0,0,98.506,15.844ZM112.373,21.2a5.187,5.187,0,0,1-3.784-1.426,5.068,5.068,0,0,1-1.46-3.8V15.7a6.383,6.383,0,0,1,.615-2.847,4.515,4.515,0,0,1,1.743-1.934,4.893,4.893,0,0,1,2.573-.679,4.385,4.385,0,0,1,3.413,1.367,5.555,5.555,0,0,1,1.245,3.877v1.152H109.99a2.622,2.622,0,0,0,.825,1.66,2.5,2.5,0,0,0,1.743.625,3.046,3.046,0,0,0,2.549-1.182l1.387,1.553a4.237,4.237,0,0,1-1.719,1.4A5.639,5.639,0,0,1,112.373,21.2Zm-.322-8.672a1.767,1.767,0,0,0-1.362.566,2.926,2.926,0,0,0-.669,1.621h3.926v-.225a2.086,2.086,0,0,0-.508-1.45A1.824,1.824,0,0,0,112.051,12.523Zm8.867-2.09.088,1.221a3.689,3.689,0,0,1,3.037-1.416,3.066,3.066,0,0,1,2.5.986,4.6,4.6,0,0,1,.84,2.949V21h-2.822V14.242a1.831,1.831,0,0,0-.391-1.3,1.749,1.749,0,0,0-1.3-.405,1.942,1.942,0,0,0-1.787,1.016V21h-2.822V10.434Zm13.145,5.205a6.368,6.368,0,0,1,1.108-3.936,3.6,3.6,0,0,1,3.032-1.465,3.236,3.236,0,0,1,2.549,1.152V6h2.832V21h-2.549l-.137-1.123a3.321,3.321,0,0,1-2.715,1.318,3.587,3.587,0,0,1-2.993-1.47A6.573,6.573,0,0,1,134.063,15.639Zm2.822.205a4.16,4.16,0,0,0,.518,2.275,1.687,1.687,0,0,0,1.5.791,1.889,1.889,0,0,0,1.846-1.1v-4.17a1.862,1.862,0,0,0-1.826-1.1Q136.885,12.533,136.885,15.844Zm13.75,5.352a5.187,5.187,0,0,1-3.784-1.426,5.068,5.068,0,0,1-1.46-3.8V15.7a6.383,6.383,0,0,1,.615-2.847,4.515,4.515,0,0,1,1.743-1.934,4.893,4.893,0,0,1,2.573-.679,4.385,4.385,0,0,1,3.413,1.367,5.555,5.555,0,0,1,1.245,3.877v1.152h-6.729a2.622,2.622,0,0,0,.825,1.66,2.5,2.5,0,0,0,1.743.625,3.046,3.046,0,0,0,2.549-1.182l1.387,1.553a4.237,4.237,0,0,1-1.719,1.4A5.639,5.639,0,0,1,150.635,21.2Zm-.322-8.672a1.767,1.767,0,0,0-1.362.566,2.926,2.926,0,0,0-.669,1.621h3.926v-.225a2.086,2.086,0,0,0-.508-1.45A1.824,1.824,0,0,0,150.313,12.523ZM159.561,21h-2.832V6h2.832ZM4.2,40.99V46H1.27V31.781H6.816a6.417,6.417,0,0,1,2.817.586,4.318,4.318,0,0,1,1.87,1.665,4.643,4.643,0,0,1,.654,2.456,4.083,4.083,0,0,1-1.431,3.3,5.959,5.959,0,0,1-3.96,1.206Zm0-2.373H6.816a2.573,2.573,0,0,0,1.772-.547,1.989,1.989,0,0,0,.61-1.562,2.345,2.345,0,0,0-.615-1.689,2.3,2.3,0,0,0-1.7-.664H4.2Zm15.723-.537A7.667,7.667,0,0,0,18.906,38a2.067,2.067,0,0,0-2.1,1.084V46H13.984V35.434H16.65l.078,1.26a2.615,2.615,0,0,1,2.354-1.455,2.957,2.957,0,0,1,.879.127Zm.566,2.539a6.266,6.266,0,0,1,.605-2.8,4.432,4.432,0,0,1,1.743-1.9,5.086,5.086,0,0,1,2.642-.674,4.812,4.812,0,0,1,3.491,1.309A5.252,5.252,0,0,1,30.479,40.1l.02.723a5.523,5.523,0,0,1-1.357,3.9A4.718,4.718,0,0,1,25.5,46.2a4.742,4.742,0,0,1-3.647-1.465,5.62,5.62,0,0,1-1.362-3.984Zm2.822.205a3.939,3.939,0,0,0,.566,2.3,2.037,2.037,0,0,0,3.223.01,4.31,4.31,0,0,0,.576-2.515,3.9,3.9,0,0,0-.576-2.285,1.874,1.874,0,0,0-1.621-.811,1.843,1.843,0,0,0-1.6.806A4.383,4.383,0,0,0,23.311,40.824Zm8.486-.186A6.368,6.368,0,0,1,32.905,36.7a3.6,3.6,0,0,1,3.032-1.465,3.236,3.236,0,0,1,2.549,1.152V31h2.832V46H38.77l-.137-1.123A3.321,3.321,0,0,1,35.918,46.2a3.587,3.587,0,0,1-2.993-1.47A6.573,6.573,0,0,1,31.8,40.639Zm2.822.205a4.16,4.16,0,0,0,.518,2.275,1.687,1.687,0,0,0,1.5.791,1.889,1.889,0,0,0,1.846-1.1v-4.17a1.862,1.862,0,0,0-1.826-1.1Q34.619,37.533,34.619,40.844Zm15.215,4.082a3.539,3.539,0,0,1-2.891,1.27,3.338,3.338,0,0,1-2.593-.977,4.169,4.169,0,0,1-.913-2.861V35.434H46.26V42.26q0,1.65,1.5,1.65a2.038,2.038,0,0,0,1.973-1v-7.48h2.832V46H49.912Zm9.258-1.006a1.851,1.851,0,0,0,1.27-.43,1.506,1.506,0,0,0,.508-1.143h2.646a3.62,3.62,0,0,1-.586,1.968A3.866,3.866,0,0,1,61.353,45.7a4.936,4.936,0,0,1-2.212.493,4.587,4.587,0,0,1-3.574-1.44,5.7,5.7,0,0,1-1.309-3.979V40.59a5.635,5.635,0,0,1,1.3-3.9,4.534,4.534,0,0,1,3.564-1.455A4.444,4.444,0,0,1,62.3,36.366a3.994,3.994,0,0,1,1.216,3H60.869a1.923,1.923,0,0,0-.508-1.333,1.892,1.892,0,0,0-2.778.205,4.155,4.155,0,0,0-.5,2.329v.293a4.207,4.207,0,0,0,.5,2.344A1.722,1.722,0,0,0,59.092,43.92Zm9.414-11.084v2.6h1.807V37.5H68.506v5.273a1.259,1.259,0,0,0,.225.84,1.128,1.128,0,0,0,.859.254,4.5,4.5,0,0,0,.83-.068v2.139a5.81,5.81,0,0,1-1.709.254q-2.969,0-3.027-3V37.5H64.141v-2.07h1.543v-2.6Zm2.646,7.783a6.266,6.266,0,0,1,.605-2.8,4.432,4.432,0,0,1,1.743-1.9,5.086,5.086,0,0,1,2.642-.674,4.812,4.812,0,0,1,3.491,1.309A5.252,5.252,0,0,1,81.143,40.1l.02.723a5.523,5.523,0,0,1-1.357,3.9,5.261,5.261,0,0,1-7.29,0,5.62,5.62,0,0,1-1.362-3.984Zm2.822.205a3.939,3.939,0,0,0,.566,2.3,2.037,2.037,0,0,0,3.223.01,4.31,4.31,0,0,0,.576-2.515,3.9,3.9,0,0,0-.576-2.285,1.874,1.874,0,0,0-1.621-.811,1.843,1.843,0,0,0-1.6.806A4.383,4.383,0,0,0,73.975,40.824Z" transform="translate(693 3048)" fill="#12263f"/><g transform="translate(696.688 2938.754)"><path d="M62.1,83.479H4.055A3.064,3.064,0,0,1,1,80.424V4.055A3.064,3.064,0,0,1,4.055,1H50.777a1.5,1.5,0,0,1,1.069.443l9.806,9.806a1.5,1.5,0,0,1,.443,1.069Z" transform="translate(0.527 0.527)" fill="#e4f1ff"/><rect width="27.493" height="6.11" rx="2" transform="translate(18.329 12.219)" fill="#3c6d9d"/><path d="M38.525,47.8,33.683,58.906A1.97,1.97,0,0,0,35.5,61.64h4.078a1.317,1.317,0,0,1,.932.382l2.306,2.308a1.995,1.995,0,0,0,3.223-.6l5.01-11.046,5.01,11.045a1.995,1.995,0,0,0,3.223.6l2.306-2.308a1.317,1.317,0,0,1,.932-.382H66.6A1.97,1.97,0,0,0,68.416,58.9L63.574,47.815Z" transform="translate(17.683 25.209)" fill="#78b62e"/><path d="M73.084,46.852v.011a4.888,4.888,0,0,0-.625,3.146,4.9,4.9,0,0,1-1.9,4.582,4.888,4.888,0,0,0-1.787,2.671,4.9,4.9,0,0,1-3.5,3.5A4.888,4.888,0,0,0,62.6,62.55a4.888,4.888,0,0,1-4.582,1.9,4.9,4.9,0,0,0-3.148.625h-.009a4.9,4.9,0,0,1-4.949,0H49.9a4.888,4.888,0,0,0-3.146-.625,4.9,4.9,0,0,1-4.582-1.9A4.888,4.888,0,0,0,39.5,60.763a4.9,4.9,0,0,1-3.5-3.5,4.888,4.888,0,0,0-1.787-2.67,4.888,4.888,0,0,1-1.9-4.582,4.9,4.9,0,0,0-.625-3.148v-.009a4.9,4.9,0,0,1,0-4.949v-.011a4.888,4.888,0,0,0,.625-3.146,4.9,4.9,0,0,1,1.9-4.582A4.888,4.888,0,0,0,36,31.492a4.9,4.9,0,0,1,3.5-3.5,4.888,4.888,0,0,0,2.67-1.787,4.888,4.888,0,0,1,4.582-1.9,4.9,4.9,0,0,0,3.148-.625h.009a4.9,4.9,0,0,1,4.949,0h.011a4.888,4.888,0,0,0,3.146.625A4.9,4.9,0,0,1,62.6,26.2a4.888,4.888,0,0,0,2.671,1.787,4.9,4.9,0,0,1,3.5,3.5,4.888,4.888,0,0,0,1.787,2.67,4.888,4.888,0,0,1,1.9,4.582,4.9,4.9,0,0,0,.625,3.148V41.9a4.9,4.9,0,0,1,0,4.949Z" transform="translate(16.361 12.136)" fill="#fcef91"/><circle cx="13.746" cy="13.746" r="13.746" transform="translate(54.986 42.767)" fill="#78b62e"/><path d="M44.554,11.644h-7.5A3.064,3.064,0,0,1,34,8.589V1.09a1.647,1.647,0,0,1,.443.305L44.249,11.2a1.646,1.646,0,0,1,.305.443Z" transform="translate(17.931 0.575)" fill="#a3bdce"/><g transform="translate(0 0)"><path d="M36.966,16.164a4.582,4.582,0,1,0,0-9.164H15.582a4.582,4.582,0,0,0,0,9.164ZM14.055,11.582a1.527,1.527,0,0,1,1.527-1.527H36.966a1.527,1.527,0,1,1,0,3.055H15.582A1.527,1.527,0,0,1,14.055,11.582Z" transform="translate(5.801 3.692)" fill="#373737"/><path d="M90.328,51.089a6.429,6.429,0,0,0-2.491-6.012,3.36,3.36,0,0,1-1.231-1.844,6.432,6.432,0,0,0-4.6-4.591,3.388,3.388,0,0,1-1.833-1.231,6.4,6.4,0,0,0-6.015-2.491,3.408,3.408,0,0,1-2.175-.435,6.441,6.441,0,0,0-6.5,0,3.36,3.36,0,0,1-1.329.429V12.845a3.02,3.02,0,0,0-.9-2.154l-9.8-9.8A3.02,3.02,0,0,0,51.3,0H4.582A4.582,4.582,0,0,0,0,4.582V80.951a4.582,4.582,0,0,0,4.582,4.582H45.822a1.527,1.527,0,1,0,0-3.055H4.582a1.527,1.527,0,0,1-1.527-1.527V4.582A1.527,1.527,0,0,1,4.582,3.055H50.4v6.11a4.582,4.582,0,0,0,4.582,4.582H61.1V35.009a6.426,6.426,0,0,0-3.8,2.4,3.36,3.36,0,0,1-1.844,1.231,6.432,6.432,0,0,0-4.591,4.6,3.388,3.388,0,0,1-1.231,1.833,6.433,6.433,0,0,0-2.491,6.015,3.383,3.383,0,0,1-.435,2.175,6.433,6.433,0,0,0,0,6.5,3.392,3.392,0,0,1,.429,2.17,6.429,6.429,0,0,0,2.491,6.012,3.36,3.36,0,0,1,1.231,1.844,6.415,6.415,0,0,0,3.305,4.092l-4.2,9.639a3.5,3.5,0,0,0,3.224,4.857h4l2.248,2.251a3.542,3.542,0,0,0,2.48,1.016,3.665,3.665,0,0,0,.655-.061,3.513,3.513,0,0,0,2.551-2.009L68.732,81.6l3.615,7.968A3.513,3.513,0,0,0,74.9,91.582a3.569,3.569,0,0,0,3.143-.964l2.241-2.242h4A3.5,3.5,0,0,0,87.5,83.5l-4.2-9.623a6.415,6.415,0,0,0,3.3-4.095,3.388,3.388,0,0,1,1.231-1.833,6.433,6.433,0,0,0,2.491-6.015,3.456,3.456,0,0,1,.434-2.177,6.433,6.433,0,0,0,0-6.5,3.392,3.392,0,0,1-.431-2.173ZM53.458,9.164V5.213l5.482,5.479H54.986A1.527,1.527,0,0,1,53.458,9.164Zm8.87,79.155a.44.44,0,0,1-.331.26.466.466,0,0,1-.417-.121l-2.3-2.3a2.858,2.858,0,0,0-2.015-.832H53.183a.441.441,0,0,1-.373-.2.411.411,0,0,1-.044-.394L56.919,75.2a3.29,3.29,0,0,1,.377.42,6.4,6.4,0,0,0,6.015,2.491,3.389,3.389,0,0,1,2.175.435,6.5,6.5,0,0,0,1.057.481Zm22.326-3.2a.441.441,0,0,1-.373.2H80.2a2.856,2.856,0,0,0-2.012.829L75.9,88.442a.47.47,0,0,1-.425.13.441.441,0,0,1-.335-.269l-4.213-9.286A6.473,6.473,0,0,0,72,78.53a3.42,3.42,0,0,1,2.17-.429A6.415,6.415,0,0,0,80.18,75.61a3.344,3.344,0,0,1,.374-.417L84.7,84.7A.419.419,0,0,1,84.654,85.12ZM88.13,58.213v.014a6.464,6.464,0,0,0-.817,4.124A3.377,3.377,0,0,1,86.005,65.5a6.459,6.459,0,0,0-2.346,3.513,3.38,3.38,0,0,1-2.413,2.412,6.426,6.426,0,0,0-3.513,2.345,3.414,3.414,0,0,1-3.154,1.306,6.478,6.478,0,0,0-4.144.823,3.36,3.36,0,0,1-3.414,0,6.455,6.455,0,0,0-3.253-.878,6.53,6.53,0,0,0-.878.061,3.4,3.4,0,0,1-3.154-1.307,6.459,6.459,0,0,0-3.513-2.346,3.38,3.38,0,0,1-2.412-2.413,6.426,6.426,0,0,0-2.345-3.513,3.372,3.372,0,0,1-1.306-3.154,6.476,6.476,0,0,0-.823-4.144,3.36,3.36,0,0,1,0-3.414,6.464,6.464,0,0,0,.817-4.124,3.377,3.377,0,0,1,1.307-3.154A6.459,6.459,0,0,0,53.808,44a3.38,3.38,0,0,1,2.413-2.412,6.426,6.426,0,0,0,3.513-2.345,3.411,3.411,0,0,1,3.154-1.306,6.49,6.49,0,0,0,4.144-.823,3.36,3.36,0,0,1,3.414,0,6.453,6.453,0,0,0,4.124.817,3.392,3.392,0,0,1,3.154,1.307,6.459,6.459,0,0,0,3.513,2.346A3.38,3.38,0,0,1,83.649,44a6.426,6.426,0,0,0,2.345,3.513A3.372,3.372,0,0,1,87.3,50.669a6.476,6.476,0,0,0,.823,4.144,3.36,3.36,0,0,1,.008,3.4Z" transform="translate(0 0)" fill="#373737"/><path d="M50.274,27A15.274,15.274,0,1,0,65.548,42.274,15.274,15.274,0,0,0,50.274,27Zm0,27.493A12.219,12.219,0,1,1,62.493,42.274,12.219,12.219,0,0,1,50.274,54.493Z" transform="translate(18.458 14.239)" fill="#373737"/><path d="M6,18.527a1.527,1.527,0,0,0,1.527,1.527H50.294a1.527,1.527,0,1,0,0-3.055H7.527A1.527,1.527,0,0,0,6,18.527Z" transform="translate(3.164 8.966)" fill="#373737"/><path d="M48.767,23.527A1.527,1.527,0,0,0,47.239,22H7.527a1.527,1.527,0,0,0,0,3.055H47.239A1.527,1.527,0,0,0,48.767,23.527Z" transform="translate(3.164 11.602)" fill="#373737"/><path d="M34.746,28.527A1.527,1.527,0,0,0,33.219,27H22.527a1.527,1.527,0,0,0,0,3.055H33.219A1.527,1.527,0,0,0,34.746,28.527Z" transform="translate(11.075 14.239)" fill="#373737"/><path d="M24.329,27H7.527a1.527,1.527,0,0,0,0,3.055h16.8a1.527,1.527,0,0,0,0-3.055Z" transform="translate(3.164 14.239)" fill="#373737"/><path d="M13,33.527a1.527,1.527,0,0,0,1.527,1.527H34.383a1.527,1.527,0,0,0,0-3.055H14.527A1.527,1.527,0,0,0,13,33.527Z" transform="translate(6.856 16.876)" fill="#373737"/><path d="M7.527,35.055H12.11a1.527,1.527,0,1,0,0-3.055H7.527a1.527,1.527,0,1,0,0,3.055Z" transform="translate(3.164 16.876)" fill="#373737"/><path d="M7.527,40.055H38.075a1.527,1.527,0,1,0,0-3.055H7.527a1.527,1.527,0,1,0,0,3.055Z" transform="translate(3.164 19.513)" fill="#373737"/><path d="M41.13,43.527A1.527,1.527,0,0,0,39.6,42H7.527a1.527,1.527,0,1,0,0,3.055H39.6A1.527,1.527,0,0,0,41.13,43.527Z" transform="translate(3.164 22.15)" fill="#373737"/><path d="M7.527,47a1.527,1.527,0,1,0,0,3.055h16.8a1.527,1.527,0,0,0,0-3.055Z" transform="translate(3.164 24.787)" fill="#373737"/><path d="M50.612,34.448,44.055,41l-.448-.448a1.527,1.527,0,1,0-2.16,2.16l1.528,1.527a1.527,1.527,0,0,0,2.16,0l7.637-7.637a1.527,1.527,0,1,0-2.16-2.16Z" transform="translate(21.623 17.931)" fill="#373737"/></g></g></g></svg>