<svg xmlns="http://www.w3.org/2000/svg" width="97" height="97.002" viewBox="0 0 97 97.002"><g transform="translate(-0.5)"><path d="M88.93,89.811a1.9,1.9,0,0,0,1.342-.554l0,0a1.9,1.9,0,1,0-1.346.557Zm0,0" transform="translate(-70.144 -69.72)" fill="#12263f"/><path d="M95.617,36.306a6.453,6.453,0,0,0-7.569-1.138L76.2,23.317a6.441,6.441,0,0,0-10.849-6.872A35.114,35.114,0,1,0,24.413,68.4v8.186a1.9,1.9,0,0,0,1.895,1.895h.3V95.108a1.895,1.895,0,0,0,3.789,0V78.484H40.842V95.108a1.895,1.895,0,0,0,3.789,0V78.484h.3a1.9,1.9,0,0,0,1.895-1.895V68.4A35.129,35.129,0,0,0,69.714,26.7,6.421,6.421,0,0,0,73.52,26L85.368,37.847a6.442,6.442,0,1,0,10.248-1.541ZM43.035,74.694H28.2V69.446a35.189,35.189,0,0,0,14.832,0Zm-7.416-8.247a31.329,31.329,0,1,1,28.807-43.64L59.9,26.487A25.785,25.785,0,0,0,25.026,11.63a1.895,1.895,0,1,0,1.557,3.455,22.09,22.09,0,0,1,24.57,4.5,21.85,21.85,0,0,1,5.591,9.473l-8.631,7.021a6.463,6.463,0,0,0-6.594-.339l-5.185-5.184a6.432,6.432,0,1,0-2.679,2.679l5.184,5.185a6.442,6.442,0,1,0,11.665.6l7.011-5.7c.048.6.074,1.2.074,1.805A21.971,21.971,0,0,1,20.083,50.654a22.07,22.07,0,0,1-4.45-24.677A1.895,1.895,0,0,0,12.186,24.4,25.763,25.763,0,1,0,61.378,35.119a26.007,26.007,0,0,0-.411-4.614l4.8-3.907a31.34,31.34,0,0,1-30.151,39.85Zm7.039-26.893a2.652,2.652,0,1,1,0,3.751A2.646,2.646,0,0,1,42.657,39.555ZM28.766,29.416a2.652,2.652,0,1,1,3.751,0A2.655,2.655,0,0,1,28.766,29.416Zm39.857-7.231a2.652,2.652,0,1,1,3.751,0A2.655,2.655,0,0,1,68.623,22.184ZM92.937,42.737a2.651,2.651,0,1,1,0-3.751A2.655,2.655,0,0,1,92.937,42.737Zm0,0" fill="#12263f"/></g></svg>