<svg xmlns="http://www.w3.org/2000/svg" xmlns:xlink="http://www.w3.org/1999/xlink" width="1328" height="417" viewBox="0 0 1328 417"><defs><clipPath id="a"><rect width="1328" height="301" transform="translate(-9500 -4520)" fill="none" stroke="#707070" stroke-width="1"/></clipPath><linearGradient id="b" x1="0.5" y1="1" x2="0.5" gradientUnits="objectBoundingBox"><stop offset="0" stop-color="#f6f6f6" stop-opacity="0"/><stop offset="1" stop-color="#eae8e8"/></linearGradient><clipPath id="d"><rect width="328.277" height="417" fill="#f3f9ff" stroke="#707070" stroke-width="1"/></clipPath></defs><g transform="translate(-136 -3664.016)"><g transform="translate(9636 8296.018)" clip-path="url(#a)"><g transform="translate(-9500 -4456.341)"><g transform="translate(0)"><path d="M2.235-1559.781s-85.629-13-277.3,94.465-619.908-44.226-717.229-61.456-270.688,3.478-333.475,48.072V-366.4h1328Z" transform="translate(1325.765 1560.275)" opacity="0.531" fill="url(#b)" style="mix-blend-mode:multiply;isolation:isolate"/><path d="M2.235-1560.275s-223.333,178.8-536.471,93.32c-162.832-44.448-330.233-5.086-456.956,0-117.471,4.715-194.5-24.491-334.574-66.612V-388.979h1328Z" transform="translate(1325.765 1583.661)" opacity="0.63" fill="url(#b)" style="mix-blend-mode:multiply;isolation:isolate"/></g></g></g><g transform="translate(1135.723 3664.016)" clip-path="url(#d)"><path d="M11.981,177.943c14.046,27.317,40.2,45.265,69.448,53.747,34.68,10.055,68.051,4.692,102.846-.646,32.082-4.921,67.763-6.292,94.833,14.558,42.016,32.362,46.029,95.059,84.5,131.338a106.5,106.5,0,0,0,71.111,28.693c28.92.318,65.519-12.27,80.31-38.953,14.362-25.912-.193-51.712,4.906-78.238,9.975-51.878,81.616-48.794,116.231-74.546,16.54-12.3,27.67-30.662,35.295-49.814,8.463-21.256,13.072-44.936,7.343-67.087-9.49-36.692-45.132-50.425-79.845-51.744-25.8-.98-51.438,5.659-75.127,15.915-20.95,9.071-40.656,20.972-62.084,28.849-52.916,19.457-105.043-5.372-150.7-32.066C252.443,23.682,191.912-9.354,121.84,2.436,68.295,11.444,12.725,44.382,2.216,101.642c-4.445,24.221-2.384,49.91,7.834,72.316Q10.974,175.982,11.981,177.943Z" transform="translate(56.454 8.132) rotate(8)" fill="#9cb5cd"/></g></g></svg>