<svg xmlns="http://www.w3.org/2000/svg" width="79.355" height="58.27" viewBox="0 0 79.355 58.27"><path d="M64.981,17.137A9.633,9.633,0,1,1,55.348,7.5,9.632,9.632,0,0,1,64.981,17.137Zm0,0" transform="translate(-38.63 -6.341)" fill="#bebfc0"/><path d="M60.3,24.262a9.126,9.126,0,0,1-8.133-13.27A9.633,9.633,0,1,0,64.44,23.267,9.084,9.084,0,0,1,60.3,24.262Zm0,0" transform="translate(-38.63 -9.289)" fill="#a9aaab"/><path d="M90.962,48.953a3.8,3.8,0,1,1-3.8-3.8A3.8,3.8,0,0,1,90.962,48.953Zm0,0" transform="translate(-70.446 -38.158)" fill="#bada95"/><path d="M83.669,60.07a3.8,3.8,0,0,0,4.981,4.981A9.155,9.155,0,0,1,83.669,60.07Zm0,0" transform="translate(-70.446 -50.76)" fill="#41464f"/><path d="M238.528,17.137A9.633,9.633,0,1,1,228.9,7.5,9.633,9.633,0,0,1,238.528,17.137Zm0,0" transform="translate(-185.278 -6.341)" fill="#bebfc0"/><path d="M233.849,24.262a9.126,9.126,0,0,1-8.133-13.27,9.633,9.633,0,1,0,12.276,12.275A9.092,9.092,0,0,1,233.849,24.262Zm0,0" transform="translate(-185.282 -9.289)" fill="#a9aaab"/><path d="M264.512,48.953a3.8,3.8,0,1,1-3.8-3.8A3.8,3.8,0,0,1,264.512,48.953Zm0,0" transform="translate(-217.098 -38.158)" fill="#bada95"/><path d="M257.22,60.07a3.8,3.8,0,0,0,4.981,4.981A9.155,9.155,0,0,1,257.22,60.07Zm0,0" transform="translate(-217.098 -50.76)" fill="#41464f"/><path d="M395.3,156.689l-13.513,5.587v14.488l13.513,5.587a3.984,3.984,0,0,0,5.507-3.682v-18.3A3.985,3.985,0,0,0,395.3,156.689Zm0,0" transform="translate(-322.612 -132.145)" fill="#bada95"/><path d="M386.208,182.609l-4.423,1.829v14.488l9.442,3.9C387.183,197.721,386.371,190.053,386.208,182.609Zm0,0" transform="translate(-322.612 -154.307)" fill="#e9f3dd"/><path d="M458.72,156.689l-1.88.777v24.108l1.88.777a3.985,3.985,0,0,0,5.507-3.682v-18.3A3.985,3.985,0,0,0,458.72,156.689Zm0,0" transform="translate(-386.035 -132.145)" fill="#bebfc0"/><path d="M57.668,153.589a105.689,105.689,0,0,1-42.326,0A9.805,9.805,0,0,1,7.5,143.983V128.471a9.8,9.8,0,0,1,7.842-9.606,105.689,105.689,0,0,1,42.326,0,9.8,9.8,0,0,1,7.842,9.606v15.512A9.805,9.805,0,0,1,57.668,153.589Zm0,0" transform="translate(-6.338 -98.634)" fill="#eeeeed"/><path d="M57.668,154.406a9.781,9.781,0,0,0,4.4-2.151c-27.093.1-32.1-22.07-31.163-34.564a105.649,105.649,0,0,0-15.567,1.991A9.8,9.8,0,0,0,7.5,129.288V144.8a9.805,9.805,0,0,0,7.842,9.606A105.689,105.689,0,0,0,57.668,154.406Zm0,0" transform="translate(-6.338 -99.45)" fill="#dfdfdd"/><path d="M151,196.992v9.185a2.92,2.92,0,0,0,4.225,2.611l8.724-4.363a3.176,3.176,0,0,0,0-5.682l-8.724-4.362A2.92,2.92,0,0,0,151,196.992Zm0,0" transform="translate(-127.593 -163.99)" fill="#f5db9a"/><path d="M155.221,209.432l3.9-1.949a31,31,0,0,1-6.015-12.651,2.913,2.913,0,0,0-2.108,2.8v9.184A2.92,2.92,0,0,0,155.221,209.432Zm0,0" transform="translate(-127.593 -164.635)" fill="#f5db9a"/><path d="M16.718,5.836a4.96,4.96,0,1,0,4.96,4.96A4.965,4.965,0,0,0,16.718,5.836Zm0,7.594A2.635,2.635,0,1,1,19.353,10.8,2.638,2.638,0,0,1,16.718,13.431Zm9.6,32.841a4.077,4.077,0,0,0,1.828-.435l8.725-4.363a4.339,4.339,0,0,0,0-7.762l-8.725-4.362A4.082,4.082,0,0,0,22.24,33v9.184a4.092,4.092,0,0,0,4.079,4.086ZM24.565,33a1.723,1.723,0,0,1,.834-1.494,1.742,1.742,0,0,1,.92-.268,1.76,1.76,0,0,1,.789.191l8.724,4.362a2.014,2.014,0,0,1,0,3.6l-8.724,4.362a1.757,1.757,0,0,1-2.542-1.572V33ZM43.617,5.836a4.96,4.96,0,1,0,4.96,4.96A4.965,4.965,0,0,0,43.617,5.836Zm0,7.594A2.635,2.635,0,1,1,46.252,10.8,2.638,2.638,0,0,1,43.617,13.431ZM78.192,31.16a1.162,1.162,0,0,0-1.162,1.162v14.2a2.821,2.821,0,0,1-3.9,2.608l-1.162-.48V26.1l1.162-.481a2.787,2.787,0,0,1,2.237.034,2.839,2.839,0,0,1,1.515,1.661,1.162,1.162,0,0,0,2.2-.745,5.171,5.171,0,0,0-2.757-3.033,5.086,5.086,0,0,0-4.086-.065l-1.88.777-.013.005-10.1,4.177a11.012,11.012,0,0,0-8.679-9.338c-.283-.058-.566-.113-.849-.168a10.792,10.792,0,1,0-15.92-1.905q-4.626-.2-9.253,0a10.8,10.8,0,1,0-15.92,1.9c-.283.056-.566.11-.849.168A11.006,11.006,0,0,0,0,29.838V45.35A10.9,10.9,0,0,0,4.23,54,1.162,1.162,0,0,0,5.658,52.17a8.591,8.591,0,0,1-3.333-6.82V29.838A8.673,8.673,0,0,1,9.237,21.37q1.8-.369,3.61-.671l.027,0q4.866-.819,9.753-1.176A1.176,1.176,0,0,0,22.9,19.5a103.537,103.537,0,0,1,14.53,0,1.157,1.157,0,0,0,.278.019q4.884.357,9.752,1.176l.027,0q1.806.3,3.61.671a8.673,8.673,0,0,1,6.912,8.468V45.35A8.673,8.673,0,0,1,51.1,53.817a104,104,0,0,1-41.03.166,1.163,1.163,0,0,0-.447,2.282,106.7,106.7,0,0,0,20.552,2,106.685,106.685,0,0,0,21.392-2.175,11.011,11.011,0,0,0,8.726-9.756L70.347,50.5l.015.006,1.88.777a5.147,5.147,0,0,0,7.113-4.756v-14.2A1.162,1.162,0,0,0,78.192,31.16ZM22.239,17.215q-4.7.352-9.374,1.123a8.475,8.475,0,1,1,9.374-1.123Zm25.232,1.123q-4.678-.77-9.374-1.123a8.467,8.467,0,1,1,9.374,1.123ZM69.643,47.691l-9.308-3.849V30.909l9.308-3.849Zm0,0"/></svg>