<svg xmlns="http://www.w3.org/2000/svg" width="111.458" height="111.458" viewBox="0 0 111.458 111.458"><g transform="translate(-1 -1)"><path d="M6,2a7.191,7.191,0,0,1,7.191,7.191v93.481a7.191,7.191,0,0,0,14.382,0V84.695H81.5V9.191A7.191,7.191,0,0,0,74.313,2Z" transform="translate(3.989 0.798)" fill="#bada95"/><path d="M41.763,45.763A28.8,28.8,0,0,1,13,17h3.6A25.168,25.168,0,0,0,56.864,37.134l1.942-1.481,2.181,2.858L59.034,40a28.537,28.537,0,0,1-17.271,5.762Z" transform="translate(9.573 12.763)" fill="#4c6cb5"/><g transform="translate(2.798 2.798)"><path d="M15,36H54.55v3.6H15Z" transform="translate(8.37 25.122)" fill="#c8cded"/><path d="M15,40H56.347v3.6H15Z" transform="translate(8.37 28.313)" fill="#c8cded"/><path d="M16.382,27.168V9.191A7.191,7.191,0,0,0,2,9.191V27.168Z" transform="translate(-2 -2)" fill="#e9f3dd"/><path d="M66.134,48H21.191V65.977A7.191,7.191,0,0,1,14,73.168H66.134Z" transform="translate(7.573 34.695)" fill="#e9f3dd"/></g><path d="M46.989,103.481V57.492A14.382,14.382,0,0,1,38,44.157V21.685a4.494,4.494,0,1,1,8.989,0v-3.6a4.494,4.494,0,0,1,8.989,0v-3.6a4.494,4.494,0,1,1,8.989,0v3.6a4.494,4.494,0,0,1,8.989,0v4.494a7.191,7.191,0,0,1,7.191,7.191V44.157a14.382,14.382,0,0,1-8.989,13.337v45.987Z" transform="translate(29.515 7.179)" fill="#f2b9a1"/><path d="M45.6,16.5V29.084a2.7,2.7,0,0,0,2.7,2.7v3.6A6.292,6.292,0,0,1,42,29.084V16.5Z" transform="translate(32.706 12.365)" fill="#fbe1ca"/><path d="M50,48.359h3.6a9,9,0,0,1,8.989-8.989,1.8,1.8,0,0,0,1.8-1.8V26.786a1.8,1.8,0,0,0-1.8-1.8H56.292a2.7,2.7,0,1,1,0-5.393h8.09V16h-8.09a6.278,6.278,0,0,0-2.7,11.953v1.53a6.292,6.292,0,0,0,6.292,6.292,6.227,6.227,0,0,0,.9-.072v.2A12.6,12.6,0,0,0,50,48.359ZM60.786,28.584v3.435a2.682,2.682,0,0,1-3.6-2.537v-.9Z" transform="translate(39.088 11.966)" fill="#fbe1ca"/><path d="M50.6,30.679a2.7,2.7,0,0,0,2.7,2.7v3.6A6.292,6.292,0,0,1,47,30.679V14.5h3.6Z" transform="translate(36.695 10.769)" fill="#fbe1ca"/><path d="M105.267,28.145V25.269a6.292,6.292,0,0,0-6.292-6.292,6.225,6.225,0,0,0-3.018.805,6.209,6.209,0,0,0-8.667-3.77V9.989A9,9,0,0,0,78.3,1H9.989A9,9,0,0,0,1,9.989V27.966a1.8,1.8,0,0,0,1.8,1.8H15.382V103.47a9,9,0,0,0,8.989,8.989h77.3a1.8,1.8,0,0,0,1.8-1.8V65.835a16.111,16.111,0,0,0,8.989-14.5V36.954a9,9,0,0,0-7.191-8.809Zm-6.292-5.573a2.7,2.7,0,0,1,2.7,2.7v2.7H96.279v-2.7A2.7,2.7,0,0,1,98.975,22.573Zm-8.989-3.6a2.7,2.7,0,0,1,2.7,2.7V28.6a6.254,6.254,0,0,0,0,11.326v1.526a2.7,2.7,0,1,1-5.393,0V21.674a2.7,2.7,0,0,1,2.7-2.7Zm9.887,25.008a2.682,2.682,0,0,1-3.6-2.537v-.9h3.6ZM33.359,29.763c0-2.348,3.678-4.884,9.348-6.227a54.378,54.378,0,0,0,0,12.455C37.037,34.648,33.359,32.111,33.359,29.763Zm12.584,0a48.629,48.629,0,0,1,.476-6.883,39.96,39.96,0,0,1,4.917-.307,40.5,40.5,0,0,1,4.91.3,49,49,0,0,1,.484,6.892,48.683,48.683,0,0,1-.476,6.887,40.448,40.448,0,0,1-4.917.3,39.96,39.96,0,0,1-4.917-.307,48.631,48.631,0,0,1-.476-6.883Zm14.022-6.22a21.529,21.529,0,0,1,6.456,2.486,6.209,6.209,0,0,0-.7,2.835V33.9a22.576,22.576,0,0,1-5.753,2.12,54.488,54.488,0,0,0,0-12.467Zm-.6-3.811a27.009,27.009,0,0,0-2.323-7.011A18,18,0,0,1,67.875,22.752a27.226,27.226,0,0,0-8.509-3.02Zm-3.811-.539c-1.373-.126-2.777-.216-4.216-.216s-2.855.07-4.212.194c1.142-4.642,2.885-7.385,4.212-7.385s3.079,2.754,4.219,7.414Zm-12.244.5a26.662,26.662,0,0,0-8.494,2.981,18.054,18.054,0,0,1,10.806-9.95,27.068,27.068,0,0,0-2.308,6.97Zm0,20.12a27.068,27.068,0,0,0,2.312,6.97,18.054,18.054,0,0,1-10.806-9.95,26.662,26.662,0,0,0,8.5,2.995Zm3.813.539c1.357.124,2.761.194,4.212.194s2.844-.081,4.216-.209c-1.136,4.651-2.884,7.4-4.212,7.4S48.265,45,47.124,40.356Zm12.241-.55a29.993,29.993,0,0,0,6.357-1.913v2.621a17.993,17.993,0,0,1-8.658,6.26,27.174,27.174,0,0,0,2.3-6.968Zm9.952.744V28.865a2.7,2.7,0,1,1,5.393,0V41.449a2.7,2.7,0,1,1-5.393,0ZM78.3,28.865v-3.6a2.7,2.7,0,0,1,5.393,0V41.449a2.7,2.7,0,1,1-5.393,0Zm-62.92-2.7H4.6V9.989a5.393,5.393,0,1,1,10.786,0Zm3.6,77.3V9.989A8.9,8.9,0,0,0,17.133,4.6H78.3a5.393,5.393,0,0,1,5.393,5.393v9.62a6.209,6.209,0,0,0-8.667,3.775,6.226,6.226,0,0,0-3.018-.811c-.111,0-.214.027-.324.032a21.6,21.6,0,1,0-5.968,23.214V50.4a24.941,24.941,0,0,1-14.382,4.534A25.2,25.2,0,0,1,26.168,29.763h-3.6A28.8,28.8,0,0,0,51.336,58.527a28.508,28.508,0,0,0,14.72-4.066,16.068,16.068,0,0,0,8.651,11.374v17.86H31.561a1.8,1.8,0,0,0-1.8,1.8V103.47a5.393,5.393,0,1,1-10.786,0ZM74.706,87.29v21.573H31.514a8.9,8.9,0,0,0,1.844-5.393V87.29Zm34.157-35.954A12.539,12.539,0,0,1,101,63a1.8,1.8,0,0,0-1.124,1.666v44.191H78.3V64.673a1.8,1.8,0,0,0-1.124-1.666,12.543,12.543,0,0,1-7.865-11.671V47.11A6.2,6.2,0,0,0,76.5,45.839a6.261,6.261,0,0,0,8.989,0,6.261,6.261,0,0,0,8.989,0,6.164,6.164,0,0,0,5.393,1.83v.2A12.6,12.6,0,0,0,89.088,60.325h3.6a9,9,0,0,1,8.989-8.989,1.8,1.8,0,0,0,1.8-1.8V38.752a1.8,1.8,0,0,0-1.8-1.8H95.38a2.7,2.7,0,1,1,0-5.393h8.09a5.393,5.393,0,0,1,5.393,5.393Z"/><path d="M15,36H54.55v3.6H15Z" transform="translate(11.168 27.92)"/><path d="M15,40H56.347v3.6H15Z" transform="translate(11.168 31.111)"/></g></svg>