<svg xmlns="http://www.w3.org/2000/svg" width="99.749" height="99.749" viewBox="0 0 99.749 99.749"><g transform="translate(-2 -2)"><path d="M42,6h3.325V9.325H42Z" transform="translate(26.499 2.65)" fill="#12263f"/><path d="M0,0H3.325V3.325H0Z" transform="translate(51.347 17.134) rotate(-45)" fill="#12263f"/><path d="M91.691,38.788l-15.762,9.1a6.55,6.55,0,0,0-2.861-1.649L50.422,40.173a8.351,8.351,0,0,0-3.638-.15l-14.859,2.7V39.729a1.662,1.662,0,0,0-1.662-1.662H13.637a1.662,1.662,0,0,0-1.662,1.662v1.662H3.662A1.662,1.662,0,0,0,2,43.054V72.979a1.662,1.662,0,0,0,1.662,1.662h8.312V76.3a1.662,1.662,0,0,0,1.662,1.662H30.262A1.662,1.662,0,0,0,31.925,76.3V71.511L57.65,74.37a8.337,8.337,0,0,0,5.428-1.28L98.341,50.314a6.653,6.653,0,1,0-6.65-11.524ZM5.325,71.317v-26.6h6.65v26.6ZM28.6,74.641H15.3V41.392H28.6ZM96.607,47.477,61.273,70.3a5.022,5.022,0,0,1-3.257.768l-26.091-2.9V46.1L47.386,43.3a4.958,4.958,0,0,1,2.181.088l22.646,6.068a3.325,3.325,0,0,1-1.722,6.424L53.968,51.45a1.662,1.662,0,1,0-.861,3.21l16.518,4.427a6.623,6.623,0,0,0,8.061-8.371l15.661-9.044a3.329,3.329,0,1,1,3.262,5.8Z" transform="translate(0 23.783)" fill="#12263f"/><path d="M85.512,25.275H77.331c-.15-.391-.311-.783-.489-1.18l5.789-5.79a1.662,1.662,0,0,0,0-2.351l-9.41-9.41a1.662,1.662,0,0,0-2.351,0l-5.789,5.789c-.4-.178-.791-.332-1.182-.489V3.662A1.662,1.662,0,0,0,62.237,2h-13.3a1.662,1.662,0,0,0-1.662,1.662v8.181c-.391.15-.785.311-1.182.489L40.3,6.544a1.662,1.662,0,0,0-2.351,0l-9.41,9.41a1.662,1.662,0,0,0,0,2.351l5.789,5.789c-.178.4-.333.791-.489,1.182H25.662A1.662,1.662,0,0,0,24,26.937v13.3A1.662,1.662,0,0,0,25.662,41.9h8.181c.15.391.311.785.489,1.182L28.544,48.87a1.662,1.662,0,0,0,0,2.351l9.41,9.41a1.662,1.662,0,0,0,2.351,0l5.789-5.789c.4.178.791.332,1.182.489v8.181a1.662,1.662,0,0,0,1.662,1.662h13.3A1.662,1.662,0,0,0,63.9,63.512V55.331c.391-.15.785-.311,1.182-.489l5.789,5.789a1.711,1.711,0,0,0,2.351,0l9.41-9.41a1.662,1.662,0,0,0,0-2.351l-5.789-5.79c.178-.4.332-.79.489-1.18h8.181a1.662,1.662,0,0,0,1.662-1.662v-13.3A1.662,1.662,0,0,0,85.512,25.275Zm-1.662,13.3h-7.7a1.662,1.662,0,0,0-1.584,1.164,20.5,20.5,0,0,1-1.215,2.953,1.663,1.663,0,0,0,.311,1.919L79.1,50.046,72.046,57.1,66.6,51.663a1.662,1.662,0,0,0-1.919-.311,20.486,20.486,0,0,1-2.953,1.215,1.662,1.662,0,0,0-1.164,1.584v7.7H50.6v-7.7a1.662,1.662,0,0,0-1.164-1.584,20.486,20.486,0,0,1-2.953-1.215,1.662,1.662,0,0,0-1.919.311L39.129,57.1,32.07,50.046,37.511,44.6a1.662,1.662,0,0,0,.311-1.919,20.486,20.486,0,0,1-1.215-2.953,1.662,1.662,0,0,0-1.584-1.164h-7.7V28.6h7.7a1.662,1.662,0,0,0,1.584-1.164,20.487,20.487,0,0,1,1.215-2.953,1.662,1.662,0,0,0-.311-1.919L32.07,17.129l7.059-7.059,5.441,5.441a1.662,1.662,0,0,0,1.919.311,20.487,20.487,0,0,1,2.948-1.215A1.662,1.662,0,0,0,50.6,13.022v-7.7h9.975v7.7a1.662,1.662,0,0,0,1.164,1.584,20.487,20.487,0,0,1,2.953,1.215,1.662,1.662,0,0,0,1.919-.311l5.436-5.441L79.1,17.129,73.663,22.57a1.662,1.662,0,0,0-.311,1.919,20.5,20.5,0,0,1,1.215,2.953A1.662,1.662,0,0,0,76.152,28.6h7.7Z" transform="translate(14.575)" fill="#12263f"/><path d="M48.3,13A13.3,13.3,0,1,0,61.6,26.3,13.3,13.3,0,0,0,48.3,13Zm0,23.275A9.975,9.975,0,1,1,58.275,26.3,9.975,9.975,0,0,1,48.3,36.275Z" transform="translate(21.862 7.287)" fill="#12263f"/><path d="M15.987,62.975A4.987,4.987,0,1,0,11,57.987a4.987,4.987,0,0,0,4.987,4.987Zm0-6.65a1.662,1.662,0,1,1-1.662,1.662A1.662,1.662,0,0,1,15.987,56.325Z" transform="translate(5.962 33.787)" fill="#12263f"/><path d="M28,20h3.325v3.325H28Z" transform="translate(17.225 11.925)" fill="#12263f"/><path d="M0,0H3.325V3.325H0Z" transform="translate(51.344 50.046) rotate(-45)" fill="#12263f"/><path d="M42,34h3.325v3.325H42Z" transform="translate(26.499 21.199)" fill="#12263f"/><path d="M0,0H3.325V3.325H0Z" transform="translate(84.256 50.049) rotate(-45)" fill="#12263f"/><path d="M56,20h3.325v3.325H56Z" transform="translate(35.774 11.925)" fill="#12263f"/><path d="M0,0H3.325V3.325H0Z" transform="translate(84.259 17.137) rotate(-45)" fill="#12263f"/></g></svg>