<svg xmlns="http://www.w3.org/2000/svg" width="138.551" height="50.359" viewBox="0 0 138.551 50.359"><path d="M224.026,86.9c-5.45,0-8.14-3.813-10.3-6.879-2.189-3.1-3.672-5-6.462-5s-4.27,1.9-6.454,5c-2.161,3.066-4.851,6.879-10.3,6.879s-8.14-3.813-10.3-6.879c-2.187-3.1-3.669-5-6.457-5s-4.268,1.9-6.454,5c-2.161,3.066-4.851,6.879-10.3,6.879s-8.137-3.816-10.3-6.881c-2.187-3.1-3.666-5-6.452-5s-4.265,1.9-6.452,5c-2.161,3.068-4.848,6.881-10.3,6.881s-8.135-3.813-10.3-6.881c-2.187-3.1-3.666-5-6.452-5a2,2,0,1,1,0-3.96c5.445,0,8.135,3.813,10.3,6.879,2.184,3.1,3.667,5,6.452,5s4.265-1.9,6.452-5c2.161-3.066,4.851-6.879,10.3-6.879s8.135,3.813,10.293,6.879c2.186,3.1,3.666,5,6.454,5s4.268-1.9,6.454-5c2.161-3.066,4.851-6.879,10.3-6.879s8.137,3.813,10.3,6.879c2.184,3.1,3.667,5,6.457,5s4.268-1.9,6.454-5c2.158-3.066,4.851-6.879,10.3-6.879s8.142,3.813,10.3,6.879c2.189,3.1,3.672,5,6.459,5s4.273-1.9,6.462-5c2.161-3.066,4.854-6.879,10.3-6.879a2,2,0,1,1,0,3.96c-2.79,0-4.273,1.9-6.462,5C232.168,83.084,229.478,86.9,224.026,86.9Z" transform="translate(-104.499 -71.056)" fill="#3c6d9d"/><path d="M224.026,94.562c-5.45,0-8.14-3.816-10.3-6.879-2.189-3.1-3.672-5.005-6.462-5.005s-4.27,1.9-6.454,5c-2.161,3.066-4.851,6.881-10.3,6.881s-8.14-3.816-10.3-6.881c-2.187-3.1-3.669-5-6.457-5s-4.268,1.9-6.454,5c-2.161,3.066-4.851,6.881-10.3,6.881s-8.137-3.818-10.3-6.881c-2.187-3.1-3.666-5-6.452-5s-4.265,1.9-6.452,5c-2.161,3.066-4.848,6.881-10.3,6.881s-8.135-3.816-10.3-6.881c-2.187-3.1-3.666-5-6.452-5a2,2,0,1,1,0-3.96c5.445,0,8.135,3.816,10.3,6.881,2.184,3.1,3.667,5,6.452,5s4.265-1.9,6.452-5c2.161-3.066,4.851-6.881,10.3-6.881s8.135,3.816,10.293,6.881c2.186,3.1,3.666,5,6.454,5s4.268-1.9,6.454-5c2.161-3.066,4.851-6.881,10.3-6.881s8.137,3.816,10.3,6.881c2.184,3.1,3.667,5,6.457,5s4.268-1.9,6.454-5c2.158-3.066,4.851-6.881,10.3-6.881s8.142,3.816,10.3,6.881c2.189,3.1,3.672,5,6.459,5s4.273-1.9,6.462-5c2.161-3.066,4.854-6.881,10.3-6.881a2,2,0,1,1,0,3.96c-2.79,0-4.273,1.9-6.462,5C232.168,90.746,229.478,94.562,224.026,94.562Z" transform="translate(-104.499 -61.459)" fill="#3c6d9d"/><path d="M224.026,102.222c-5.45,0-8.14-3.814-10.3-6.879-2.189-3.1-3.672-5-6.462-5s-4.27,1.9-6.454,5c-2.161,3.066-4.851,6.879-10.3,6.879s-8.14-3.814-10.3-6.879c-2.187-3.1-3.669-5-6.457-5s-4.268,1.9-6.454,5c-2.161,3.066-4.851,6.879-10.3,6.879s-8.137-3.814-10.3-6.879c-2.187-3.1-3.666-5-6.452-5s-4.265,1.9-6.452,5c-2.161,3.066-4.848,6.879-10.3,6.879s-8.135-3.814-10.3-6.879c-2.187-3.1-3.666-5-6.452-5a2,2,0,1,1,0-3.96c5.445,0,8.135,3.816,10.3,6.881,2.184,3.1,3.667,5,6.452,5s4.265-1.9,6.452-5c2.161-3.066,4.851-6.881,10.3-6.881s8.135,3.816,10.293,6.879c2.186,3.1,3.666,5,6.454,5s4.268-1.9,6.454-5c2.161-3.063,4.851-6.879,10.3-6.879s8.137,3.816,10.3,6.879c2.184,3.1,3.667,5,6.457,5s4.268-1.9,6.454-5c2.158-3.063,4.851-6.879,10.3-6.879s8.142,3.816,10.3,6.879c2.189,3.1,3.672,5,6.459,5s4.273-1.9,6.462-5c2.161-3.063,4.854-6.879,10.3-6.879a2,2,0,1,1,0,3.96c-2.79,0-4.273,1.9-6.462,5C232.168,98.408,229.478,102.222,224.026,102.222Z" transform="translate(-104.499 -51.863)" fill="#3c6d9d"/></svg>