<svg xmlns="http://www.w3.org/2000/svg" width="330" height="237" viewBox="0 0 330 237"><g transform="translate(-299 -2884)"><rect width="330" height="237" transform="translate(299 2884)" fill="#bada95"/><path d="M12.432,16.264a5.031,5.031,0,0,1-1.694,3.613A5.951,5.951,0,0,1,6.709,21.2a5.351,5.351,0,0,1-4.3-1.841A7.548,7.548,0,0,1,.84,14.3v-.869a8.523,8.523,0,0,1,.723-3.613,5.416,5.416,0,0,1,2.065-2.4,5.786,5.786,0,0,1,3.12-.835A5.8,5.8,0,0,1,10.713,7.9a5.407,5.407,0,0,1,1.738,3.7H9.521a2.97,2.97,0,0,0-.767-2,2.839,2.839,0,0,0-2.007-.62,2.489,2.489,0,0,0-2.192,1.05,5.883,5.883,0,0,0-.747,3.257v1.074a6.3,6.3,0,0,0,.7,3.369,2.443,2.443,0,0,0,2.2,1.064,2.892,2.892,0,0,0,2.026-.62A2.8,2.8,0,0,0,9.5,16.264ZM20.293,21a3.134,3.134,0,0,1-.283-.947A3.415,3.415,0,0,1,17.344,21.2a3.752,3.752,0,0,1-2.573-.9,2.89,2.89,0,0,1-1.021-2.266A2.986,2.986,0,0,1,15,15.453a6.144,6.144,0,0,1,3.6-.908h1.3v-.605a1.741,1.741,0,0,0-.376-1.172,1.479,1.479,0,0,0-1.187-.439,1.682,1.682,0,0,0-1.118.342,1.161,1.161,0,0,0-.405.938H13.984a2.835,2.835,0,0,1,.566-1.7,3.744,3.744,0,0,1,1.6-1.226,5.837,5.837,0,0,1,2.324-.444,4.611,4.611,0,0,1,3.1.981,3.433,3.433,0,0,1,1.147,2.759v4.58a5.052,5.052,0,0,0,.42,2.275V21Zm-2.334-1.963a2.431,2.431,0,0,0,1.152-.278,1.828,1.828,0,0,0,.781-.747V16.2H18.838q-2.119,0-2.256,1.465l-.01.166a1.13,1.13,0,0,0,.371.869A1.441,1.441,0,0,0,17.959,19.037ZM27.871,21H25.039V6h2.832Zm5.3,0H30.342V10.434h2.832Zm-3-13.3A1.39,1.39,0,0,1,30.6,6.654a1.831,1.831,0,0,1,2.31,0A1.382,1.382,0,0,1,33.34,7.7a1.386,1.386,0,0,1-.435,1.055,1.81,1.81,0,0,1-2.295,0A1.386,1.386,0,0,1,30.176,7.7Zm4.883,7.939A6.368,6.368,0,0,1,36.167,11.7,3.6,3.6,0,0,1,39.2,10.238a3.236,3.236,0,0,1,2.549,1.152V6H44.58V21H42.031l-.137-1.123A3.321,3.321,0,0,1,39.18,21.2a3.587,3.587,0,0,1-2.993-1.47A6.573,6.573,0,0,1,35.059,15.639Zm2.822.205a4.16,4.16,0,0,0,.518,2.275,1.687,1.687,0,0,0,1.5.791,1.889,1.889,0,0,0,1.846-1.1v-4.17a1.862,1.862,0,0,0-1.826-1.1Q37.881,12.533,37.881,15.844ZM52.891,21a3.134,3.134,0,0,1-.283-.947A3.415,3.415,0,0,1,49.941,21.2a3.752,3.752,0,0,1-2.573-.9,2.89,2.89,0,0,1-1.021-2.266,2.986,2.986,0,0,1,1.245-2.578,6.144,6.144,0,0,1,3.6-.908h1.3v-.605a1.741,1.741,0,0,0-.376-1.172,1.479,1.479,0,0,0-1.187-.439,1.682,1.682,0,0,0-1.118.342,1.161,1.161,0,0,0-.405.938H46.582a2.835,2.835,0,0,1,.566-1.7,3.744,3.744,0,0,1,1.6-1.226,5.837,5.837,0,0,1,2.324-.444,4.611,4.611,0,0,1,3.1.981,3.433,3.433,0,0,1,1.147,2.759v4.58a5.052,5.052,0,0,0,.42,2.275V21Zm-2.334-1.963a2.431,2.431,0,0,0,1.152-.278,1.828,1.828,0,0,0,.781-.747V16.2H51.436q-2.119,0-2.256,1.465l-.01.166a1.13,1.13,0,0,0,.371.869A1.441,1.441,0,0,0,50.557,19.037Zm6.494-3.4A6.368,6.368,0,0,1,58.159,11.7a3.6,3.6,0,0,1,3.032-1.465,3.236,3.236,0,0,1,2.549,1.152V6h2.832V21H64.023l-.137-1.123A3.321,3.321,0,0,1,61.172,21.2a3.587,3.587,0,0,1-2.993-1.47A6.573,6.573,0,0,1,57.051,15.639Zm2.822.205a4.16,4.16,0,0,0,.518,2.275,1.687,1.687,0,0,0,1.5.791,1.889,1.889,0,0,0,1.846-1.1v-4.17a1.862,1.862,0,0,0-1.826-1.1Q59.873,12.533,59.873,15.844ZM73.3,15.639A6.368,6.368,0,0,1,74.409,11.7a3.6,3.6,0,0,1,3.032-1.465,3.236,3.236,0,0,1,2.549,1.152V6h2.832V21H80.273l-.137-1.123A3.321,3.321,0,0,1,77.422,21.2a3.587,3.587,0,0,1-2.993-1.47A6.573,6.573,0,0,1,73.3,15.639Zm2.822.205a4.16,4.16,0,0,0,.518,2.275,1.687,1.687,0,0,0,1.5.791,1.889,1.889,0,0,0,1.846-1.1v-4.17a1.862,1.862,0,0,0-1.826-1.1Q76.123,12.533,76.123,15.844ZM89.873,21.2a5.187,5.187,0,0,1-3.784-1.426,5.068,5.068,0,0,1-1.46-3.8V15.7a6.383,6.383,0,0,1,.615-2.847,4.515,4.515,0,0,1,1.743-1.934,4.893,4.893,0,0,1,2.573-.679,4.385,4.385,0,0,1,3.413,1.367,5.555,5.555,0,0,1,1.245,3.877v1.152H87.49a2.622,2.622,0,0,0,.825,1.66,2.5,2.5,0,0,0,1.743.625,3.046,3.046,0,0,0,2.549-1.182l1.387,1.553a4.237,4.237,0,0,1-1.719,1.4A5.639,5.639,0,0,1,89.873,21.2Zm-.322-8.672a1.767,1.767,0,0,0-1.362.566,2.926,2.926,0,0,0-.669,1.621h3.926v-.225a2.086,2.086,0,0,0-.508-1.45A1.824,1.824,0,0,0,89.551,12.523Zm15.205,5.029,1.963-7.119h2.949L106.1,21h-2.7L99.844,10.434h2.949ZM113.887,21h-2.832V10.434h2.832Zm-3-13.3a1.39,1.39,0,0,1,.425-1.045,1.831,1.831,0,0,1,2.31,0,1.382,1.382,0,0,1,.43,1.045,1.386,1.386,0,0,1-.435,1.055,1.81,1.81,0,0,1-2.295,0A1.386,1.386,0,0,1,110.889,7.7Zm4.883,7.939A6.368,6.368,0,0,1,116.88,11.7a3.6,3.6,0,0,1,3.032-1.465,3.236,3.236,0,0,1,2.549,1.152V6h2.832V21h-2.549l-.137-1.123a3.321,3.321,0,0,1-2.715,1.318,3.587,3.587,0,0,1-2.993-1.47A6.573,6.573,0,0,1,115.771,15.639Zm2.822.205a4.16,4.16,0,0,0,.518,2.275,1.687,1.687,0,0,0,1.5.791,1.889,1.889,0,0,0,1.846-1.1v-4.17a1.862,1.862,0,0,0-1.826-1.1Q118.594,12.533,118.594,15.844ZM133.6,21a3.134,3.134,0,0,1-.283-.947,3.415,3.415,0,0,1-2.666,1.143,3.752,3.752,0,0,1-2.573-.9,2.89,2.89,0,0,1-1.021-2.266,2.986,2.986,0,0,1,1.245-2.578,6.144,6.144,0,0,1,3.6-.908h1.3v-.605a1.741,1.741,0,0,0-.376-1.172,1.479,1.479,0,0,0-1.187-.439,1.682,1.682,0,0,0-1.118.342,1.161,1.161,0,0,0-.405.938h-2.822a2.835,2.835,0,0,1,.566-1.7,3.744,3.744,0,0,1,1.6-1.226,5.837,5.837,0,0,1,2.324-.444,4.611,4.611,0,0,1,3.1.981,3.433,3.433,0,0,1,1.147,2.759v4.58a5.052,5.052,0,0,0,.42,2.275V21Zm-2.334-1.963a2.431,2.431,0,0,0,1.152-.278,1.828,1.828,0,0,0,.781-.747V16.2h-1.055q-2.119,0-2.256,1.465l-.01.166a1.13,1.13,0,0,0,.371.869A1.441,1.441,0,0,0,131.27,19.037Zm14.668-7.451a3.522,3.522,0,0,1,2.822-1.348q3.438,0,3.486,3.994V21h-2.822V14.311a1.963,1.963,0,0,0-.391-1.343,1.675,1.675,0,0,0-1.3-.435,1.921,1.921,0,0,0-1.8.957V21h-2.822V6h2.822Zm14.766,8.34a3.539,3.539,0,0,1-2.891,1.27,3.338,3.338,0,0,1-2.593-.977,4.169,4.169,0,0,1-.913-2.861V10.434h2.822V17.26q0,1.65,1.5,1.65a2.038,2.038,0,0,0,1.973-1v-7.48h2.832V21h-2.656Zm7.51-9.492.088,1.182a3.713,3.713,0,0,1,3.037-1.377,2.818,2.818,0,0,1,2.8,1.611,3.628,3.628,0,0,1,3.174-1.611,3.152,3.152,0,0,1,2.559,1,4.6,4.6,0,0,1,.84,3.013V21h-2.832V14.262a2.012,2.012,0,0,0-.352-1.313,1.558,1.558,0,0,0-1.24-.415,1.761,1.761,0,0,0-1.758,1.211l.01,7.256h-2.822V14.271a1.988,1.988,0,0,0-.361-1.328,1.573,1.573,0,0,0-1.23-.41,1.829,1.829,0,0,0-1.738,1V21h-2.822V10.434ZM189,21a3.134,3.134,0,0,1-.283-.947,3.415,3.415,0,0,1-2.666,1.143,3.752,3.752,0,0,1-2.573-.9,2.889,2.889,0,0,1-1.021-2.266,2.986,2.986,0,0,1,1.245-2.578,6.144,6.144,0,0,1,3.6-.908h1.3v-.605a1.741,1.741,0,0,0-.376-1.172,1.479,1.479,0,0,0-1.187-.439,1.682,1.682,0,0,0-1.118.342,1.161,1.161,0,0,0-.405.938H182.7a2.835,2.835,0,0,1,.566-1.7,3.744,3.744,0,0,1,1.6-1.226,5.837,5.837,0,0,1,2.324-.444,4.611,4.611,0,0,1,3.1.981,3.433,3.433,0,0,1,1.147,2.759v4.58a5.052,5.052,0,0,0,.42,2.275V21Zm-2.334-1.963a2.431,2.431,0,0,0,1.152-.278,1.828,1.828,0,0,0,.781-.747V16.2h-1.055q-2.119,0-2.256,1.465l-.01.166a1.13,1.13,0,0,0,.371.869A1.441,1.441,0,0,0,186.67,19.037Zm9.531-8.6.088,1.221a3.689,3.689,0,0,1,3.037-1.416,3.066,3.066,0,0,1,2.5.986,4.6,4.6,0,0,1,.84,2.949V21h-2.822V14.242a1.831,1.831,0,0,0-.391-1.3,1.749,1.749,0,0,0-1.3-.405,1.942,1.942,0,0,0-1.787,1.016V21h-2.822V10.434ZM210.928,21a3.134,3.134,0,0,1-.283-.947,3.415,3.415,0,0,1-2.666,1.143,3.752,3.752,0,0,1-2.573-.9,2.889,2.889,0,0,1-1.021-2.266,2.986,2.986,0,0,1,1.245-2.578,6.144,6.144,0,0,1,3.6-.908h1.3v-.605a1.741,1.741,0,0,0-.376-1.172,1.479,1.479,0,0,0-1.187-.439,1.682,1.682,0,0,0-1.118.342,1.161,1.161,0,0,0-.405.938h-2.822a2.835,2.835,0,0,1,.566-1.7,3.744,3.744,0,0,1,1.6-1.226,5.837,5.837,0,0,1,2.324-.444,4.611,4.611,0,0,1,3.1.981,3.433,3.433,0,0,1,1.147,2.759v4.58a5.052,5.052,0,0,0,.42,2.275V21Zm-2.334-1.963a2.431,2.431,0,0,0,1.152-.278,1.828,1.828,0,0,0,.781-.747V16.2h-1.055q-2.119,0-2.256,1.465l-.01.166a1.13,1.13,0,0,0,.371.869A1.441,1.441,0,0,0,208.594,19.037Z" transform="translate(357 3048)" fill="#12263f"/><g transform="translate(317.75 2912.64)"><g transform="translate(40.387 4.541)"><path d="M116.839,39.092V35.439H84.4v3.653a6.414,6.414,0,1,0,0,12.82v.466a16.2,16.2,0,0,0,6.59,13.056h0v5.19a9.628,9.628,0,1,0,19.256,0V65.432h0a16.192,16.192,0,0,0,6.59-13.052v-.466a6.414,6.414,0,1,0,0-12.82Z" transform="translate(-61.387 -22.004)" fill="#feb69f"/><g transform="translate(0 48.622)"><path d="M110.474,117.58l-19.861-4.785a9.63,9.63,0,0,1-19.259,0L51.492,117.58a12.724,12.724,0,0,0-9.742,12.37v46.3h78.466v-46.3a12.724,12.724,0,0,0-9.742-12.37Z" transform="translate(-41.75 -112.795)" fill="#fcef91"/></g><g transform="translate(64.54 81.327)"><path d="M183.635,184.695h13.926v30.753H183.635Z" transform="translate(-183.635 -184.695)" fill="#feb69f"/></g><g transform="translate(23.014 0)"><path d="M100.445,5.9H99.167a6.823,6.823,0,0,0-6.823,6.823v6.612h12.821V10.623A4.719,4.719,0,0,0,100.445,5.9Z" transform="translate(-92.344 -5.904)" fill="#878787"/><g transform="translate(12.821)"><path d="M133.323,5.9h-8.074a4.719,4.719,0,0,0-4.719,4.719v8.715h19.617V12.727A6.823,6.823,0,0,0,133.323,5.9Z" transform="translate(-120.529 -5.904)" fill="#878787"/></g><g transform="translate(0 13.434)"><path d="M92.345,47.4V35.438h4.681v7.279A4.681,4.681,0,0,1,92.345,47.4Z" transform="translate(-92.345 -35.438)" fill="#878787"/></g><g transform="translate(27.757 13.435)"><path d="M158.046,47.4a4.681,4.681,0,0,1-4.681-4.681V35.439h4.681Z" transform="translate(-153.365 -35.439)" fill="#878787"/></g></g><g transform="translate(29.605 43.426)"><path d="M126.09,101.372v3.542a19.179,19.179,0,0,1-19.256.009v-3.546a16.221,16.221,0,0,0,19.256,0Z" transform="translate(-106.834 -101.372)" fill="#ea8f7c"/></g><g transform="translate(0 81.327)"><path d="M41.75,184.695H55.676v30.753H41.75Z" transform="translate(-41.75 -184.695)" fill="#feb69f"/></g><g transform="translate(9.452 81.33)"><path d="M62.53,184.7H67v30.749H62.53Z" transform="translate(-62.53 -184.7)" fill="#ea8f7c"/></g><g transform="translate(64.54 81.33)"><path d="M183.635,184.7h4.471v30.749h-4.471Z" transform="translate(-183.635 -184.7)" fill="#ea8f7c"/></g><g transform="translate(61.98 32.637)"><path d="M189.009,83.327c-1.7-.559-3.021-.92-3.908-4.74a1.211,1.211,0,0,0-2.357,0c-.867,3.736-2.077,4.136-3.908,4.741a1.211,1.211,0,0,0,0,2.3c3.041,1,3.386,2.491,3.908,4.74a1.21,1.21,0,0,0,2.357,0c.867-3.735,2.142-4.157,3.908-4.74A1.211,1.211,0,0,0,189.009,83.327Z" transform="translate(-178.009 -77.654)"/><g transform="translate(4.045 4.74)"><path d="M190.586,90.167a5.916,5.916,0,0,0-1.792,2.02,6.253,6.253,0,0,0-1.892-2,6.057,6.057,0,0,0,1.874-2.111,6.136,6.136,0,0,0,1.81,2.092Z" transform="translate(-186.902 -88.075)" fill="#f0c020"/></g></g><g transform="translate(4.657 32.637)"><path d="M62.989,83.327c-1.7-.559-3.021-.92-3.908-4.74a1.211,1.211,0,0,0-2.357,0c-.867,3.736-2.077,4.136-3.908,4.741a1.211,1.211,0,0,0,0,2.3c3.041,1,3.386,2.491,3.908,4.74a1.21,1.21,0,0,0,2.357,0c.867-3.735,2.142-4.157,3.908-4.74A1.211,1.211,0,0,0,62.989,83.327Z" transform="translate(-51.989 -77.654)"/></g><g transform="translate(8.703 37.377)"><path d="M64.566,90.167a5.916,5.916,0,0,0-1.792,2.02,6.253,6.253,0,0,0-1.892-2,6.057,6.057,0,0,0,1.874-2.111A6.137,6.137,0,0,0,64.566,90.167Z" transform="translate(-60.882 -88.075)" fill="#f0c020"/></g></g><g transform="translate(43.799 58.208)"><path d="M50.387,152.686a1.137,1.137,0,0,1-1.137-1.137V136a9.282,9.282,0,0,1,7.13-9.052l12.555-3.026a1.137,1.137,0,1,1,.533,2.211l-12.555,3.026A7.016,7.016,0,0,0,51.524,136v15.552A1.137,1.137,0,0,1,50.387,152.686Z" transform="translate(-49.25 -123.886)" fill="#3c6d9d"/></g><g transform="translate(43.799 84.734)"><path d="M50.387,210.675a1.137,1.137,0,0,1-1.137-1.137v-1.365a1.137,1.137,0,1,1,2.274,0v1.365A1.137,1.137,0,0,1,50.387,210.675Zm0-5.913a1.137,1.137,0,0,1-1.137-1.137V183.337a1.137,1.137,0,0,1,2.274,0v20.287A1.137,1.137,0,0,1,50.387,204.762Z" transform="translate(-49.25 -182.2)" fill="#fae0e1"/></g><g transform="translate(72.922 35.179)"><path d="M115.549,74.4a1.137,1.137,0,1,0-2.274,0,6.7,6.7,0,0,0,13.4,0,1.137,1.137,0,1,0-2.274,0,4.424,4.424,0,0,1-8.847,0Z" transform="translate(-113.275 -73.259)"/></g><g transform="translate(72.058 24.872)"><path d="M112.512,50.6a1.137,1.137,0,0,0-1.137,1.137v1.545a1.137,1.137,0,1,0,2.274,0V51.736A1.137,1.137,0,0,0,112.512,50.6Z" transform="translate(-111.375 -50.599)"/></g><g transform="translate(85.834 24.872)"><path d="M142.8,54.418a1.137,1.137,0,0,0,1.137-1.137V51.736a1.137,1.137,0,1,0-2.274,0v1.545A1.137,1.137,0,0,0,142.8,54.418Z" transform="translate(-141.662 -50.599)"/></g><g transform="translate(78.483 24.872)"><path d="M127.774,59.021V51.736a1.137,1.137,0,1,0-2.274,0v7.286a1.137,1.137,0,1,0,2.274,0Z" transform="translate(-125.5 -50.599)"/></g><g transform="translate(64.571 42.13)"><path d="M96.642,90.65a1.137,1.137,0,1,0-1.56-.387A1.138,1.138,0,0,0,96.642,90.65Z" transform="translate(-94.916 -88.539)"/></g><g transform="translate(39.25 3.404)"><path d="M79.62,63.928a10.78,10.78,0,0,0,10.66-9.283c0-.02.008-.04.011-.061l18.554,4.471a11.55,11.55,0,0,1,8.87,11.263V84.732H106.064V79.487a1.137,1.137,0,1,0-2.274,0v37.134a1.137,1.137,0,0,0,2.274,0V87.006h11.652v6.87a1.137,1.137,0,1,0,2.274,0V70.319a13.864,13.864,0,0,0-10.612-13.473L90.385,52.265V48.518A17.252,17.252,0,0,0,96.96,35.527a7.541,7.541,0,0,0,.019-14.974c0-.277,0-2.083,0-9.189a7.97,7.97,0,0,0-7.96-7.96H80.941a5.846,5.846,0,0,0-4.719,2.4A5.846,5.846,0,0,0,71.5,3.4H70.225a7.97,7.97,0,0,0-7.96,7.96c0,3.753,0,8.323,0,9.189a7.541,7.541,0,0,0,.02,14.974,17.319,17.319,0,0,0,.563,3.86,1.153,1.153,0,0,0,1.392.805,1.135,1.135,0,0,0,.806-1.392v0a15.374,15.374,0,0,1-.5-4.347V30.959a5.827,5.827,0,0,0,4.681-5.7V19.114h20.8v6.141a5.826,5.826,0,0,0,4.681,5.7v3.489c0,.008,0,.015,0,.022A15.091,15.091,0,0,1,69.34,45.955a1.17,1.17,0,0,0-1.605.059,1.136,1.136,0,0,0,.055,1.606c.335.313.7.614,1.066.906v3.739L49.862,56.845A13.864,13.864,0,0,0,39.25,70.319v46.3a1.137,1.137,0,1,0,2.274,0V87.006H53.176v29.615a1.137,1.137,0,1,0,2.274,0V79.487a1.137,1.137,0,0,0-2.274,0v5.244H41.524V70.319a11.55,11.55,0,0,1,8.87-11.263l18.55-4.471A10.8,10.8,0,0,0,79.62,63.928Zm21.71-35.889a5.282,5.282,0,0,1-4.351,5.192V22.847A5.282,5.282,0,0,1,101.33,28.039ZM80.941,5.678h8.074A5.692,5.692,0,0,1,94.7,11.364v5.474H77.359V13.62A3.547,3.547,0,0,1,80.9,10.077H91.158a1.137,1.137,0,1,0,0-2.274H80.9a5.784,5.784,0,0,0-3.531,1.2,3.584,3.584,0,0,1,3.569-3.329Zm-16.4,5.686a5.692,5.692,0,0,1,5.686-5.686H71.5a3.584,3.584,0,0,1,3.569,3.329,5.78,5.78,0,0,0-3.531-1.2H68.083a1.137,1.137,0,0,0,0,2.274h3.459a3.547,3.547,0,0,1,3.543,3.543v3.218H64.539ZM57.91,28.039a5.281,5.281,0,0,1,4.351-5.192V33.231A5.282,5.282,0,0,1,57.91,28.039Zm9.035-2.784a3.55,3.55,0,0,1-2.406,3.356v-9.5h2.406Zm25.35,0V19.114H94.7v9.5A3.55,3.55,0,0,1,92.3,25.255ZM71.129,53.163v-3.1a17.392,17.392,0,0,0,16.981-.005v3.106a8.491,8.491,0,1,1-16.981,0Z" transform="translate(-39.25 -3.404)"/></g><g transform="translate(117.716 101.837)"><path d="M212.887,219.8a1.138,1.138,0,0,0-1.137,1.137v13.646a1.137,1.137,0,1,0,2.274,0V220.937A1.138,1.138,0,0,0,212.887,219.8Z" transform="translate(-211.75 -219.8)"/></g><g transform="translate(117.716 97.288)"><circle cx="1.137" cy="1.137" r="1.137"/></g></g></g></svg>