<svg xmlns="http://www.w3.org/2000/svg" width="65.729" height="79.638" viewBox="0 0 65.729 79.638"><g transform="translate(1.556 1.555)"><path d="M17.6,99.43l.067-.086Zm0,0" transform="translate(-16.416 -85.447)" fill="#fcef91"/><path d="M15.605,101.958c.03-.047.061-.1.092-.142C15.666,101.863,15.636,101.911,15.605,101.958Zm0,0" transform="translate(-14.734 -87.535)" fill="#fcef91"/><path d="M94.77,14.756c.055-.034.111-.067.166-.1C94.88,14.688,94.825,14.722,94.77,14.756Zm0,0" transform="translate(-81.585 -13.932)" fill="#fcef91"/><path d="M96.176,13.922c.063-.035.126-.069.191-.1C96.3,13.853,96.239,13.888,96.176,13.922Zm0,0" transform="translate(-82.772 -13.226)" fill="#fcef91"/><path d="M16.539,100.688c.028-.039.055-.079.084-.118C16.594,100.609,16.567,100.649,16.539,100.688Zm0,0" transform="translate(-15.523 -86.483)" fill="#fcef91"/><path d="M90.582,17.782c.038-.032.078-.063.117-.094C90.66,17.718,90.62,17.749,90.582,17.782Zm0,0" transform="translate(-78.049 -16.492)" fill="#fcef91"/><path d="M91.949,16.686l.133-.1Q92.016,16.636,91.949,16.686Zm0,0" transform="translate(-79.203 -15.565)" fill="#fcef91"/><path d="M87.961,20.293c.025-.026.051-.05.077-.075C88.012,20.244,87.986,20.268,87.961,20.293Zm0,0" transform="translate(-75.835 -18.629)" fill="#fcef91"/><path d="M89.25,18.975l.1-.088Zm0,0" transform="translate(-76.924 -17.504)" fill="#fcef91"/><path d="M93.352,15.677c.049-.033.1-.066.149-.1C93.45,15.61,93.4,15.643,93.352,15.677Zm0,0" transform="translate(-80.387 -14.71)" fill="#fcef91"/><path d="M59.7,60.682a13,13,0,0,1,2.134.179v-44.6A6.264,6.264,0,0,0,55.569,10H26.1a5.571,5.571,0,0,0-2.5.594V22.8a2.49,2.49,0,0,1-2.49,2.49H10.423A5.569,5.569,0,0,0,10,27.411V75.758a6.264,6.264,0,0,0,6.264,6.264H49.9a12.918,12.918,0,0,1,9.8-21.34Zm0,0" transform="translate(-10.004 -10)" fill="#fcef91"/><path d="M14,104.543c.031-.06.063-.12.1-.179C14.063,104.423,14.031,104.482,14,104.543Zm0,0" transform="translate(-13.378 -89.686)" fill="#fcef91"/><path d="M13.316,105.859q.046-.1.095-.2Q13.362,105.761,13.316,105.859Zm0,0" transform="translate(-12.801 -90.784)" fill="#fcef91"/><path d="M14.762,103.244c.031-.055.063-.108.1-.162C14.824,103.135,14.793,103.189,14.762,103.244Zm0,0" transform="translate(-14.022 -88.604)" fill="#fcef91"/><path d="M29.575,22.008v0L19.047,33.851h0L29.573,22.01Zm0,0" transform="translate(-17.64 -20.14)" fill="#fcef91"/><path d="M12.7,107.192c.029-.07.059-.139.091-.208C12.762,107.053,12.732,107.122,12.7,107.192Zm0,0" transform="translate(-12.283 -91.899)" fill="#fcef91"/></g><path d="M25.878,26.03V13.82h0c-.064.033-.128.067-.191.1l-.052.029c-.056.032-.112.065-.166.1l-.072.044c-.05.032-.1.065-.149.1l-.085.059c-.044.031-.089.064-.133.1l-.1.074c-.039.031-.079.062-.117.094l-.108.092c-.033.029-.067.058-.1.089s-.083.079-.124.118c-.026.025-.052.049-.077.075-.066.066-.129.134-.191.2v0L13.69,26.937c-.054.061-.107.123-.158.187-.023.028-.045.057-.067.086s-.054.069-.08.1-.057.078-.084.118-.036.05-.053.076c-.032.047-.062.094-.092.142l-.035.055c-.033.053-.065.107-.1.162L13,27.9c-.033.059-.066.119-.1.179l-.012.023q-.049.1-.095.2a.079.079,0,0,1,0,.01c-.032.069-.061.138-.091.208H23.389A2.49,2.49,0,0,0,25.878,26.03Zm0,0" transform="translate(-10.727 -11.671)" fill="#86a4b3"/><path d="M261.471,336.018a12.922,12.922,0,1,0,10.788,12.744A13,13,0,0,0,261.471,336.018Zm0,0" transform="translate(-208.086 -283.602)" fill="#bada95"/><path d="M62.257,55.754a14.5,14.5,0,0,0-7.316-4.593V7.819A7.829,7.829,0,0,0,47.12,0H17.652a7.123,7.123,0,0,0-3.186.754L14.452.76l-.016.009c-.06.03-.12.063-.179.1L14.12.939c-.053.03-.106.062-.158.094s-.1.062-.153.094l-.138.091c-.055.037-.111.075-.165.114l-.122.089c-.058.043-.114.087-.17.132l-.111.089c-.057.047-.114.1-.17.146l-.1.091c-.057.052-.112.106-.166.159-.032.031-.064.061-.095.093-.066.067-.129.135-.193.205l-.052.055L7.648,7.654,1.8,14.233c-.07.079-.138.159-.2.241l-.059.075c-.043.055-.087.11-.128.166s-.065.09-.1.135l-.078.111c-.039.058-.077.117-.115.176l-.046.072c-.044.07-.085.141-.126.213l-.022.038q-.069.122-.134.248l0,0A7.114,7.114,0,0,0,0,18.967V67.313a7.829,7.829,0,0,0,7.821,7.821H40.76a14.477,14.477,0,0,0,21.5-19.38ZM13.6,5.646v8.713a.936.936,0,0,1-.934.934H5.02L9.707,10.02ZM7.82,72.023a4.715,4.715,0,0,1-4.709-4.709V18.967a3.939,3.939,0,0,1,.044-.563h9.506a4.05,4.05,0,0,0,4.045-4.045V3.226a4,4,0,0,1,.946-.115H47.12a4.714,4.714,0,0,1,4.71,4.708V50.694c-.193-.007-.386-.012-.578-.012A14.5,14.5,0,0,0,36.773,65.161c0,.193.005.385.013.577,0,.052,0,.1.007.156q.012.244.032.487c0,.032,0,.064.008.1q.026.283.063.564c.006.048.013.1.02.144.021.151.045.3.071.452.008.045.015.091.023.136.034.185.071.368.112.55l.028.118q.053.224.112.446c.013.051.027.1.041.153.05.18.1.36.16.538.007.02.014.039.02.06.052.16.108.32.166.479l.058.156q.086.227.179.451c.011.027.021.054.033.081q.108.256.227.508l.07.146q.1.2.2.4l.064.124c.009.015.016.031.024.046Zm43.431,4.5A11.367,11.367,0,1,1,62.618,65.161,11.354,11.354,0,0,1,51.252,76.527Zm0,0"/><path d="M92.391,156.314h24.66a1.555,1.555,0,1,0,0-3.111H92.391a1.555,1.555,0,0,0,0,3.111Zm0,0" transform="translate(-76.707 -129.373)"/><path d="M252.227,227.447a1.56,1.56,0,0,0-.193-.236,1.573,1.573,0,0,0-.506-.336,1.55,1.55,0,0,0-.9-.089,1.544,1.544,0,0,0-.29.089,1.59,1.59,0,0,0-.269.143,1.5,1.5,0,0,0-.236.193,1.564,1.564,0,0,0-.193.236,1.655,1.655,0,0,0-.143.269,1.562,1.562,0,0,0-.089.291,1.568,1.568,0,0,0,0,.608,1.543,1.543,0,0,0,.089.29,1.631,1.631,0,0,0,.143.269,1.594,1.594,0,0,0,.193.236,1.564,1.564,0,0,0,1.1.456,1.516,1.516,0,0,0,.305-.032,1.562,1.562,0,0,0,.291-.089,1.655,1.655,0,0,0,.269-.143,1.755,1.755,0,0,0,.236-.193,1.671,1.671,0,0,0,.193-.236,1.59,1.59,0,0,0,.143-.269,1.544,1.544,0,0,0,.089-.29,1.55,1.55,0,0,0-.089-.9A1.613,1.613,0,0,0,252.227,227.447Zm0,0" transform="translate(-210.59 -191.485)"/><path d="M92.391,229.865h18.438a1.555,1.555,0,1,0,0-3.111H92.391a1.555,1.555,0,1,0,0,3.111Zm0,0" transform="translate(-76.707 -191.484)"/><path d="M92.391,303.419h24.66a1.555,1.555,0,1,0,0-3.111H92.391a1.555,1.555,0,1,0,0,3.111Zm0,0" transform="translate(-76.707 -253.598)"/><path d="M110.174,373.859H92.391a1.555,1.555,0,1,0,0,3.111h17.783a1.555,1.555,0,1,0,0-3.111Zm0,0" transform="translate(-76.707 -315.708)"/><path d="M289.278,374.348c-2.816,2.992-4.969,7.558-6.022,10.071l-4.809-3.083a1.555,1.555,0,1,0-1.679,2.619l6.4,4.1a1.556,1.556,0,0,0,2.3-.787c.025-.07,2.54-7.042,6.07-10.793a1.556,1.556,0,1,0-2.266-2.132Zm0,0" transform="translate(-233.113 -315.708)"/></svg>