<svg xmlns="http://www.w3.org/2000/svg" width="130" height="130" viewBox="0 0 130 130"><g transform="translate(-993 -3140)"><circle cx="65" cy="65" r="65" transform="translate(993 3140)" fill="#efefef"/><g transform="translate(993.803 3138.443)"><rect width="88.101" height="111.787" rx="5.001" transform="translate(19.949 9.906)" fill="#78b62e"/><path d="M30.894,20.85H97.107v89.9H30.894Z" fill="#dff6fd"/><path d="M48.287,6.307H79.713V20.85H48.287Z" fill="#fad207"/><path d="M108.051,48.637a1.749,1.749,0,0,0-1.75,1.75v66.3a3.256,3.256,0,0,1-3.252,3.252h-78.1a3.256,3.256,0,0,1-3.252-3.252v-13.5a1.75,1.75,0,0,0-3.5,0v13.5a6.76,6.76,0,0,0,6.752,6.752h78.1a6.76,6.76,0,0,0,6.752-6.752v-66.3a1.749,1.749,0,0,0-1.75-1.75Z"/><path d="M108.051,34.9a1.75,1.75,0,0,0-1.75,1.75v4.5a1.75,1.75,0,1,0,3.5,0v-4.5a1.75,1.75,0,0,0-1.75-1.75Z"/><path d="M103.049,8.156H81.463V6.307a1.749,1.749,0,0,0-1.75-1.75H48.287a1.75,1.75,0,0,0-1.75,1.75V8.156H24.951A6.76,6.76,0,0,0,18.2,14.907V93.829a1.75,1.75,0,0,0,3.5,0V14.907a3.255,3.255,0,0,1,3.252-3.251H46.537V19.1H30.894a1.749,1.749,0,0,0-1.75,1.75v89.9a1.749,1.749,0,0,0,1.75,1.75H97.106a1.749,1.749,0,0,0,1.75-1.75V20.85a1.749,1.749,0,0,0-1.75-1.75H81.463V11.656h21.586a3.255,3.255,0,0,1,3.252,3.251V26.994a1.75,1.75,0,1,0,3.5,0V14.907a6.76,6.76,0,0,0-6.752-6.751ZM95.356,109H32.644V22.6H95.356ZM50.037,19.1V8.057H77.963V19.1Z"/><path d="M72.189,11.828H55.81a1.75,1.75,0,0,0,0,3.5H72.189a1.75,1.75,0,1,0,0-3.5Z"/><path d="M75.329,97.845H64.705a1.75,1.75,0,1,0,0,3.5H75.329a1.75,1.75,0,1,0,0-3.5Z"/><path d="M85.952,89.256H64.705a1.75,1.75,0,0,0,0,3.5H85.952a1.75,1.75,0,1,0,0-3.5Z"/><path d="M54.007,89.769,46.656,97.12l-3.371-3.371a1.75,1.75,0,1,0-2.475,2.475l4.608,4.608a1.749,1.749,0,0,0,2.475,0l8.588-8.589a1.749,1.749,0,0,0-2.474-2.474Z"/><path d="M64.705,42.343H75.329a1.75,1.75,0,1,0,0-3.5H64.705a1.75,1.75,0,0,0,0,3.5Z"/><path d="M62.955,32a1.75,1.75,0,0,0,1.75,1.75H85.952a1.75,1.75,0,1,0,0-3.5H64.705A1.75,1.75,0,0,0,62.955,32Z"/><path d="M54.007,30.767l-7.351,7.351-3.371-3.371a1.75,1.75,0,1,0-2.475,2.475l4.608,4.608a1.749,1.749,0,0,0,2.475,0l8.588-8.589a1.749,1.749,0,0,0-2.474-2.474Z"/><path d="M64.705,62.01H75.329a1.75,1.75,0,1,0,0-3.5H64.705a1.75,1.75,0,0,0,0,3.5Z"/><path d="M85.952,49.922H64.705a1.75,1.75,0,0,0,0,3.5H85.952a1.75,1.75,0,1,0,0-3.5Z"/><path d="M54.007,50.435l-7.351,7.35-3.371-3.371a1.75,1.75,0,1,0-2.475,2.475L45.418,61.5a1.749,1.749,0,0,0,2.475,0l8.588-8.588a1.749,1.749,0,0,0-2.474-2.474Z"/><path d="M64.705,81.678H75.329a1.75,1.75,0,1,0,0-3.5H64.705a1.75,1.75,0,0,0,0,3.5Z"/><path d="M85.952,69.589H64.705a1.75,1.75,0,0,0,0,3.5H85.952a1.75,1.75,0,1,0,0-3.5Z"/><path d="M54.007,70.1l-7.351,7.351L43.285,74.08a1.75,1.75,0,1,0-2.475,2.475l4.608,4.608a1.749,1.749,0,0,0,2.475,0l8.588-8.589A1.749,1.749,0,0,0,54.007,70.1Z"/></g></g></svg>