<?xml version="1.0" encoding="utf-8"?>
<!-- Generator: Adobe Illustrator 26.0.1, SVG Export Plug-In . SVG Version: 6.00 Build 0)  -->
<svg version="1.1" id="Capa_1" xmlns="http://www.w3.org/2000/svg" xmlns:xlink="http://www.w3.org/1999/xlink" x="0px" y="0px"
	 viewBox="0 0 792 612" style="enable-background:new 0 0 792 612;" xml:space="preserve">
<style type="text/css">
	.st0{fill-rule:evenodd;clip-rule:evenodd;fill:#ED6B1E;}
	.st1{opacity:0.39;fill:none;stroke:#7A7A7A;stroke-width:0.8149;stroke-miterlimit:10;}
	.st2{opacity:0.39;fill:none;stroke:#7A7A7A;stroke-width:0.9579;stroke-miterlimit:10;}
	.st3{opacity:0.34;fill:#FAB412;}
	.st4{opacity:0.47;fill:#FAB412;}
	.st5{fill:#FAB412;}
	.st6{fill:#EEF5E5;}
	.st7{fill:#FAFCF6;}
	.st8{font-family:'Roboto-Regular';}
	.st9{font-size:8.6215px;}
	.st10{letter-spacing:6;}
	.st11{opacity:0.39;fill:none;stroke:#7A7A7A;stroke-width:0.9579;stroke-linecap:square;stroke-miterlimit:10;}
	.st12{fill:#77B62F;}
	.st13{fill:#FFFFFF;}
	.st14{font-family:'Roboto-Bold';}
	.st15{font-size:11.5079px;}
	.st16{opacity:0.36;fill:#77B62F;}
	.st17{fill:none;}
	.st18{font-family:'Roboto-Italic';}
	.st19{fill:none;stroke:#7A7A7A;stroke-width:0.9579;stroke-miterlimit:10;}
	.st20{fill:#898C2F;}
	.st21{fill:#D3BAA1;}
	.st22{fill:#A28567;}
	.st23{fill:#B68861;}
	.st24{fill:#EFBA95;}
	.st25{fill:#B28F75;}
	.st26{fill:#F39C89;}
	.st27{fill:#E2775E;}
	.st28{fill:#E4CBB1;}
	.st29{fill:#F0D6BE;}
	.st30{fill:#FAE5CE;}
	.st31{fill:#D1B399;}
	.st32{fill:#9CA539;}
	.st33{fill:#AA7349;}
	.st34{fill:#A06C46;}
	.st35{fill:#CD895A;}
	.st36{fill:#8A725C;}
	.st37{fill:#CA8352;}
	.st38{fill:#804F2D;}
	.st39{opacity:0.8;fill:#9E7E68;}
	.st40{filter:url(#Adobe_OpacityMaskFilter);}
	.st41{filter:url(#Adobe_OpacityMaskFilter_00000034051687041248725370000010452011695275735182_);}
	
		.st42{mask:url(#SVGID_00000029042259818214747780000012311557324603720109_);fill:url(#SVGID_00000165200888029491498380000016544097990385081728_);}
	.st43{opacity:0.6;fill:url(#SVGID_00000075144006069625298930000002469833631829883831_);}
	.st44{fill:#85654F;}
	.st45{fill:#F9E1B7;}
	.st46{fill:#E6C796;}
	.st47{fill:#614431;}
	.st48{fill:#E0CCA4;}
	.st49{fill:#BFA67C;}
	.st50{fill:#EAD7B2;}
	.st51{fill:#CD3F1E;}
	.st52{fill:#E84727;}
	.st53{fill:#F7E2C1;}
	.st54{fill:#9DAD3D;}
	.st55{fill:#D1B88C;}
	.st56{fill:#F08155;}
	.st57{fill:#D9673F;}
	.st58{fill:#F2DDB8;}
	.st59{fill:#F9E7CA;}
	.st60{fill:#F1BD39;}
	.st61{fill:#D29B1B;}
	.st62{fill:#C7AD80;}
	.st63{fill:#6E5C42;}
	.st64{fill:#CA5F39;}
	.st65{fill:#FFDB45;}
	.st66{filter:url(#Adobe_OpacityMaskFilter_00000087413376622640985440000005008980838110463903_);}
	.st67{filter:url(#Adobe_OpacityMaskFilter_00000079480426054798060800000013580120820715284904_);}
	
		.st68{mask:url(#SVGID_00000120553776804684663730000015013478777091083153_);fill:url(#SVGID_00000001633150340486220030000014344733239280502400_);}
	.st69{opacity:0.6;fill:url(#SVGID_00000008840111319912648370000003563080601297766810_);}
	.st70{fill:#E5CEC3;}
	.st71{fill:#E8A62D;}
	.st72{fill:#B29C8F;}
	.st73{fill:#DCC0B4;}
	.st74{fill:#CE4924;}
	.st75{fill:#EA542A;}
	.st76{fill:#F5E3DA;}
	.st77{fill:#FCC047;}
	.st78{fill:#4C3E2A;}
	.st79{fill:#FEF0E9;}
	.st80{fill:#FFD254;}
	.st81{filter:url(#Adobe_OpacityMaskFilter_00000137118647245048266960000007126678073296290210_);}
	.st82{filter:url(#Adobe_OpacityMaskFilter_00000168102730708128098900000003455668631228834707_);}
	
		.st83{mask:url(#SVGID_00000176037860162093590530000015596417158840038585_);fill:url(#SVGID_00000042012676233732131190000009226425490611254168_);}
	.st84{opacity:0.6;fill:url(#SVGID_00000115487091827160217940000006800334036956348055_);}
</style>
<path class="st0" d="M742.4,18.9c-3.6,0-6.4,2.9-6.4,6.5c0,3.6,2.9,6.4,6.5,6.4c3.6,0,6.4-2.9,6.4-6.5
	C748.9,21.8,746,18.9,742.4,18.9L742.4,18.9z M750.8,33.8l0,5.9l-5.2-5.9h-4.9v8.7h3.6l0.1-5.7l5,5.7l5,0l0-8.7L750.8,33.8
	L750.8,33.8z M728.6,33.8L728.6,33.8l-0.1,8.7l10.5,0l0-1.9l-6.6,0l0-1.6l5.9,0V37l-5.9,0.1v-1.4l6.4,0l0-1.9L728.6,33.8L728.6,33.8
	z M764.8,33.8h-4.2l-5.9,8.7h3.8l0.9-1.7l6.1,0l0.9,1.6h4L764.8,33.8z M721.5,33.8h-0.7c-0.7,0-1.3,0-2,0.1
	c-0.8,0.1-1.6,0.3-2.4,0.7c-0.7,0.3-1.2,0.9-1.2,1.7c0,0.3,0,0.6,0.2,0.9c0.1,0.1,0.1,0.3,0.2,0.4c0.5,0.5,1.2,0.9,2,1
	c0.9,0.2,1.9,0.4,2.9,0.6c0.6,0.1,1.2,0.2,1.7,0.4c0.3,0.1,0.5,0.2,0.7,0.4c0.1,0.2,0.1,0.4-0.1,0.5c0,0,0,0,0,0
	c-0.3,0.2-0.7,0.3-1,0.4c-0.6,0.1-1.2,0-1.8,0c-0.7-0.1-1.1-0.3-1.2-0.7c0-0.1,0-0.2,0-0.3l0-0.2l-0.3,0c-0.1,0-1,0-1.9,0l-1.6,0
	v0.1c0,0.2,0,0.4,0.1,0.6c0.2,0.9,1,1.5,2.3,1.9c0.6,0.1,1.2,0.2,1.8,0.3c0.6,0,1.8,0.1,2.6,0c2.7-0.1,4.6-0.7,5.1-1.8
	c0.1-0.3,0.2-0.5,0.2-0.8c0-0.4-0.1-0.8-0.3-1.1c-0.4-0.5-0.9-0.8-1.4-1c-0.9-0.3-1.9-0.5-2.9-0.7c-0.8-0.1-1.6-0.3-2.4-0.5
	c-0.3-0.1-0.5-0.2-0.7-0.4c0-0.1,0-0.2,0-0.3c0.1-0.2,0.5-0.4,1.1-0.4c0.5,0,0.9,0,1.4,0c0.4,0,0.7,0.2,1,0.4
	c0.1,0.1,0.2,0.2,0.2,0.4c0,0.1,0,0.1,0.1,0.1c0,0,0.8,0,1.8,0l1.7,0l0-0.1c0-0.2,0-0.4-0.1-0.6c-0.3-1-1.4-1.6-3.3-1.8
	C722.7,33.8,722.1,33.8,721.5,33.8L721.5,33.8z M762.5,35.9l1.9,3.2l-3.9,0L762.5,35.9z M740,44.3l-27.6,0v4.6h8.9
	c8.5,0,8.9,0,9.2,0.1c0.4,0.2,0.6,0.6,0.6,1c0.1,0.7,0.2,0-6.7,11.9l-4.1,7l3.3,3.1L740,44.3L740,44.3z M744.3,44.3L760.7,72l3.3-3
	l-4.1-7c-6.9-11.8-6.7-11.2-6.7-11.9c0-0.4,0.2-0.8,0.6-1c0.3-0.1,0.6-0.1,9.2-0.1h8.9v-4.5L744.3,44.3L744.3,44.3z M742.1,49.2
	l-14.9,25.4l3.9,1.8l8.5-14.5l1.4-2.6c0.2-0.3,0.4-0.5,1.1-0.5c0.4-0.1,0.8,0.1,1.1,0.5l1.6,2.6l8.7,14.6l4-2.2L742.1,49.2z"/>
<g>
	<polyline class="st1" points="186,463.4 207.7,463.4 221.6,442.4 221.9,441.8 207.7,420.1 186,420.1 	"/>
</g>
<g>
	<polyline class="st1" points="186,136.8 207.7,136.8 221.6,115.8 221.9,115.2 207.7,93.6 186,93.6 	"/>
</g>
<g>
	<polyline class="st2" points="617.2,486.9 595.6,486.9 581.7,515.9 581.3,516.8 595.6,546.7 617.2,546.7 	"/>
</g>
<g>
	<polyline class="st2" points="617.2,214.5 595.6,214.5 581.7,243.5 581.3,244.3 595.6,274.3 617.2,274.3 	"/>
</g>
<g>
	<polyline class="st2" points="617.2,379.8 595.6,379.8 581.7,408.8 581.3,409.7 595.6,439.6 617.2,439.6 	"/>
</g>
<g>
	<g>
		<path class="st3" d="M439.2,259.7h142.1V229h-132c-5.6,0-10.1,4.5-10.1,10.1V259.7z"/>
		<path class="st4" d="M450,259.7h131.3V229H467.4c-9.6,0-17.4,7.8-17.4,17.4V259.7z"/>
	</g>
	<path class="st5" d="M579.2,259.7h2.1V229l0,0c-1.2,0-2.1,0.9-2.1,2.1V259.7z"/>
</g>
<g>
	<g>
		<path class="st3" d="M439.2,130.5h142.1V99.9h-132c-5.6,0-10.1,4.5-10.1,10.1V130.5z"/>
		<path class="st4" d="M450,130.5h131.3V99.9H467.4c-9.6,0-17.4,7.8-17.4,17.4V130.5z"/>
	</g>
	<path class="st5" d="M579.2,130.5h2.1V99.9l0,0c-1.2,0-2.1,0.9-2.1,2.1V130.5z"/>
</g>
<g>
	<g>
		<path class="st3" d="M439.2,423.8h142.1v-30.7h-132c-5.6,0-10.1,4.5-10.1,10.1V423.8z"/>
		<path class="st4" d="M450,423.8h131.3v-30.7H467.4c-9.6,0-17.4,7.8-17.4,17.4V423.8z"/>
	</g>
	<path class="st5" d="M579.2,423.8h2.1v-30.7l0,0c-1.2,0-2.1,0.9-2.1,2.1V423.8z"/>
</g>
<g>
	<g>
		<path class="st3" d="M439.2,531.4h142.1v-30.7h-132c-5.6,0-10.1,4.5-10.1,10.1V531.4z"/>
		<path class="st4" d="M450,531.4h131.3v-30.7H467.4c-9.6,0-17.4,7.8-17.4,17.4V531.4z"/>
	</g>
	<path class="st5" d="M579.2,531.4h2.1v-30.7l0,0c-1.2,0-2.1,0.9-2.1,2.1V531.4z"/>
</g>
<g>
	<g>
		<path class="st3" d="M364.1,531.4H222v-30.7h132c5.6,0,10.1,4.5,10.1,10.1V531.4z"/>
		<path class="st4" d="M353.2,531.4H222v-30.7h113.8c9.6,0,17.4,7.8,17.4,17.4V531.4z"/>
	</g>
	<path class="st5" d="M224.1,531.4H222v-30.7l0,0c1.2,0,2.1,0.9,2.1,2.1V531.4z"/>
</g>
<g>
	<path class="st3" d="M364.1,130.5H222V99.9h132c5.6,0,10.1,4.5,10.1,10.1V130.5z"/>
	<path class="st4" d="M353.2,130.5H222V99.9h113.8c9.6,0,17.4,7.8,17.4,17.4V130.5z"/>
</g>
<path class="st3" d="M364.1,259.7H222V229h132c5.6,0,10.1,4.5,10.1,10.1V259.7z"/>
<rect x="43.9" y="78.7" class="st6" width="142.1" height="29.6"/>
<rect x="43.9" y="122.3" class="st6" width="142.1" height="29.6"/>
<rect x="45.5" y="175.3" class="st6" width="142.1" height="32.6"/>
<rect x="45.5" y="230.4" class="st6" width="142.1" height="39.1"/>
<rect x="45.5" y="302.3" class="st6" width="142.1" height="19.8"/>
<rect x="45.5" y="343.1" class="st6" width="142.1" height="29.2"/>
<rect x="43.9" y="405.6" class="st6" width="142.1" height="29.2"/>
<rect x="43.9" y="443.5" class="st6" width="142.1" height="40.6"/>
<rect x="45.5" y="207.8" class="st7" width="142.1" height="22.5"/>
<rect x="45.5" y="268.9" class="st7" width="142.1" height="33.5"/>
<rect x="45.5" y="322.2" class="st7" width="142.1" height="20.9"/>
<path class="st4" d="M353.2,259.7H222V229h113.8c9.6,0,17.4,7.8,17.4,17.4V259.7z"/>
<g>
	<path class="st3" d="M364.1,457.1H222v-30.7h132c5.6,0,10.1,4.5,10.1,10.1V457.1z"/>
	<path class="st4" d="M353.2,457.1H222v-30.7h113.8c9.6,0,17.4,7.8,17.4,17.4V457.1z"/>
</g>
<g>
	<text transform="matrix(1 0 0 1 79.7068 95.8332)" class="st8 st9">Plan de producción</text>
</g>
<rect x="617.2" y="199.6" class="st6" width="142.1" height="29.6"/>
<g>
	<text transform="matrix(1 0 0 1 644.4363 216.6858)" class="st8 st9">Clases y características</text>
</g>
<rect x="617.2" y="260.5" class="st6" width="142.1" height="29.6"/>
<g>
	<text transform="matrix(1 0 0 1 663.0389 277.6106)" class="st8 st9">Componentes</text>
</g>
<rect x="617.2" y="366" class="st6" width="142.1" height="29.6"/>
<g>
	<text transform="matrix(1 0 0 1 663.159 383.1506)" class="st8 st9">Interpretación</text>
</g>
<rect x="617.2" y="424.6" class="st6" width="142.1" height="29.6"/>
<g>
	<text transform="matrix(1 0 0 1 658.8817 441.7404)" class="st8 st9">Implementación</text>
</g>
<rect x="617.2" y="472.7" class="st6" width="142.1" height="29.6"/>
<g>
	<text transform="matrix(1 0 0 1 657.4256 491.7375)" class="st8 st9">Recurso humano</text>
</g>
<rect x="617.2" y="531.3" class="st6" width="142.1" height="29.6"/>
<g>
	<text transform="matrix(1 0 0 1 669.9139 548.3752)" class="st8 st9">Normativa</text>
</g>
<g>
	<text transform="matrix(1 0 0 1 83.6805 134.9221)"><tspan x="0" y="0" class="st8 st9">Programación de</tspan><tspan x="-8.8" y="10.3" class="st8 st9">actividades pecuarias</tspan></text>
</g>
<g>
	<text transform="matrix(1 0 0 1 62.3349 189.972)"><tspan x="0" y="0" class="st8 st9">Prevención de enfermedades</tspan><tspan x="23.9" y="10.3" class="st8 st9">de control oficial</tspan></text>
</g>
<g>
	<text transform="matrix(1 0 0 1 77.7045 417.5953)"><tspan x="0" y="0" class="st8 st9">Buenas prácticas de</tspan><tspan x="0.1" y="10.3" class="st8 st9">alimentación animal</tspan></text>
</g>
<g>
	<text transform="matrix(1 0 0 1 78.2201 456.0107)"><tspan x="0" y="0" class="st8 st9">Almacenamiento de</tspan><tspan x="-13.7" y="10.3" class="st8 st9"> alimentos, materia prima e</tspan><tspan x="2" y="20.7" class="st8 st9">insumos pecuarios</tspan></text>
</g>
<g>
	<text transform="matrix(1 0 0 1 80.9506 221.5648)"><tspan x="0" y="0" class="st8 st9">Área de cuarentena</tspan><tspan x="-19.4" y="20.7" class="st8 st9">Almacenamiento y transporte</tspan><tspan x="-12" y="31" class="st8 st9">de productos biológicos y</tspan><tspan x="-15" y="41.4" class="st8 st9">medicamentos veterinarios</tspan><tspan x="-14.7" y="62.1" class="st8 st9 st10"> </tspan><tspan x="-6.1" y="62.1" class="st8 st9">Técnicas para aplicación</tspan><tspan x="-20.7" y="72.4" class="st8 st9">de medicamentos veterinarios</tspan><tspan x="5.7" y="93.1" class="st8 st9">Tiempo de retiro</tspan><tspan x="-25.8" y="113.8" class="st8 st9">Notificación de efectos adversos</tspan><tspan x="5.1" y="134.5" class="st8 st9">Guía sanitaria de</tspan><tspan x="-1.2" y="144.8" class="st8 st9">movilización interna</tspan></text>
</g>
<g>
	<text transform="matrix(1 0 0 1 470.7829 117.718)" class="st8 st9">Producción pecuaria</text>
</g>
<g>
	<text transform="matrix(1 0 0 1 261.3254 246.8957)" class="st8 st9">Plan sanitario</text>
</g>
<g>
	<text transform="matrix(1 0 0 1 252.9128 444.2603)" class="st8 st9">Plan de alimentación</text>
</g>
<g>
	<text transform="matrix(1 0 0 1 488.7961 241.7229)"><tspan x="0" y="0" class="st8 st9">Sistema de</tspan><tspan x="-17.8" y="10.3" class="st8 st9">producción pecuario</tspan></text>
</g>
<g>
	<text transform="matrix(1 0 0 1 457.2868 410.967)" class="st8 st9">Buenas prácticas pecuarias</text>
</g>
<g>
	<text transform="matrix(1 0 0 1 474.2146 518.5989)" class="st8 st9">Legislación laboral</text>
</g>
<path class="st2" d="M414.9,306.7v-55.6c0,0,5.8-7.2,6.3-7.3c6,0,18,0,18,0"/>
<path class="st2" d="M408.5,306.7V124.8c0,0,5.8-7.2,6.3-7.3c6,0,24.7,0,24.7,0"/>
<path class="st2" d="M395.1,306.7V124.8c0,0-5.8-7.2-6.3-7.3c-6,0-24.7,0-24.7,0"/>
<path class="st2" d="M388.4,306.7v-55.6c0,0-5.8-7.2-6.3-7.3c-6,0-18,0-18,0"/>
<path class="st11" d="M388.7,345.6v90.6c0,0-5.8,7.2-6.3,7.3c-6,0-17.9,0-17.9,0"/>
<path class="st11" d="M395.1,345.6v163.9c0,0-5.8,7.2-6.3,7.3c-6,0-24.2,0-24.2,0"/>
<path class="st11" d="M408.5,345.6v163.9c0,0,5.8,7.2,6.3,7.3c6,0,24,0,24,0"/>
<path class="st11" d="M415.2,345.6v55.6c0,0,5.8,7.2,6.3,7.3c6,0,17.3,0,17.3,0"/>
<rect x="327.1" y="303.7" class="st12" width="141.9" height="44.8"/>
<text transform="matrix(1 0 0 1 347.6009 322.1554)"><tspan x="0" y="0" class="st13 st14 st15">Programación de la</tspan><tspan x="-2.4" y="14.7" class="st13 st14 st15">producción pecuaria</tspan></text>
<rect x="318.8" y="303.7" transform="matrix(-1 -1.224647e-16 1.224647e-16 -1 645.8489 652.3148)" class="st16" width="8.3" height="44.8"/>
<rect x="469" y="303.7" transform="matrix(-1 -1.224647e-16 1.224647e-16 -1 946.2676 652.3148)" class="st16" width="8.3" height="44.8"/>
<path class="st17" d="M222,115.2"/>
<g>
	<text transform="matrix(1 0 0 1 244.5845 111.7678)"><tspan x="0" y="0" class="st8 st9">Programa de producción </tspan><tspan x="-5" y="10.3" class="st8 st9">(concepto y características)</tspan></text>
</g>
<g>
	<text transform="matrix(1 0 0 1 254.0117 518.5989)"><tspan x="0" y="0" class="st18 st9">Softwares</tspan><tspan x="38.2" y="0" class="st8 st9"> pecuarios</tspan></text>
</g>
<path class="st5" d="M224.1,130.5H222V99.9l0,0c1.2,0,2.1,0.9,2.1,2.1V130.5z"/>
<path class="st5" d="M224.1,457.1H222v-30.7l0,0c1.2,0,2.1,0.9,2.1,2.1V457.1z"/>
<path class="st19" d="M617.2,260.4"/>
<g>
	<defs>
		<rect id="SVGID_1_" x="458" y="304.5" width="43.3" height="45"/>
	</defs>
	<clipPath id="SVGID_00000006706630940205594840000015309020657865323905_">
		<use xlink:href="#SVGID_1_"  style="overflow:visible;"/>
	</clipPath>
</g>
<g>
	<g>
		<path class="st20" d="M298.1,327.9c-1,2.7-1.8,4.6-2.2,4.4c-0.4-0.2,1.3-4,1.3-4s-2.6,4.1-2.9,3.9c-0.3-0.2,2.3-3.6,2.3-3.6
			s-2.9,2.8-3.1,2.4c-0.2-0.5,2.8-2.8,2.8-2.8L298.1,327.9z"/>
		<path class="st21" d="M310.8,312.5c-2.4-0.1-3.7,0.8-5.1,1.9C308.4,314.9,309.7,314.3,310.8,312.5z"/>
		<path class="st21" d="M295.4,311.6c0.9,1.8,2.6,2.1,4.3,2.7C298.8,311.5,297.1,311.1,295.4,311.6z"/>
		<path class="st22" d="M310.1,313.1c-1.8,0.1-2.7,0.6-3.7,1.3C308.4,314.6,309.4,314.2,310.1,313.1z"/>
		<path class="st22" d="M296.1,312.3c1.2,1.1,2.1,1.4,3.2,1.6C298.1,312.5,297.3,312.1,296.1,312.3z"/>
		<path class="st23" d="M305.4,313c1.8-1,0.8-3.9,0.8-3.9c1.1,0.1,2,4.7-0.8,5.7V313z"/>
		<path class="st24" d="M305.8,313.3c1.9-2.1,0.3-4.3,0.3-4.3c1.1,0.1,2.1,4.6-0.8,5.7L305.8,313.3z"/>
		<path class="st23" d="M306.7,313.7c0.3-0.1,0.4-0.3,0.2-0.6c-0.2-0.3-0.9-0.7-1.3-0.5c-0.4,0.2-0.4,0.6-0.4,0.6L306.7,313.7z"/>
		<path class="st24" d="M300.8,312.8c-1.2-1.7,1-3.9,1-3.9c-1.1-0.4-3.8,3.3-1.7,5.5L300.8,312.8z"/>
		<path class="st23" d="M300,312.7c-0.8-2.7,1.8-3.8,1.8-3.8c-1.1-0.4-3.9,3.3-1.7,5.5L300,312.7z"/>
		<path class="st23" d="M299.4,312.9c-0.2-0.3-0.3-0.5,0-0.6c0.3-0.2,1.1-0.2,1.4,0.1c0.3,0.3,0.1,0.7,0.1,0.7L299.4,312.9z"/>
		<polygon class="st25" points="306.1,348 306.6,337.2 303.4,334.3 304.9,348 		"/>
		<polygon class="st25" points="326.3,343.2 323.8,332.4 319.2,338.2 324.6,344.2 324.4,347.8 325.6,347.8 		"/>
		<path class="st26" d="M322.3,344.2c0.5,0.7,2,0.6,1.4,1.3c-0.8,1-1.6-1.2-1.6-1.2L322.3,344.2z"/>
		<path class="st26" d="M319.8,344.3c-0.4,0.6-1.8,0.7-1.2,1.3c0.8,0.7,1.5-1.2,1.5-1.2L319.8,344.3z"/>
		<path class="st26" d="M321,344.3c0,0.9-0.6,1.9,0,1.9c1,0,0-1,0.2-2C321.3,344.1,321,344.3,321,344.3z"/>
		<path class="st27" d="M324.9,340.4c0.5,3.3-5,7.4-8.3,1.4L324.9,340.4z"/>
		<path class="st26" d="M324.3,341.8c-0.5,2.6-4,4.9-6.5,1.2C319.6,343.4,322.8,342.8,324.3,341.8z"/>
		<path class="st28" d="M330.5,322.2c1.8,2,3.4,19.8-12.6,19.9c-16,0.2-18.5-13.6-18.5-18.4c0-4.9,6.6-7.7,9.2-4.9
			c2.6,2.9,7,4.3,12.1,2c3.3-1.5,2.9-0.4,4.1-0.2c0.6,0.1,1.1-0.5,1.9-0.3c0.7,0.2,0.9,0.8,1.6,1
			C329.3,321.7,329.3,320.9,330.5,322.2z"/>
		<path class="st29" d="M325.4,320.9c4,1.1,9.5,6.1,2.3,13.3c-7.2,7.2-18.3,4.9-23-3.4c-2.3-4.2,2-9.9,7.7-9
			C321.5,323.3,321.3,319.8,325.4,320.9z"/>
		<path class="st30" d="M324.4,321.8c3.6,1,8.7,4.7,2.3,11.1c-6.4,6.4-16.6,3.9-20.8-3.5c-2.1-3.7,1-8.3,5.1-7.1
			C318,324.3,320.8,320.8,324.4,321.8z"/>
		<path class="st31" d="M317.9,340c10.5-0.1,13.4-7.9,13.6-13.8c0.5,5.9-1.6,16-13.6,16.2c-16,0.2-18.5-13.8-18.5-18.6
			c0-0.2,0-0.4,0-0.6C300,328.9,303.5,340.2,317.9,340z"/>
		<path class="st28" d="M331.5,343.2l-2.7-10c-1.8,2.4-3.3,3.5-5.4,4.9l6.2,6l-0.2,3.6h1.3L331.5,343.2z"/>
		<polygon class="st28" points="310.3,348 311,337.2 307.1,334.5 309.1,348 		"/>
		<path class="st28" d="M334.4,312.7c-2.1-0.9-6.5-2-7.3,8.5l-1.1-0.4c1.4-3.9,1.7-11,8.5-8.4L334.4,312.7z"/>
		<path class="st25" d="M306.7,322.7c-1.5,1.9-5.4,6.9-5.8,8.9c0,0-1.8-4.4-1.7-7.5L306.7,322.7z"/>
		<path class="st28" d="M310,320.8c-2.6-2.5-2.7-7.4-3.5-7.8c-1.1-0.5-1.5,0.5-3.5,0.4c-1.9-0.1-2.3-1.1-3.2-0.9
			c-1.6,0.3-0.6,5.6-6.5,12c-0.7,0.8,2.9,5,10,0.7C308.4,322.1,310,320.8,310,320.8z"/>
		<path class="st30" d="M306.3,315.6c1.3,1.4,1,7.1-8.5,10.8c0,0-4.1,0-4.9-1.7c3-2.9,4.8-8.2,5.6-9.5
			C299.4,313.6,304,313,306.3,315.6z"/>
		<path class="st28" d="M301.3,326.3c0-1.3-4.2,1.4-3.7,2.7C298.2,330.3,301.2,329,301.3,326.3z"/>
		<path class="st30" d="M301.1,326.5c0-1-3.2,1.1-2.8,2.1C298.7,329.6,301,328.5,301.1,326.5z"/>
		<path class="st32" d="M299.2,327c1.4-1.7,5-2.6,4.7-3c-0.3-0.4-3.8,1.6-3.8,1.6s3.5-2.2,2.9-2.6c-0.5-0.3-2.7,2.1-2.7,2.1
			s1.1-1.7,0.7-1.9c-0.2-0.1-1,2-1.9,2.7L299.2,327z"/>
		<path class="st33" d="M299.2,323.6c-1-0.7-2.2,0.8-3.5,1.2c-0.9,0.2-2.4-0.9-3.2-0.2c-0.8,0.7,1,5,3.8,4.4
			C299.1,328.4,301.2,325,299.2,323.6z"/>
		<path class="st34" d="M333.5,312.4c-0.6,0.9-0.2,2.4,4.6,2.1C338.1,314.4,335.3,309.4,333.5,312.4z"/>
		<path class="st35" d="M334.7,312.9c-0.2,1.3,0.5,1.8,3.4,1.5C338.1,314.5,335.1,310.2,334.7,312.9z"/>
		<path class="st22" d="M305.7,317c-0.9,0.3-1.8,0.4-2.2-0.4l-0.5,0.5c1.3,0.8,2.2,0.5,2.8,0.1C305.7,317.2,305.7,317.1,305.7,317z"
			/>
		<path class="st22" d="M298.3,317c0.9,0.2,1.7,0.2,2.1-0.6l0.5,0.5c-1.1,1-2,0.8-2.6,0.4C298.3,317.2,298.3,317.1,298.3,317z"/>
		<polygon class="st36" points="310.4,346.7 310.3,348 309.1,348 308.9,346.7 		"/>
		<polygon class="st36" points="306.1,346.7 306.1,348 304.9,348 304.8,346.7 		"/>
		<polygon class="st36" points="325.8,346.6 325.6,347.8 324.4,347.8 324.5,346.6 		"/>
		<polygon class="st36" points="331,346.6 330.8,347.8 329.4,347.8 329.5,346.6 		"/>
		<path class="st37" d="M299.3,324.6c-0.4-0.8-0.9-1.1-2.8,0.4s-3,2.8-0.7,3.6C297,329.1,300.3,326.5,299.3,324.6z"/>
		<path class="st37" d="M292.9,326c0.2-1.1,1-1.2,3.3-0.4c2.3,0.8,1.4,2.4,0.2,3C295,329.3,292.8,326.9,292.9,326z"/>
		<path class="st38" d="M297.7,327c1-0.2,1.1-2.2,0.7-2.3C297.3,324.3,296.3,327.4,297.7,327z"/>
		<path class="st38" d="M295.7,327.2c-0.1-0.9-1.7-1.2-1.8-0.9C293.3,327.1,295.8,328.4,295.7,327.2z"/>
		<path class="st39" d="M325.8,327.9c-0.1-0.7-0.1-2.9,1.8-3.3c0,0-2.9-0.6-3-2c-0.1-0.9,0.3-1.7,1.4-2.2c0.2,0,0.4,0,0.6,0
			c0.7,0.2,0.9,0.8,1.6,1c1.1,0.3,1.1-0.5,2.3,0.8c0.8,0.9,1.5,4.8,0.8,8.9C327.6,331.4,326,328.6,325.8,327.9z"/>
		<path class="st39" d="M329.1,312.9c-0.4,1-1.4,3.2-1.8,3.3C327.8,314.9,328.3,313.7,329.1,312.9z"/>
		<path class="st39" d="M321.7,336.7c3.3-1.9,1.6-5,0.3-5.6c-1.8-0.8-4.7,0.8-4.7,0.8s-0.3-3.9-3.8-3c-4.3,1-0.9,8.5,0.3,9
			C315.2,338.5,318.9,338.4,321.7,336.7z"/>
		<path class="st39" d="M311.6,324.5c-2.2-0.6-2.4-3.1-2.4-3.1s-1.7,0.2-1.9-1.6c-0.1-1,0.4-1.5,0.9-1.7c0.1,0.3,0.3,0.6,0.4,0.9
			c1.4,1.5,3.4,2.6,5.7,3C314.5,322.8,313.7,325,311.6,324.5z"/>
		<path class="st39" d="M298.4,321.1c-0.8,1.6-2.4,2-4.1,1.9c1.2-1.6,2.1-3.5,2.8-5C298.1,318.6,299.1,319.6,298.4,321.1z"/>
	</g>
	<defs>
		<filter id="Adobe_OpacityMaskFilter" filterUnits="userSpaceOnUse" x="292.3" y="308.9" width="45.8" height="39.2">
			<feFlood  style="flood-color:white;flood-opacity:1" result="back"/>
			<feBlend  in="SourceGraphic" in2="back" mode="normal"/>
		</filter>
	</defs>
	
		<mask maskUnits="userSpaceOnUse" x="292.3" y="308.9" width="45.8" height="39.2" id="SVGID_00000166635584458670954020000008664693447219167931_">
		<g class="st40">
			<defs>
				
					<filter id="Adobe_OpacityMaskFilter_00000061455548335058281600000004054179046778412947_" filterUnits="userSpaceOnUse" x="292.3" y="308.9" width="45.8" height="39.2">
					<feFlood  style="flood-color:white;flood-opacity:1" result="back"/>
					<feBlend  in="SourceGraphic" in2="back" mode="normal"/>
				</filter>
			</defs>
			
				<mask maskUnits="userSpaceOnUse" x="292.3" y="308.9" width="45.8" height="39.2" id="SVGID_00000166635584458670954020000008664693447219167931_">
				<g style="filter:url(#Adobe_OpacityMaskFilter_00000061455548335058281600000004054179046778412947_);">
				</g>
			</mask>
			
				<linearGradient id="SVGID_00000181789857522067311780000007578998419856139189_" gradientUnits="userSpaceOnUse" x1="289.2582" y1="313.2272" x2="289.2582" y2="343.2591" gradientTransform="matrix(-1 0 0 1 604.4806 0)">
				<stop  offset="2.150540e-02" style="stop-color:#999999"/>
				<stop  offset="1" style="stop-color:#FFFFFF"/>
			</linearGradient>
			
				<path style="mask:url(#SVGID_00000166635584458670954020000008664693447219167931_);fill:url(#SVGID_00000181789857522067311780000007578998419856139189_);" d="
				M295.2,329c-2.2-0.5-3.4-3.8-2.7-4.4c0.2-0.2,0.4-0.2,0.6-0.2c0.4-0.4,0.8-0.9,1.1-1.3l0,0c0.7-1,1.4-2.1,1.9-3.2c0,0,0,0,0,0
				c0.1-0.2,0.2-0.4,0.3-0.6c0,0,0,0,0,0c0.1-0.2,0.2-0.4,0.3-0.6c0,0,0,0,0,0c0.1-0.2,0.2-0.4,0.3-0.6c0.6-1.3,1-2.3,1.3-2.8
				c0,0,0,0,0,0c0.1-0.5,0.2-0.9,0.3-1.2c-1.4-0.4-2.6-0.9-3.4-2.4c1.4-0.4,2.8-0.2,3.7,1.4c0-0.1,0.1-0.1,0.1-0.2
				c-0.1-0.2-0.1-0.3,0-0.5c0.1-1.9,1.7-3.7,2.5-3.4c0,0-1.7,1.7-1.3,3.3c0.1,0,0.2,0.1,0.2,0.1c0.2,0.2,0.2,0.3,0.2,0.5
				c0.5,0.2,1.1,0.5,2,0.6c1.2,0.1,1.8-0.3,2.3-0.4c0-0.1,0.1-0.3,0.3-0.4c0.1,0,0.2,0,0.3,0c1.1-1.2,0.3-3.5,0.3-3.5
				c0.8,0.1,1.6,2.5,0.8,4.2c0.1,0.1,0,0.3-0.1,0.4c0,0,0,0,0,0c1.1-0.7,2.2-1.1,4-1.1c-0.9,1.5-1.9,2.1-3.7,2.1
				c0.3,1,0.6,2.2,1.1,3.4c0,0,0,0,0,0c0.1,0.3,0.3,0.6,0.4,0.9c0.1,0.1,0.2,0.2,0.3,0.3c0,0,0,0,0,0c0.1,0.1,0.2,0.2,0.3,0.3
				c0,0,0,0,0,0c1.4,1.2,3.1,2.1,5.1,2.4c0,0,0,0,0,0c1.9,0.3,4,0,6.3-1c3.3-1.5,2.9-0.4,4.1-0.2c0.4,0,0.8-0.2,1.3-0.3h0
				c0,0,0,0,0,0c0,0,0.1,0,0.1,0c0.4-1.2,0.7-2.7,1.2-4.1l0,0c0,0,0,0,0,0c0.2-0.6,0.5-1.3,0.7-1.8c0,0,0,0,0,0
				c0.1-0.1,0.1-0.2,0.2-0.4c0,0,0,0,0-0.1c0.1-0.1,0.1-0.2,0.2-0.3c0,0,0,0,0-0.1c0.1-0.1,0.2-0.2,0.2-0.3c0,0,0,0,0,0
				c0.1-0.1,0.2-0.2,0.3-0.3c0,0,0,0,0,0c0,0,0,0,0,0c1-1,2.4-1.4,4.6-0.8c1.6-1.9,3.7,1.3,4.2,2.2c0.1,0.2,0.2,0.2,0.2,0.2
				c-1,0.1-1.7,0.1-2.3,0c-2.7-0.2-2.9-1.3-2.4-2.1c-2.2-0.6-5.5-0.2-6.2,8.3c0.3,0.3,0.5,0.6,1,0.7c1.1,0.3,1.1-0.5,2.3,0.8
				c0,0,0.1,0.1,0.1,0.1c0,0,0,0,0,0c0,0,0,0.1,0.1,0.1c0,0,0,0,0,0.1c0,0,0,0.1,0,0.1c0,0,0,0,0,0.1c0,0,0,0.1,0,0.1c0,0,0,0,0,0.1
				c0,0,0,0.1,0,0.1c0,0,0,0,0,0.1c0,0,0,0.1,0,0.1c0,0,0,0,0,0.1c0,0.1,0,0.1,0.1,0.2c0,0,0,0,0,0c0,0.1,0,0.2,0.1,0.2
				c0,0,0,0.1,0,0.1c0,0.1,0,0.1,0,0.2c0,0,0,0.1,0,0.1c0,0,0,0.1,0,0.2c0,0,0,0.1,0,0.1c0,0.1,0,0.1,0,0.2c0,0,0,0.1,0,0.1
				c0,0.1,0,0.1,0,0.2c0,0,0,0.1,0,0.1c0,0.1,0,0.1,0,0.2c0,0,0,0.1,0,0.1c0,0.1,0,0.1,0,0.2c0,0.1,0,0.1,0,0.2c0,0.1,0,0.2,0,0.3
				c0,0.1,0,0.1,0,0.2c0,0.1,0,0.1,0,0.2c0,0,0,0.1,0,0.1c0,0,0,0,0,0c0.2,2.8-0.1,6.6-1.9,9.9l1.9,7.2l-0.6,3.3l0,0l-0.2,1.2h-1.3
				l0.2-3.6l-4-3.9c0,0,0,0,0,0l0.7,2.9l-0.7,4.6h-1.2l0.2-3.6l-0.7-0.8c-0.3,0.4-0.8,0.7-1.2,1c0,0-0.1,0.1-0.1,0.1
				c0.6,0.5,1.6,0.5,1.1,1.1c-0.6,0.7-1.2-0.3-1.5-0.9c-0.3,0.1-0.6,0.2-0.9,0.3c0.1,0.7,0.5,1.3-0.2,1.3c-0.5,0-0.2-0.6-0.1-1.3
				c-0.3,0-0.7,0-1-0.2c-0.2,0.5-0.7,1.4-1.3,0.8c-0.5-0.5,0.4-0.6,1-1c0,0,0,0-0.1,0c-0.9-0.3-1.7-1-2.5-2.2
				c-2.4-0.1-4.5-0.4-6.3-1.1l-0.3,5.4l0,0l-0.1,1.3h-1.2l-0.2-1.3l0,0l-1-6.7c-0.5-0.3-0.9-0.6-1.4-0.9l-0.4,7.6l0,0l-0.1,1.3h-1.1
				l-0.1-1.3l0,0l-1.2-10.4c-1.2-1.5-2.1-3.2-2.7-4.8c0,0,0,0,0,0c0,0-0.5-1.1-0.9-2.7c-0.9,0.7-2,0.9-2.3,0.2
				c-0.8,2-1.4,3.3-1.7,3.2c-0.3-0.1,0.6-2.4,1.1-3.4c-0.1,0-0.1,0-0.2,0.1c-0.7,1.1-2.3,3.4-2.5,3.3c-0.2-0.1,1.2-2.2,2-3.1
				c0,0,0,0,0,0c-0.1,0-0.1,0-0.2,0c-0.8,0.8-2.4,2.2-2.5,1.8C293.4,330.6,294.4,329.7,295.2,329z"/>
		</g>
	</mask>
	
		<linearGradient id="SVGID_00000155859490651508246720000013627610284253113730_" gradientUnits="userSpaceOnUse" x1="289.2582" y1="313.2272" x2="289.2582" y2="343.2591" gradientTransform="matrix(-1 0 0 1 604.4806 0)">
		<stop  offset="2.150540e-02" style="stop-color:#FED996"/>
		<stop  offset="1" style="stop-color:#5B0D2B"/>
	</linearGradient>
	<path style="opacity:0.6;fill:url(#SVGID_00000155859490651508246720000013627610284253113730_);" d="M295.2,329
		c-2.2-0.5-3.4-3.8-2.7-4.4c0.2-0.2,0.4-0.2,0.6-0.2c0.4-0.4,0.8-0.9,1.1-1.3l0,0c0.7-1,1.4-2.1,1.9-3.2c0,0,0,0,0,0
		c0.1-0.2,0.2-0.4,0.3-0.6c0,0,0,0,0,0c0.1-0.2,0.2-0.4,0.3-0.6c0,0,0,0,0,0c0.1-0.2,0.2-0.4,0.3-0.6c0.6-1.3,1-2.3,1.3-2.8
		c0,0,0,0,0,0c0.1-0.5,0.2-0.9,0.3-1.2c-1.4-0.4-2.6-0.9-3.4-2.4c1.4-0.4,2.8-0.2,3.7,1.4c0-0.1,0.1-0.1,0.1-0.2
		c-0.1-0.2-0.1-0.3,0-0.5c0.1-1.9,1.7-3.7,2.5-3.4c0,0-1.7,1.7-1.3,3.3c0.1,0,0.2,0.1,0.2,0.1c0.2,0.2,0.2,0.3,0.2,0.5
		c0.5,0.2,1.1,0.5,2,0.6c1.2,0.1,1.8-0.3,2.3-0.4c0-0.1,0.1-0.3,0.3-0.4c0.1,0,0.2,0,0.3,0c1.1-1.2,0.3-3.5,0.3-3.5
		c0.8,0.1,1.6,2.5,0.8,4.2c0.1,0.1,0,0.3-0.1,0.4c0,0,0,0,0,0c1.1-0.7,2.2-1.1,4-1.1c-0.9,1.5-1.9,2.1-3.7,2.1
		c0.3,1,0.6,2.2,1.1,3.4c0,0,0,0,0,0c0.1,0.3,0.3,0.6,0.4,0.9c0.1,0.1,0.2,0.2,0.3,0.3c0,0,0,0,0,0c0.1,0.1,0.2,0.2,0.3,0.3
		c0,0,0,0,0,0c1.4,1.2,3.1,2.1,5.1,2.4c0,0,0,0,0,0c1.9,0.3,4,0,6.3-1c3.3-1.5,2.9-0.4,4.1-0.2c0.4,0,0.8-0.2,1.3-0.3h0c0,0,0,0,0,0
		c0,0,0.1,0,0.1,0c0.4-1.2,0.7-2.7,1.2-4.1l0,0c0,0,0,0,0,0c0.2-0.6,0.5-1.3,0.7-1.8c0,0,0,0,0,0c0.1-0.1,0.1-0.2,0.2-0.4
		c0,0,0,0,0-0.1c0.1-0.1,0.1-0.2,0.2-0.3c0,0,0,0,0-0.1c0.1-0.1,0.2-0.2,0.2-0.3c0,0,0,0,0,0c0.1-0.1,0.2-0.2,0.3-0.3c0,0,0,0,0,0
		c0,0,0,0,0,0c1-1,2.4-1.4,4.6-0.8c1.6-1.9,3.7,1.3,4.2,2.2c0.1,0.2,0.2,0.2,0.2,0.2c-1,0.1-1.7,0.1-2.3,0c-2.7-0.2-2.9-1.3-2.4-2.1
		c-2.2-0.6-5.5-0.2-6.2,8.3c0.3,0.3,0.5,0.6,1,0.7c1.1,0.3,1.1-0.5,2.3,0.8c0,0,0.1,0.1,0.1,0.1c0,0,0,0,0,0c0,0,0,0.1,0.1,0.1
		c0,0,0,0,0,0.1c0,0,0,0.1,0,0.1c0,0,0,0,0,0.1c0,0,0,0.1,0,0.1c0,0,0,0,0,0.1c0,0,0,0.1,0,0.1c0,0,0,0,0,0.1c0,0,0,0.1,0,0.1
		c0,0,0,0,0,0.1c0,0.1,0,0.1,0.1,0.2c0,0,0,0,0,0c0,0.1,0,0.2,0.1,0.2c0,0,0,0.1,0,0.1c0,0.1,0,0.1,0,0.2c0,0,0,0.1,0,0.1
		c0,0,0,0.1,0,0.2c0,0,0,0.1,0,0.1c0,0.1,0,0.1,0,0.2c0,0,0,0.1,0,0.1c0,0.1,0,0.1,0,0.2c0,0,0,0.1,0,0.1c0,0.1,0,0.1,0,0.2
		c0,0,0,0.1,0,0.1c0,0.1,0,0.1,0,0.2c0,0.1,0,0.1,0,0.2c0,0.1,0,0.2,0,0.3c0,0.1,0,0.1,0,0.2c0,0.1,0,0.1,0,0.2c0,0,0,0.1,0,0.1
		c0,0,0,0,0,0c0.2,2.8-0.1,6.6-1.9,9.9l1.9,7.2l-0.6,3.3l0,0l-0.2,1.2h-1.3l0.2-3.6l-4-3.9c0,0,0,0,0,0l0.7,2.9l-0.7,4.6h-1.2
		l0.2-3.6l-0.7-0.8c-0.3,0.4-0.8,0.7-1.2,1c0,0-0.1,0.1-0.1,0.1c0.6,0.5,1.6,0.5,1.1,1.1c-0.6,0.7-1.2-0.3-1.5-0.9
		c-0.3,0.1-0.6,0.2-0.9,0.3c0.1,0.7,0.5,1.3-0.2,1.3c-0.5,0-0.2-0.6-0.1-1.3c-0.3,0-0.7,0-1-0.2c-0.2,0.5-0.7,1.4-1.3,0.8
		c-0.5-0.5,0.4-0.6,1-1c0,0,0,0-0.1,0c-0.9-0.3-1.7-1-2.5-2.2c-2.4-0.1-4.5-0.4-6.3-1.1l-0.3,5.4l0,0l-0.1,1.3h-1.2l-0.2-1.3l0,0
		l-1-6.7c-0.5-0.3-0.9-0.6-1.4-0.9l-0.4,7.6l0,0l-0.1,1.3h-1.1l-0.1-1.3l0,0l-1.2-10.4c-1.2-1.5-2.1-3.2-2.7-4.8c0,0,0,0,0,0
		c0,0-0.5-1.1-0.9-2.7c-0.9,0.7-2,0.9-2.3,0.2c-0.8,2-1.4,3.3-1.7,3.2c-0.3-0.1,0.6-2.4,1.1-3.4c-0.1,0-0.1,0-0.2,0.1
		c-0.7,1.1-2.3,3.4-2.5,3.3c-0.2-0.1,1.2-2.2,2-3.1c0,0,0,0,0,0c-0.1,0-0.1,0-0.2,0c-0.8,0.8-2.4,2.2-2.5,1.8
		C293.4,330.6,294.4,329.7,295.2,329z"/>
</g>
<g>
	<g>
		<path class="st44" d="M465.6,341.5l1,7.5h0.7c0,0,0-6.4,0.5-8.2L465.6,341.5z"/>
		<path class="st44" d="M462.8,341.5l1,7.5h0.7c0,0,0-6.4,0.5-8.2L462.8,341.5z"/>
		<path class="st44" d="M476.8,341.5l1,7.5h0.7c0,0,0-6.4,0.5-8.2L476.8,341.5z"/>
		<path class="st44" d="M473.9,341.5l1,7.5h0.7c0,0,0-6.4,0.5-8.2L473.9,341.5z"/>
		<path class="st45" d="M484.5,319.8c2.3-0.6,0.6-6.3,1.3-6.3c0.7,0,1.2,5.2,0.4,7L484.5,319.8z"/>
		<path class="st46" d="M485.7,320c1.5-0.6-0.2-6.2,0.2-6.3c0.4,0,1.3,5.2,1,6.9L485.7,320z"/>
		<path class="st45" d="M481.9,320.1c-2.5-0.4-1.1-6.2-1.9-6.2c-0.7,0-0.8,5.3,0.1,7L481.9,320.1z"/>
		<path class="st46" d="M481.9,320c-1.5-0.3-1.2-6.1-1.7-6c-0.4,0.1,0,5.3,0.7,7L481.9,320z"/>
		<path class="st47" d="M465.6,341.5l0.5,3.4h1.4c0.1-1.6,0.2-3.3,0.4-4.1L465.6,341.5z"/>
		<path class="st47" d="M462.8,341.5l0.4,3.4h1.3c0.1-1.6,0.2-3.3,0.4-4.1L462.8,341.5z"/>
		<path class="st47" d="M476.8,341.5l0.5,3.4h1.4c0.1-1.6,0.2-3.3,0.4-4.1L476.8,341.5z"/>
		<path class="st47" d="M473.9,341.5l0.5,3.4h1.4c0.1-1.6,0.2-3.3,0.4-4.1L473.9,341.5z"/>
		<path class="st48" d="M462.9,327.8c-0.7-0.2-1.4,0.1-1.8,0.7c-1.3,1.7-2.2,4.5-1.5,4.8c0.9,0.4,1.2-0.9,1.2-0.9s-0.5,8.7,1,9.4
			c1.5,0.7,0.9-1.2,0.9-1.2s0.1,2.7,1.2,2.7c1.1,0,1.3-2.6,1.3-2.6s-0.2,2.6,1.5,2.5c1.7-0.1,1.6-1.7,1.6-1.7s0.5,2.1,2.9,2
			c1.6-0.1,2.5-1.8,2.5-1.8s0,1,1.2,0.9c1.2-0.1,1.3-0.8,1.3-0.8s0.1,1.4,1.9,1.4c1.4,0,1.6-1.2,1.6-1.2s0.6,0.6,1.4,0.6
			c1.2-0.1,1.8-5,1.8-5.5c0,0,2,3.1,1.2-7.5c-0.1-1.7,1.4-6.3,1.4-6.3l-5.2-1.8c0,0,1,4.7-2.4,7
			C474.9,330.5,465.9,328.5,462.9,327.8z"/>
		<g>
			<path class="st49" d="M464.5,339.9c0,0-0.2,2.6-1.3,2.6c-0.1,0-0.2,0-0.3-0.1c0.2,0.5,0.4,0.9,0.9,0.9c0.6,0,0.9-0.8,1.1-1.5
				C464.5,341.1,464.5,339.9,464.5,339.9z"/>
			<path class="st49" d="M462.1,340.7c0,0.4-0.3,0.7-1,0.4c0.1,0.4,0.3,0.7,0.5,0.8c0.4,0.2,0.7,0.2,0.8,0.1
				C462.3,341.5,462.2,341.1,462.1,340.7z"/>
			<path class="st49" d="M467.6,340.7c0,0,0.1,1.6-1.6,1.7c-0.3,0-0.6,0-0.7-0.2c0.2,0.6,0.6,1,1.3,1c1.3-0.1,1.5-1,1.5-1.4
				C467.7,341.2,467.6,340.7,467.6,340.7z"/>
			<path class="st49" d="M460.1,331.6c0,0-0.2,0.9-0.9,0.9c0,0.4,0,0.7,0.2,0.7c0.2,0.1,0.4,0.1,0.6,0
				C460.1,332.3,460.1,331.6,460.1,331.6z"/>
			<path class="st49" d="M485.5,323.3l-0.7-0.3c-0.4,1.3-1.3,4.4-1.2,5.7c0.8,10.6-1.2,7.5-1.2,7.5c0,0.4-0.6,5.4-1.8,5.5
				c-0.8,0-1.4-0.6-1.4-0.6s-0.2,1.2-1.6,1.2c-0.6,0-1-0.2-1.3-0.4c0.1,0.4,0.5,1.2,1.9,1.2c1.4,0,1.6-1.2,1.6-1.2s0.6,0.6,1.4,0.6
				c1.2-0.1,1.8-5,1.8-5.5c0,0,2,3.1,1.2-7.5C484,327.9,485.5,323.3,485.5,323.3z"/>
			<path class="st49" d="M475.5,341.1c0,0-0.1,0.7-1.3,0.8c-0.3,0-0.5,0-0.6-0.1c0,0.2,0.1,1,1.2,0.9c0.9,0,1.2-0.5,1.3-0.7
				C475.5,341.6,475.5,341.1,475.5,341.1z"/>
			<path class="st49" d="M473,341c0,0-0.9,1.7-2.5,1.8c-1.1,0-1.8-0.4-2.2-0.8c0.3,0.6,1,1.7,2.8,1.6c1.4,0,2.3-1.6,2.5-1.8
				C473,341.5,473,341,473,341z"/>
			<path class="st49" d="M480.3,323.7c0.1,2,0.7,3.6,3.6,5.7l0.3-2.7L480.3,323.7z"/>
		</g>
		<path class="st50" d="M477.8,328.6c-2.9,2-12,0-15-0.7c-0.7-0.2-1.4,0.1-1.8,0.7c-1.3,1.7-2.2,4.5-1.5,4.8
			c0.9,0.4,1.2-0.9,1.2-0.9s-0.2,3,0,5.7c1.8,0.7,3.8,1,6,1c7.3,0,13.3-4.3,13.3-9.6c0-0.9-0.2-1.8-0.5-2.6
			C479,327.5,478.5,328.1,477.8,328.6z"/>
		<path class="st49" d="M479,327.4c0.7,1.2,2.6,3.5,5.2,4.3l0,0.6c0,0-3.9-1.3-5.4-4.5L479,327.4z"/>
		<path class="st51" d="M479.2,327.1c0.7,1.2,2.6,3.5,5.2,4.3l0,0.6c0,0-3.9-1.3-5.4-4.5L479.2,327.1z"/>
		<path class="st52" d="M481.3,329.6c-1-0.9-1.7-1.8-2.1-2.5l-0.3,0.4c0.6,1.2,1.5,2.2,2.4,2.9V329.6z"/>
		<path class="st53" d="M463.1,328.4c-1.2-1.4-3.1-3.1-6.2-2.4l1.2,0.7l-1.2,0.6c0,0,1.1,0.1,1.2,0.3c0.2,0.4-0.4,1.4-0.4,1.4
			s3.7-1.6,5-0.4L463.1,328.4z"/>
		<path class="st48" d="M458.1,327.8c0.2,0.4-0.4,1.4-0.4,1.4s3.7-1.6,5-0.4l0.3-0.2c-0.6-0.7-1.9-1.1-3.4-1.1
			c-0.6,0-1.2,0.1-1.8,0.2C457.9,327.7,458,327.7,458.1,327.8z"/>
		<path class="st54" d="M486.2,329.5c-2.2,0.3-3.2,1.9-3.5,1.7c-0.3-0.2,0.5-0.9,1.1-1.5c0,0-1.8,0.9-1.8,0.6c0-0.2,0.8-0.6,1.7-1
			c0,0-3.2,0.8-1.7,0.1c1.5-0.7,5.7-0.7,5.7-0.7L486.2,329.5z"/>
		<path class="st54" d="M488.3,329.8c2.5,0.9,3.1,2.6,3.4,2.4c0.3-0.1-0.9-1.2-1.3-1.8c0,0,1.2,0.9,1.3,0.6c0.1-0.2-0.6-0.6-1.4-1.2
			c0,0,2.2,1.1,0.8,0.1c-1.3-1.1-4.1-1.2-4.1-1.2L488.3,329.8z"/>
		<path class="st55" d="M485.4,329.4c0,0.6,0.2,1.6,1.5,1.8c1.3,0.1,1.8-0.6,1.8-1.4L485.4,329.4z"/>
		<path class="st55" d="M485.9,319.9c0.9-1.2,1.3-2.4,4.1-2c0,0-0.7,3.1-3.9,2.5L485.9,319.9z"/>
		<path class="st48" d="M486.2,319.9c0.7-1,1.1-2.1,3.5-1.9C490.2,318,487.5,320.3,486.2,319.9z"/>
		<path class="st56" d="M486.7,320.2c1-0.1,1.8,0.1,2.6-1.7c0,0-2-0.7-2.8,1.4L486.7,320.2z"/>
		<path class="st57" d="M488.8,318.4c-0.7,0-1.7,0.1-2.2,1.5l0.2,0.3c0.3,0,0.5,0,0.8-0.1C487.6,319.1,488.3,318.7,488.8,318.4z"/>
		<path class="st48" d="M479.5,321.5c0-0.8,0.3-1.8,0.8-2c1.1-0.3,2.2,0.4,2.6,0.3c0.4,0,1.8-1,3.1-0.5c2,0.7,2.5,7,3.4,8.3
			c0.4,0.6,0.5,2.6-1.7,2.6c-3-0.1-2.5-1.3-3.7-2.4C479.6,323.9,479.5,322.6,479.5,321.5z"/>
		<path class="st58" d="M485.6,319.5c1.8,0.2,4.3,9.1,2,9.6C485.8,329.4,481.3,318.9,485.6,319.5z"/>
		<path class="st58" d="M480.2,319.9c1.2-1.2,4.9,1.5,5.9,2.3c1.3,1.2,2.3,6.3,1.4,6.8C486.6,329.5,477.3,322.9,480.2,319.9z"/>
		<path class="st59" d="M486.7,327.8c-0.7-1.3-2.2-3.6-1-3.6c1.2,0,3.5,3.2,3.5,3.2L486.7,327.8z"/>
		<path class="st48" d="M479.7,320.5c-1.2-0.9-1.9-2-4.6-0.7c0,0,1.6,2.8,4.4,1.2L479.7,320.5z"/>
		<path class="st58" d="M479.3,320.4c-1.2-0.9-1.5-1.7-4.2-0.6C476.5,320.7,477.2,320.7,479.3,320.4z"/>
		<path class="st56" d="M479.2,320.4c-0.8-0.6-1.3-1.3-3-0.5c0,0,1.1,1.8,3,0.8L479.2,320.4z"/>
		<path class="st60" d="M484.7,334.5c-0.6-0.9-0.9-2.3-0.4-2.5c0.5-0.2,1.9,1,1.9,1S485.7,334.1,484.7,334.5z"/>
		<path class="st61" d="M484.7,334.5c0-0.5,0.4-1.4,1.6-1.5C486.1,334.4,484.7,334.5,484.7,334.5z"/>
		<path class="st60" d="M485.3,333.8c0.2,0.2,0.9,0,0.4-0.4L485.3,333.8z"/>
		<path class="st62" d="M487.3,330.1c0.3,0,0.6-0.5,0.4-1.6l0.4,0c0,0-0.3,1.6,0.1,1.7H487.3z"/>
		<path class="st56" d="M487.8,328.9c0.6,0.1,1.6-1,1.4-1.4c-0.2-0.4-2.3-0.4-2.5-0.1C486.5,327.7,487.3,328.7,487.8,328.9z"/>
		<path class="st63" d="M481.8,323l0.3-0.7c0,0,0.7,0.9,2,0.2l0.1,0.2C483.4,323.2,482.7,323.5,481.8,323z"/>
		<path class="st63" d="M487.2,322.6l-0.3-0.6c0,0-0.6,0.8-1.8,0.1l-0.1,0.2C485.8,322.8,486.4,323.1,487.2,322.6z"/>
		<path class="st53" d="M477.2,328.9c-3.4,1.4-11.5-0.4-14.4-1.1c-0.7-0.2-1.4,0.1-1.8,0.7c-0.2,0.2-0.4,0.5-0.5,0.8
			C462.7,333.8,468.2,337.5,477.2,328.9z"/>
		<path class="st64" d="M487.7,328.5c-0.4-0.4-0.9-1-0.6-1c0.3-0.1,0.9,0.9,0.9,0.9L487.7,328.5z"/>
		<path class="st64" d="M488,328.4c0.3-0.4,0.9-1,1-0.7c0.1,0.3-0.8,1-0.8,1L488,328.4z"/>
		<path class="st48" d="M486.2,330.1c-0.2,0-0.3,0.7,0.3,0.8C487.3,331,488.4,330.5,486.2,330.1z"/>
		<path class="st65" d="M484.6,334.1c0.1-0.3,0.4-0.8,0.7-0.9c-0.3-0.4-1.1-1.1-1.1-0.9C484,332.9,484.6,334.1,484.6,334.1z"/>
		<path class="st57" d="M476.9,320.7c0.9-0.6,1.5-0.6,2.1-0.5c-0.7-0.5-1.2-1-2.8-0.3C476.2,319.9,476.4,320.4,476.9,320.7z"/>
	</g>
	<defs>
		
			<filter id="Adobe_OpacityMaskFilter_00000148646706995159429960000000777724801802291842_" filterUnits="userSpaceOnUse" x="456.9" y="313.5" width="34.8" height="35.5">
			<feFlood  style="flood-color:white;flood-opacity:1" result="back"/>
			<feBlend  in="SourceGraphic" in2="back" mode="normal"/>
		</filter>
	</defs>
	
		<mask maskUnits="userSpaceOnUse" x="456.9" y="313.5" width="34.8" height="35.5" id="SVGID_00000031202465531676942590000008987923653150431649_">
		<g style="filter:url(#Adobe_OpacityMaskFilter_00000148646706995159429960000000777724801802291842_);">
			<defs>
				
					<filter id="Adobe_OpacityMaskFilter_00000180364427326796402590000014030050052515436477_" filterUnits="userSpaceOnUse" x="456.9" y="313.5" width="34.8" height="35.5">
					<feFlood  style="flood-color:white;flood-opacity:1" result="back"/>
					<feBlend  in="SourceGraphic" in2="back" mode="normal"/>
				</filter>
			</defs>
			
				<mask maskUnits="userSpaceOnUse" x="456.9" y="313.5" width="34.8" height="35.5" id="SVGID_00000031202465531676942590000008987923653150431649_">
				<g style="filter:url(#Adobe_OpacityMaskFilter_00000180364427326796402590000014030050052515436477_);">
				</g>
			</mask>
			
				<linearGradient id="SVGID_00000028320539389232596760000000508749997776935308_" gradientUnits="userSpaceOnUse" x1="474.3094" y1="322.818" x2="474.3094" y2="349.0788">
				<stop  offset="2.150540e-02" style="stop-color:#999999"/>
				<stop  offset="1" style="stop-color:#FFFFFF"/>
			</linearGradient>
			
				<path style="mask:url(#SVGID_00000031202465531676942590000008987923653150431649_);fill:url(#SVGID_00000028320539389232596760000000508749997776935308_);" d="
				M490.4,330.4c0,0,1.2,0.9,1.3,0.6c0.1-0.2-0.6-0.6-1.4-1.2c0,0,2.2,1.1,0.8,0.1c-0.4-0.4-1-0.6-1.6-0.8c0.2-0.6,0.1-1.2-0.1-1.5
				c-0.7-1-1.1-5-2.3-7.1c2.4-0.1,2.9-2.6,2.9-2.6c-1.7-0.3-2.6,0.1-3.2,0.7c-0.1-1.9-0.6-4.3-0.9-4.8c-0.1-0.2-0.2-0.3-0.3-0.3
				c-0.6,0,0.5,4-0.5,5.6c-1.1,0-2.1,0.6-2.4,0.7c-0.3,0-1-0.3-1.7-0.4c-0.8-1.5-0.7-5.3-1-5.4c0-0.1-0.1-0.1-0.2-0.1
				c-0.6,0-0.7,3.9-0.2,6.1c-0.1,0.1-0.1,0.3-0.2,0.4c-1.2-0.9-1.9-1.9-4.5-0.7c0,0,1.5,2.7,4.3,1.3c0,0.2,0,0.3,0,0.5
				c0,0.6,0.1,1.3,0.9,2.5c0,0,0,0,0,0c-0.1,0.9-0.3,1.9-0.9,2.9l0,0c-0.1,0.1-0.1,0.2-0.2,0.3c0,0,0-0.1-0.1-0.1l-0.3,0.4
				c0,0,0,0,0,0.1c0,0-0.1,0.1-0.1,0.1c0,0-0.1,0.1-0.1,0.1c0,0-0.1,0.1-0.1,0.1c0,0-0.1,0.1-0.1,0.1c0,0-0.1,0.1-0.1,0.1
				c-0.1,0-0.1,0.1-0.2,0.1c0,0-0.1,0.1-0.1,0.1c-0.1,0.1-0.2,0.1-0.3,0.2c-0.2,0.1-0.4,0.2-0.6,0.3c0,0,0,0,0,0
				c-0.1,0-0.2,0.1-0.2,0.1c0,0-0.1,0-0.1,0c-0.1,0-0.2,0-0.2,0.1c0,0-0.1,0-0.1,0c-0.1,0-0.2,0-0.2,0.1c0,0-0.1,0-0.1,0
				c-0.1,0-0.2,0-0.3,0c-0.1,0-0.1,0-0.2,0c-0.1,0-0.2,0-0.3,0c-0.1,0-0.1,0-0.2,0c-0.1,0-0.2,0-0.3,0c-0.1,0-0.1,0-0.2,0
				c-0.1,0-0.2,0-0.3,0c-0.1,0-0.1,0-0.2,0c-0.1,0-0.2,0-0.3,0c-0.1,0-0.1,0-0.2,0c-0.1,0-0.2,0-0.3,0c-0.1,0-0.1,0-0.2,0
				c-0.1,0-0.2,0-0.3,0c-0.1,0-0.1,0-0.2,0c-0.1,0-0.2,0-0.3,0c-0.1,0-0.1,0-0.2,0c-0.1,0-0.2,0-0.3,0c-0.1,0-0.1,0-0.2,0
				c-0.1,0-0.2,0-0.3,0c-0.1,0-0.1,0-0.2,0c-0.1,0-0.2,0-0.4,0c0,0-0.1,0-0.1,0c-0.5,0-0.9-0.1-1.4-0.2c0,0-0.1,0-0.1,0
				c-0.1,0-0.2,0-0.3-0.1c-0.1,0-0.1,0-0.2,0c-0.1,0-0.2,0-0.3,0c-0.1,0-0.1,0-0.2,0c-0.1,0-0.2,0-0.3,0c-0.1,0-0.2,0-0.2,0
				c-0.1,0-0.2,0-0.3,0c-0.1,0-0.2,0-0.2,0c-0.1,0-0.2,0-0.3,0c-0.1,0-0.2,0-0.2,0c-0.1,0-0.2,0-0.3,0c-0.1,0-0.2,0-0.2,0
				c-0.1,0-0.2,0-0.2,0c-0.1,0-0.2,0-0.2,0c-0.1,0-0.2,0-0.2,0c-0.1,0-0.2,0-0.2,0c-0.1,0-0.1,0-0.2,0c-0.1,0-0.2,0-0.2,0
				c-0.1,0-0.1,0-0.2,0c-0.1,0-0.1,0-0.2,0c-0.1,0-0.1,0-0.2,0c-0.1,0-0.1,0-0.2,0c-0.1,0-0.1,0-0.2,0c-0.1,0-0.1,0-0.2-0.1
				c0,0-0.1,0-0.1,0c-0.1,0-0.2,0-0.2-0.1c0,0-0.1,0-0.1,0c-0.1,0-0.2,0-0.3-0.1c-0.1,0-0.3,0-0.4,0c-1.2-1.2-2.9-2.3-5.5-1.7
				l1.2,0.7l-1.2,0.6c0,0,0.6,0.1,0.9,0.2h0c0,0,0.1,0,0.1,0c0,0,0,0,0,0c0,0,0,0,0.1,0c0,0,0,0,0,0c0,0,0,0,0,0c0,0,0,0,0,0
				c0,0,0,0,0,0c0.2,0.4-0.4,1.4-0.4,1.4s1.9-0.8,3.5-0.8c0,0-0.1,0.1-0.1,0.1c-0.1,0.1-0.2,0.2-0.3,0.4c0,0,0,0,0,0
				c-0.1,0.1-0.2,0.3-0.2,0.4c0,0,0,0,0,0l0,0c-0.7,1.1-1.2,2.5-1.2,3.3l0,0c0,0,0,0,0,0c0,0,0,0.1,0,0.1c0,0,0,0,0,0
				c0,0,0,0.1,0,0.1c0,0,0,0,0,0c0,0,0,0.1,0,0.1c0,0,0,0,0,0c0,0,0,0.1,0,0.1c0,0,0,0,0,0c0,0,0,0,0,0.1c0,0,0,0,0,0c0,0,0,0,0,0
				c0,0,0,0,0,0c0,0,0,0,0,0c0,0,0,0,0,0c0,0,0,0,0.1,0c0.1,0,0.2,0.1,0.3,0.1c0,0,0,0,0,0c0.6,0,0.9-0.9,0.9-0.9s0,0,0,0
				c0,0,0,0,0,0c0,0,0,0,0,0.1c0,0,0,0,0,0c0,0,0,0.1,0,0.1c0,0,0,0,0,0c0,0,0,0.1,0,0.1c0,0,0,0.1,0,0.1c0,0,0,0.1,0,0.1
				c0,0,0,0.1,0,0.1c0,0,0,0.1,0,0.1c0,0.1,0,0.1,0,0.2c0,0,0,0,0,0.1c0,0.1,0,0.2,0,0.2c0,0,0,0,0,0.1c0,0.1,0,0.1,0,0.2
				c0,0,0,0,0,0c0,0.1,0,0.2,0,0.3c0,0,0,0.1,0,0.1c0,0.1,0,0.2,0,0.3c0,0,0,0.1,0,0.1c0,0.2,0,0.4,0,0.6c0,0,0,0.1,0,0.1
				c0,0.1,0,0.2,0,0.4c0,0,0,0.1,0,0.1c0,0.1,0,0.2,0,0.3c0,0,0,0.1,0,0.1c0,0.1,0,0.1,0,0.2c0,0.1,0,0.1,0,0.2c0,0.1,0,0.2,0,0.3
				c0,0.1,0,0.1,0,0.2c0,0.1,0,0.2,0,0.2c0,0.1,0,0.1,0,0.2c0,0.1,0,0.1,0,0.2c0,0.1,0,0.2,0,0.3l0,0c0.1,1.2,0.2,2.2,0.5,2.9l0,0
				c0,0.1,0,0.1,0.1,0.2c0,0,0,0.1,0,0.1c0,0,0,0.1,0.1,0.1c0,0,0,0.1,0,0.1c0,0,0,0.1,0.1,0.1c0,0,0,0,0,0c0,0,0.1,0.1,0.1,0.1
				c0,0,0,0,0,0c0,0,0.1,0.1,0.1,0.1c0,0,0.1,0,0.1,0.1c0,0,0,0,0,0c0,0,0.1,0,0.1,0c0,0,0,0,0,0c0,0,0.1,0,0.1,0c0,0,0,0,0,0
				c0,0,0,0,0.1,0c0,0,0,0,0,0c0,0,0,0,0.1,0c0,0,0,0,0,0c0,0,0,0,0.1,0c0,0,0,0,0,0c0,0,0,0,0.1,0c0,0,0,0,0,0
				c0.2-0.1,0.2-0.3,0.3-0.5c0,0.2,0.1,0.4,0.1,0.6l0.9,6.9h0.7c0,0,0-2,0.1-4.1l0,0c0-0.1,0-0.1,0-0.2c0-0.1,0-0.1,0-0.2
				c0,0,0-0.1,0-0.1c0-0.1,0-0.1,0-0.2c0,0,0-0.1,0-0.1c0-0.1,0-0.1,0-0.2c0,0,0-0.1,0-0.1c0-0.1,0-0.1,0-0.2c0,0,0-0.1,0-0.1
				c0-0.1,0-0.1,0-0.2c0,0,0-0.1,0-0.1c0-0.1,0-0.2,0-0.3c0,0,0,0,0,0c0-0.1,0-0.2,0-0.2c0,0,0-0.1,0-0.1c0,0,0,0,0,0
				c0,0,0-0.1,0-0.1c0,0,0,0,0,0c0,0,0-0.1,0-0.1c0,0,0,0,0,0c0,0,0-0.1,0-0.1c0,0,0,0,0,0c0,0,0-0.1,0-0.1c0,0,0,0,0,0
				c0,0,0-0.1,0-0.1c0,0,0,0,0,0l0,0c0.1-0.6,0.2-1.1,0.2-1.1s-0.1,1,0.3,1.7c0,0,0,0,0,0c0,0.1,0.1,0.1,0.1,0.2c0,0,0,0,0,0
				c0,0.1,0.1,0.1,0.1,0.2c0,0,0,0,0,0c0,0.1,0.1,0.1,0.1,0.1c0,0,0,0,0,0c0,0,0.1,0,0.1,0.1l0.2,1.9l0,0l0.5,4.1h0.7
				c0,0,0-2,0.1-4.1l0,0c0-0.1,0-0.1,0-0.2c0,0,0-0.1,0-0.1c0-0.1,0-0.1,0-0.2c0-0.1,0-0.1,0-0.2c0-0.1,0-0.1,0-0.2
				c0-0.1,0-0.1,0-0.2c0-0.1,0-0.1,0-0.2c0-0.1,0-0.1,0-0.2c0-0.1,0-0.1,0-0.2c0-0.1,0-0.1,0-0.2c0,0,0-0.1,0-0.1c0-0.1,0-0.1,0-0.2
				c0,0,0,0,0,0c0,0,0,0,0,0c0,0,0.1-0.1,0.1-0.1c0,0,0,0,0,0c0,0,0.1-0.1,0.1-0.1c0,0,0,0,0,0c0,0,0.1-0.1,0.1-0.1c0,0,0,0,0,0
				c0,0,0-0.1,0.1-0.1c0,0,0,0,0,0c0,0,0-0.1,0.1-0.1c0,0,0,0,0,0c0,0,0-0.1,0-0.1c0,0,0,0,0,0c0,0,0-0.1,0-0.1c0,0,0,0,0,0
				c0,0,0-0.1,0-0.1c0-0.2,0-0.3,0-0.3s0,0.2,0.2,0.4l0,0c0,0,0,0,0,0c0,0,0,0.1,0,0.1c0,0,0,0,0,0.1c0,0,0,0.1,0,0.1
				c0,0,0.1,0.1,0.1,0.1c0,0,0,0,0,0.1c0,0,0.1,0.1,0.1,0.1c0,0,0,0,0,0.1c0,0.1,0.1,0.1,0.2,0.2c0,0,0,0,0,0c0.1,0,0.1,0.1,0.2,0.1
				c0,0,0,0,0.1,0c0.1,0.1,0.1,0.1,0.2,0.1c0,0,0,0,0,0c0.1,0,0.2,0.1,0.2,0.1c0,0,0,0,0.1,0c0.1,0,0.2,0.1,0.2,0.1c0,0,0,0,0.1,0
				c0.1,0,0.2,0.1,0.3,0.1c0,0,0,0,0.1,0c0.1,0,0.2,0,0.3,0c0,0,0.1,0,0.1,0c0.1,0,0.3,0,0.4,0c0.1,0,0.2,0,0.3,0c0,0,0.1,0,0.1,0
				c0.1,0,0.1,0,0.2,0c0,0,0.1,0,0.1,0c0.1,0,0.1,0,0.2-0.1c0,0,0.1,0,0.1,0c0,0,0.1,0,0.1-0.1c0,0,0.1,0,0.1-0.1
				c0,0,0.1-0.1,0.1-0.1c0,0,0.1,0,0.1-0.1c0,0,0.1-0.1,0.1-0.1c0,0,0,0,0.1-0.1c0,0,0.1-0.1,0.1-0.1c0,0,0,0,0.1-0.1
				c0,0,0.1-0.1,0.1-0.1c0,0,0,0,0.1-0.1c0,0,0.1-0.1,0.1-0.1c0,0,0,0,0-0.1c0,0,0.1-0.1,0.1-0.1c0,0,0,0,0,0c0,0,0.1-0.1,0.1-0.1
				c0,0,0,0,0,0c0,0,0-0.1,0.1-0.1c0,0,0,0,0,0c0,0,0-0.1,0.1-0.1c0.1-0.1,0.1-0.2,0.1-0.2s0,0,0,0l0,0c0,0,0,0,0,0c0,0,0,0,0,0
				c0,0,0,0,0,0c0,0,0,0,0,0c0,0,0,0,0,0c0,0,0,0,0,0c0,0,0,0,0,0.1c0,0,0,0,0,0c0,0,0,0,0,0.1c0,0,0,0,0,0c0,0.1,0.1,0.2,0.1,0.3
				c0,0,0,0,0,0c0,0,0,0,0.1,0.1c0,0,0,0,0,0c0,0,0,0,0.1,0.1c0,0,0,0,0,0c0,0,0,0,0.1,0c0,0,0,0,0,0l0.8,6.4h0.7c0,0,0-2,0.1-4.1
				l0,0c0-0.1,0-0.2,0-0.2c0,0,0-0.1,0-0.1c0-0.1,0-0.1,0-0.2c0,0,0-0.1,0-0.1c0-0.1,0-0.1,0-0.2c0,0,0-0.1,0-0.1c0-0.1,0-0.1,0-0.2
				c0,0,0-0.1,0-0.1c0-0.1,0-0.1,0-0.2c0-0.1,0-0.1,0-0.2c0-0.1,0-0.1,0-0.2c0-0.1,0-0.1,0-0.2c0,0,0-0.1,0-0.1c0-0.1,0-0.2,0-0.3
				c0,0,0-0.1,0-0.1c0-0.1,0-0.1,0-0.2c0,0,0,0,0,0c0,0,0,0,0-0.1c0,0,0,0,0,0c0,0,0-0.1,0-0.1c0,0,0,0,0,0l0,0c0-0.1,0-0.1,0-0.1
				s0,0.1,0.1,0.2c0,0,0,0,0,0c0,0,0,0,0,0.1c0,0,0,0,0,0.1c0,0,0,0,0,0c0,0,0,0.1,0.1,0.1c0,0,0,0,0,0c0,0,0,0.1,0.1,0.1
				c0,0,0,0,0,0c0,0,0.1,0.1,0.1,0.1c0,0,0,0,0,0c0,0,0.1,0.1,0.1,0.1c0,0,0,0,0,0c0,0,0.1,0.1,0.1,0.1c0,0,0,0,0,0
				c0,0,0.1,0.1,0.1,0.1c0,0,0,0,0,0c0,0,0,0,0.1,0l0.2,1.8l0,0l0.5,4.1h0.7c0,0,0-2,0.1-4.1c0,0,0-0.1,0-0.1c0-0.1,0-0.2,0-0.2
				c0,0,0-0.1,0-0.1c0-0.1,0-0.1,0-0.2c0-0.1,0-0.1,0-0.2c0-0.1,0-0.1,0-0.2c0-0.1,0-0.1,0-0.2c0-0.1,0-0.1,0-0.2c0-0.1,0-0.1,0-0.2
				c0-0.1,0-0.1,0-0.2c0,0,0-0.1,0-0.1c0.8-0.3,0.9-1.1,0.9-1.1s0.6,0.6,1.4,0.6c1.2-0.1,1.8-5,1.8-5.5c0,0,1.5,2.2,1.4-3.6
				c0.1,0.3,0.3,0.6,0.4,0.9c0,0,1.4-0.1,1.6-1.5c0,0-1.4-1.2-1.9-1c0,0,0,0-0.1,0l0-0.6c0,0-0.1,0-0.1,0c0-0.4,0-0.8-0.1-1.2
				c0.4-0.2,0.8-0.4,1.3-0.6c0.1,0.6,0.3,1.4,1.5,1.5c1.2,0.1,1.7-0.4,1.8-1.2c2.1,0.9,2.7,2.4,3,2.3
				C492,332.2,490.8,331.1,490.4,330.4z M484.3,328c0.2,0.3,0.4,0.5,0.6,0.8c-0.2,0-0.5,0-0.7,0.1
				C484.2,328.6,484.2,328.3,484.3,328z"/>
		</g>
	</mask>
	
		<linearGradient id="SVGID_00000171716921837511292540000009769402627150164667_" gradientUnits="userSpaceOnUse" x1="474.3094" y1="322.818" x2="474.3094" y2="349.0788">
		<stop  offset="2.150540e-02" style="stop-color:#FED996"/>
		<stop  offset="1" style="stop-color:#241941"/>
	</linearGradient>
	<path style="opacity:0.6;fill:url(#SVGID_00000171716921837511292540000009769402627150164667_);" d="M490.4,330.4
		c0,0,1.2,0.9,1.3,0.6c0.1-0.2-0.6-0.6-1.4-1.2c0,0,2.2,1.1,0.8,0.1c-0.4-0.4-1-0.6-1.6-0.8c0.2-0.6,0.1-1.2-0.1-1.5
		c-0.7-1-1.1-5-2.3-7.1c2.4-0.1,2.9-2.6,2.9-2.6c-1.7-0.3-2.6,0.1-3.2,0.7c-0.1-1.9-0.6-4.3-0.9-4.8c-0.1-0.2-0.2-0.3-0.3-0.3
		c-0.6,0,0.5,4-0.5,5.6c-1.1,0-2.1,0.6-2.4,0.7c-0.3,0-1-0.3-1.7-0.4c-0.8-1.5-0.7-5.3-1-5.4c0-0.1-0.1-0.1-0.2-0.1
		c-0.6,0-0.7,3.9-0.2,6.1c-0.1,0.1-0.1,0.3-0.2,0.4c-1.2-0.9-1.9-1.9-4.5-0.7c0,0,1.5,2.7,4.3,1.3c0,0.2,0,0.3,0,0.5
		c0,0.6,0.1,1.3,0.9,2.5c0,0,0,0,0,0c-0.1,0.9-0.3,1.9-0.9,2.9l0,0c-0.1,0.1-0.1,0.2-0.2,0.3c0,0,0-0.1-0.1-0.1l-0.3,0.4
		c0,0,0,0,0,0.1c0,0-0.1,0.1-0.1,0.1c0,0-0.1,0.1-0.1,0.1c0,0-0.1,0.1-0.1,0.1c0,0-0.1,0.1-0.1,0.1c0,0-0.1,0.1-0.1,0.1
		c-0.1,0-0.1,0.1-0.2,0.1c0,0-0.1,0.1-0.1,0.1c-0.1,0.1-0.2,0.1-0.3,0.2c-0.2,0.1-0.4,0.2-0.6,0.3c0,0,0,0,0,0
		c-0.1,0-0.2,0.1-0.2,0.1c0,0-0.1,0-0.1,0c-0.1,0-0.2,0-0.2,0.1c0,0-0.1,0-0.1,0c-0.1,0-0.2,0-0.2,0.1c0,0-0.1,0-0.1,0
		c-0.1,0-0.2,0-0.3,0c-0.1,0-0.1,0-0.2,0c-0.1,0-0.2,0-0.3,0c-0.1,0-0.1,0-0.2,0c-0.1,0-0.2,0-0.3,0c-0.1,0-0.1,0-0.2,0
		c-0.1,0-0.2,0-0.3,0c-0.1,0-0.1,0-0.2,0c-0.1,0-0.2,0-0.3,0c-0.1,0-0.1,0-0.2,0c-0.1,0-0.2,0-0.3,0c-0.1,0-0.1,0-0.2,0
		c-0.1,0-0.2,0-0.3,0c-0.1,0-0.1,0-0.2,0c-0.1,0-0.2,0-0.3,0c-0.1,0-0.1,0-0.2,0c-0.1,0-0.2,0-0.3,0c-0.1,0-0.1,0-0.2,0
		c-0.1,0-0.2,0-0.3,0c-0.1,0-0.1,0-0.2,0c-0.1,0-0.2,0-0.4,0c0,0-0.1,0-0.1,0c-0.5,0-0.9-0.1-1.4-0.2c0,0-0.1,0-0.1,0
		c-0.1,0-0.2,0-0.3-0.1c-0.1,0-0.1,0-0.2,0c-0.1,0-0.2,0-0.3,0c-0.1,0-0.1,0-0.2,0c-0.1,0-0.2,0-0.3,0c-0.1,0-0.2,0-0.2,0
		c-0.1,0-0.2,0-0.3,0c-0.1,0-0.2,0-0.2,0c-0.1,0-0.2,0-0.3,0c-0.1,0-0.2,0-0.2,0c-0.1,0-0.2,0-0.3,0c-0.1,0-0.2,0-0.2,0
		c-0.1,0-0.2,0-0.2,0c-0.1,0-0.2,0-0.2,0c-0.1,0-0.2,0-0.2,0c-0.1,0-0.2,0-0.2,0c-0.1,0-0.1,0-0.2,0c-0.1,0-0.2,0-0.2,0
		c-0.1,0-0.1,0-0.2,0c-0.1,0-0.1,0-0.2,0c-0.1,0-0.1,0-0.2,0c-0.1,0-0.1,0-0.2,0c-0.1,0-0.1,0-0.2,0c-0.1,0-0.1,0-0.2-0.1
		c0,0-0.1,0-0.1,0c-0.1,0-0.2,0-0.2-0.1c0,0-0.1,0-0.1,0c-0.1,0-0.2,0-0.3-0.1c-0.1,0-0.3,0-0.4,0c-1.2-1.2-2.9-2.3-5.5-1.7l1.2,0.7
		l-1.2,0.6c0,0,0.6,0.1,0.9,0.2h0c0,0,0.1,0,0.1,0c0,0,0,0,0,0c0,0,0,0,0.1,0c0,0,0,0,0,0c0,0,0,0,0,0c0,0,0,0,0,0c0,0,0,0,0,0
		c0.2,0.4-0.4,1.4-0.4,1.4s1.9-0.8,3.5-0.8c0,0-0.1,0.1-0.1,0.1c-0.1,0.1-0.2,0.2-0.3,0.4c0,0,0,0,0,0c-0.1,0.1-0.2,0.3-0.2,0.4
		c0,0,0,0,0,0l0,0c-0.7,1.1-1.2,2.5-1.2,3.3l0,0c0,0,0,0,0,0c0,0,0,0.1,0,0.1c0,0,0,0,0,0c0,0,0,0.1,0,0.1c0,0,0,0,0,0
		c0,0,0,0.1,0,0.1c0,0,0,0,0,0c0,0,0,0.1,0,0.1c0,0,0,0,0,0c0,0,0,0,0,0.1c0,0,0,0,0,0c0,0,0,0,0,0c0,0,0,0,0,0c0,0,0,0,0,0
		c0,0,0,0,0,0c0,0,0,0,0.1,0c0.1,0,0.2,0.1,0.3,0.1c0,0,0,0,0,0c0.6,0,0.9-0.9,0.9-0.9s0,0,0,0c0,0,0,0,0,0c0,0,0,0,0,0.1
		c0,0,0,0,0,0c0,0,0,0.1,0,0.1c0,0,0,0,0,0c0,0,0,0.1,0,0.1c0,0,0,0.1,0,0.1c0,0,0,0.1,0,0.1c0,0,0,0.1,0,0.1c0,0,0,0.1,0,0.1
		c0,0.1,0,0.1,0,0.2c0,0,0,0,0,0.1c0,0.1,0,0.2,0,0.2c0,0,0,0,0,0.1c0,0.1,0,0.1,0,0.2c0,0,0,0,0,0c0,0.1,0,0.2,0,0.3
		c0,0,0,0.1,0,0.1c0,0.1,0,0.2,0,0.3c0,0,0,0.1,0,0.1c0,0.2,0,0.4,0,0.6c0,0,0,0.1,0,0.1c0,0.1,0,0.2,0,0.4c0,0,0,0.1,0,0.1
		c0,0.1,0,0.2,0,0.3c0,0,0,0.1,0,0.1c0,0.1,0,0.1,0,0.2c0,0.1,0,0.1,0,0.2c0,0.1,0,0.2,0,0.3c0,0.1,0,0.1,0,0.2c0,0.1,0,0.2,0,0.2
		c0,0.1,0,0.1,0,0.2c0,0.1,0,0.1,0,0.2c0,0.1,0,0.2,0,0.3l0,0c0.1,1.2,0.2,2.2,0.5,2.9l0,0c0,0.1,0,0.1,0.1,0.2c0,0,0,0.1,0,0.1
		c0,0,0,0.1,0.1,0.1c0,0,0,0.1,0,0.1c0,0,0,0.1,0.1,0.1c0,0,0,0,0,0c0,0,0.1,0.1,0.1,0.1c0,0,0,0,0,0c0,0,0.1,0.1,0.1,0.1
		c0,0,0.1,0,0.1,0.1c0,0,0,0,0,0c0,0,0.1,0,0.1,0c0,0,0,0,0,0c0,0,0.1,0,0.1,0c0,0,0,0,0,0c0,0,0,0,0.1,0c0,0,0,0,0,0c0,0,0,0,0.1,0
		c0,0,0,0,0,0c0,0,0,0,0.1,0c0,0,0,0,0,0c0,0,0,0,0.1,0c0,0,0,0,0,0c0.2-0.1,0.2-0.3,0.3-0.5c0,0.2,0.1,0.4,0.1,0.6l0.9,6.9h0.7
		c0,0,0-2,0.1-4.1l0,0c0-0.1,0-0.1,0-0.2c0-0.1,0-0.1,0-0.2c0,0,0-0.1,0-0.1c0-0.1,0-0.1,0-0.2c0,0,0-0.1,0-0.1c0-0.1,0-0.1,0-0.2
		c0,0,0-0.1,0-0.1c0-0.1,0-0.1,0-0.2c0,0,0-0.1,0-0.1c0-0.1,0-0.1,0-0.2c0,0,0-0.1,0-0.1c0-0.1,0-0.2,0-0.3c0,0,0,0,0,0
		c0-0.1,0-0.2,0-0.2c0,0,0-0.1,0-0.1c0,0,0,0,0,0c0,0,0-0.1,0-0.1c0,0,0,0,0,0c0,0,0-0.1,0-0.1c0,0,0,0,0,0c0,0,0-0.1,0-0.1
		c0,0,0,0,0,0c0,0,0-0.1,0-0.1c0,0,0,0,0,0c0,0,0-0.1,0-0.1c0,0,0,0,0,0l0,0c0.1-0.6,0.2-1.1,0.2-1.1s-0.1,1,0.3,1.7c0,0,0,0,0,0
		c0,0.1,0.1,0.1,0.1,0.2c0,0,0,0,0,0c0,0.1,0.1,0.1,0.1,0.2c0,0,0,0,0,0c0,0.1,0.1,0.1,0.1,0.1c0,0,0,0,0,0c0,0,0.1,0,0.1,0.1
		l0.2,1.9l0,0l0.5,4.1h0.7c0,0,0-2,0.1-4.1l0,0c0-0.1,0-0.1,0-0.2c0,0,0-0.1,0-0.1c0-0.1,0-0.1,0-0.2c0-0.1,0-0.1,0-0.2
		c0-0.1,0-0.1,0-0.2c0-0.1,0-0.1,0-0.2c0-0.1,0-0.1,0-0.2c0-0.1,0-0.1,0-0.2c0-0.1,0-0.1,0-0.2c0-0.1,0-0.1,0-0.2c0,0,0-0.1,0-0.1
		c0-0.1,0-0.1,0-0.2c0,0,0,0,0,0c0,0,0,0,0,0c0,0,0.1-0.1,0.1-0.1c0,0,0,0,0,0c0,0,0.1-0.1,0.1-0.1c0,0,0,0,0,0c0,0,0.1-0.1,0.1-0.1
		c0,0,0,0,0,0c0,0,0-0.1,0.1-0.1c0,0,0,0,0,0c0,0,0-0.1,0.1-0.1c0,0,0,0,0,0c0,0,0-0.1,0-0.1c0,0,0,0,0,0c0,0,0-0.1,0-0.1
		c0,0,0,0,0,0c0,0,0-0.1,0-0.1c0-0.2,0-0.3,0-0.3s0,0.2,0.2,0.4l0,0c0,0,0,0,0,0c0,0,0,0.1,0,0.1c0,0,0,0,0,0.1c0,0,0,0.1,0,0.1
		c0,0,0.1,0.1,0.1,0.1c0,0,0,0,0,0.1c0,0,0.1,0.1,0.1,0.1c0,0,0,0,0,0.1c0,0.1,0.1,0.1,0.2,0.2c0,0,0,0,0,0c0.1,0,0.1,0.1,0.2,0.1
		c0,0,0,0,0.1,0c0.1,0.1,0.1,0.1,0.2,0.1c0,0,0,0,0,0c0.1,0,0.2,0.1,0.2,0.1c0,0,0,0,0.1,0c0.1,0,0.2,0.1,0.2,0.1c0,0,0,0,0.1,0
		c0.1,0,0.2,0.1,0.3,0.1c0,0,0,0,0.1,0c0.1,0,0.2,0,0.3,0c0,0,0.1,0,0.1,0c0.1,0,0.3,0,0.4,0c0.1,0,0.2,0,0.3,0c0,0,0.1,0,0.1,0
		c0.1,0,0.1,0,0.2,0c0,0,0.1,0,0.1,0c0.1,0,0.1,0,0.2-0.1c0,0,0.1,0,0.1,0c0,0,0.1,0,0.1-0.1c0,0,0.1,0,0.1-0.1c0,0,0.1-0.1,0.1-0.1
		c0,0,0.1,0,0.1-0.1c0,0,0.1-0.1,0.1-0.1c0,0,0,0,0.1-0.1c0,0,0.1-0.1,0.1-0.1c0,0,0,0,0.1-0.1c0,0,0.1-0.1,0.1-0.1c0,0,0,0,0.1-0.1
		c0,0,0.1-0.1,0.1-0.1c0,0,0,0,0-0.1c0,0,0.1-0.1,0.1-0.1c0,0,0,0,0,0c0,0,0.1-0.1,0.1-0.1c0,0,0,0,0,0c0,0,0-0.1,0.1-0.1
		c0,0,0,0,0,0c0,0,0-0.1,0.1-0.1c0.1-0.1,0.1-0.2,0.1-0.2s0,0,0,0l0,0c0,0,0,0,0,0c0,0,0,0,0,0c0,0,0,0,0,0c0,0,0,0,0,0c0,0,0,0,0,0
		c0,0,0,0,0,0c0,0,0,0,0,0.1c0,0,0,0,0,0c0,0,0,0,0,0.1c0,0,0,0,0,0c0,0.1,0.1,0.2,0.1,0.3c0,0,0,0,0,0c0,0,0,0,0.1,0.1c0,0,0,0,0,0
		c0,0,0,0,0.1,0.1c0,0,0,0,0,0c0,0,0,0,0.1,0c0,0,0,0,0,0l0.8,6.4h0.7c0,0,0-2,0.1-4.1l0,0c0-0.1,0-0.2,0-0.2c0,0,0-0.1,0-0.1
		c0-0.1,0-0.1,0-0.2c0,0,0-0.1,0-0.1c0-0.1,0-0.1,0-0.2c0,0,0-0.1,0-0.1c0-0.1,0-0.1,0-0.2c0,0,0-0.1,0-0.1c0-0.1,0-0.1,0-0.2
		c0-0.1,0-0.1,0-0.2c0-0.1,0-0.1,0-0.2c0-0.1,0-0.1,0-0.2c0,0,0-0.1,0-0.1c0-0.1,0-0.2,0-0.3c0,0,0-0.1,0-0.1c0-0.1,0-0.1,0-0.2
		c0,0,0,0,0,0c0,0,0,0,0-0.1c0,0,0,0,0,0c0,0,0-0.1,0-0.1c0,0,0,0,0,0l0,0c0-0.1,0-0.1,0-0.1s0,0.1,0.1,0.2c0,0,0,0,0,0
		c0,0,0,0,0,0.1c0,0,0,0,0,0.1c0,0,0,0,0,0c0,0,0,0.1,0.1,0.1c0,0,0,0,0,0c0,0,0,0.1,0.1,0.1c0,0,0,0,0,0c0,0,0.1,0.1,0.1,0.1
		c0,0,0,0,0,0c0,0,0.1,0.1,0.1,0.1c0,0,0,0,0,0c0,0,0.1,0.1,0.1,0.1c0,0,0,0,0,0c0,0,0.1,0.1,0.1,0.1c0,0,0,0,0,0c0,0,0,0,0.1,0
		l0.2,1.8l0,0l0.5,4.1h0.7c0,0,0-2,0.1-4.1c0,0,0-0.1,0-0.1c0-0.1,0-0.2,0-0.2c0,0,0-0.1,0-0.1c0-0.1,0-0.1,0-0.2c0-0.1,0-0.1,0-0.2
		c0-0.1,0-0.1,0-0.2c0-0.1,0-0.1,0-0.2c0-0.1,0-0.1,0-0.2c0-0.1,0-0.1,0-0.2c0-0.1,0-0.1,0-0.2c0,0,0-0.1,0-0.1
		c0.8-0.3,0.9-1.1,0.9-1.1s0.6,0.6,1.4,0.6c1.2-0.1,1.8-5,1.8-5.5c0,0,1.5,2.2,1.4-3.6c0.1,0.3,0.3,0.6,0.4,0.9c0,0,1.4-0.1,1.6-1.5
		c0,0-1.4-1.2-1.9-1c0,0,0,0-0.1,0l0-0.6c0,0-0.1,0-0.1,0c0-0.4,0-0.8-0.1-1.2c0.4-0.2,0.8-0.4,1.3-0.6c0.1,0.6,0.3,1.4,1.5,1.5
		c1.2,0.1,1.7-0.4,1.8-1.2c2.1,0.9,2.7,2.4,3,2.3C492,332.2,490.8,331.1,490.4,330.4z M484.3,328c0.2,0.3,0.4,0.5,0.6,0.8
		c-0.2,0-0.5,0-0.7,0.1C484.2,328.6,484.2,328.3,484.3,328z"/>
</g>
<g>
	<g>
		<path class="st70" d="M470.4,337.9c0,0.2,0.1,0.8-0.1,1c0,0,0.3-0.1,0.4-0.4L470.4,337.9z"/>
		<path class="st70" d="M470.5,338.4c0,0.2,0.1,0.8-0.1,1c0,0,0.3-0.1,0.4-0.4L470.5,338.4z"/>
		<path class="st71" d="M467.2,347.1c0,0.1,0.3,2,0.3,2l0.2,0c0,0-0.3-1.7,0.2-2.1L467.2,347.1z"/>
		<path class="st71" d="M468.5,347.1c0,0.1,0.3,2,0.3,2l0.2,0c0,0-0.3-1.7,0.2-2.1L468.5,347.1z"/>
		<path class="st71" d="M466.8,349.2c0.3-0.3,0.8-0.5,0.8-0.5s0.7,0.2,0.9,0.5L466.8,349.2z"/>
		<path class="st71" d="M468.1,349.2c0.3-0.3,0.8-0.5,0.8-0.5s0.7,0.2,0.9,0.5L468.1,349.2z"/>
		<path class="st72" d="M468.8,347.5c0.8,0,2.1-1.7,2.1-1.7l-4.3,0.3C466.6,346.1,467.9,347.5,468.8,347.5z"/>
		<path class="st73" d="M463.8,340.2c-0.9-0.5-0.8-1.6-1.3-1.6c-0.3,0,0.1,1.2,0.1,1.2s-0.2-0.6-0.5-0.5c-0.3,0.1,0.2,1,0.2,1
			s-0.8-1.4-1-0.3c-0.1,0.5,0.3,1,0.8,1.5c-0.1,0-0.1,0-0.1,0.1c0,0.3,0.1,0.6,0.3,0.8c-0.1,0-0.2,0-0.2,0.1c0,0.4,0.4,0.8,0.8,1.1
			c-0.1,0-0.1,0.1-0.1,0.2c0.1,0.3,0.5,0.6,0.8,0.8c-0.2-0.1-0.5-0.1-0.4,0c0.3,0.5,1.7,1.7,3.2,2.1L463.8,340.2z"/>
		<path class="st70" d="M462.5,339.6c0,0-0.2-0.6-0.5-0.5c-0.3,0.1,0.2,1,0.2,1s-0.8-1.4-1-0.3c-0.1,0.5,0.2,1.1,0.7,1.6
			c-0.1,0-0.1,0-0.1,0.1c0,0.3,0.3,0.5,0.4,0.8c-0.1,0-0.2,0-0.2,0.1c0,0.7,1.3,2.2,3.4,2.3l-1.7-4.7
			C463.4,339.8,461.9,336.9,462.5,339.6z"/>
		<path class="st74" d="M472.1,335.9c-0.2-0.1-0.3,0.1-0.4,0.3c0-0.4-0.2-1.4-0.9-1.2c-0.8,0.2-0.4,0.9-0.4,0.9s-0.2-0.2-0.3-0.2
			c-0.1,0.1,0,0.3,0,0.3s-0.7-0.3-0.8,0.3c-0.1,0.6,0.4,1.1,1.3,0.9l1.7-0.2C472.2,337,472.7,336.1,472.1,335.9z"/>
		<path class="st75" d="M472,336c0.1,0,0.3,0.1,0.4,0.3c0,0.1-0.1,0.7-0.5,0.5C471.7,336.6,471.7,336.1,472,336z"/>
		<path class="st70" d="M463.4,339.9c2.3,1.2,6.3,0.9,6.9,0c1-1.4-0.7-2.3,0.5-3c2-1.3,2.5,1.6,2.4,4.5c-0.1,1.6-1.4,5.8-5.5,5.5
			C462,346.6,463.4,339.9,463.4,339.9z"/>
		<path class="st76" d="M470.3,337.5c0.2-0.6,1.6-1.4,2.2-0.4c0.6,1,0.3,3.1-0.7,3.1C470.8,340.2,470.2,337.8,470.3,337.5z"/>
		<path class="st73" d="M472.1,339c0,0.4,0.5,1.2,1,1.2l0-1.4L472.1,339z"/>
		<path class="st73" d="M472.4,336.9c0.3,0.9,0.4,2.3,0.4,3.8c-0.1,1.6-1.4,5.8-5.5,5.5c-1.7-0.1-2.8-0.8-3.4-1.7
			c0.6,1.3,1.7,2.3,3.9,2.5c4.1,0.2,5.5-4,5.5-5.5C473.3,339.6,473.1,337.6,472.4,336.9z"/>
		<path class="st73" d="M471,340.8c0.9,0.7,1.4,6-3.8,5.7c-4.7-0.3-4.5-5.7-3.7-6.8c0,0,2.1,1.6,3.5,1.6
			C468.9,341.2,469.8,339.8,471,340.8z"/>
		<path class="st73" d="M467.6,347.6c0.8,0,2.7-1.4,2.7-1.4l-5-0.1C465.4,346.1,466.6,347.5,467.6,347.6z"/>
		<path class="st71" d="M472.2,339.1c-0.1,0.1,0.2,0.4,0.4,0.5c0.2,0,1-0.4,0.9-0.7C473.5,338.8,472.3,338.8,472.2,339.1z"/>
		<path class="st77" d="M472.1,339.1c-0.1-0.1,0.7-0.9,0.9-0.9c0.2,0,1,0.4,0.9,0.4C473.8,338.8,472.2,339.2,472.1,339.1z"/>
		<path class="st78" d="M471.7,338.4c0.2,0,0.2-1-0.2-0.8C471.1,337.7,471.5,338.5,471.7,338.4z"/>
		<path class="st78" d="M472.6,338.3c0.2,0,0.3-0.8-0.1-0.7C472.1,337.7,472.4,338.3,472.6,338.3z"/>
		<path class="st76" d="M470.9,340.2c0.9,0.7,1.3,5.8-3.3,5.4c-4.7-0.4-4.5-4.7-4.1-6.3c0,0,2,1.3,3.4,1.3
			C468.8,340.7,469.6,339.3,470.9,340.2z"/>
		<g>
			<path class="st79" d="M470.9,340.2c-1.2-0.9-2.1,0.5-4.1,0.4c-1.3,0-3.1-1.1-3.4-1.3c-0.2,1.5,3.1,6,7.9,3.9
				C471.7,342,471.3,340.6,470.9,340.2z"/>
		</g>
		<path class="st70" d="M466.9,346.9c-0.1,0.2,0.6,0.4,0.8,0.4c0.3,0,0.9-0.4,0.8-0.5S466.9,346.8,466.9,346.9z"/>
		<path class="st80" d="M472.2,339c-0.1-0.1,0.4-0.5,0.5-0.5c0.1,0,0.8,0.2,0.8,0.2C473.4,338.8,472.3,339.1,472.2,339z"/>
		<path class="st75" d="M469.3,336.6c0-0.2,0-0.6,0.3-0.6c0.3,0,1.2,0.5,1,0.9S469.4,337.2,469.3,336.6z"/>
		<path class="st75" d="M470.4,335.3c0.1-0.2,0.6-0.3,0.8-0.2c0.2,0.2,0.5,1.1,0.1,1.3C470.9,336.7,470.1,335.9,470.4,335.3z"/>
		<path class="st75" d="M470.5,336.2c0,0-0.1,0.1-0.2,0c-0.1-0.1-0.2-0.3-0.1-0.4C470.2,335.8,470.5,336.1,470.5,336.2z"/>
		<path class="st76" d="M461.9,340.8c-0.4-0.4-0.9-1.1-0.6-1.4s1.3,1.3,1.3,1.5S462.3,341.2,461.9,340.8z"/>
		<path class="st76" d="M462.3,339.8c-0.1-0.3-0.3-0.6-0.2-0.7c0.1-0.1,0.6,0.8,0.5,0.9C462.6,340.1,462.4,340.1,462.3,339.8z"/>
		<path class="st76" d="M463.1,339.2c0.1,0.3,0.1,0.6-0.2,0.5c-0.2-0.1-0.5-1.1-0.5-1.3C462.5,338.3,463,338.9,463.1,339.2z"/>
		<path class="st76" d="M462.4,341.7c0.2,0.1,0.1,0.5-0.1,0.4c-0.4-0.2-0.5-0.5-0.5-0.6C461.8,341.4,462.2,341.5,462.4,341.7z"/>
		<path class="st73" d="M463.6,343.3c0.3,0.2,1.5,1,2.9,1.2c0,0-1.1,0.4-2.7-0.6L463.6,343.3z"/>
		<path class="st73" d="M463.2,341.9c0.3,0.2,1.3,1.1,2.7,1.3c0,0-1.1,0.3-2.6-0.7L463.2,341.9z"/>
		<path class="st73" d="M463.2,340.4c0.2,0.3,0.9,1,2.3,1.4c0,0-1.2,0-2.3-0.8L463.2,340.4z"/>
	</g>
	<defs>
		
			<filter id="Adobe_OpacityMaskFilter_00000044859609960032181830000000294469633577474992_" filterUnits="userSpaceOnUse" x="461.2" y="335" width="12.7" height="14.2">
			<feFlood  style="flood-color:white;flood-opacity:1" result="back"/>
			<feBlend  in="SourceGraphic" in2="back" mode="normal"/>
		</filter>
	</defs>
	
		<mask maskUnits="userSpaceOnUse" x="461.2" y="335" width="12.7" height="14.2" id="SVGID_00000031177945283143386710000005883884824199568817_">
		<g style="filter:url(#Adobe_OpacityMaskFilter_00000044859609960032181830000000294469633577474992_);">
			<defs>
				
					<filter id="Adobe_OpacityMaskFilter_00000152975965174449578260000017599945533515592620_" filterUnits="userSpaceOnUse" x="461.2" y="335" width="12.7" height="14.2">
					<feFlood  style="flood-color:white;flood-opacity:1" result="back"/>
					<feBlend  in="SourceGraphic" in2="back" mode="normal"/>
				</filter>
			</defs>
			
				<mask maskUnits="userSpaceOnUse" x="461.2" y="335" width="12.7" height="14.2" id="SVGID_00000031177945283143386710000005883884824199568817_">
				<g style="filter:url(#Adobe_OpacityMaskFilter_00000152975965174449578260000017599945533515592620_);">
				</g>
			</mask>
			
				<linearGradient id="SVGID_00000065769586472741061920000016493903301720332943_" gradientUnits="userSpaceOnUse" x1="467.5033" y1="335.5964" x2="467.5033" y2="349.0794">
				<stop  offset="2.150540e-02" style="stop-color:#999999"/>
				<stop  offset="1" style="stop-color:#FFFFFF"/>
			</linearGradient>
			
				<path style="mask:url(#SVGID_00000031177945283143386710000005883884824199568817_);fill:url(#SVGID_00000065769586472741061920000016493903301720332943_);" d="
				M473,338.2C473,338.2,473,338.2,473,338.2C473,338.2,473,338.2,473,338.2c0-0.1,0-0.2-0.1-0.2c0,0,0,0,0-0.1c0,0,0-0.1,0-0.1
				c0,0,0,0,0-0.1c0,0,0-0.1,0-0.1c0,0,0,0,0-0.1c0,0,0-0.1,0-0.1c0,0,0,0,0-0.1c0,0,0-0.1-0.1-0.1c0,0,0,0,0,0c0,0,0-0.1-0.1-0.1
				c0,0,0,0,0,0c0,0,0-0.1-0.1-0.1c0,0,0,0,0,0c0,0-0.1-0.1-0.1-0.1c0,0-0.1-0.1-0.1-0.1c0.1-0.3,0.2-0.8-0.2-0.9
				c-0.2-0.1-0.3,0.1-0.4,0.3c0-0.4-0.2-1.4-0.9-1.2c-0.8,0.2-0.4,0.9-0.4,0.9s-0.2-0.2-0.3-0.2c-0.1,0.1,0,0.3,0,0.3
				s-0.7-0.3-0.8,0.3c-0.1,0.6,0.4,1,1.2,0.9c0,0.1-0.1,0.1-0.1,0.2c0,0.1,0,0.3,0,0.5c0,0.2,0.1,0.7-0.1,0.9c0,0,0.1-0.1,0.2-0.1
				c0,0.2,0,0.5-0.1,0.6c0,0,0.1-0.1,0.2-0.2c0,0.2-0.1,0.5-0.3,0.8c-1-0.2-1.9,0.7-3.5,0.7c0,0-0.1,0-0.1,0c0,0,0,0,0,0
				c0,0-0.1,0-0.1,0c0,0,0,0-0.1,0c0,0-0.1,0-0.1,0c0,0,0,0-0.1,0c0,0-0.1,0-0.1,0c0,0,0,0-0.1,0c0,0-0.1,0-0.1,0c0,0,0,0-0.1,0
				c0,0-0.1,0-0.1,0c0,0,0,0-0.1,0c0,0-0.1,0-0.1,0c0,0,0,0-0.1,0c0,0-0.1,0-0.1,0c0,0,0,0-0.1,0c0,0-0.1,0-0.1,0c0,0,0,0-0.1,0
				c0,0-0.1,0-0.1,0c0,0,0,0-0.1,0c0,0-0.1,0-0.1,0c0,0,0,0,0,0c0,0-0.1,0-0.1,0c0,0,0,0,0,0c0,0-0.1,0-0.1-0.1c0,0,0,0,0,0
				c-0.1,0-0.2-0.1-0.3-0.1c0,0,0,0,0,0c0,0-0.1,0-0.1,0c0,0,0,0,0,0c0,0-0.1,0-0.1,0c0,0,0,0,0,0c0,0-0.1,0-0.1,0c0,0,0,0,0,0
				c0,0,0,0-0.1,0c0,0,0,0,0,0c0,0,0,0-0.1,0c0,0,0,0,0,0c0,0,0,0-0.1,0c0,0,0,0,0,0c0,0,0,0-0.1,0c0,0,0,0,0,0c0,0,0,0-0.1,0
				c0,0,0,0,0,0c0,0,0,0,0,0c0,0,0,0,0,0c0,0,0,0,0,0c0,0,0,0,0,0c0,0,0,0,0,0c0,0,0,0,0,0c0,0,0,0,0,0c-0.1,0-0.1-0.1-0.2-0.1l0,0
				c0,0,0,0,0,0c0,0,0,0.1,0,0.1c-0.1-0.1-0.2-0.2-0.3-0.4c-0.1-0.2-0.3-0.4-0.4-0.6c0,0-0.1-0.1-0.1-0.1c-0.1-0.1-0.1-0.1-0.1-0.1
				c-0.1,0-0.1,0.3,0,1.1c0,0,0-0.1,0-0.1c0-0.1-0.1-0.2-0.2-0.3c0,0-0.1-0.1-0.1-0.1c0,0-0.1,0-0.2,0c-0.2,0.1,0,0.5,0.1,0.8
				c-0.2-0.3-0.5-0.6-0.7-0.5c-0.1,0-0.2,0.2-0.2,0.4c-0.1,0.5,0.2,1.1,0.7,1.6c-0.1,0-0.1,0-0.1,0.1c0,0.3,0.2,0.5,0.4,0.7
				c0,0,0,0,0,0.1c-0.1,0-0.2,0-0.2,0.1c0,0.2,0.1,0.3,0.2,0.5c0.1,0.2,0.3,0.5,0.5,0.6c0,0,0.1,0.1,0.2,0.1c-0.1,0-0.1,0.1-0.1,0.2
				c0.1,0.3,0.5,0.6,0.8,0.8c-0.2-0.1-0.5-0.1-0.4,0c0.3,0.5,1.4,1.5,2.8,2c0.4,0.3,0.9,0.7,1.4,0.9c0.1,0.4,0.1,0.9,0.2,1.2
				c-0.2,0.1-0.5,0.2-0.7,0.4l1.7,0c0,0,0,0,0,0l1.3,0c-0.2-0.2-0.6-0.4-0.8-0.5c0-0.3-0.1-0.9,0-1.3c0.5-0.1,1-0.6,1.4-1.1
				c2-1.2,2.7-3.8,2.8-4.9c0-0.1,0-0.2,0-0.2c0,0,0,0,0-0.1c0-0.1,0-0.2,0-0.2c0,0,0,0,0,0c0-0.1,0-0.1,0-0.2c0,0,0,0,0-0.1
				c0-0.1,0-0.2,0-0.2c0,0,0,0,0,0c0-0.1,0-0.1,0-0.2c0,0,0,0,0-0.1c0-0.1,0-0.1,0-0.2c0,0,0,0,0-0.1c0-0.1,0-0.1,0-0.2
				c0,0,0,0,0-0.1c0-0.1,0-0.1,0-0.2c0,0,0,0,0-0.1c0,0,0,0,0,0c0.2-0.1,0.4-0.3,0.4-0.5c0.2-0.1,0.3-0.1,0.3-0.1
				C473.9,338.6,473.2,338.3,473,338.2z M467.7,347.6c0.2,0,0.4-0.1,0.6-0.2c0.1,0,0.1,0,0.2,0.1c0.1,0.4,0.2,0.9,0.2,1.3
				c-0.1,0-0.3,0.1-0.5,0.2c-0.2-0.1-0.5-0.2-0.6-0.3C467.7,348.4,467.7,347.9,467.7,347.6z"/>
		</g>
	</mask>
	
		<linearGradient id="SVGID_00000076582159403515715610000016593226437315442366_" gradientUnits="userSpaceOnUse" x1="467.5033" y1="335.5964" x2="467.5033" y2="349.0794">
		<stop  offset="2.150540e-02" style="stop-color:#FED996"/>
		<stop  offset="1" style="stop-color:#241941"/>
	</linearGradient>
	<path style="opacity:0.6;fill:url(#SVGID_00000076582159403515715610000016593226437315442366_);" d="M473,338.2
		C473,338.2,473,338.2,473,338.2C473,338.2,473,338.2,473,338.2c0-0.1,0-0.2-0.1-0.2c0,0,0,0,0-0.1c0,0,0-0.1,0-0.1c0,0,0,0,0-0.1
		c0,0,0-0.1,0-0.1c0,0,0,0,0-0.1c0,0,0-0.1,0-0.1c0,0,0,0,0-0.1c0,0,0-0.1-0.1-0.1c0,0,0,0,0,0c0,0,0-0.1-0.1-0.1c0,0,0,0,0,0
		c0,0,0-0.1-0.1-0.1c0,0,0,0,0,0c0,0-0.1-0.1-0.1-0.1c0,0-0.1-0.1-0.1-0.1c0.1-0.3,0.2-0.8-0.2-0.9c-0.2-0.1-0.3,0.1-0.4,0.3
		c0-0.4-0.2-1.4-0.9-1.2c-0.8,0.2-0.4,0.9-0.4,0.9s-0.2-0.2-0.3-0.2c-0.1,0.1,0,0.3,0,0.3s-0.7-0.3-0.8,0.3c-0.1,0.6,0.4,1,1.2,0.9
		c0,0.1-0.1,0.1-0.1,0.2c0,0.1,0,0.3,0,0.5c0,0.2,0.1,0.7-0.1,0.9c0,0,0.1-0.1,0.2-0.1c0,0.2,0,0.5-0.1,0.6c0,0,0.1-0.1,0.2-0.2
		c0,0.2-0.1,0.5-0.3,0.8c-1-0.2-1.9,0.7-3.5,0.7c0,0-0.1,0-0.1,0c0,0,0,0,0,0c0,0-0.1,0-0.1,0c0,0,0,0-0.1,0c0,0-0.1,0-0.1,0
		c0,0,0,0-0.1,0c0,0-0.1,0-0.1,0c0,0,0,0-0.1,0c0,0-0.1,0-0.1,0c0,0,0,0-0.1,0c0,0-0.1,0-0.1,0c0,0,0,0-0.1,0c0,0-0.1,0-0.1,0
		c0,0,0,0-0.1,0c0,0-0.1,0-0.1,0c0,0,0,0-0.1,0c0,0-0.1,0-0.1,0c0,0,0,0-0.1,0c0,0-0.1,0-0.1,0c0,0,0,0-0.1,0c0,0-0.1,0-0.1,0
		c0,0,0,0,0,0c0,0-0.1,0-0.1,0c0,0,0,0,0,0c0,0-0.1,0-0.1-0.1c0,0,0,0,0,0c-0.1,0-0.2-0.1-0.3-0.1c0,0,0,0,0,0c0,0-0.1,0-0.1,0
		c0,0,0,0,0,0c0,0-0.1,0-0.1,0c0,0,0,0,0,0c0,0-0.1,0-0.1,0c0,0,0,0,0,0c0,0,0,0-0.1,0c0,0,0,0,0,0c0,0,0,0-0.1,0c0,0,0,0,0,0
		c0,0,0,0-0.1,0c0,0,0,0,0,0c0,0,0,0-0.1,0c0,0,0,0,0,0c0,0,0,0-0.1,0c0,0,0,0,0,0c0,0,0,0,0,0c0,0,0,0,0,0c0,0,0,0,0,0c0,0,0,0,0,0
		c0,0,0,0,0,0c0,0,0,0,0,0c0,0,0,0,0,0c-0.1,0-0.1-0.1-0.2-0.1l0,0c0,0,0,0,0,0c0,0,0,0.1,0,0.1c-0.1-0.1-0.2-0.2-0.3-0.4
		c-0.1-0.2-0.3-0.4-0.4-0.6c0,0-0.1-0.1-0.1-0.1c-0.1-0.1-0.1-0.1-0.1-0.1c-0.1,0-0.1,0.3,0,1.1c0,0,0-0.1,0-0.1
		c0-0.1-0.1-0.2-0.2-0.3c0,0-0.1-0.1-0.1-0.1c0,0-0.1,0-0.2,0c-0.2,0.1,0,0.5,0.1,0.8c-0.2-0.3-0.5-0.6-0.7-0.5
		c-0.1,0-0.2,0.2-0.2,0.4c-0.1,0.5,0.2,1.1,0.7,1.6c-0.1,0-0.1,0-0.1,0.1c0,0.3,0.2,0.5,0.4,0.7c0,0,0,0,0,0.1c-0.1,0-0.2,0-0.2,0.1
		c0,0.2,0.1,0.3,0.2,0.5c0.1,0.2,0.3,0.5,0.5,0.6c0,0,0.1,0.1,0.2,0.1c-0.1,0-0.1,0.1-0.1,0.2c0.1,0.3,0.5,0.6,0.8,0.8
		c-0.2-0.1-0.5-0.1-0.4,0c0.3,0.5,1.4,1.5,2.8,2c0.4,0.3,0.9,0.7,1.4,0.9c0.1,0.4,0.1,0.9,0.2,1.2c-0.2,0.1-0.5,0.2-0.7,0.4l1.7,0
		c0,0,0,0,0,0l1.3,0c-0.2-0.2-0.6-0.4-0.8-0.5c0-0.3-0.1-0.9,0-1.3c0.5-0.1,1-0.6,1.4-1.1c2-1.2,2.7-3.8,2.8-4.9c0-0.1,0-0.2,0-0.2
		c0,0,0,0,0-0.1c0-0.1,0-0.2,0-0.2c0,0,0,0,0,0c0-0.1,0-0.1,0-0.2c0,0,0,0,0-0.1c0-0.1,0-0.2,0-0.2c0,0,0,0,0,0c0-0.1,0-0.1,0-0.2
		c0,0,0,0,0-0.1c0-0.1,0-0.1,0-0.2c0,0,0,0,0-0.1c0-0.1,0-0.1,0-0.2c0,0,0,0,0-0.1c0-0.1,0-0.1,0-0.2c0,0,0,0,0-0.1c0,0,0,0,0,0
		c0.2-0.1,0.4-0.3,0.4-0.5c0.2-0.1,0.3-0.1,0.3-0.1C473.9,338.6,473.2,338.3,473,338.2z M467.7,347.6c0.2,0,0.4-0.1,0.6-0.2
		c0.1,0,0.1,0,0.2,0.1c0.1,0.4,0.2,0.9,0.2,1.3c-0.1,0-0.3,0.1-0.5,0.2c-0.2-0.1-0.5-0.2-0.6-0.3
		C467.7,348.4,467.7,347.9,467.7,347.6z"/>
</g>
<polyline class="st1" points="222.7,238.1 207.8,191.6 187.6,191.6 "/>
<polyline class="st1" points="222,255.3 207.8,357.7 187.6,357.7 "/>
<polyline class="st1" points="222.3,249.9 207.8,332.3 187.6,332.3 "/>
<polyline class="st1" points="222.7,238.7 207.8,219.1 187.6,219.1 "/>
<polyline class="st1" points="223,243.3 207.8,249.9 187.6,249.9 "/>
<polyline class="st1" points="223,246.1 207.8,287.5 187.6,287.5 "/>
<polyline class="st1" points="223,249.9 207.8,312.8 187.6,312.8 "/>
<path class="st5" d="M224.1,259.7H222V229l0,0c1.2,0,2.1,0.9,2.1,2.1V259.7z"/>
</svg>
