<svg xmlns="http://www.w3.org/2000/svg" xmlns:xlink="http://www.w3.org/1999/xlink" width="190.753" height="296.5" viewBox="0 0 190.753 296.5"><defs><clipPath id="a"><rect width="190.753" height="257.506" rx="8.543" fill="#3c6d9d"/></clipPath><clipPath id="b"><rect width="190.753" height="293.999" fill="none"/></clipPath><clipPath id="c"><path d="M150.162,65.717c2.8-.96,6.757.618,8.907,3.008a14.976,14.976,0,0,1,3.083,12.606c-.946,4.863-2.5,6.346-1.369,9.957s3.961,4.931,5.285,9.142,0,6.49,0,6.49-.095-3.891-2.364-6.165c6.052,12.763-10.253,22.431-19.688,23.093s-21.393-.473-26.878-10.492-.473-16.838,3.121-21.455,1.513-6.731,3.216-13.872c1.34-5.622,7.2-14.493,17.435-14.493a22.482,22.482,0,0,1,9.252,2.182" transform="translate(-114.706 -63.535)" fill="none"/></clipPath><linearGradient id="d" x1="-1.373" y1="-2.811" x2="-1.361" y2="-2.811" gradientUnits="objectBoundingBox"><stop offset="0" stop-color="#18185e"/><stop offset="0.327" stop-color="#181b61"/><stop offset="0.63" stop-color="#1b266a"/><stop offset="0.923" stop-color="#20397a"/><stop offset="0.989" stop-color="#223f7f"/><stop offset="1" stop-color="#223f7f"/></linearGradient><clipPath id="f"><path d="M90.9,133.106c3.035,8,4.873,15.24,6.866,17.233s15.829,5.284,20.764,5.811a12.179,12.179,0,0,1,.62,11.747c-16.1.174-27.608-.524-32.418-4.743S77.123,140.4,77.123,140.4L78.95,119.99c7.59.635,8.294,3.466,11.952,13.116" transform="translate(-77.123 -119.99)" fill="#78b62e"/></clipPath><clipPath id="h"><path d="M176.029,179.314c1.2,9.473.2,53.676,0,69.463s-3.4,50.177-3.4,50.177-1.644,1.6-6.637,1.413-7.2-1.695-7.2-1.695-3.537-21.849-4.136-29.836.561-10.536-.439-18.362-3.3-20.18-3.3-20.18-5.788,23.868-7.586,30.183-12.644,42.907-12.644,42.907-2.592,1.556-7.032.756a17.544,17.544,0,0,1-5.962-2.358s-.393-22.545.806-33.875,4.594-14.859,4.993-20.059.292-26.892.881-39.932,11.7-28.6,11.7-28.6Z" transform="translate(-117.638 -179.314)" fill="none"/></clipPath><linearGradient id="i" x1="-0.457" y1="-0.944" x2="-0.451" y2="-0.944" gradientUnits="objectBoundingBox"><stop offset="0" stop-color="#4862aa"/><stop offset="0.313" stop-color="#445fa6"/><stop offset="0.602" stop-color="#3a559b"/><stop offset="0.88" stop-color="#2a4688"/><stop offset="0.989" stop-color="#223f7f"/><stop offset="1" stop-color="#223f7f"/></linearGradient><clipPath id="k"><path d="M149.984,119.344l4.558,1.014s1.445,2.209,5.3,9.8,3.252,9.876,3.276,13.982-1.228,6.734-.988,13.151,1.446,19.838,1.446,19.838-5.781,3.613-18.547,3.854-24.328-5.9-24.328-5.9a65.616,65.616,0,0,1,4.007-7c2.2-3.265,1.654-5.646.811-10.139s-6.142-34.167-6.142-34.167l12.85-4.427Z" transform="translate(-119.374 -119.344)" fill="none"/></clipPath><linearGradient id="l" x1="3.109" y1="3.24" x2="3.091" y2="3.24" gradientUnits="objectBoundingBox"><stop offset="0" stop-color="#ebf7ff"/><stop offset="0.375" stop-color="#e7f4fe"/><stop offset="0.685" stop-color="#ddeefe"/><stop offset="0.972" stop-color="#cce3fe"/><stop offset="0.989" stop-color="#cbe3fe"/><stop offset="1" stop-color="#cbe3fe"/></linearGradient><clipPath id="n"><path d="M149.059,110.966v2.223c-4.544-.241-8.983-1.95-9.862-5.675,2.831,3.2,7.966,3.528,9.862,3.451" transform="translate(-139.197 -107.515)" fill="none"/></clipPath><linearGradient id="o" x1="-9.664" y1="-23.134" x2="-9.594" y2="-23.134" gradientUnits="objectBoundingBox"><stop offset="0" stop-color="#d18080"/><stop offset="1" stop-color="#b55d5d"/></linearGradient><clipPath id="q"><path d="M174.1,156c.6,11.745-.241,30.912-.241,30.912-4.938,1.083-19.405.02-24.267-3.531,3.5-12.705,9.506-15.889,9.265-20.164-.484-8.607-6.04-16.892-5.472-28.03.43-8.413,3.921-13.348,3.921-13.348l9.346-2.49c2.982,7.9,6.442,17.087,7.447,36.652" transform="translate(-149.589 -119.344)" fill="#78b62e"/></clipPath><clipPath id="r"><path d="M122.815,119.753s8.347,10.875,9.243,16.947.051,8.576.051,13.708.611,20.1.611,31.248c-1.99,2.241-6.456,3.23-6.456,3.23s.632-26.9,0-38.489-4.518-19.833-8.947-27.5Z" transform="translate(-117.318 -118.894)" fill="#78b62e"/></clipPath><clipPath id="t"><path d="M196.276,146.258s-12.863,12.034-12.992,13.449,2.445,3.731,2.445,3.731-.644,1.929-3.859,5.4-6.045,2.977-6.045,2.977-1.544-.919-6.046-5.807-2.058-9.261.643-15.2,11.706-18.759,15.179-22.876,5.917-4.245,10.335-5.415a26.992,26.992,0,0,1,2.726,17.125,19.122,19.122,0,0,1-2.384,6.612" transform="translate(-167.282 -122.521)" fill="#78b62e"/></clipPath></defs><g transform="translate(-284.247 -966.5)"><ellipse cx="95" cy="13" rx="95" ry="13" transform="translate(285 1237)" fill="#e8e8e8"/><g transform="translate(284.247 966.5)"><g transform="translate(0 0)"><g clip-path="url(#a)"><path d="M0,0H190.753V257.506H0Z" transform="translate(0)" fill="#3c6d9d"/></g></g><g transform="translate(0 0.001)"><g clip-path="url(#b)"><path d="M23.769,253.845H182.776a2.3,2.3,0,0,0,2.3-2.3V35.86a2.3,2.3,0,0,0-2.3-2.3H23.769a2.3,2.3,0,0,0-2.3,2.3V251.543a2.3,2.3,0,0,0,2.3,2.3" transform="translate(-11.153 -7.252)" fill="#5586fc"/><path d="M19.614,249.474H178.621a2.3,2.3,0,0,0,2.3-2.3V31.489a2.3,2.3,0,0,0-2.3-2.3H19.614a2.3,2.3,0,0,0-2.3,2.3V247.172a2.3,2.3,0,0,0,2.3,2.3" transform="translate(-3.741 -6.307)" fill="#fff"/><rect width="88.661" height="6.208" transform="translate(50.222 51.76)" fill="#5586fc"/><rect width="116.244" height="6.208" transform="translate(36.43 65.895)" fill="#5586fc"/><path d="M41.367,132.128H65.453a.913.913,0,0,0,.912-.912V107.131a.915.915,0,0,0-.912-.914H41.367a.914.914,0,0,0-.912.914v24.084a.913.913,0,0,0,.912.912M65.453,106.96a.171.171,0,0,1,.17.171v24.084a.17.17,0,0,1-.17.17H41.367a.17.17,0,0,1-.17-.17V107.131a.171.171,0,0,1,.17-.171Z" transform="translate(92.675 -22.954)" fill="#deedfe"/><rect width="89.049" height="4.319" transform="translate(36.43 83.635)" fill="#deedfe"/><rect width="89.049" height="4.319" transform="translate(36.43 94.059)" fill="#deedfe"/><rect width="33.359" height="4.319" transform="translate(92.119 104.483)" fill="#deedfe"/><path d="M70.7,118.65a11.991,11.991,0,0,1-2.472,3.241c-.782.84-1.562,1.681-2.353,2.512-.853.9-1.755,1.747-2.634,2.617a2.286,2.286,0,0,1-1.858.5,2.338,2.338,0,0,1-1.6-.919q-2.711-3.263-5.417-6.531L46.6,110.663c-.534-.646-1.083-1.283-1.6-1.942-.169-.216-.335-.436-.5-.655-.067-.088-.136-.176-.2-.267-.188-.259-.29-.542-.51-.809-.1-.118.351.47.248.346a1.594,1.594,0,0,1,.363-2.4,2.265,2.265,0,0,1,2.831.175l.007.009.007.008c-.795-.583-.132-.119.02.016.04.036.077.075.115.112.146.138.287.281.427.424.558.575,1.069,1.2,1.579,1.817l3.736,4.52q4.349,5.262,8.69,10.532.9,1.092,1.794,2.186l-3.458-.418,2.181-2.106c.65-.627,1.338-1.215,2.015-1.813l1.041-.918q.6-.531,1.2-1.07a8.975,8.975,0,0,1,2.017-1.295,1.72,1.72,0,0,1,1.754.059,1.18,1.18,0,0,1,.339,1.476" transform="translate(85.71 -22.589)" fill="#fb929c"/><path d="M41.367,178.945H65.453a.913.913,0,0,0,.912-.913V153.947a.914.914,0,0,0-.912-.913H41.367a.913.913,0,0,0-.912.913v24.084a.913.913,0,0,0,.912.913m24.085-25.168a.17.17,0,0,1,.17.17v24.084a.17.17,0,0,1-.17.17H41.367a.17.17,0,0,1-.17-.17V153.947a.17.17,0,0,1,.17-.17Z" transform="translate(92.675 -33.071)" fill="#deedfe"/><rect width="89.049" height="4.319" transform="translate(36.43 120.334)" fill="#deedfe"/><rect width="89.049" height="4.319" transform="translate(36.43 130.758)" fill="#deedfe"/><rect width="33.359" height="4.319" transform="translate(92.119 141.183)" fill="#deedfe"/><path d="M70.7,165.467a11.991,11.991,0,0,1-2.472,3.241c-.782.839-1.562,1.68-2.353,2.511-.853.9-1.755,1.747-2.634,2.617a2.286,2.286,0,0,1-1.858.5,2.338,2.338,0,0,1-1.6-.919q-2.711-3.263-5.417-6.531L46.6,157.48c-.534-.646-1.083-1.283-1.6-1.942-.169-.216-.335-.436-.5-.655-.067-.089-.136-.176-.2-.267-.188-.259-.29-.542-.51-.809-.1-.118.351.47.248.346a1.6,1.6,0,0,1,.363-2.4,2.265,2.265,0,0,1,2.831.175l.007.009.007.009c-.795-.583-.132-.119.02.016.04.035.077.075.115.112.146.138.287.281.427.424.558.575,1.069,1.2,1.579,1.817l3.736,4.52q4.349,5.262,8.69,10.532.9,1.092,1.794,2.186l-3.458-.419,2.181-2.1c.65-.627,1.338-1.215,2.015-1.813l1.041-.918q.6-.531,1.2-1.07a8.974,8.974,0,0,1,2.017-1.295,1.72,1.72,0,0,1,1.754.059,1.18,1.18,0,0,1,.339,1.476" transform="translate(85.71 -32.706)" fill="#fb929c"/><path d="M41.367,225.762H65.453a.913.913,0,0,0,.912-.913V200.764a.913.913,0,0,0-.912-.913H41.367a.913.913,0,0,0-.912.913v24.084a.913.913,0,0,0,.912.913m24.085-25.168a.17.17,0,0,1,.17.17v24.084a.17.17,0,0,1-.17.17H41.367a.17.17,0,0,1-.17-.17V200.764a.17.17,0,0,1,.17-.17Z" transform="translate(92.675 -43.189)" fill="#deedfe"/><rect width="89.049" height="4.319" transform="translate(36.43 157.033)" fill="#deedfe"/><rect width="89.049" height="4.319" transform="translate(36.43 167.457)" fill="#deedfe"/><rect width="33.359" height="4.319" transform="translate(92.119 177.882)" fill="#deedfe"/><path d="M70.7,212.283a11.991,11.991,0,0,1-2.472,3.241c-.782.839-1.562,1.68-2.353,2.511-.853.9-1.755,1.747-2.634,2.617a2.286,2.286,0,0,1-1.858.5,2.338,2.338,0,0,1-1.6-.919q-2.711-3.263-5.417-6.531L46.6,204.3c-.534-.647-1.083-1.283-1.6-1.943-.169-.216-.335-.436-.5-.655-.067-.089-.136-.176-.2-.267-.188-.259-.29-.542-.51-.809-.1-.118.351.47.248.346a1.594,1.594,0,0,1,.363-2.4,2.265,2.265,0,0,1,2.831.175l.007.009.007.009c-.795-.583-.132-.119.02.016.04.035.077.075.115.112.146.138.287.281.427.424.558.575,1.069,1.2,1.579,1.817l3.736,4.52q4.349,5.262,8.69,10.532.9,1.092,1.794,2.185l-3.458-.418,2.181-2.106c.65-.627,1.338-1.215,2.015-1.813l1.041-.918q.6-.531,1.2-1.07a8.975,8.975,0,0,1,2.017-1.295,1.72,1.72,0,0,1,1.754.059,1.18,1.18,0,0,1,.339,1.476" transform="translate(85.71 -42.823)" fill="#fb929c"/><path d="M41.367,272.578H65.453a.914.914,0,0,0,.912-.913V247.58a.913.913,0,0,0-.912-.913H41.367a.913.913,0,0,0-.912.913v24.084a.913.913,0,0,0,.912.913M65.453,247.41a.17.17,0,0,1,.17.17v24.084a.17.17,0,0,1-.17.17H41.367a.17.17,0,0,1-.17-.17V247.58a.17.17,0,0,1,.17-.17Z" transform="translate(92.675 -53.306)" fill="#deedfe"/><rect width="89.049" height="4.319" transform="translate(36.43 193.733)" fill="#deedfe"/><rect width="89.049" height="4.319" transform="translate(36.43 204.157)" fill="#deedfe"/><rect width="33.359" height="4.319" transform="translate(92.119 214.581)" fill="#deedfe"/><path d="M70.7,259.1a11.99,11.99,0,0,1-2.472,3.241c-.782.839-1.562,1.68-2.353,2.511-.853.9-1.755,1.747-2.634,2.617a2.286,2.286,0,0,1-1.858.5,2.338,2.338,0,0,1-1.6-.919q-2.711-3.263-5.417-6.531L46.6,251.113c-.534-.647-1.083-1.283-1.6-1.942-.169-.216-.335-.436-.5-.655-.067-.089-.136-.176-.2-.267-.188-.259-.29-.542-.51-.809-.1-.118.351.47.248.346a1.6,1.6,0,0,1,.363-2.4,2.265,2.265,0,0,1,2.831.175l.007.009.007.009c-.795-.583-.132-.119.02.016.04.035.077.075.115.112.146.138.287.281.427.424.558.575,1.069,1.2,1.579,1.817l3.736,4.52q4.349,5.262,8.69,10.532.9,1.092,1.794,2.186l-3.458-.418,2.181-2.106c.65-.627,1.338-1.215,2.015-1.813l1.041-.918q.6-.531,1.2-1.07a8.976,8.976,0,0,1,2.017-1.295,1.72,1.72,0,0,1,1.754.059A1.179,1.179,0,0,1,70.7,259.1" transform="translate(85.71 -52.94)" fill="#fb929c"/><path d="M56.329,40.691H156.6a5.017,5.017,0,0,0,5.011-5.011V20.653a5.017,5.017,0,0,0-5.011-5.011H56.329a5.016,5.016,0,0,0-5.01,5.011V35.681a5.016,5.016,0,0,0,5.01,5.011M156.6,17.631a3.025,3.025,0,0,1,3.022,3.022V35.681A3.025,3.025,0,0,1,156.6,38.7H56.329a3.025,3.025,0,0,1-3.022-3.022V20.653a3.025,3.025,0,0,1,3.022-3.022Z" transform="translate(-11.09 -3.38)" fill="#deedfe"/><path d="M185.278,45.974h4.982V42h-4.982a2.03,2.03,0,0,1-2.028-2.028V35.489h-3.977V39.97a6.012,6.012,0,0,0,6,6" transform="translate(-140.038 -7.669)" fill="#4862aa"/><path d="M55.032,45.974H50.05V42h4.982A2.03,2.03,0,0,0,57.06,39.97V35.489h3.977V39.97a6.012,6.012,0,0,1-6,6" transform="translate(90.482 -7.669)" fill="#4862aa"/><path d="M60.882,20.852h94.629a1.555,1.555,0,0,0,1.555-1.554V11.524a1.555,1.555,0,0,0-1.555-1.555H60.882a1.555,1.555,0,0,0-1.554,1.555V19.3a1.555,1.555,0,0,0,1.554,1.554" transform="translate(-12.821 -2.154)" fill="#4862aa"/></g></g><g transform="translate(48.886 49.806)"><g clip-path="url(#c)"><rect width="61.85" height="64.533" transform="translate(54.816 64.647) rotate(-176.367)" fill="url(#d)"/></g></g><g transform="translate(0 0.001)"><g clip-path="url(#b)"><path d="M173.309,72.631a10.547,10.547,0,0,0-4.34,5.871,25.423,25.423,0,0,0-.858,8.619,23.256,23.256,0,0,1-.151,4.456,10.433,10.433,0,0,1-1.412,3.7c-1.28,2.122-3.045,3.934-4.126,6.178a11.157,11.157,0,0,0-.424,8.763c.034.088.131.042.107-.044a12.274,12.274,0,0,1,.339-7.942c.963-2.347,2.728-4.214,4.079-6.328a11.316,11.316,0,0,0,1.529-3.4,16.464,16.464,0,0,0,.33-4.23,33.749,33.749,0,0,1,.488-8.662,11.558,11.558,0,0,1,4.442-6.941c.013-.009.016-.052,0-.04" transform="translate(-109.01 -15.696)" fill="#4862aa"/><path d="M170.938,98.334a10.621,10.621,0,0,1-1.4,3.448c-.652,1.029-1.429,1.973-2.089,3a12.977,12.977,0,0,0-2.034,6.656,10.5,10.5,0,0,0,.59,3.919c.025.068.08,0,.071-.047a15.209,15.209,0,0,1,.158-7.021,13.306,13.306,0,0,1,1.365-3.16c.61-1.017,1.347-1.949,1.979-2.951a8.606,8.606,0,0,0,1.4-3.842c0-.032-.03-.028-.036,0" transform="translate(-109.882 -21.246)" fill="#4862aa"/></g></g><g transform="translate(87.056 94.06)"><g clip-path="url(#f)"><rect width="55.48" height="57.656" transform="translate(42.375 58.784) rotate(-165.825)" fill="#78b62e"/></g></g><g transform="translate(0 0.001)"><g clip-path="url(#b)"><path d="M85.245,294.233,111.18,131.817a19.957,19.957,0,0,0,.237-3.684,18.311,18.311,0,0,0-.443-3.692l-5.8-26.827h-.008A17.607,17.607,0,0,1,94.6,95.919L80.684,119.673a20.516,20.516,0,0,0-1.533,3.3,21.1,21.1,0,0,0-.908,3.486L52.3,288.97c-1.03,6.445,31.916,11.709,32.946,5.263" transform="translate(38.349 -20.729)" fill="#fff2c7"/><path d="M65.41,95.076a17.755,17.755,0,0,1-5.162-1.666l4.68-7.993a2.111,2.111,0,0,1,3.948.63L70.835,95.1a17.787,17.787,0,0,1-5.425-.025" transform="translate(72.69 -18.216)" fill="#fb929c"/><path d="M85.248,301.689l25.934-162.417a19.752,19.752,0,0,0,.238-3.677,73.242,73.242,0,0,1-32.264-5.164,20.135,20.135,0,0,0-.906,3.491L52.3,296.429c-1.025,6.441,31.922,11.708,32.947,5.26" transform="translate(38.345 -28.187)" fill="#feca58"/><path d="M81.33,309.008l19.22-120.366c-6.22,38.955-14.415,90.272-1.19,109.051,9.706,13.784,18.341-4.857,18.341-4.857l-3.422,21.434c-1.028,6.443-33.978,1.182-32.949-5.262" transform="translate(9.317 -40.766)" fill="#e7b02a"/><path d="M65.173,136.918c.189.014.368.034.56.045-.187-.013-.373-.031-.56-.045" transform="translate(73.932 -29.589)" fill="#fb929c"/><path d="M65.829,299.608a.605.605,0,0,0,.6-.509L90.431,148.761a.6.6,0,0,0-1.195-.19L65.231,298.908a.605.605,0,0,0,.5.692.584.584,0,0,0,.1.008" transform="translate(49.186 -31.997)" fill="#e7b02a"/><path d="M83.932,296.717a.605.605,0,0,0,.6-.509l24.006-150.337a.6.6,0,0,0-1.195-.19L83.334,296.017a.605.605,0,0,0,.5.692.581.581,0,0,0,.1.008" transform="translate(16.892 -31.372)" fill="#e7b02a"/><path d="M56.127,162.946c1.159-.15,2.1.767,2.392,3.008.339,2.584.967,2.831,1.235,5.057s-1.521,9.111-3,10.318c-.926.755-2.691,1.661-3.571.331a9.688,9.688,0,0,1-.594-2.171c-.091-.25-.224-.485-.3-.74a4.39,4.39,0,0,1,.207-2.175,2.226,2.226,0,0,0-.33-2.088c-.132-.131-.294-.23-.426-.362a1.9,1.9,0,0,1-.379-1.663c.244-1.478,1.246-2.5,2.044-3.689a7.258,7.258,0,0,1,1.38-1.442c.114-.1.746-.477.769-.626,0,0,.575-3.76.575-3.76" transform="translate(90.745 -35.21)" fill="#d18080"/><path d="M183.437,342.517a53.575,53.575,0,0,1-1.916,6.7c-1.348,3.866-3.127,8.489-1.209,12.75a11.49,11.49,0,0,0,4.939,4.94c1.862.956,4.1,1.086,5.658-.579a7.025,7.025,0,0,0,1.2-1.946,21.64,21.64,0,0,0,1.6-8.741q.1-4.991.222-9.982c.02-.775.047-1.551.105-2.325a10.188,10.188,0,0,0-2.13-.736,40.038,40.038,0,0,0-4.34-1.093c-.592-.1-1.62-.491-2.214-.562a6.636,6.636,0,0,1-1.242-.325c-.177-.053-.387.564-.671,1.9" transform="translate(-143.968 -73.608)" fill="#18185e"/><path d="M187.525,356.74c-.949,2.308-4.831,2.146-7.062.284a6.852,6.852,0,0,1-2.692-4.737,19,19,0,0,1,.487-6.743,29.386,29.386,0,0,0,1-5.924c.179-2.058.431-6.1.431-6.1l11.245,2.085s-1.1,4.312-1.58,7.314c-.591,3.723-.756,6.941-.879,8.6a17.294,17.294,0,0,1-.954,5.22" transform="translate(-139.447 -72.076)" fill="#d18080"/><path d="M108.465,336.678a15.5,15.5,0,0,0-1.395,4.971c-.257,3.321,1.1,6.563,1.221,9.891.013.35-.092,1.2.169,1.466s1.243.23,1.6.213a.316.316,0,0,0,.184-.049.338.338,0,0,0,.09-.266c.049-1.218.117-3.15,1.232-3.922a.559.559,0,0,1,.237-.107.572.572,0,0,1,.293.055,3.734,3.734,0,0,1,1.237.969c1.784,1.883,3.273,3.984,5.378,5.541a12.06,12.06,0,0,0,3.8,1.977,18.954,18.954,0,0,0,7.351.754c2.124-.247,5.306-1.381,4.094-4.115a5.616,5.616,0,0,0-.828-1.226c-1.048-1.29-2.235-2.458-3.384-3.66l-2.623-2.737c-1.6-1.667-3.476-3.077-5.229-4.585l-6.17-5.309a6.332,6.332,0,0,0-2.36-1.625,8.816,8.816,0,0,0-3.09-.158c-1,.123-1.389.97-1.771,1.836-.013.027-.024.056-.037.084" transform="translate(-27.376 -72.328)" fill="#18185e"/><path d="M127.39,338.833a40.889,40.889,0,0,0,5.41,8.021c.343.438,1.183,1.425.882,2.036-.32.648-1.744.6-2.313.549a16.57,16.57,0,0,1-6.813-2.3,36.217,36.217,0,0,1-6.376-4.964c-1.976-1.841-4.083-4.19-4.427-7a6.848,6.848,0,0,1,.026-1.493,31.611,31.611,0,0,0-.249-4.851c-.245-1.886,12.642-1.677,12.6,3.665a13.48,13.48,0,0,0,1.257,6.331" transform="translate(-31.985 -70.83)" fill="#d18080"/></g></g><g transform="translate(39.567 140.564)"><g clip-path="url(#h)"><rect width="126.958" height="62.763" transform="matrix(-0.023, -1, 1, -0.023, -0.3, 126.99)" fill="url(#i)"/></g></g><g transform="translate(0 0.001)"><g clip-path="url(#b)"><path d="M128.15,237.558c3.393-11.132,6.549-21.257,6.549-21.257a20.245,20.245,0,0,0,10.9-3.378c-2.193,4.215-8.481,6.05-8.481,6.05l-7.307,20.952.7,11.332Z" transform="translate(-55.299 -46.014)" fill="#313180"/></g></g><g transform="translate(52.976 93.554)"><g clip-path="url(#k)"><rect width="44.32" height="61.874" transform="translate(0 0)" fill="url(#l)"/></g></g><g transform="translate(0 0.001)"><g clip-path="url(#b)"><path d="M123.38,175.914c2.081-3.089,1.7-5.389.944-9.431l13.581-10.875s.471,19.35,5.483,24.619c3.773,3.967,9.469,5.084,17.786,1.859l.875.581c.122,1.413.2,2.293.2,2.293s-5.781,3.613-18.547,3.854-24.328-5.9-24.328-5.9a65.645,65.645,0,0,1,4.007-7" transform="translate(-65.073 -33.628)" fill="#b2d4fe"/><path d="M147.352,76.221c.358-.918.9-1.859,1.841-1.834a4.524,4.524,0,0,1,3.256,1.961,12.048,12.048,0,0,1,1.777,3.7,30.658,30.658,0,0,1,1.291,9.1c0,2.3-.28,6.972-1.145,9.143-1.73,4.343-6.189,5.43-9.549,5.512.065,3.128-.434,5.228,1.748,5.468,1.732,2.849,1.511,5.889-3.366,6.852s-13.184-1.031-14.192-6.488c2.439-.644,2.944-3.164,2.914-6.858-.032-3.923-.058-7.026-.058-7.026s-2.317.753-4.644-2.124c-2.419-2.991-2.323-8.134,1.032-9.03,2.614-.7,3.836.96,4.554,2.987a1.316,1.316,0,0,0,1.637.884,3.87,3.87,0,0,0,1.779-1.631,3.184,3.184,0,0,1,1.863-.984,13.951,13.951,0,0,0,4.87-2.088c2.051-1.555,3.185-4.022,4.014-6.459.1-.307.225-.7.379-1.091" transform="translate(-63.185 -16.075)" fill="#d18080"/></g></g><g transform="translate(71.775 84.281)"><g transform="translate(0)" clip-path="url(#n)"><rect width="11.221" height="8.753" transform="matrix(-0.937, -0.348, 0.348, -0.937, 8.667, 8.894)" fill="url(#o)"/></g></g><g transform="translate(0 0.001)"><g clip-path="url(#b)"><path d="M133.623,88.6a1.064,1.064,0,0,0-.053.575,5.219,5.219,0,0,0,.249.78q.776,2.068,1.413,4.186c.147.49.251.968-.271,1.259a1.929,1.929,0,0,1-.554.183,7.886,7.886,0,0,1-1.656.169c-.212,0-.763.155-.444.424.239.2.836.093,1.119.079a6.123,6.123,0,0,0,1.163-.168,1.889,1.889,0,0,0,1.193-.623,1.377,1.377,0,0,0,.042-1.129c-.292-1.08-.644-2.146-1.026-3.2a22.331,22.331,0,0,0-.95-2.378c-.105-.211-.178-.23-.225-.161" transform="translate(-48.811 -19.14)" fill="#b55d5d"/><path d="M135.755,100.6c0,.007,0,.014.007.022a1.579,1.579,0,0,0,.23.373,3.1,3.1,0,0,0,.583.6,4,4,0,0,0,1.4.7,3.7,3.7,0,0,0,1.426.111,2.831,2.831,0,0,0,.9-.217c.108-.051.329-.158.372-.28.049-.138-.1-.263-.219-.262-.433,0-.848.164-1.28.187a4.033,4.033,0,0,1-2.979-1.187.876.876,0,0,0-.208-.166c-.146-.071-.277-.036-.235.121" transform="translate(-56.345 -21.706)" fill="#b55d5d"/><path d="M140.834,89.975a1.361,1.361,0,0,0,1.329,1.355,1.336,1.336,0,0,0,1.082-1.543,1.361,1.361,0,0,0-1.329-1.355,1.337,1.337,0,0,0-1.082,1.543" transform="translate(-62.893 -19.11)" fill="#18185e"/><path d="M128.334,89.341a1.361,1.361,0,0,0,1.329,1.355,1.337,1.337,0,0,0,1.082-1.543,1.361,1.361,0,0,0-1.329-1.355,1.336,1.336,0,0,0-1.082,1.543" transform="translate(-40.594 -18.973)" fill="#18185e"/><path d="M141.2,86.032a4.5,4.5,0,0,1,.2-.431,5.225,5.225,0,0,1,.334-.526,2.415,2.415,0,0,1,.925-.71,3.1,3.1,0,0,1,.9-.248,2.94,2.94,0,0,1,.463-.021c.223.009.43.068.616-.1a.377.377,0,0,0,.062-.508.842.842,0,0,0-.525-.2q-.129-.008-.259-.007a3.728,3.728,0,0,0-.583.047,2.977,2.977,0,0,0-1.161.429,2.565,2.565,0,0,0-.988,1.224,1.188,1.188,0,0,0-.073.522,2.71,2.71,0,0,0,.056.535c.007.025.031.006.037-.007" transform="translate(-64.616 -17.997)" fill="#18185e"/><path d="M131.5,85.545a1.908,1.908,0,0,0-.26-1.063,2.345,2.345,0,0,0-1.263-1.032,3.457,3.457,0,0,0-2.193.021.419.419,0,0,0-.229.531.4.4,0,0,0,.521.216l-.1.027.1-.027.048-.015c.078-.021.157-.038.236-.052a3.647,3.647,0,0,1,.47-.055,2.943,2.943,0,0,1,.891.1,3.456,3.456,0,0,1,.986.481,2.679,2.679,0,0,1,.434.387,2.986,2.986,0,0,1,.321.509c.016.026.036-.016.037-.03" transform="translate(-40.721 -17.997)" fill="#18185e"/><path d="M153.171,101.23a4.915,4.915,0,0,0,2.331-1.511,1.871,1.871,0,0,1-2.331,1.511" transform="translate(-84.819 -21.55)" fill="#b55d5d"/><path d="M155.065,91.488a1.907,1.907,0,0,1,2.091-.433,3.566,3.566,0,0,1,1.7,1.194,3.779,3.779,0,0,1,.759,1.714,2.246,2.246,0,0,1-.321,1.854c-.062.065-.208.083-.226-.029a3.678,3.678,0,0,1,.069-.831,3.613,3.613,0,0,0-.032-.818,3.508,3.508,0,0,0-.619-1.517c-.026-.037-.058-.069-.085-.1l-.007.007a3.832,3.832,0,0,0-1.209,1.178,3.462,3.462,0,0,0-.459,1.654c0,.038-.067.125-.1.063a1.962,1.962,0,0,1,.161-1.892,4.2,4.2,0,0,1,1.3-1.356,3.01,3.01,0,0,0-.952-.629,2.453,2.453,0,0,0-1.939.1.1.1,0,0,1-.129-.157" transform="translate(-90.457 -19.651)" fill="#b55d5d"/></g></g><g transform="translate(48.766 93.554)"><g clip-path="url(#q)"><rect width="37.233" height="72.08" transform="translate(24.271 73.159) rotate(-169.469)" fill="#78b62e"/></g></g><g transform="translate(83.385 93.201)"><g transform="translate(0)" clip-path="url(#r)"><rect width="67.303" height="22.727" transform="translate(0.185 67.685) rotate(-96.25)" fill="#78b62e"/></g></g><g transform="translate(0 0.001)"><g clip-path="url(#b)"><path d="M117.028,124.162a24.94,24.94,0,0,1,4.393,6.215,28.6,28.6,0,0,1,3.124,7.326,28.56,28.56,0,0,1,.153,8.044c-.216,2.825-.281,5.629-.227,8.462.03,1.569.072,3.138.109,4.706.019.788.047,1.576.072,2.363.025.821-.024,1.634-.037,2.454,0,.056-.058.039-.062-.009-.058-.673-.167-1.34-.194-2.016l-.087-2.185c-.056-1.4-.138-2.8-.2-4.2a72.633,72.633,0,0,1-.021-8.375,38.7,38.7,0,0,0,.1-8.015,24.683,24.683,0,0,0-2.759-7.381,34.7,34.7,0,0,0-4.4-7.308c-.019-.023,0-.108.029-.076" transform="translate(-25.862 -26.83)" fill="#78b62e"/><path d="M181.293,196.111a1.392,1.392,0,0,0-.655,1,2.72,2.72,0,0,0,.129,1.223,5.265,5.265,0,0,0,.865,1.675,1.5,1.5,0,0,0,.9.646,1.166,1.166,0,0,0,1.177-.928,3.02,3.02,0,0,0-.161-1.613c-.27-.879-.964-2.715-2.257-2.006" transform="translate(-134.595 -42.346)" fill="#b55d5d"/><path d="M180,190.9c-.259-1.381-1.1-1.81-3.868-3.623s-8.556-5.956-8.556-5.956l10.62-6.994s7.235,5.985,9.959,9.292a18.318,18.318,0,0,1,3.6,8.236c.691,3.022.04,4.518-1.059,5.8s-4.986,3.267-6.626,3.267-4.749-2.158-5.871-3.194-1.727-4.663-.863-5.008,1.593.414,2.159,1.727c.42.977,1.727.949,1.295-.087A17.116,17.116,0,0,1,180,190.9" transform="translate(-132.641 -37.672)" fill="#d18080"/></g></g><g transform="translate(27.828 96.044)"><g clip-path="url(#t)"><rect width="59.593" height="62.335" transform="translate(22.608 67.616) rotate(-144.09)" fill="#78b62e"/></g></g><g transform="translate(0 0.001)"><g clip-path="url(#b)"><path d="M167.251,148.465a10.254,10.254,0,0,1,1.083-1.693,17.3,17.3,0,0,0,1.016-1.826,19.586,19.586,0,0,0,1.381-3.956,25.685,25.685,0,0,0,.361-8.98,51.956,51.956,0,0,0-.964-5.415c-.022-.1.126-.269.176-.124,1.981,5.878,2.361,12.552-.265,18.3a18.734,18.734,0,0,1-1.013,1.924,7,7,0,0,1-1.557,1.971c-.154.12-.274-.059-.217-.205" transform="translate(-112.241 -27.319)" fill="#78b62e"/></g></g></g></g></svg>