<svg xmlns="http://www.w3.org/2000/svg" width="130" height="130" viewBox="0 0 130 130"><g transform="translate(-994 -3701)"><circle cx="65" cy="65" r="65" transform="translate(994 3701)" fill="#efefef"/><g transform="translate(1009.007 3710.972)"><g transform="translate(1.511 6.049)"><path d="M31.661,12.125H10.513A2.775,2.775,0,0,0,7.738,14.9V42.09a2.775,2.775,0,0,0,2.775,2.775h6.5a1.422,1.422,0,0,1,1.141.573l1.948,2.62a1.232,1.232,0,0,0,1.977,0l1.948-2.62a1.422,1.422,0,0,1,1.141-.573h6.5a2.775,2.775,0,0,0,2.775-2.775V14.9A2.775,2.775,0,0,0,31.661,12.125Z" transform="translate(-7.738 -12.125)" fill="#fee55a"/><path d="M151.756,349.856H130.608a2.775,2.775,0,0,1-2.775-2.775v-27.19a2.775,2.775,0,0,1,2.775-2.775h6.5a1.422,1.422,0,0,0,1.141-.573l1.948-2.62a1.232,1.232,0,0,1,1.977,0l1.948,2.62a1.422,1.422,0,0,0,1.141.573h6.5a2.775,2.775,0,0,1,2.775,2.775v27.19A2.775,2.775,0,0,1,151.756,349.856Z" transform="translate(-104.38 -254.587)" fill="#bced6b"/><path d="M271.851,12.125H250.7a2.775,2.775,0,0,0-2.775,2.775V42.09a2.775,2.775,0,0,0,2.775,2.775h6.5a1.422,1.422,0,0,1,1.141.573l1.948,2.62a1.232,1.232,0,0,0,1.977,0l1.948-2.62a1.422,1.422,0,0,1,1.141-.573h6.5a2.775,2.775,0,0,0,2.775-2.775V14.9A2.775,2.775,0,0,0,271.851,12.125Z" transform="translate(-201.023 -12.125)" fill="#43cb8e"/><path d="M391.947,349.856H370.8a2.775,2.775,0,0,1-2.775-2.775v-27.19a2.775,2.775,0,0,1,2.775-2.775h6.5a1.422,1.422,0,0,0,1.141-.573l1.948-2.62a1.232,1.232,0,0,1,1.977,0l1.948,2.62a1.422,1.422,0,0,0,1.141.573h6.5a2.775,2.775,0,0,1,2.775,2.775v27.19A2.775,2.775,0,0,1,391.947,349.856Z" transform="translate(-297.666 -254.587)" fill="#60b8fe"/><g transform="translate(0 0)"><path d="M13.951,42.09V14.9a2.775,2.775,0,0,1,2.775-2.775H10.513A2.775,2.775,0,0,0,7.738,14.9V42.09a2.775,2.775,0,0,0,2.775,2.775h6.213A2.775,2.775,0,0,1,13.951,42.09Z" transform="translate(-7.738 -12.125)" fill="#ffd301"/><g transform="translate(9.271 32.74)"><path d="M61.425,179.778H55.212a1.422,1.422,0,0,1,1.141.573l1.948,2.62a1.232,1.232,0,0,0,1.977,0l1.948-2.62a1.427,1.427,0,0,1,.17-.186A1.421,1.421,0,0,0,61.425,179.778Z" transform="translate(-55.212 -179.778)" fill="#ffd301"/></g></g><g transform="translate(23.453 58.839)"><path d="M134.046,362.286V335.1a2.775,2.775,0,0,1,2.775-2.775h-6.213a2.775,2.775,0,0,0-2.775,2.775v27.19a2.775,2.775,0,0,0,2.775,2.775h6.213A2.775,2.775,0,0,1,134.046,362.286Z" transform="translate(-127.833 -328.631)" fill="#98d829"/><path d="M182.492,316.729a1.426,1.426,0,0,1-.17-.187l-1.948-2.62a1.232,1.232,0,0,0-1.977,0l-1.948,2.62a1.422,1.422,0,0,1-1.141.573h6.213A1.42,1.42,0,0,0,182.492,316.729Z" transform="translate(-166.036 -313.426)" fill="#98d829"/></g><g transform="translate(46.905 0)"><path d="M254.141,42.09V14.9a2.775,2.775,0,0,1,2.775-2.775H250.7a2.775,2.775,0,0,0-2.775,2.775V42.09a2.775,2.775,0,0,0,2.775,2.775h6.213A2.775,2.775,0,0,1,254.141,42.09Z" transform="translate(-247.928 -12.125)" fill="#00ba66"/><path d="M301.615,179.778H295.4a1.422,1.422,0,0,1,1.141.573l1.948,2.62a1.232,1.232,0,0,0,1.977,0l1.948-2.62a1.429,1.429,0,0,1,.169-.186A1.42,1.42,0,0,0,301.615,179.778Z" transform="translate(-286.131 -147.038)" fill="#00ba66"/></g><g transform="translate(70.358 58.839)"><path d="M422.682,316.729a1.427,1.427,0,0,1-.169-.187l-1.948-2.62a1.232,1.232,0,0,0-1.977,0l-1.948,2.62a1.422,1.422,0,0,1-1.141.573h6.213a1.42,1.42,0,0,0,.972-.387Z" transform="translate(-406.227 -313.426)" fill="#23a8fe"/><path d="M374.236,362.286V335.1a2.775,2.775,0,0,1,2.775-2.775H370.8a2.775,2.775,0,0,0-2.775,2.775v27.19a2.775,2.775,0,0,0,2.775,2.775h6.213A2.775,2.775,0,0,1,374.236,362.286Z" transform="translate(-368.023 -328.631)" fill="#23a8fe"/></g><circle cx="4.988" cy="4.988" r="4.988" transform="translate(8.712 42.646)" fill="#fee55a"/><circle cx="4.988" cy="4.988" r="4.988" transform="translate(32.165 42.646)" fill="#bced6b"/><circle cx="4.988" cy="4.988" r="4.988" transform="translate(55.617 42.646)" fill="#43cb8e"/><circle cx="4.988" cy="4.988" r="4.988" transform="translate(79.07 42.646)" fill="#60b8fe"/><path d="M56.985,235.494a4.987,4.987,0,0,1,2.67-4.417,4.988,4.988,0,1,0,0,8.833A4.987,4.987,0,0,1,56.985,235.494Z" transform="translate(-43.636 -187.86)" fill="#ffd301"/><path d="M177.082,235.494a4.987,4.987,0,0,1,2.67-4.417,4.988,4.988,0,1,0,0,8.833A4.987,4.987,0,0,1,177.082,235.494Z" transform="translate(-140.28 -187.86)" fill="#98d829"/><path d="M297.177,235.494a4.987,4.987,0,0,1,2.67-4.417,4.988,4.988,0,1,0,0,8.833A4.987,4.987,0,0,1,297.177,235.494Z" transform="translate(-236.923 -187.86)" fill="#00ba66"/><path d="M417.272,235.494a4.987,4.987,0,0,1,2.67-4.417,4.988,4.988,0,1,0,0,8.833A4.987,4.987,0,0,1,417.272,235.494Z" transform="translate(-333.565 -187.86)" fill="#23a8fe"/></g><g transform="translate(0 4.574)"><path d="M0,36a4.244,4.244,0,0,0,4.24,4.24h6.475l1.935,2.6a2.7,2.7,0,0,0,4.328,0l1.936-2.6h6.474A4.244,4.244,0,0,0,29.627,36V8.814a4.244,4.244,0,0,0-4.24-4.24H4.24A4.244,4.244,0,0,0,0,8.814ZM2.929,8.814A1.312,1.312,0,0,1,4.24,7.5H25.387A1.312,1.312,0,0,1,26.7,8.814V36a1.312,1.312,0,0,1-1.311,1.311h-6.5a2.9,2.9,0,0,0-2.316,1.164l-1.762,2.369-1.762-2.369a2.9,2.9,0,0,0-2.316-1.164H4.24A1.312,1.312,0,0,1,2.929,36Z" transform="translate(0 -4.574)"/><path d="M55.948,47.264h5.418a1.465,1.465,0,1,0,0-2.929H55.948a1.465,1.465,0,1,0,0,2.929Z" transform="translate(-43.843 -36.57)"/><path d="M39.779,76.22H51.512a1.465,1.465,0,1,0,0-2.929H39.779a1.465,1.465,0,1,0,0,2.929Z" transform="translate(-30.832 -59.872)"/><path d="M39.779,105.175H51.512a1.465,1.465,0,1,0,0-2.929H39.779a1.465,1.465,0,1,0,0,2.929Z" transform="translate(-30.832 -83.172)"/><path d="M39.779,134.13H51.512a1.465,1.465,0,0,0,0-2.929H39.779a1.465,1.465,0,0,0,0,2.929Z" transform="translate(-30.832 -106.473)"/><path d="M124.336,345.234h21.148a4.245,4.245,0,0,0,4.24-4.24V313.8a4.244,4.244,0,0,0-4.24-4.24h-6.474l-1.935-2.6a2.672,2.672,0,0,0-2.164-1.087h0a2.673,2.673,0,0,0-2.164,1.087l-1.935,2.6h-6.474a4.244,4.244,0,0,0-4.24,4.24v27.19a4.244,4.244,0,0,0,4.24,4.24Zm-1.311-31.43a1.312,1.312,0,0,1,1.311-1.311h6.5a2.9,2.9,0,0,0,2.316-1.164l1.762-2.369,1.762,2.369a2.9,2.9,0,0,0,2.316,1.164h6.5a1.312,1.312,0,0,1,1.311,1.311v27.19a1.312,1.312,0,0,1-1.311,1.311H124.336a1.312,1.312,0,0,1-1.311-1.311Z" transform="translate(-96.643 -247.036)"/><path d="M176.043,368.726h5.418a1.465,1.465,0,1,0,0-2.929h-5.418a1.465,1.465,0,1,0,0,2.929Z" transform="translate(-140.486 -295.256)"/><path d="M159.875,397.681h11.733a1.465,1.465,0,1,0,0-2.929H159.875a1.465,1.465,0,1,0,0,2.929Z" transform="translate(-127.475 -318.556)"/><path d="M159.875,426.637h11.733a1.465,1.465,0,1,0,0-2.929H159.875a1.465,1.465,0,1,0,0,2.929Z" transform="translate(-127.475 -341.858)"/><path d="M159.875,455.592h11.733a1.465,1.465,0,0,0,0-2.929H159.875a1.465,1.465,0,1,0,0,2.929Z" transform="translate(-127.475 -365.158)"/><path d="M301.557,47.264a1.465,1.465,0,0,0,0-2.929h-5.418a1.465,1.465,0,1,0,0,2.929Z" transform="translate(-237.129 -36.57)"/><path d="M291.7,73.291H279.97a1.465,1.465,0,0,0,0,2.929H291.7a1.465,1.465,0,0,0,0-2.929Z" transform="translate(-224.117 -59.872)"/><path d="M291.7,102.246H279.97a1.465,1.465,0,0,0,0,2.929H291.7a1.465,1.465,0,1,0,0-2.929Z" transform="translate(-224.117 -83.172)"/><path d="M291.7,131.2H279.97a1.465,1.465,0,0,0,0,2.929H291.7a1.465,1.465,0,0,0,0-2.929Z" transform="translate(-224.117 -106.473)"/><path d="M421.652,368.726a1.465,1.465,0,1,0,0-2.929h-5.418a1.465,1.465,0,1,0,0,2.929Z" transform="translate(-333.771 -295.256)"/><path d="M398.6,396.217a1.465,1.465,0,0,0,1.465,1.465H411.8a1.465,1.465,0,1,0,0-2.929H400.066A1.465,1.465,0,0,0,398.6,396.217Z" transform="translate(-320.76 -318.556)"/><path d="M400.066,426.637H411.8a1.465,1.465,0,1,0,0-2.929H400.066a1.465,1.465,0,0,0,0,2.929Z" transform="translate(-320.76 -341.858)"/><path d="M400.066,455.592H411.8a1.465,1.465,0,1,0,0-2.929H400.066a1.465,1.465,0,0,0,0,2.929Z" transform="translate(-320.76 -365.158)"/><path d="M98.521,227.944H91.806a6.451,6.451,0,0,0-12.566,0H68.353a6.451,6.451,0,0,0-12.567,0H44.9a6.451,6.451,0,0,0-12.567,0H21.448a6.451,6.451,0,0,0-12.566,0H1.465a1.465,1.465,0,0,0,0,2.929H8.882a6.451,6.451,0,0,0,12.566,0H32.334a6.451,6.451,0,0,0,12.567,0H55.787a6.451,6.451,0,0,0,12.567,0H79.24a6.451,6.451,0,0,0,12.566,0h6.714a1.465,1.465,0,1,0,0-2.929Zm-83.356,4.988a3.524,3.524,0,1,1,3.524-3.524A3.528,3.528,0,0,1,15.165,232.932Zm23.453,0a3.524,3.524,0,1,1,3.524-3.524A3.528,3.528,0,0,1,38.617,232.932Zm23.453,0a3.524,3.524,0,1,1,3.524-3.524A3.528,3.528,0,0,1,62.07,232.932Zm23.452,0a3.524,3.524,0,1,1,3.524-3.524A3.528,3.528,0,0,1,85.523,232.932Z" transform="translate(0 -180.309)"/><path d="M385.673,309.566H379.2l-1.935-2.6a2.7,2.7,0,0,0-4.328,0l-1.936,2.6h-6.474a4.244,4.244,0,0,0-4.24,4.24V341a4.244,4.244,0,0,0,4.24,4.24h7.508a1.465,1.465,0,1,0,0-2.929h-7.508A1.312,1.312,0,0,1,363.215,341v-27.19a1.312,1.312,0,0,1,1.311-1.311h6.5a2.9,2.9,0,0,0,2.316-1.164l1.762-2.369,1.762,2.369a2.9,2.9,0,0,0,2.316,1.164h6.5a1.312,1.312,0,0,1,1.311,1.311V341a1.312,1.312,0,0,1-1.311,1.311h-6.805a1.465,1.465,0,1,0,0,2.929h6.805a4.244,4.244,0,0,0,4.24-4.24v-27.19A4.244,4.244,0,0,0,385.673,309.566Z" transform="translate(-289.928 -247.036)"/><path d="M268.353,21.043a1.465,1.465,0,0,0,1.465-1.465V8.814a4.244,4.244,0,0,0-4.24-4.24H244.43a4.245,4.245,0,0,0-4.24,4.24V36a4.244,4.244,0,0,0,4.24,4.24H250.9l1.935,2.6A2.672,2.672,0,0,0,255,43.933h0a2.673,2.673,0,0,0,2.164-1.087l1.935-2.6h6.474a4.245,4.245,0,0,0,4.24-4.24V26.413a1.465,1.465,0,1,0-2.929,0V36a1.312,1.312,0,0,1-1.311,1.311h-6.5a2.9,2.9,0,0,0-2.316,1.164L255,40.847l-1.762-2.369a2.9,2.9,0,0,0-2.316-1.164h-6.5A1.312,1.312,0,0,1,243.119,36V8.814A1.312,1.312,0,0,1,244.43,7.5h21.148a1.312,1.312,0,0,1,1.311,1.311V19.578A1.465,1.465,0,0,0,268.353,21.043Z" transform="translate(-193.285 -4.574)"/></g></g></g></svg>