<svg xmlns="http://www.w3.org/2000/svg" width="330" height="237" viewBox="0 0 330 237"><g transform="translate(-299 -2642)"><rect width="330" height="237" transform="translate(299 2642)" fill="#f5db9a"/><path d="M4.385,21H1.455V6.781h2.93ZM9.512,10.434,9.6,11.654a3.689,3.689,0,0,1,3.037-1.416,3.066,3.066,0,0,1,2.5.986,4.6,4.6,0,0,1,.84,2.949V21H13.154V14.242a1.831,1.831,0,0,0-.391-1.3,1.749,1.749,0,0,0-1.3-.405,1.942,1.942,0,0,0-1.787,1.016V21H6.855V10.434Zm13,8.486a1.851,1.851,0,0,0,1.27-.43,1.506,1.506,0,0,0,.508-1.143h2.646a3.62,3.62,0,0,1-.586,1.968A3.866,3.866,0,0,1,24.771,20.7a4.936,4.936,0,0,1-2.212.493,4.587,4.587,0,0,1-3.574-1.44,5.7,5.7,0,0,1-1.309-3.979V15.59a5.635,5.635,0,0,1,1.3-3.9,4.534,4.534,0,0,1,3.564-1.455,4.444,4.444,0,0,1,3.179,1.128,3.994,3.994,0,0,1,1.216,3H24.287a1.923,1.923,0,0,0-.508-1.333A1.892,1.892,0,0,0,21,13.241a4.155,4.155,0,0,0-.5,2.329v.293a4.207,4.207,0,0,0,.5,2.344A1.722,1.722,0,0,0,22.51,18.92ZM31.523,21H28.691V6h2.832Zm8.652-1.074a3.539,3.539,0,0,1-2.891,1.27,3.338,3.338,0,0,1-2.593-.977,4.169,4.169,0,0,1-.913-2.861V10.434H36.6V17.26q0,1.65,1.5,1.65a2.038,2.038,0,0,0,1.973-1v-7.48H42.91V21H40.254ZM50.762,18.08a.909.909,0,0,0-.513-.815,5.824,5.824,0,0,0-1.646-.532q-3.77-.791-3.77-3.2A2.9,2.9,0,0,1,46,11.181a4.707,4.707,0,0,1,3.052-.942,5.067,5.067,0,0,1,3.218.947,2.985,2.985,0,0,1,1.206,2.461H50.654a1.366,1.366,0,0,0-.391-1,1.653,1.653,0,0,0-1.221-.4,1.689,1.689,0,0,0-1.1.322,1.017,1.017,0,0,0-.391.82.87.87,0,0,0,.444.757,4.571,4.571,0,0,0,1.5.5,12.244,12.244,0,0,1,1.777.474,2.92,2.92,0,0,1,2.236,2.842,2.756,2.756,0,0,1-1.24,2.339,5.35,5.35,0,0,1-3.2.894,5.588,5.588,0,0,1-2.358-.474,3.957,3.957,0,0,1-1.616-1.3,3.018,3.018,0,0,1-.586-1.782h2.676a1.473,1.473,0,0,0,.557,1.152,2.208,2.208,0,0,0,1.387.4,2.044,2.044,0,0,0,1.226-.308A.957.957,0,0,0,50.762,18.08ZM58.3,21H55.469V10.434H58.3Zm-3-13.3a1.39,1.39,0,0,1,.425-1.045,1.831,1.831,0,0,1,2.31,0,1.382,1.382,0,0,1,.43,1.045,1.386,1.386,0,0,1-.435,1.055,1.81,1.81,0,0,1-2.295,0A1.386,1.386,0,0,1,55.3,7.7Zm4.883,7.92a6.267,6.267,0,0,1,.605-2.8,4.432,4.432,0,0,1,1.743-1.9,5.086,5.086,0,0,1,2.642-.674,4.812,4.812,0,0,1,3.491,1.309A5.252,5.252,0,0,1,70.176,15.1l.02.723a5.523,5.523,0,0,1-1.357,3.9,5.261,5.261,0,0,1-7.29,0,5.62,5.62,0,0,1-1.362-3.984Zm2.822.205a3.939,3.939,0,0,0,.566,2.3,2.037,2.037,0,0,0,3.223.01,4.31,4.31,0,0,0,.576-2.515,3.9,3.9,0,0,0-.576-2.285,1.874,1.874,0,0,0-1.621-.811,1.843,1.843,0,0,0-1.6.806A4.383,4.383,0,0,0,63.008,15.824Zm11.523-5.391.088,1.221a3.689,3.689,0,0,1,3.037-1.416,3.066,3.066,0,0,1,2.5.986A4.6,4.6,0,0,1,81,14.174V21H78.174V14.242a1.831,1.831,0,0,0-.391-1.3,1.749,1.749,0,0,0-1.3-.405A1.942,1.942,0,0,0,74.7,13.549V21H71.875V10.434ZM92.979,21.2a5.187,5.187,0,0,1-3.784-1.426,5.068,5.068,0,0,1-1.46-3.8V15.7a6.383,6.383,0,0,1,.615-2.847,4.515,4.515,0,0,1,1.743-1.934,4.893,4.893,0,0,1,2.573-.679,4.385,4.385,0,0,1,3.413,1.367,5.555,5.555,0,0,1,1.245,3.877v1.152H90.6a2.622,2.622,0,0,0,.825,1.66,2.5,2.5,0,0,0,1.743.625,3.046,3.046,0,0,0,2.549-1.182L97.1,19.291a4.237,4.237,0,0,1-1.719,1.4A5.639,5.639,0,0,1,92.979,21.2Zm-.322-8.672a1.767,1.767,0,0,0-1.362.566,2.926,2.926,0,0,0-.669,1.621h3.926v-.225a2.086,2.086,0,0,0-.508-1.45A1.824,1.824,0,0,0,92.656,12.523Zm8.867-2.09.088,1.221a3.689,3.689,0,0,1,3.037-1.416,3.066,3.066,0,0,1,2.5.986,4.6,4.6,0,0,1,.84,2.949V21h-2.822V14.242a1.831,1.831,0,0,0-.391-1.3,1.749,1.749,0,0,0-1.3-.405,1.942,1.942,0,0,0-1.787,1.016V21H98.867V10.434ZM119.971,21.2a5.187,5.187,0,0,1-3.784-1.426,5.068,5.068,0,0,1-1.46-3.8V15.7a6.383,6.383,0,0,1,.615-2.847,4.515,4.515,0,0,1,1.743-1.934,4.893,4.893,0,0,1,2.573-.679,4.385,4.385,0,0,1,3.413,1.367,5.555,5.555,0,0,1,1.245,3.877v1.152h-6.729a2.622,2.622,0,0,0,.825,1.66,2.5,2.5,0,0,0,1.743.625,3.046,3.046,0,0,0,2.549-1.182l1.387,1.553a4.237,4.237,0,0,1-1.719,1.4A5.639,5.639,0,0,1,119.971,21.2Zm-.322-8.672a1.767,1.767,0,0,0-1.362.566,2.926,2.926,0,0,0-.669,1.621h3.926v-.225a2.086,2.086,0,0,0-.508-1.45A1.824,1.824,0,0,0,119.648,12.523ZM128.9,21h-2.832V6H128.9Zm9.951-10.566.088,1.182a3.713,3.713,0,0,1,3.037-1.377,2.818,2.818,0,0,1,2.8,1.611,3.628,3.628,0,0,1,3.174-1.611,3.152,3.152,0,0,1,2.559,1,4.6,4.6,0,0,1,.84,3.013V21h-2.832V14.262a2.012,2.012,0,0,0-.352-1.313,1.558,1.558,0,0,0-1.24-.415,1.761,1.761,0,0,0-1.758,1.211l.01,7.256h-2.822V14.271a1.988,1.988,0,0,0-.361-1.328,1.573,1.573,0,0,0-1.23-.41,1.829,1.829,0,0,0-1.738,1V21H136.2V10.434ZM158.379,21.2a5.187,5.187,0,0,1-3.784-1.426,5.068,5.068,0,0,1-1.46-3.8V15.7a6.383,6.383,0,0,1,.615-2.847,4.515,4.515,0,0,1,1.743-1.934,4.893,4.893,0,0,1,2.573-.679,4.385,4.385,0,0,1,3.413,1.367,5.555,5.555,0,0,1,1.245,3.877v1.152H156a2.622,2.622,0,0,0,.825,1.66,2.5,2.5,0,0,0,1.743.625,3.046,3.046,0,0,0,2.549-1.182l1.387,1.553a4.237,4.237,0,0,1-1.719,1.4A5.639,5.639,0,0,1,158.379,21.2Zm-.322-8.672a1.767,1.767,0,0,0-1.362.566,2.926,2.926,0,0,0-.669,1.621h3.926v-.225a2.086,2.086,0,0,0-.508-1.45A1.824,1.824,0,0,0,158.057,12.523Zm12.207.557A7.667,7.667,0,0,0,169.248,13a2.067,2.067,0,0,0-2.1,1.084V21h-2.822V10.434h2.666l.078,1.26a2.615,2.615,0,0,1,2.354-1.455,2.957,2.957,0,0,1,.879.127Zm5.566,5.84a1.851,1.851,0,0,0,1.27-.43,1.506,1.506,0,0,0,.508-1.143h2.646a3.62,3.62,0,0,1-.586,1.968,3.866,3.866,0,0,1-1.577,1.387,4.936,4.936,0,0,1-2.212.493,4.587,4.587,0,0,1-3.574-1.44A5.7,5.7,0,0,1,171,15.775V15.59a5.635,5.635,0,0,1,1.3-3.9,4.534,4.534,0,0,1,3.564-1.455,4.444,4.444,0,0,1,3.179,1.128,3.994,3.994,0,0,1,1.216,3h-2.646a1.923,1.923,0,0,0-.508-1.333,1.892,1.892,0,0,0-2.778.205,4.155,4.155,0,0,0-.5,2.329v.293a4.207,4.207,0,0,0,.5,2.344A1.722,1.722,0,0,0,175.83,18.92ZM187.988,21a3.134,3.134,0,0,1-.283-.947,3.415,3.415,0,0,1-2.666,1.143,3.752,3.752,0,0,1-2.573-.9,2.889,2.889,0,0,1-1.021-2.266,2.986,2.986,0,0,1,1.245-2.578,6.144,6.144,0,0,1,3.6-.908h1.3v-.605a1.741,1.741,0,0,0-.376-1.172,1.479,1.479,0,0,0-1.187-.439,1.682,1.682,0,0,0-1.118.342,1.161,1.161,0,0,0-.405.938H181.68a2.835,2.835,0,0,1,.566-1.7,3.744,3.744,0,0,1,1.6-1.226,5.837,5.837,0,0,1,2.324-.444,4.611,4.611,0,0,1,3.1.981,3.433,3.433,0,0,1,1.147,2.759v4.58a5.052,5.052,0,0,0,.42,2.275V21Zm-2.334-1.963a2.431,2.431,0,0,0,1.152-.278,1.828,1.828,0,0,0,.781-.747V16.2h-1.055q-2.119,0-2.256,1.465l-.01.166a1.13,1.13,0,0,0,.371.869A1.441,1.441,0,0,0,185.654,19.037Zm6.494-3.4a6.368,6.368,0,0,1,1.108-3.936,3.6,3.6,0,0,1,3.032-1.465,3.236,3.236,0,0,1,2.549,1.152V6h2.832V21h-2.549l-.137-1.123A3.321,3.321,0,0,1,196.27,21.2a3.587,3.587,0,0,1-2.993-1.47A6.573,6.573,0,0,1,192.148,15.639Zm2.822.205a4.16,4.16,0,0,0,.518,2.275,1.687,1.687,0,0,0,1.5.791,1.889,1.889,0,0,0,1.846-1.1v-4.17a1.862,1.862,0,0,0-1.826-1.1Q194.971,12.533,194.971,15.844Zm8.447-.225a6.267,6.267,0,0,1,.605-2.8,4.432,4.432,0,0,1,1.743-1.9,5.086,5.086,0,0,1,2.642-.674,4.812,4.812,0,0,1,3.491,1.309,5.252,5.252,0,0,1,1.509,3.555l.02.723a5.523,5.523,0,0,1-1.357,3.9,5.261,5.261,0,0,1-7.29,0,5.62,5.62,0,0,1-1.362-3.984Zm2.822.205a3.939,3.939,0,0,0,.566,2.3,2.037,2.037,0,0,0,3.223.01,4.31,4.31,0,0,0,.576-2.515,3.9,3.9,0,0,0-.576-2.285,1.874,1.874,0,0,0-1.621-.811,1.843,1.843,0,0,0-1.6.806A4.383,4.383,0,0,0,206.24,15.824ZM.674,40.639a6.193,6.193,0,0,1,1.157-3.916,3.75,3.75,0,0,1,3.12-1.484A3.289,3.289,0,0,1,7.656,36.43l.117-1h2.559V45.648a4.516,4.516,0,0,1-.63,2.412A4.045,4.045,0,0,1,7.93,49.623a6.231,6.231,0,0,1-2.676.537A5.794,5.794,0,0,1,2.988,49.7a4.021,4.021,0,0,1-1.67-1.2l1.25-1.719a3.306,3.306,0,0,0,2.559,1.182,2.42,2.42,0,0,0,1.748-.6,2.253,2.253,0,0,0,.625-1.7v-.566a3.264,3.264,0,0,1-2.568,1.1,3.74,3.74,0,0,1-3.081-1.489,6.191,6.191,0,0,1-1.177-3.95Zm2.822.205a3.846,3.846,0,0,0,.576,2.251,1.834,1.834,0,0,0,1.582.815A1.961,1.961,0,0,0,7.5,42.943V38.5a1.956,1.956,0,0,0-1.826-.967,1.845,1.845,0,0,0-1.6.83A4.334,4.334,0,0,0,3.5,40.844Zm8.564-.225a6.267,6.267,0,0,1,.605-2.8,4.432,4.432,0,0,1,1.743-1.9,5.086,5.086,0,0,1,2.642-.674,4.812,4.812,0,0,1,3.491,1.309A5.252,5.252,0,0,1,22.051,40.1l.02.723a5.523,5.523,0,0,1-1.357,3.9A4.718,4.718,0,0,1,17.07,46.2a4.742,4.742,0,0,1-3.647-1.465,5.62,5.62,0,0,1-1.362-3.984Zm2.822.205a3.939,3.939,0,0,0,.566,2.3,2.037,2.037,0,0,0,3.223.01,4.31,4.31,0,0,0,.576-2.515,3.9,3.9,0,0,0-.576-2.285,1.874,1.874,0,0,0-1.621-.811,1.843,1.843,0,0,0-1.6.806A4.383,4.383,0,0,0,14.883,40.824Zm18.447-.01a6.4,6.4,0,0,1-1.084,3.96A3.591,3.591,0,0,1,29.219,46.2a3.3,3.3,0,0,1-2.744-1.318L26.348,46H23.809V31h2.822v5.381A3.214,3.214,0,0,1,29.2,35.238a3.62,3.62,0,0,1,3.032,1.421,6.408,6.408,0,0,1,1.1,4Zm-2.822-.205A4.2,4.2,0,0,0,30,38.271a1.717,1.717,0,0,0-1.514-.737,1.862,1.862,0,0,0-1.855,1.1v4.17a1.887,1.887,0,0,0,1.875,1.113,1.742,1.742,0,0,0,1.8-1.348A6.952,6.952,0,0,0,30.508,40.609ZM38.047,46H35.215V31h2.832Zm8.447,0a3.134,3.134,0,0,1-.283-.947A3.415,3.415,0,0,1,43.545,46.2a3.752,3.752,0,0,1-2.573-.9,2.89,2.89,0,0,1-1.021-2.266A2.986,2.986,0,0,1,41.2,40.453a6.144,6.144,0,0,1,3.6-.908h1.3v-.605a1.741,1.741,0,0,0-.376-1.172,1.479,1.479,0,0,0-1.187-.439,1.682,1.682,0,0,0-1.118.342,1.161,1.161,0,0,0-.405.938H40.186a2.835,2.835,0,0,1,.566-1.7,3.744,3.744,0,0,1,1.6-1.226,5.837,5.837,0,0,1,2.324-.444,4.611,4.611,0,0,1,3.1.981,3.433,3.433,0,0,1,1.147,2.759v4.58a5.052,5.052,0,0,0,.42,2.275V46ZM44.16,44.037a2.431,2.431,0,0,0,1.152-.278,1.828,1.828,0,0,0,.781-.747V41.2H45.039q-2.119,0-2.256,1.465l-.01.166a1.13,1.13,0,0,0,.371.869A1.441,1.441,0,0,0,44.16,44.037ZM54.072,46H51.24V31h2.832Z" transform="translate(357 2791)" fill="#12263f"/><g transform="translate(356.471 2672.419)"><path d="M90.048,45.421A44.627,44.627,0,1,1,45.421.794,44.627,44.627,0,0,1,90.048,45.421Z" transform="translate(1.275 1.274)" fill="#e4eff8"/><path d="M27.414,6.085A19.989,19.989,0,0,0,7.408,26.058c0,13.776,20.005,30.81,20.005,30.81s20.005-17.034,20.005-30.81A19.989,19.989,0,0,0,27.414,6.085Z" transform="translate(33.132 26.76)" fill="#c4dcf0"/><path d="M29.029,1.131A44.627,44.627,0,0,0,1.51,25.091C5.665,37.373,20.427,49.954,20.427,49.954s20.005-17.034,20.005-30.81a19.953,19.953,0,0,0-11.4-18.013Z" transform="translate(4.724 2.897)" fill="#c4dcf0"/><path d="M21.665,11.377a3.071,3.071,0,0,0-3.078,3.078,3.071,3.071,0,0,1-3.078,3.078H12.432a3.078,3.078,0,0,0,0,6.155h1.539a3.078,3.078,0,1,1,0,6.155H3.809A44.627,44.627,0,0,0,30.9,39.077a44.628,44.628,0,0,0,41.27-27.7h-50.5Z" transform="translate(15.797 52.246)" fill="#3c6d9d"/><path d="M47.224.857A44.59,44.59,0,0,0,46.7,89.985q-.637.041-1.274.063a44.627,44.627,0,1,1,0-89.254q.9.013,1.8.063Z" transform="translate(1.275 1.274)" fill="#f8f8f8"/><path d="M.812,9A44.627,44.627,0,0,0,6.307,27.462H9.937a4.607,4.607,0,0,0,4.617-4.617,4.606,4.606,0,0,1,4.617-4.617h3.078a4.617,4.617,0,1,0,0-9.233Z" transform="translate(1.364 40.777)" fill="#3c6d9d"/><path d="M8.157.857a44.59,44.59,0,0,1,.529,89.128q.637.041,1.274.063A44.627,44.627,0,1,0,9.96.794q-.9.013-1.8.063Z" transform="translate(36.736 1.274)" fill="#c4dcf0"/><path d="M7.964,11.377c5.658,10.53,16.774,20.005,16.774,20.005s11.116-9.475,16.774-20.005Z" transform="translate(35.807 52.246)" fill="#94ac04"/><path d="M47.7,11.377A44.627,44.627,0,0,1,8.248,39.014q.637.041,1.274.063a44.627,44.627,0,0,0,41.255-27.7Z" transform="translate(37.174 52.246)" fill="#94ac04"/><path d="M.812,9A44.627,44.627,0,0,0,6.307,27.462H9.351A44.627,44.627,0,0,1,3.938,9Z" transform="translate(1.364 40.777)" fill="#f8f8f8"/><path d="M15.465,2.91a4.617,4.617,0,1,0,0,9.233h3.078a4.606,4.606,0,0,1,4.617,4.617,4.606,4.606,0,0,0,4.617,4.617h11.59A44.627,44.627,0,0,0,27.7,2.91Z" transform="translate(49.698 11.469)" fill="#3c6d9d"/><path d="M13.21,2.91a44.627,44.627,0,0,1,11.7,18.466h3.108A44.627,44.627,0,0,0,16.371,2.91Z" transform="translate(61.071 11.469)" fill="#94ac04"/><path d="M31.431,10.027c0,6.155-9.233,15.389-9.233,15.389s-9.233-9.233-9.233-15.389a9.233,9.233,0,1,1,18.466,0Z" transform="translate(59.892 1.274)" fill="#ffca28"/><g transform="translate(60.545 2.068)"><path d="M22.2.794a9.233,9.233,0,0,0-9.233,9.233c0,6.155,9.233,15.389,9.233,15.389s.626-.631,1.539-1.65c-2.623-2.928-7.694-9.172-7.694-13.739A9.229,9.229,0,0,1,23.737.932,9.249,9.249,0,0,0,22.2.794Z" transform="translate(-0.654 -0.794)" fill="#f8f8f8"/><path d="M12.171,4.5a4.606,4.606,0,0,1,4.617,4.617A4.606,4.606,0,0,0,21.4,13.731h3.078a4.606,4.606,0,0,1-4.617-4.617A4.606,4.606,0,0,0,15.249,4.5Z" transform="translate(-4.476 17.046)" fill="#f8f8f8"/><path d="M15.465,2.91a4.617,4.617,0,1,0,0,9.233h3.078a4.617,4.617,0,0,1,0-9.233Z" transform="translate(-10.848 9.401)" fill="#f8f8f8"/></g><path d="M15.826.794a9.249,9.249,0,0,0-1.539.138,9.229,9.229,0,0,1,7.694,9.095c0,4.567-5.071,10.811-7.694,13.739.913,1.019,1.539,1.65,1.539,1.65s9.233-9.233,9.233-15.389A9.233,9.233,0,0,0,15.826.794Z" transform="translate(66.263 1.274)" fill="#ecb200"/><path d="M20.178,4.93A3.078,3.078,0,1,1,17.1,1.852,3.078,3.078,0,0,1,20.178,4.93Z" transform="translate(64.989 6.371)" fill="#e4eff8"/><path d="M46.89,26.056c0,13.776-20.005,30.812-20.005,30.812S6.879,39.833,6.879,26.056a20.005,20.005,0,0,1,40.011,0Z" transform="translate(30.583 26.76)" fill="#ffca28"/><path d="M11.593,6.085c-.519,0-1.03.039-1.539.078A19.973,19.973,0,0,1,28.521,26.058c0,11.538-13.907,25.232-18.466,29.419.884.812,1.539,1.392,1.539,1.392S31.6,39.834,31.6,26.058A19.989,19.989,0,0,0,11.593,6.085Z" transform="translate(45.875 26.76)" fill="#ecb200"/><path d="M26.884,6.085c.519,0,1.03.039,1.539.078A19.973,19.973,0,0,0,9.957,26.058c0,11.538,13.907,25.232,18.466,29.419-.884.812-1.539,1.392-1.539,1.392S6.879,39.834,6.879,26.058A19.989,19.989,0,0,1,26.884,6.085Z" transform="translate(30.583 26.76)" fill="#f8f8f8"/><path d="M35.637,20.994a13.85,13.85,0,1,1-13.85-13.85A13.85,13.85,0,0,1,35.637,20.994Z" transform="translate(35.68 31.857)" fill="#e4eff8"/><path d="M21.787,7.144A13.84,13.84,0,0,0,13.672,32.2,13.832,13.832,0,0,1,32.983,12.866a13.85,13.85,0,0,0-11.2-5.723Z" transform="translate(35.68 31.857)" fill="#c4dcf0"/><path d="M28.248,8.057A14.585,14.585,0,0,1,8.859,27.515,13.837,13.837,0,0,0,28.248,8.057Z" transform="translate(40.118 36.255)" fill="#f8f8f8"/><path d="M3.969,9a4.617,4.617,0,0,1,0,9.233H7.046A4.617,4.617,0,0,0,7.046,9Z" transform="translate(16.566 40.777)" fill="#94ac04"/><path d="M40.8,20.765C40.8,34.541,20.8,51.576,20.8,51.576S.794,34.541.794,20.765a20.005,20.005,0,0,1,40.011,0Z" transform="translate(1.275 1.274)" fill="#ffca28"/><path d="M5.508.794c-.519,0-1.03.039-1.539.078A19.973,19.973,0,0,1,22.435,20.766C22.435,32.3,8.528,46,3.969,50.185c.884.812,1.539,1.392,1.539,1.392s20.005-17.034,20.005-30.81A19.989,19.989,0,0,0,5.508.794Z" transform="translate(16.566 1.274)" fill="#ecb200"/><path d="M20.8.794c.519,0,1.03.039,1.539.078A19.973,19.973,0,0,0,3.871,20.766C3.871,32.3,17.779,46,22.338,50.185,21.454,51,20.8,51.576,20.8,51.576S.794,34.542.794,20.766A19.989,19.989,0,0,1,20.8.794Z" transform="translate(1.275 1.274)" fill="#f8f8f8"/><path d="M14.163,10.583H11.085A4.606,4.606,0,0,0,6.469,15.2a4.606,4.606,0,0,1-4.617,4.617H4.93A4.607,4.607,0,0,0,9.546,15.2,4.606,4.606,0,0,1,14.163,10.583Z" transform="translate(6.372 48.423)" fill="#94ac04"/><path d="M29.552,15.7A13.85,13.85,0,1,1,15.7,1.852,13.85,13.85,0,0,1,29.552,15.7Z" transform="translate(6.372 6.371)" fill="#e4eff8"/><path d="M15.7,1.852A13.84,13.84,0,0,0,7.587,26.91,13.832,13.832,0,0,1,26.895,7.572,13.85,13.85,0,0,0,15.7,1.852Z" transform="translate(6.372 6.371)" fill="#c4dcf0"/><path d="M22.163,2.765A14.585,14.585,0,0,1,2.773,22.223,13.837,13.837,0,0,0,22.163,2.765Z" transform="translate(10.809 10.769)" fill="#f8f8f8"/><path d="M3.526,3.7,4.564,9.86H10.72L12.259,3.7H3.526Z" transform="translate(14.432 15.291)" fill="#b4d305"/><path d="M5.772,3.7,4.233,9.86H7.311L8.85,3.7Z" transform="translate(17.84 15.291)" fill="#94ac04"/><path d="M3.525,3.7,4.565,9.86H6.624L5.584,3.7Z" transform="translate(14.431 15.291)" fill="#f8f8f8"/><path d="M11.976,11.377A3.071,3.071,0,0,0,8.9,14.455a3.071,3.071,0,0,1-3.078,3.078H8.9a3.071,3.071,0,0,0,3.078-3.078,3.071,3.071,0,0,1,3.078-3.078Z" transform="translate(25.486 52.246)" fill="#f8f8f8"/><path d="M10.918,12.435H7.84a3.078,3.078,0,0,0,0,6.155H9.379a3.078,3.078,0,1,1,0,6.155h3.078a3.078,3.078,0,1,0,0-6.155H10.918a3.078,3.078,0,0,1,0-6.155Z" transform="translate(20.389 57.343)" fill="#f8f8f8"/><path d="M22.067.529A21.541,21.541,0,0,0,.529,22.034a23.139,23.139,0,0,0,2.489,9.723A46.182,46.182,0,1,0,90.685,32.8v0a1.538,1.538,0,0,0-.228-.754,46.431,46.431,0,0,0-3.727-8.292c2.978-3.585,6.191-8.406,6.131-12.449A10.771,10.771,0,0,0,71.834,8.007,45.975,45.975,0,0,0,31.965,2.955a21.433,21.433,0,0,0-9.9-2.426Zm0,3.081A18.425,18.425,0,0,1,40.54,22.034c0,6.143-4.737,13.715-9.645,19.585a76.406,76.406,0,0,1-8.815,9.041,76.012,76.012,0,0,1-8.827-9.041C8.344,35.749,3.61,28.177,3.61,22.034A18.412,18.412,0,0,1,22.067,3.61Zm24.628,0a43.049,43.049,0,0,1,24.622,7.757,9.6,9.6,0,0,0,.132,1.476H65.167a6.151,6.151,0,1,0,0,12.3h3.066a3.04,3.04,0,0,1,3.078,3.081,6.179,6.179,0,0,0,6.158,6.155H87.953A42.805,42.805,0,0,1,86.946,62.09h-10.2a22.742,22.742,0,0,0,2.272-9.272,21.544,21.544,0,0,0-43.088,0A22.742,22.742,0,0,0,38.2,62.09h-.739A4.63,4.63,0,0,0,32.848,66.7,1.5,1.5,0,0,1,31.3,68.233H28.226a4.618,4.618,0,0,0,0,9.236H29.77a1.539,1.539,0,0,1,0,3.078H20.041a43.244,43.244,0,0,1-9.729-10.769c4.937.351,7.155-3.338,7.144-6.155a3.04,3.04,0,0,1,3.078-3.081h3.078A6.137,6.137,0,0,0,27.6,49.725c1.7-1.7,3.634-3.716,5.654-6.131,5.095-6.092,10.36-13.926,10.36-21.559a21.444,21.444,0,0,0-8.265-16.9A43.105,43.105,0,0,1,46.695,3.61Zm35.4,0A7.663,7.663,0,0,1,89.783,11.3c0,2.308-2.07,6.1-4.3,9.077a35.316,35.316,0,0,1-3.387,3.952,35.37,35.37,0,0,1-3.384-3.952c-2.234-2.979-4.316-6.769-4.316-9.077a7.671,7.671,0,0,1,7.7-7.688ZM22.067,6.688a15.386,15.386,0,1,0,15.392,15.38A15.4,15.4,0,0,0,22.067,6.688Zm60.025,0A4.618,4.618,0,1,0,86.705,11.3,4.64,4.64,0,0,0,82.092,6.688ZM22.067,9.765a12.308,12.308,0,1,1-12.3,12.3A12.283,12.283,0,0,1,22.067,9.765Zm60.025,0a1.539,1.539,0,0,1,0,3.078,1.539,1.539,0,1,1,0-3.078ZM15.924,14.376a1.548,1.548,0,1,0,.225,3.081l1.328,7.95A1.539,1.539,0,0,0,19,26.693h6.143a1.539,1.539,0,0,0,1.5-1.172l1.536-6.155a1.539,1.539,0,0,0-1.488-1.909H19.272l-.295-1.794a1.539,1.539,0,0,0-1.521-1.286Zm49.244,1.548H72.39c1.362,3.4,5.306,8.452,8.611,11.857a1.539,1.539,0,0,0,2.17,0s.594-.6,1.431-1.527A43.437,43.437,0,0,1,86.913,31.3H77.469a3.038,3.038,0,0,1-3.078-3.078,6.181,6.181,0,0,0-6.158-6.158H65.167a3.072,3.072,0,1,1,0-6.143ZM19.786,20.534h4.929l-.76,3.078H20.3ZM19,28.229a1.539,1.539,0,1,0,1.539,1.539A1.551,1.551,0,0,0,19,28.229Zm6.155,0a1.539,1.539,0,1,0,1.539,1.539A1.551,1.551,0,0,0,25.151,28.229Zm32.313,6.152A18.435,18.435,0,0,1,75.936,52.818c0,6.143-4.737,13.715-9.645,19.585a75.61,75.61,0,0,1-8.827,9.032A75.972,75.972,0,0,1,48.649,72.4c-4.908-5.869-9.642-13.441-9.642-19.585A18.422,18.422,0,0,1,57.464,34.381Zm-52.4,1.2a75.313,75.313,0,0,0,10,12.651H3.658A42.242,42.242,0,0,1,5.065,35.578Zm52.4,1.882A15.387,15.387,0,1,0,72.859,52.854,15.409,15.409,0,0,0,57.464,37.459Zm0,3.081A12.314,12.314,0,1,1,45.15,52.854,12.293,12.293,0,0,1,57.464,40.54Zm-.021,3.078a1.539,1.539,0,0,0-1.512,1.557,4.606,4.606,0,1,0,0,9.212v3.066H52.854a1.54,1.54,0,0,0,0,3.081h3.078a1.539,1.539,0,0,0,3.078,0,4.612,4.612,0,1,0,0-9.224V48.252H62.09a1.539,1.539,0,1,0,0-3.078H59.009a1.539,1.539,0,0,0-1.566-1.557Zm-3.057,6.167a1.506,1.506,0,0,1,1.545-1.533l0,3.057A1.5,1.5,0,0,1,54.386,49.785ZM3.871,51.309H18.127c1.752,1.68,2.951,2.714,2.951,2.714a1.539,1.539,0,0,0,1.99,0s.984-.868,2.335-2.137a3.075,3.075,0,0,1-1.791,5.578H20.534a6.181,6.181,0,0,0-6.158,6.158A3.038,3.038,0,0,1,11.3,66.7H8.53A43.371,43.371,0,0,1,3.871,51.309ZM59.009,54.39a1.531,1.531,0,1,1,0,3.063ZM39.77,65.168a63.557,63.557,0,0,0,6.516,9.212A96.135,96.135,0,0,0,56.466,84.8a1.539,1.539,0,0,0,2,0A95.693,95.693,0,0,0,68.654,74.38a63.565,63.565,0,0,0,6.516-9.212H85.636A43.126,43.126,0,0,1,24.475,83.625h5.3a4.617,4.617,0,0,0,0-9.233H28.226a1.54,1.54,0,0,1,0-3.081H31.3A4.641,4.641,0,0,0,35.926,66.7a1.493,1.493,0,0,1,1.533-1.533Z" transform="translate(0 0)" fill="#333"/></g></g></svg>