<svg xmlns="http://www.w3.org/2000/svg" width="130" height="130" viewBox="0 0 130 130"><g transform="translate(-407 -3431)"><circle cx="65" cy="65" r="65" transform="translate(407 3431)" fill="#efefef"/><g transform="translate(423.887 3442.222)"><rect width="69.704" height="9.903" transform="translate(2.524 11.427)" fill="#fde21b"/><rect width="26.663" height="9.903" transform="translate(20.807 28.187)" fill="#ff6969"/><rect width="24.758" height="9.903" transform="translate(64.229 62.086)" fill="#fde21b"/><g transform="translate(30.71 45.326)"><rect width="31.614" height="9.903" transform="translate(15.236 33.519)" fill="#78b62e"/><rect width="71.989" height="9.903" fill="#78b62e"/></g><rect width="36.566" height="24.378" transform="translate(2.524 77.704)" fill="#fff"/><rect width="19.807" height="24.378" transform="translate(2.524 77.704)" fill="#b9ecff"/><rect width="93.19" height="3.047" transform="translate(55.85 99.238) rotate(-90.006)" fill="#fe3934"/><rect width="3" height="3" transform="translate(55.802 101.006)"/><path d="M312.808,64.689H301V61.642h8.761V55.547H301V52.5h11.808Z" transform="translate(-239.056 -41.835)"/><path d="M52.8,64.689H1V52.5H52.8v3.047H4.047v6.094H52.8Z" transform="translate(0 -41.835)"/><path d="M121.091,147.189H91V135h30.091Zm-27.044-3.047h24v-6.094h-24Z" transform="translate(-71.717 -107.575)"/><path d="M343.661,229.689H301v-3.047h39.614v-6.094H301V217.5h42.661Z" transform="translate(-239.056 -173.316)"/><path d="M163.366,229.689H139.75V217.5h23.616v3.047H142.8v6.094h20.569Z" transform="translate(-110.563 -173.316)"/><path d="M334.05,312.189H306.625V300H334.05Zm-24.378-3.047H331v-6.094h-21.33Z" transform="translate(-243.538 -239.056)"/><path d="M317.76,394.689H301v-3.047h13.712v-6.094H301V382.5h16.76Z" transform="translate(-239.056 -304.796)"/><path d="M224.624,394.689h-8V382.5h8v3.047h-4.952v6.094h4.952Z" transform="translate(-171.821 -304.796)"/><rect width="3.047" height="3.047" transform="translate(55.811)"/><path d="M40.614,402.425H1V375H40.614ZM4.047,399.378H37.566v-21.33H4.047Z" transform="translate(0 -298.82)"/><rect width="3" height="3" transform="translate(6.802 82.006)" fill="#ff6969"/><rect width="3" height="3" transform="translate(6.802 88.006)" fill="#fde21b"/><rect width="3" height="4" transform="translate(6.802 94.006)" fill="#1fb5f3"/><rect width="22" height="3" transform="translate(12.802 82.006)"/><rect width="16" height="3" transform="translate(12.802 88.006)"/><rect width="3" height="4" transform="translate(12.802 94.006)" fill="#fff"/><rect width="4.571" height="3.047" transform="translate(19.283 94.463)"/><rect width="7.618" height="3.047" transform="translate(26.901 94.463)"/><rect width="3" height="3" transform="translate(31.802 88.006)"/></g></g></svg>