<svg xmlns="http://www.w3.org/2000/svg" width="330" height="237" viewBox="0 0 330 237"><g transform="translate(-635 -2642)"><rect width="330" height="237" transform="translate(635 2642)" fill="#bada95"/><path d="M5.1,6.781,8.75,17.094,12.383,6.781H16.23V21H13.291V17.113l.293-6.709L9.746,21H7.734L3.906,10.414l.293,6.7V21H1.27V6.781ZM23.467,21.2a5.187,5.187,0,0,1-3.784-1.426,5.068,5.068,0,0,1-1.46-3.8V15.7a6.383,6.383,0,0,1,.615-2.847,4.515,4.515,0,0,1,1.743-1.934,4.893,4.893,0,0,1,2.573-.679,4.385,4.385,0,0,1,3.413,1.367,5.555,5.555,0,0,1,1.245,3.877v1.152H21.084a2.622,2.622,0,0,0,.825,1.66,2.5,2.5,0,0,0,1.743.625A3.046,3.046,0,0,0,26.2,17.738l1.387,1.553a4.237,4.237,0,0,1-1.719,1.4A5.639,5.639,0,0,1,23.467,21.2Zm-.322-8.672a1.767,1.767,0,0,0-1.362.566,2.926,2.926,0,0,0-.669,1.621h3.926v-.225a2.086,2.086,0,0,0-.508-1.45A1.824,1.824,0,0,0,23.145,12.523Zm9.258-2.09V21.576a3.78,3.78,0,0,1-.928,2.72,3.526,3.526,0,0,1-2.676.972,5.738,5.738,0,0,1-1.4-.166V22.865a5.3,5.3,0,0,0,.889.088q1.279,0,1.279-1.357V10.434ZM29.346,7.7a1.39,1.39,0,0,1,.425-1.045,1.838,1.838,0,0,1,2.314,0A1.39,1.39,0,0,1,32.51,7.7a1.386,1.386,0,0,1-.435,1.055,1.81,1.81,0,0,1-2.295,0A1.386,1.386,0,0,1,29.346,7.7Zm4.824,7.92a6.267,6.267,0,0,1,.605-2.8,4.432,4.432,0,0,1,1.743-1.9,5.086,5.086,0,0,1,2.642-.674,4.812,4.812,0,0,1,3.491,1.309A5.252,5.252,0,0,1,44.16,15.1l.02.723a5.523,5.523,0,0,1-1.357,3.9A4.718,4.718,0,0,1,39.18,21.2a4.742,4.742,0,0,1-3.647-1.465,5.62,5.62,0,0,1-1.362-3.984Zm2.822.205a3.939,3.939,0,0,0,.566,2.3,2.037,2.037,0,0,0,3.223.01,4.31,4.31,0,0,0,.576-2.515,3.9,3.9,0,0,0-.576-2.285,1.874,1.874,0,0,0-1.621-.811,1.843,1.843,0,0,0-1.6.806A4.383,4.383,0,0,0,36.992,15.824ZM51.855,13.08A7.667,7.667,0,0,0,50.84,13a2.067,2.067,0,0,0-2.1,1.084V21H45.918V10.434h2.666l.078,1.26a2.615,2.615,0,0,1,2.354-1.455,2.957,2.957,0,0,1,.879.127ZM59.043,21a3.134,3.134,0,0,1-.283-.947A3.415,3.415,0,0,1,56.094,21.2a3.752,3.752,0,0,1-2.573-.9A2.89,2.89,0,0,1,52.5,18.031a2.986,2.986,0,0,1,1.245-2.578,6.144,6.144,0,0,1,3.6-.908h1.3v-.605a1.741,1.741,0,0,0-.376-1.172,1.479,1.479,0,0,0-1.187-.439,1.682,1.682,0,0,0-1.118.342,1.161,1.161,0,0,0-.405.938H52.734a2.835,2.835,0,0,1,.566-1.7,3.744,3.744,0,0,1,1.6-1.226,5.837,5.837,0,0,1,2.324-.444,4.611,4.611,0,0,1,3.1.981,3.433,3.433,0,0,1,1.147,2.759v4.58a5.052,5.052,0,0,0,.42,2.275V21Zm-2.334-1.963a2.431,2.431,0,0,0,1.152-.278,1.828,1.828,0,0,0,.781-.747V16.2H57.588q-2.119,0-2.256,1.465l-.01.166a1.13,1.13,0,0,0,.371.869A1.441,1.441,0,0,0,56.709,19.037Zm16.309-.117a1.851,1.851,0,0,0,1.27-.43,1.506,1.506,0,0,0,.508-1.143h2.646a3.62,3.62,0,0,1-.586,1.968A3.866,3.866,0,0,1,75.278,20.7a4.936,4.936,0,0,1-2.212.493,4.587,4.587,0,0,1-3.574-1.44,5.7,5.7,0,0,1-1.309-3.979V15.59a5.635,5.635,0,0,1,1.3-3.9,4.534,4.534,0,0,1,3.564-1.455,4.444,4.444,0,0,1,3.179,1.128,3.994,3.994,0,0,1,1.216,3H74.795a1.923,1.923,0,0,0-.508-1.333,1.892,1.892,0,0,0-2.778.205,4.155,4.155,0,0,0-.5,2.329v.293a4.207,4.207,0,0,0,.5,2.344A1.722,1.722,0,0,0,73.018,18.92Zm5.6-3.3a6.266,6.266,0,0,1,.605-2.8,4.432,4.432,0,0,1,1.743-1.9,5.086,5.086,0,0,1,2.642-.674,4.812,4.812,0,0,1,3.491,1.309A5.252,5.252,0,0,1,88.6,15.1l.02.723a5.523,5.523,0,0,1-1.357,3.9,5.261,5.261,0,0,1-7.29,0,5.62,5.62,0,0,1-1.362-3.984Zm2.822.205a3.939,3.939,0,0,0,.566,2.3,2.037,2.037,0,0,0,3.223.01,4.31,4.31,0,0,0,.576-2.515,3.9,3.9,0,0,0-.576-2.285,1.874,1.874,0,0,0-1.621-.811,1.843,1.843,0,0,0-1.6.806A4.383,4.383,0,0,0,81.436,15.824Zm11.523-5.391.088,1.221a3.689,3.689,0,0,1,3.037-1.416,3.066,3.066,0,0,1,2.5.986,4.6,4.6,0,0,1,.84,2.949V21H96.6V14.242a1.831,1.831,0,0,0-.391-1.3,1.749,1.749,0,0,0-1.3-.405,1.942,1.942,0,0,0-1.787,1.016V21H90.3V10.434Zm14.326,7.646a.909.909,0,0,0-.513-.815,5.824,5.824,0,0,0-1.646-.532q-3.77-.791-3.77-3.2a2.9,2.9,0,0,1,1.167-2.349,4.707,4.707,0,0,1,3.052-.942,5.067,5.067,0,0,1,3.218.947A2.985,2.985,0,0,1,110,13.646h-2.822a1.366,1.366,0,0,0-.391-1,1.653,1.653,0,0,0-1.221-.4,1.689,1.689,0,0,0-1.1.322,1.017,1.017,0,0,0-.391.82.87.87,0,0,0,.444.757,4.571,4.571,0,0,0,1.5.5,12.244,12.244,0,0,1,1.777.474,2.92,2.92,0,0,1,2.236,2.842,2.756,2.756,0,0,1-1.24,2.339,5.35,5.35,0,0,1-3.2.894,5.588,5.588,0,0,1-2.358-.474,3.957,3.957,0,0,1-1.616-1.3,3.018,3.018,0,0,1-.586-1.782H103.7a1.473,1.473,0,0,0,.557,1.152,2.208,2.208,0,0,0,1.387.4,2.044,2.044,0,0,0,1.226-.308A.957.957,0,0,0,107.285,18.08Zm7.939-10.244v2.6h1.807V12.5h-1.807v5.273a1.259,1.259,0,0,0,.225.84,1.128,1.128,0,0,0,.859.254,4.5,4.5,0,0,0,.83-.068v2.139a5.81,5.81,0,0,1-1.709.254q-2.969,0-3.027-3V12.5h-1.543v-2.07H112.4v-2.6ZM124.727,21a3.134,3.134,0,0,1-.283-.947,3.415,3.415,0,0,1-2.666,1.143,3.752,3.752,0,0,1-2.573-.9,2.89,2.89,0,0,1-1.021-2.266,2.986,2.986,0,0,1,1.245-2.578,6.144,6.144,0,0,1,3.6-.908h1.3v-.605a1.741,1.741,0,0,0-.376-1.172,1.479,1.479,0,0,0-1.187-.439,1.682,1.682,0,0,0-1.118.342,1.161,1.161,0,0,0-.405.938h-2.822a2.835,2.835,0,0,1,.566-1.7,3.744,3.744,0,0,1,1.6-1.226,5.837,5.837,0,0,1,2.324-.444,4.611,4.611,0,0,1,3.1.981,3.433,3.433,0,0,1,1.147,2.759v4.58a5.052,5.052,0,0,0,.42,2.275V21Zm-2.334-1.963a2.431,2.431,0,0,0,1.152-.278,1.828,1.828,0,0,0,.781-.747V16.2h-1.055q-2.119,0-2.256,1.465l-.01.166a1.13,1.13,0,0,0,.371.869A1.441,1.441,0,0,0,122.393,19.037Zm9.531-8.6.088,1.221a3.689,3.689,0,0,1,3.037-1.416,3.066,3.066,0,0,1,2.5.986,4.6,4.6,0,0,1,.84,2.949V21h-2.822V14.242a1.831,1.831,0,0,0-.391-1.3,1.749,1.749,0,0,0-1.3-.405,1.942,1.942,0,0,0-1.787,1.016V21h-2.822V10.434Zm11.982-2.6v2.6h1.807V12.5h-1.807v5.273a1.259,1.259,0,0,0,.225.84,1.128,1.128,0,0,0,.859.254,4.5,4.5,0,0,0,.83-.068v2.139a5.81,5.81,0,0,1-1.709.254q-2.969,0-3.027-3V12.5h-1.543v-2.07h1.543v-2.6ZM152.148,21.2a5.187,5.187,0,0,1-3.784-1.426,5.068,5.068,0,0,1-1.46-3.8V15.7a6.383,6.383,0,0,1,.615-2.847,4.515,4.515,0,0,1,1.743-1.934,4.893,4.893,0,0,1,2.573-.679,4.385,4.385,0,0,1,3.413,1.367,5.555,5.555,0,0,1,1.245,3.877v1.152h-6.729a2.622,2.622,0,0,0,.825,1.66,2.5,2.5,0,0,0,1.743.625,3.046,3.046,0,0,0,2.549-1.182l1.387,1.553a4.237,4.237,0,0,1-1.719,1.4A5.639,5.639,0,0,1,152.148,21.2Zm-.322-8.672a1.767,1.767,0,0,0-1.362.566,2.926,2.926,0,0,0-.669,1.621h3.926v-.225a2.086,2.086,0,0,0-.508-1.45A1.824,1.824,0,0,0,151.826,12.523Z" transform="translate(693 2791)" fill="#12263f"/><g transform="translate(683.501 2672.948)"><path d="M245.691,183.058H233.5V140.486a4.865,4.865,0,0,1,4.865-4.865h2.466a4.864,4.864,0,0,1,4.865,4.865Zm0,0" transform="translate(-190.029 -110.61)" fill="#abebf4"/><path d="M245.691,280.238a66.27,66.27,0,0,1-12.2,4.345v16.422h12.2Zm0,0" transform="translate(-190.029 -228.558)" fill="#8ed7e8"/><path d="M150.836,233.337h-12.2V201.512a4.242,4.242,0,0,1,4.242-4.242h3.711a4.243,4.243,0,0,1,4.242,4.242Zm0,0" transform="translate(-112.666 -160.89)" fill="#b2e59c"/><path d="M340.551,117.351h-12.2V68.228a4.834,4.834,0,0,1,4.834-4.834h2.527a4.834,4.834,0,0,1,4.834,4.834Zm0,0" transform="translate(-267.394 -51.704)" fill="#ffde55"/><path d="M340.548,218.594a79.573,79.573,0,0,1-12.2,8.616v16.719h12.2Zm0,0" transform="translate(-267.391 -178.281)" fill="#ffcd00"/><path d="M109.477,249.034,134,236.018a4.1,4.1,0,0,1,5.942,4.44,11.88,11.88,0,0,1-4.067,7.052l-2.513,2.036a1.7,1.7,0,0,0,1.073,3.03l10.077,0a15.949,15.949,0,0,0,9.181-2.9l11.262-7.92a5.294,5.294,0,0,1,6.406,8.421L156.607,262.3a15.945,15.945,0,0,1-6.332,3.168l-32.334,7.917Zm0,0" transform="translate(-88.88 -192.094)" fill="#ffe2d9"/><path d="M123.061,309.826c-9.286-2.725-8.595-15.431-8.595-15.431l-4.99,2.649,8.464,24.352,24.646-6.035C137.395,313.918,129.041,311.58,123.061,309.826Zm0,0" transform="translate(-88.88 -240.103)" fill="#ffcfc2"/><path d="M29.165,308.758l9.162,24.453a7.143,7.143,0,0,1-5.107,9.472l-8.763,1.99a7.144,7.144,0,0,1-8.5-5.169l-4.719-18.157a7.357,7.357,0,0,1,5.1-8.926Zm0,0" transform="translate(-8.568 -251.818)" fill="#78b62e"/><path d="M38.327,345.19,36.9,341.377a23.631,23.631,0,0,0-10.837-1.919,7.166,7.166,0,0,1-7.481-7.381,49.454,49.454,0,0,1,1.106-8.632l-3.344.955a7.358,7.358,0,0,0-5.1,8.926l4.719,18.156a7.144,7.144,0,0,0,8.5,5.169l8.763-1.99A7.143,7.143,0,0,0,38.327,345.19Zm0,0" transform="translate(-8.568 -263.797)" fill="#bada95"/><path d="M79.952,430.8a4.066,4.066,0,1,1-4.066-4.066A4.066,4.066,0,0,1,79.952,430.8Zm0,0" transform="translate(-58.169 -348.041)" fill="#ffeb99"/><path d="M58.612,7.5H47.552a2.871,2.871,0,1,0,0,5.743h3.936l-11.535,11.1-5.469-2.829a2.872,2.872,0,0,0-3.358.528L8.821,44.523A2.872,2.872,0,0,0,12.9,48.569L33.719,27.588l5.424,2.806a2.873,2.873,0,0,0,3.311-.482L55.74,17.122v4.407a2.871,2.871,0,1,0,5.743,0V10.371s0-.006,0-.009A2.66,2.66,0,0,0,58.612,7.5Zm0,0" transform="translate(-6.107 -6.117)" fill="#bada95"/><path d="M86.34,94.914c-4.339-4.319-9.354-.277-9.354-.277V71.9a1.383,1.383,0,1,0-2.766,0V96.584s-6.6,5.2-9.43,6.47V62.111a3.455,3.455,0,0,1,3.451-3.451h2.527a3.455,3.455,0,0,1,3.451,3.451v4.126a1.383,1.383,0,0,0,2.766,0V62.111a6.224,6.224,0,0,0-6.218-6.217H68.241a6.224,6.224,0,0,0-6.218,6.217V104.15a14.521,14.521,0,0,1-2.531.471V75.462a6.255,6.255,0,0,0-6.248-6.249H50.778a6.255,6.255,0,0,0-6.248,6.249V89.554L42,90.9v-4.69a5.632,5.632,0,0,0-5.625-5.625H32.662a5.631,5.631,0,0,0-5.625,5.625V98.84l-4.516,2.4L9.84,104.861a8.741,8.741,0,0,0-6.058,10.6L5.2,120.921a1.383,1.383,0,1,0,2.677-.7l-1.418-5.458A5.94,5.94,0,0,1,10.6,107.52L22.2,104.207l8.714,23.258a6.2,6.2,0,0,1-4.118,7.638l-8.763,1.99a5.735,5.735,0,0,1-6.851-4.168L9.4,126.08a1.383,1.383,0,0,0-2.678.7L8.5,133.621a8.482,8.482,0,0,0,8.218,6.386c2.794,0,10.685-2.207,10.685-2.207a8.524,8.524,0,0,0,6.452-10.074l30.313-7.421a17.443,17.443,0,0,0,6.881-3.444L85.8,104.74A6.56,6.56,0,0,0,86.34,94.914ZM50.778,71.98h2.466a3.486,3.486,0,0,1,3.482,3.482V104.69l-8.727,0c-.8-.007-.246-.537-.2-.573l2.513-2.036a13.143,13.143,0,0,0,4.551-7.851A5.484,5.484,0,0,0,47.3,88.1V75.462A3.486,3.486,0,0,1,50.778,71.98ZM29.8,86.209a2.862,2.862,0,0,1,2.858-2.859h3.711a2.862,2.862,0,0,1,2.859,2.859v6.158L29.8,97.372Zm54.244,16.4L69.3,114.725a14.652,14.652,0,0,1-5.783,2.894L32.976,125.1l-8.212-21.916L48.212,90.733a2.718,2.718,0,0,1,3.938,2.942,10.453,10.453,0,0,1-3.582,6.254l-2.513,2.037A3.088,3.088,0,0,0,48,107.453l10.078,0h.006a17.246,17.246,0,0,0,9.971-3.155l11.262-7.92a3.9,3.9,0,0,1,5.048.465C85.137,97.64,86.655,100,84.048,102.6Zm0,0" transform="translate(-2.446 -45.587)"/><path d="M75.218,424.688a5.449,5.449,0,1,0-5.449,5.449A5.456,5.456,0,0,0,75.218,424.688Zm-8.132,0a2.683,2.683,0,1,1,2.683,2.683A2.686,2.686,0,0,1,67.087,424.688Zm0,0" transform="translate(-52.052 -341.924)"/><path d="M7.772,43.426,27.878,23.166,32.4,25.5a4.254,4.254,0,0,0,4.906-.714L48.249,14.256s-.3,5.411,4.255,5.411a4.26,4.26,0,0,0,4.255-4.255V4.255c0-.013,0-.027,0-.04A4.027,4.027,0,0,0,52.5,0H41.445A4.259,4.259,0,0,0,37.19,4.255c0,4.677,4.76,4.255,4.76,4.255L33.6,16.546l-4.588-2.373a4.238,4.238,0,0,0-4.975.782L1.732,37.432a4.26,4.26,0,0,0,.023,6.017A4.2,4.2,0,0,0,7.772,43.426ZM3.695,39.381,26,16.9a1.257,1.257,0,0,1,1.74-.273l5.468,2.828a1.383,1.383,0,0,0,1.595-.232L46.34,8.123a1.383,1.383,0,0,0-.959-2.379H41.445a1.489,1.489,0,0,1,0-2.977H52.5a1.3,1.3,0,0,1,1.488,1.48c0,.012,0,.024,0,.037V15.412a1.488,1.488,0,1,1-2.977,0V11.005a1.383,1.383,0,0,0-2.343-1L35.387,22.8a1.488,1.488,0,0,1-1.716.25l-5.424-2.806a1.384,1.384,0,0,0-1.617.254L5.808,41.478a1.426,1.426,0,0,1-2.1.008A1.49,1.49,0,0,1,3.695,39.381Zm0,0" transform="translate(0)"/></g></g></svg>