<svg xmlns="http://www.w3.org/2000/svg" width="1002" height="310.357" viewBox="0 0 1002 310.357"><g transform="translate(-299 -4528.643)"><rect width="330" height="310" transform="translate(299 4528.643)" fill="#bada95"/><rect width="330" height="310" transform="translate(635 4529)" fill="#f5db9a"/><rect width="330" height="310" transform="translate(971 4529)" fill="#bada95"/><path d="M1667,11721H1148v12l-29-16.5,29-16.5v11h519v-11l29,16.5-29,16.5Z" transform="translate(-614 -6931.357)" fill="#fff"/><path d="M7.822,0H5V-10.879L1.631-9.834v-2.295L7.52-14.238h.3Zm4.883-1.387a1.421,1.421,0,0,1,.454-1.094A1.611,1.611,0,0,1,14.3-2.9a1.624,1.624,0,0,1,1.147.42A1.421,1.421,0,0,1,15.9-1.387a1.4,1.4,0,0,1-.449,1.079A1.631,1.631,0,0,1,14.3.107a1.618,1.618,0,0,1-1.143-.415A1.4,1.4,0,0,1,12.705-1.387Zm22.51-5.4a8.583,8.583,0,0,1-.742,3.682A5.589,5.589,0,0,1,32.349-.664,5.875,5.875,0,0,1,29.18.2a5.915,5.915,0,0,1-3.154-.85,5.644,5.644,0,0,1-2.148-2.427,8.338,8.338,0,0,1-.771-3.628v-.7a8.538,8.538,0,0,1,.757-3.7A5.635,5.635,0,0,1,26-13.56a5.883,5.883,0,0,1,3.159-.854,5.883,5.883,0,0,1,3.159.854,5.635,5.635,0,0,1,2.139,2.451,8.514,8.514,0,0,1,.757,3.687Zm-2.969-.645a5.984,5.984,0,0,0-.8-3.4,2.61,2.61,0,0,0-2.285-1.162,2.611,2.611,0,0,0-2.275,1.147,5.915,5.915,0,0,0-.811,3.364v.693a6.058,6.058,0,0,0,.8,3.379,2.6,2.6,0,0,0,2.3,1.2,2.579,2.579,0,0,0,2.266-1.157,6.023,6.023,0,0,0,.8-3.374ZM46.68-5.186A6.4,6.4,0,0,1,45.6-1.226,3.591,3.591,0,0,1,42.568.2a3.3,3.3,0,0,1-2.744-1.318L39.7,0H37.158V-15H39.98v5.381a3.214,3.214,0,0,1,2.568-1.143,3.62,3.62,0,0,1,3.032,1.421,6.408,6.408,0,0,1,1.1,4Zm-2.822-.205a4.2,4.2,0,0,0-.508-2.339,1.717,1.717,0,0,0-1.514-.737,1.862,1.862,0,0,0-1.855,1.1v4.17A1.887,1.887,0,0,0,41.855-2.08a1.742,1.742,0,0,0,1.8-1.348A6.952,6.952,0,0,0,43.857-5.391Zm7.549-5.176V.576a3.78,3.78,0,0,1-.928,2.72,3.526,3.526,0,0,1-2.676.972,5.738,5.738,0,0,1-1.4-.166V1.865a5.3,5.3,0,0,0,.889.088q1.279,0,1.279-1.357V-10.566ZM48.35-13.3a1.39,1.39,0,0,1,.425-1.045,1.6,1.6,0,0,1,1.157-.41,1.6,1.6,0,0,1,1.157.41,1.39,1.39,0,0,1,.425,1.045,1.386,1.386,0,0,1-.435,1.055,1.6,1.6,0,0,1-1.147.41,1.6,1.6,0,0,1-1.147-.41A1.386,1.386,0,0,1,48.35-13.3ZM58.477.2A5.187,5.187,0,0,1,54.692-1.23a5.068,5.068,0,0,1-1.46-3.8V-5.3a6.383,6.383,0,0,1,.615-2.847,4.515,4.515,0,0,1,1.743-1.934,4.893,4.893,0,0,1,2.573-.679,4.385,4.385,0,0,1,3.413,1.367,5.555,5.555,0,0,1,1.245,3.877v1.152H56.094a2.622,2.622,0,0,0,.825,1.66,2.5,2.5,0,0,0,1.743.625,3.046,3.046,0,0,0,2.549-1.182L62.6-1.709a4.237,4.237,0,0,1-1.719,1.4A5.639,5.639,0,0,1,58.477.2Zm-.322-8.672a1.767,1.767,0,0,0-1.362.566,2.926,2.926,0,0,0-.669,1.621h3.926v-.225a2.086,2.086,0,0,0-.508-1.45A1.824,1.824,0,0,0,58.154-8.477ZM67.8-13.164v2.6h1.807V-8.5H67.8v5.273a1.259,1.259,0,0,0,.225.84,1.128,1.128,0,0,0,.859.254,4.5,4.5,0,0,0,.83-.068V-.059A5.81,5.81,0,0,1,68.008.2q-2.969,0-3.027-3V-8.5H63.438v-2.07H64.98v-2.6ZM74.16,0H71.328V-10.566H74.16Zm-3-13.3a1.39,1.39,0,0,1,.425-1.045,1.6,1.6,0,0,1,1.157-.41,1.6,1.6,0,0,1,1.152.41,1.382,1.382,0,0,1,.43,1.045,1.386,1.386,0,0,1-.435,1.055,1.6,1.6,0,0,1-1.147.41,1.6,1.6,0,0,1-1.147-.41A1.386,1.386,0,0,1,71.162-13.3Zm9.277,9.854L82.4-10.566h2.949L81.787,0h-2.7L75.527-10.566h2.949Zm5.566-1.934a6.266,6.266,0,0,1,.605-2.8,4.432,4.432,0,0,1,1.743-1.9A5.086,5.086,0,0,1,91-10.762a4.812,4.812,0,0,1,3.491,1.309A5.252,5.252,0,0,1,96-5.9l.02.723a5.523,5.523,0,0,1-1.357,3.9A4.718,4.718,0,0,1,91.016.2,4.742,4.742,0,0,1,87.368-1.27a5.62,5.62,0,0,1-1.362-3.984Zm2.822.205a3.939,3.939,0,0,0,.566,2.3,1.869,1.869,0,0,0,1.621.8,1.874,1.874,0,0,0,1.6-.786,4.31,4.31,0,0,0,.576-2.515,3.9,3.9,0,0,0-.576-2.285A1.874,1.874,0,0,0,91-8.477a1.843,1.843,0,0,0-1.6.806A4.383,4.383,0,0,0,88.828-5.176Z" transform="translate(416 4734)" fill="#12263f"/><path d="M10.713,0H.967V-1.934l4.6-4.9a11.347,11.347,0,0,0,1.4-1.807,2.9,2.9,0,0,0,.454-1.465A2.172,2.172,0,0,0,6.943-11.6a1.727,1.727,0,0,0-1.367-.542,1.863,1.863,0,0,0-1.509.659,2.611,2.611,0,0,0-.552,1.733H.684a4.661,4.661,0,0,1,.62-2.373A4.371,4.371,0,0,1,3.057-13.8a5.328,5.328,0,0,1,2.568-.61,5.045,5.045,0,0,1,3.413,1.055,3.731,3.731,0,0,1,1.216,2.979,4.781,4.781,0,0,1-.547,2.148A11.939,11.939,0,0,1,7.832-5.684L4.6-2.275h6.113Zm1.992-1.387a1.421,1.421,0,0,1,.454-1.094A1.611,1.611,0,0,1,14.3-2.9a1.624,1.624,0,0,1,1.147.42A1.421,1.421,0,0,1,15.9-1.387a1.4,1.4,0,0,1-.449,1.079A1.631,1.631,0,0,1,14.3.107a1.618,1.618,0,0,1-1.143-.415A1.4,1.4,0,0,1,12.705-1.387ZM26.465-5.01V0h-2.93V-14.219h5.547a6.417,6.417,0,0,1,2.817.586,4.318,4.318,0,0,1,1.87,1.665,4.643,4.643,0,0,1,.654,2.456,4.083,4.083,0,0,1-1.431,3.3,5.959,5.959,0,0,1-3.96,1.206Zm0-2.373h2.617a2.573,2.573,0,0,0,1.772-.547,1.989,1.989,0,0,0,.61-1.562,2.345,2.345,0,0,0-.615-1.689,2.3,2.3,0,0,0-1.7-.664H26.465ZM39.229,0H36.4V-15h2.832Zm8.447,0a3.134,3.134,0,0,1-.283-.947A3.415,3.415,0,0,1,44.727.2a3.752,3.752,0,0,1-2.573-.9,2.89,2.89,0,0,1-1.021-2.266,2.986,2.986,0,0,1,1.245-2.578,6.144,6.144,0,0,1,3.6-.908h1.3v-.605A1.741,1.741,0,0,0,46.9-8.232a1.479,1.479,0,0,0-1.187-.439,1.682,1.682,0,0,0-1.118.342,1.161,1.161,0,0,0-.405.938H41.367a2.835,2.835,0,0,1,.566-1.7,3.744,3.744,0,0,1,1.6-1.226,5.837,5.837,0,0,1,2.324-.444,4.611,4.611,0,0,1,3.1.981,3.433,3.433,0,0,1,1.147,2.759v4.58a5.052,5.052,0,0,0,.42,2.275V0ZM45.342-1.963a2.431,2.431,0,0,0,1.152-.278,1.828,1.828,0,0,0,.781-.747V-4.8H46.221Q44.1-4.8,43.965-3.34l-.01.166a1.13,1.13,0,0,0,.371.869A1.441,1.441,0,0,0,45.342-1.963Zm9.531-8.6.088,1.221A3.689,3.689,0,0,1,58-10.762a3.066,3.066,0,0,1,2.5.986,4.6,4.6,0,0,1,.84,2.949V0H58.516V-6.758a1.831,1.831,0,0,0-.391-1.3,1.749,1.749,0,0,0-1.3-.405,1.942,1.942,0,0,0-1.787,1.016V0H52.217V-10.566ZM68.018-5.361A6.368,6.368,0,0,1,69.126-9.3a3.6,3.6,0,0,1,3.032-1.465,3.236,3.236,0,0,1,2.549,1.152V-15h2.832V0H74.99l-.137-1.123A3.321,3.321,0,0,1,72.139.2a3.587,3.587,0,0,1-2.993-1.47A6.573,6.573,0,0,1,68.018-5.361Zm2.822.205a4.16,4.16,0,0,0,.518,2.275,1.687,1.687,0,0,0,1.5.791,1.889,1.889,0,0,0,1.846-1.1v-4.17a1.862,1.862,0,0,0-1.826-1.1Q70.84-8.467,70.84-5.156ZM84.59.2A5.187,5.187,0,0,1,80.806-1.23a5.068,5.068,0,0,1-1.46-3.8V-5.3a6.383,6.383,0,0,1,.615-2.847A4.515,4.515,0,0,1,81.7-10.083a4.893,4.893,0,0,1,2.573-.679A4.385,4.385,0,0,1,87.69-9.395a5.555,5.555,0,0,1,1.245,3.877v1.152H82.207a2.622,2.622,0,0,0,.825,1.66,2.5,2.5,0,0,0,1.743.625,3.046,3.046,0,0,0,2.549-1.182l1.387,1.553a4.237,4.237,0,0,1-1.719,1.4A5.639,5.639,0,0,1,84.59.2Zm-.322-8.672a1.767,1.767,0,0,0-1.362.566,2.926,2.926,0,0,0-.669,1.621h3.926v-.225a2.086,2.086,0,0,0-.508-1.45A1.824,1.824,0,0,0,84.268-8.477ZM103.73-2.93H98.594L97.617,0H94.5l5.293-14.219h2.715L107.832,0h-3.115ZM99.385-5.3h3.555l-1.787-5.322ZM113.369-2.08a1.851,1.851,0,0,0,1.27-.43,1.506,1.506,0,0,0,.508-1.143h2.646a3.62,3.62,0,0,1-.586,1.968A3.866,3.866,0,0,1,115.63-.3,4.936,4.936,0,0,1,113.418.2a4.587,4.587,0,0,1-3.574-1.44,5.7,5.7,0,0,1-1.309-3.979V-5.41a5.635,5.635,0,0,1,1.3-3.9,4.534,4.534,0,0,1,3.564-1.455,4.444,4.444,0,0,1,3.179,1.128,3.994,3.994,0,0,1,1.216,3h-2.646a1.923,1.923,0,0,0-.508-1.333,1.7,1.7,0,0,0-1.289-.513,1.7,1.7,0,0,0-1.489.718,4.155,4.155,0,0,0-.5,2.329v.293a4.207,4.207,0,0,0,.5,2.344A1.722,1.722,0,0,0,113.369-2.08Zm10.43,0a1.851,1.851,0,0,0,1.27-.43,1.506,1.506,0,0,0,.508-1.143h2.646a3.62,3.62,0,0,1-.586,1.968A3.866,3.866,0,0,1,126.06-.3,4.936,4.936,0,0,1,123.848.2a4.587,4.587,0,0,1-3.574-1.44,5.7,5.7,0,0,1-1.309-3.979V-5.41a5.635,5.635,0,0,1,1.3-3.9,4.534,4.534,0,0,1,3.564-1.455,4.444,4.444,0,0,1,3.179,1.128,3.994,3.994,0,0,1,1.216,3h-2.646a1.923,1.923,0,0,0-.508-1.333,1.7,1.7,0,0,0-1.289-.513,1.7,1.7,0,0,0-1.489.718,4.155,4.155,0,0,0-.5,2.329v.293a4.207,4.207,0,0,0,.5,2.344A1.722,1.722,0,0,0,123.8-2.08ZM132.813,0H129.98V-10.566h2.832Zm-3-13.3a1.39,1.39,0,0,1,.425-1.045,1.6,1.6,0,0,1,1.157-.41,1.6,1.6,0,0,1,1.152.41,1.382,1.382,0,0,1,.43,1.045,1.386,1.386,0,0,1-.435,1.055,1.6,1.6,0,0,1-1.147.41,1.6,1.6,0,0,1-1.147-.41A1.386,1.386,0,0,1,129.814-13.3Zm4.883,7.92a6.267,6.267,0,0,1,.605-2.8,4.432,4.432,0,0,1,1.743-1.9,5.086,5.086,0,0,1,2.642-.674,4.812,4.812,0,0,1,3.491,1.309A5.252,5.252,0,0,1,144.688-5.9l.02.723a5.523,5.523,0,0,1-1.357,3.9A4.718,4.718,0,0,1,139.707.2,4.742,4.742,0,0,1,136.06-1.27,5.62,5.62,0,0,1,134.7-5.254Zm2.822.205a3.939,3.939,0,0,0,.566,2.3,1.869,1.869,0,0,0,1.621.8,1.874,1.874,0,0,0,1.6-.786,4.31,4.31,0,0,0,.576-2.515,3.9,3.9,0,0,0-.576-2.285,1.874,1.874,0,0,0-1.621-.811,1.843,1.843,0,0,0-1.6.806A4.383,4.383,0,0,0,137.52-5.176ZM140.244-15h3.076l-2.705,3.027H138.32Zm8.8,4.434.088,1.221a3.689,3.689,0,0,1,3.037-1.416,3.066,3.066,0,0,1,2.5.986,4.6,4.6,0,0,1,.84,2.949V0h-2.822V-6.758a1.831,1.831,0,0,0-.391-1.3,1.749,1.749,0,0,0-1.3-.405,1.942,1.942,0,0,0-1.787,1.016V0h-2.822V-10.566Z" transform="translate(722 4734)" fill="#12263f"/><path d="M3.838-8.359h1.5A2.119,2.119,0,0,0,6.934-8.9a1.968,1.968,0,0,0,.518-1.426,1.74,1.74,0,0,0-.513-1.338,1.987,1.987,0,0,0-1.411-.479,2.083,2.083,0,0,0-1.357.444,1.421,1.421,0,0,0-.547,1.157H.8a3.471,3.471,0,0,1,.6-2,4,4,0,0,1,1.68-1.382,5.606,5.606,0,0,1,2.378-.5,5.316,5.316,0,0,1,3.535,1.079,3.682,3.682,0,0,1,1.279,2.974,2.992,2.992,0,0,1-.6,1.8A3.87,3.87,0,0,1,8.115-7.3,3.533,3.533,0,0,1,9.907-6.016,3.5,3.5,0,0,1,10.5-3.984,3.743,3.743,0,0,1,9.116-.947,5.556,5.556,0,0,1,5.459.2,5.268,5.268,0,0,1,1.978-.928,3.668,3.668,0,0,1,.625-3.9H3.447a1.635,1.635,0,0,0,.6,1.309,2.213,2.213,0,0,0,1.479.508A2.224,2.224,0,0,0,7.1-2.612a1.837,1.837,0,0,0,.571-1.411q0-2.129-2.344-2.129H3.838Zm8.867,6.973a1.421,1.421,0,0,1,.454-1.094A1.611,1.611,0,0,1,14.3-2.9a1.624,1.624,0,0,1,1.147.42A1.421,1.421,0,0,1,15.9-1.387a1.4,1.4,0,0,1-.449,1.079A1.631,1.631,0,0,1,14.3.107a1.618,1.618,0,0,1-1.143-.415A1.4,1.4,0,0,1,12.705-1.387ZM32.09-6.162H26.465v3.809h6.6V0H23.535V-14.219h9.512v2.373H26.465v3.389H32.09Zm5.5-4.4V.576A3.78,3.78,0,0,1,36.66,3.3a3.526,3.526,0,0,1-2.676.972,5.738,5.738,0,0,1-1.4-.166V1.865a5.3,5.3,0,0,0,.889.088q1.279,0,1.279-1.357V-10.566ZM34.531-13.3a1.39,1.39,0,0,1,.425-1.045,1.6,1.6,0,0,1,1.157-.41,1.6,1.6,0,0,1,1.157.41A1.39,1.39,0,0,1,37.7-13.3a1.386,1.386,0,0,1-.435,1.055,1.6,1.6,0,0,1-1.147.41,1.6,1.6,0,0,1-1.147-.41A1.386,1.386,0,0,1,34.531-13.3ZM44.658.2A5.187,5.187,0,0,1,40.874-1.23a5.068,5.068,0,0,1-1.46-3.8V-5.3a6.383,6.383,0,0,1,.615-2.847,4.515,4.515,0,0,1,1.743-1.934,4.893,4.893,0,0,1,2.573-.679,4.385,4.385,0,0,1,3.413,1.367A5.555,5.555,0,0,1,49-5.518v1.152H42.275a2.622,2.622,0,0,0,.825,1.66,2.5,2.5,0,0,0,1.743.625,3.046,3.046,0,0,0,2.549-1.182l1.387,1.553a4.237,4.237,0,0,1-1.719,1.4A5.639,5.639,0,0,1,44.658.2Zm-.322-8.672a1.767,1.767,0,0,0-1.362.566A2.926,2.926,0,0,0,42.3-6.289H46.23v-.225a2.086,2.086,0,0,0-.508-1.45A1.824,1.824,0,0,0,44.336-8.477ZM55-2.08a1.851,1.851,0,0,0,1.27-.43,1.506,1.506,0,0,0,.508-1.143h2.646a3.62,3.62,0,0,1-.586,1.968A3.866,3.866,0,0,1,57.261-.3,4.936,4.936,0,0,1,55.049.2a4.587,4.587,0,0,1-3.574-1.44,5.7,5.7,0,0,1-1.309-3.979V-5.41a5.635,5.635,0,0,1,1.3-3.9,4.534,4.534,0,0,1,3.564-1.455,4.444,4.444,0,0,1,3.179,1.128,3.994,3.994,0,0,1,1.216,3H56.777a1.923,1.923,0,0,0-.508-1.333,1.7,1.7,0,0,0-1.289-.513,1.7,1.7,0,0,0-1.489.718,4.155,4.155,0,0,0-.5,2.329v.293a4.207,4.207,0,0,0,.5,2.344A1.722,1.722,0,0,0,55-2.08ZM67.363-1.074A3.539,3.539,0,0,1,64.473.2,3.338,3.338,0,0,1,61.88-.781a4.169,4.169,0,0,1-.913-2.861v-6.924h2.822V-3.74q0,1.65,1.5,1.65a2.038,2.038,0,0,0,1.973-1v-7.48H70.1V0H67.441ZM76.621-2.08a1.851,1.851,0,0,0,1.27-.43A1.506,1.506,0,0,0,78.4-3.652h2.646a3.62,3.62,0,0,1-.586,1.968A3.866,3.866,0,0,1,78.882-.3,4.936,4.936,0,0,1,76.67.2,4.587,4.587,0,0,1,73.1-1.245a5.7,5.7,0,0,1-1.309-3.979V-5.41a5.635,5.635,0,0,1,1.3-3.9,4.534,4.534,0,0,1,3.564-1.455,4.444,4.444,0,0,1,3.179,1.128,3.994,3.994,0,0,1,1.216,3H78.4a1.923,1.923,0,0,0-.508-1.333A1.7,1.7,0,0,0,76.6-8.477a1.7,1.7,0,0,0-1.489.718,4.155,4.155,0,0,0-.5,2.329v.293a4.207,4.207,0,0,0,.5,2.344A1.722,1.722,0,0,0,76.621-2.08ZM85.635,0H82.8V-10.566h2.832Zm-3-13.3a1.39,1.39,0,0,1,.425-1.045,1.6,1.6,0,0,1,1.157-.41,1.6,1.6,0,0,1,1.152.41A1.382,1.382,0,0,1,85.8-13.3a1.386,1.386,0,0,1-.435,1.055,1.6,1.6,0,0,1-1.147.41,1.6,1.6,0,0,1-1.147-.41A1.386,1.386,0,0,1,82.637-13.3Zm4.883,7.92a6.266,6.266,0,0,1,.605-2.8,4.432,4.432,0,0,1,1.743-1.9,5.086,5.086,0,0,1,2.642-.674A4.812,4.812,0,0,1,96-9.453,5.252,5.252,0,0,1,97.51-5.9l.02.723a5.523,5.523,0,0,1-1.357,3.9A4.718,4.718,0,0,1,92.529.2,4.742,4.742,0,0,1,88.882-1.27,5.62,5.62,0,0,1,87.52-5.254Zm2.822.205a3.939,3.939,0,0,0,.566,2.3,1.869,1.869,0,0,0,1.621.8,1.874,1.874,0,0,0,1.6-.786,4.31,4.31,0,0,0,.576-2.515,3.9,3.9,0,0,0-.576-2.285,1.874,1.874,0,0,0-1.621-.811,1.843,1.843,0,0,0-1.6.806A4.383,4.383,0,0,0,90.342-5.176ZM93.066-15h3.076l-2.705,3.027H91.143Zm8.8,4.434.088,1.221a3.689,3.689,0,0,1,3.037-1.416,3.066,3.066,0,0,1,2.5.986,4.6,4.6,0,0,1,.84,2.949V0h-2.822V-6.758a1.831,1.831,0,0,0-.391-1.3,1.749,1.749,0,0,0-1.3-.405,1.942,1.942,0,0,0-1.787,1.016V0H99.209V-10.566Z" transform="translate(1082 4734)" fill="#12263f"/><g transform="translate(2 25.643)"><circle cx="54.5" cy="54.5" r="54.5" transform="translate(401 4549)" fill="#e9f3dd"/><g transform="translate(425.307 4527.504)"><path d="M36.464,141.4a25.162,25.162,0,0,1,20.431-24.71V95.011H7.5v65.526a.961.961,0,0,0,.961.961H46.5A25.115,25.115,0,0,1,36.464,141.4Z" transform="translate(-6.059 -46.68)" fill="#fff"/><path d="M15.475,161.345V96.011H7.5v65.334a.961.961,0,0,0,.961.961h7.975A.961.961,0,0,1,15.475,161.345Z" transform="translate(-6.059 -47.488)" fill="#f3f0f3"/><g transform="translate(1.441 38.667)"><path d="M56.895,54.582H7.5V46.648a1.922,1.922,0,0,1,1.922-1.922H54.973a1.922,1.922,0,0,1,1.922,1.922Z" transform="translate(-7.5 -44.726)" fill="#ffb500"/></g><g transform="translate(1.441 38.667)"><path d="M17.4,44.726H9.422A1.922,1.922,0,0,0,7.5,46.648v7.934h7.975V46.648A1.922,1.922,0,0,1,17.4,44.726Z" transform="translate(-7.5 -44.726)" fill="#f5db9a"/></g><g transform="translate(30.406 69.562)"><g transform="translate(53.931 20.251)"><path d="M450.5,310.865h-6.8a.961.961,0,0,0-.713.317l-4.143,4.586,4.143,4.587a.96.96,0,0,0,.713.317h6.8a.961.961,0,0,0,.84-1.428l-1.933-3.476,1.933-3.476A.961.961,0,0,0,450.5,310.865Z" transform="translate(-438.846 -310.865)" fill="#ffb500"/></g><circle cx="25.155" cy="25.155" r="25.155" fill="#eaf6ff"/><path d="M165.716,237.366A23.747,23.747,0,0,0,186.7,260.921a25.237,25.237,0,0,1-14.176-13.386,19.7,19.7,0,0,1,0-20.338A25.237,25.237,0,0,1,186.7,213.811,23.747,23.747,0,0,0,165.716,237.366Z" transform="translate(-164.275 -212.211)" fill="#d8ecfe"/><g transform="translate(6.86 6.86)"><circle cx="18.294" cy="18.294" r="18.294" fill="#bada95"/></g><g transform="translate(13.721 13.721)"><circle cx="11.434" cy="11.434" r="11.434" fill="#eaf6ff"/></g><g transform="translate(20.581 20.581)"><circle cx="4.574" cy="4.574" r="4.574" fill="#ffb500"/></g></g><g transform="translate(0 37.226)"><path d="M50.167,124.78l-2.525,2.525-1.153-1.153a1.441,1.441,0,0,0-2.038,2.038l2.172,2.172a1.442,1.442,0,0,0,2.039,0l3.545-3.545a1.441,1.441,0,1,0-2.039-2.038Z" transform="translate(-35.567 -107.613)"/><path d="M109.726,136.464H129.85a1.441,1.441,0,1,0,0-2.883H109.726a1.441,1.441,0,0,0,0,2.883Z" transform="translate(-87.475 -115.064)"/><path d="M50.167,171.039l-2.525,2.525-1.153-1.153a1.441,1.441,0,0,0-2.038,2.038l2.172,2.173a1.442,1.442,0,0,0,2.039,0l3.544-3.545a1.441,1.441,0,1,0-2.038-2.038Z" transform="translate(-35.567 -144.983)"/><path d="M109.726,182.722H129.85a1.441,1.441,0,1,0,0-2.883H109.726a1.441,1.441,0,1,0,0,2.883Z" transform="translate(-87.475 -152.432)"/><path d="M50.167,217.3l-2.525,2.525-1.153-1.153a1.441,1.441,0,0,0-2.038,2.038l2.172,2.173a1.442,1.442,0,0,0,2.039,0l3.544-3.545a1.441,1.441,0,0,0-2.038-2.038Z" transform="translate(-35.567 -182.352)"/><path d="M50.167,263.558l-2.525,2.525-1.153-1.153a1.441,1.441,0,0,0-2.038,2.038l2.172,2.172a1.441,1.441,0,0,0,2.039,0l3.545-3.544a1.441,1.441,0,0,0-2.039-2.038Z" transform="translate(-35.567 -219.721)"/><path d="M50.167,309.817l-2.525,2.525-1.153-1.153a1.441,1.441,0,0,0-2.038,2.038l2.172,2.173a1.442,1.442,0,0,0,2.039,0l3.545-3.545a1.442,1.442,0,0,0-2.039-2.039Z" transform="translate(-35.567 -257.091)"/><path d="M50.167,356.076,47.642,358.6l-1.153-1.153a1.441,1.441,0,0,0-2.038,2.038l2.172,2.172a1.441,1.441,0,0,0,2.039,0l3.545-3.544a1.441,1.441,0,1,0-2.039-2.038Z" transform="translate(-35.567 -294.459)"/><path d="M96.545,94.717l1.543-2.775a2.4,2.4,0,0,0-2.1-3.57h-6.8a2.406,2.406,0,0,0-1.782.792L83.7,93.275H82.117A26.6,26.6,0,0,0,52.278,68.323V40.589a3.367,3.367,0,0,0-3.363-3.363H3.363A3.367,3.367,0,0,0,0,40.589v73.268a2.4,2.4,0,0,0,2.4,2.4H13.26a1.441,1.441,0,0,0,0-2.883H2.883V49.965H36.321a1.441,1.441,0,0,0,0-2.883H2.883V40.589a.481.481,0,0,1,.48-.48H48.914a.481.481,0,0,1,.48.48v6.493H43.048a1.441,1.441,0,0,0,0,2.883h6.347V68.843a26.5,26.5,0,0,0-9.883,4.68H22.251a1.441,1.441,0,0,0,0,2.883H36.289a26.728,26.728,0,0,0-4.3,6.007H22.251a1.441,1.441,0,0,0,0,2.883H30.69A26.37,26.37,0,0,0,29.183,91.3H22.251a1.441,1.441,0,1,0,0,2.883h6.72c0,.177-.007.353-.007.531a26.607,26.607,0,0,0,.568,5.476H22.251a1.441,1.441,0,0,0,0,2.883h8.06a26.638,26.638,0,0,0,6.317,10.3H19.986a1.441,1.441,0,0,0,0,2.883h20a26.581,26.581,0,0,0,42.134-20.1H83.7l3.714,4.112a2.406,2.406,0,0,0,1.782.792h6.8a2.4,2.4,0,0,0,2.1-3.57ZM69.279,84.939a16.7,16.7,0,0,1,3.072,8.336h-4a12.875,12.875,0,1,0,0,2.883h4a16.868,16.868,0,1,1-7.539-15.52A1.441,1.441,0,1,0,66.4,78.232a19.731,19.731,0,1,0,8.844,17.926h3.986a23.714,23.714,0,1,1,0-2.883H75.243a19.566,19.566,0,0,0-3.618-10.012,1.441,1.441,0,0,0-2.346,1.676ZM55.56,96.158h2.778a3.132,3.132,0,1,1,0-2.883H55.56a1.441,1.441,0,1,0,0,2.883Zm0-7.456A6.015,6.015,0,1,0,61.4,96.158h4.048a9.993,9.993,0,1,1,0-2.883H61.4A6.025,6.025,0,0,0,55.56,88.7Zm38.076,6.715,1.535,2.762H89.405L87.58,96.158h2.282a1.441,1.441,0,0,0,0-2.883H87.58l1.825-2.021h5.767l-1.535,2.762a1.441,1.441,0,0,0,0,1.4Z" transform="translate(0 -37.226)"/></g></g></g><g transform="translate(0 26)"><circle cx="54.5" cy="54.5" r="54.5" transform="translate(739 4549)" fill="#fdf2d6"/><g transform="translate(755.287 4562.287)"><g transform="translate(8.5 2.189)"><rect width="2.576" height="2.576" transform="translate(47.266 29.751)" fill="#183651"/><rect width="2.576" height="2.576" transform="translate(55.123 29.751)" fill="#183651"/><rect width="2.576" height="2.576" transform="translate(62.85 29.751)" fill="#183651"/><rect width="2.576" height="2.576" transform="translate(0 45.721)" fill="#183651"/><rect width="2.576" height="2.576" transform="translate(7.727 45.721)" fill="#183651"/><rect width="2.576" height="2.576" transform="translate(15.584 45.721)" fill="#183651"/><path d="M137.286,21.891l-1.8-1.8,2.318-2.447-2.318-2.447,1.8-1.8,4.25,4.25Z" transform="translate(-121.831 -13.391)" fill="#183651"/><rect width="7.985" height="2.576" transform="translate(9.788 2.962)" fill="#183651"/></g><rect width="17" height="10.432" transform="translate(32.713 70.706)" fill="#78b62e"/><path d="M210.485,437.574h-17a1.217,1.217,0,0,1-1.288-1.288V425.854a1.217,1.217,0,0,1,1.288-1.288h17a1.217,1.217,0,0,1,1.288,1.288v10.432A1.217,1.217,0,0,1,210.485,437.574ZM194.773,435H209.2v-7.856H194.773Z" transform="translate(-160.772 -355.147)" fill="#183651"/><rect width="17" height="10.432" transform="translate(32.713 53.32)" fill="#e0e4e8"/><path d="M210.485,331.236h-17a1.217,1.217,0,0,1-1.288-1.288V319.516a1.217,1.217,0,0,1,1.288-1.288h17a1.217,1.217,0,0,1,1.288,1.288v10.432A1.217,1.217,0,0,1,210.485,331.236Zm-15.712-2.576H209.2V320.8H194.773Z" transform="translate(-160.772 -266.196)" fill="#183651"/><rect width="17" height="10.432" transform="translate(32.713 36.062)" fill="#bada95"/><path d="M210.485,224.9h-17a1.217,1.217,0,0,1-1.288-1.288V213.177a1.217,1.217,0,0,1,1.288-1.288h17a1.217,1.217,0,0,1,1.288,1.288v10.432A1.217,1.217,0,0,1,210.485,224.9Zm-15.712-2.576H209.2v-7.856H194.773Z" transform="translate(-160.772 -177.244)" fill="#183651"/><rect width="17" height="10.432" transform="translate(32.713 18.675)" fill="#e0e4e8"/><path d="M210.485,119.346h-17a1.217,1.217,0,0,1-1.288-1.288V107.626a1.217,1.217,0,0,1,1.288-1.288h17a1.217,1.217,0,0,1,1.288,1.288v10.432A1.291,1.291,0,0,1,210.485,119.346Zm-15.712-2.576H209.2v-7.856H194.773Z" transform="translate(-160.772 -88.951)" fill="#183651"/><rect width="17" height="10.432" transform="translate(32.713 1.288)" fill="#78b62e"/><g transform="translate(0.902)"><path d="M210.485,13.008h-17A1.217,1.217,0,0,1,192.2,11.72V1.288A1.217,1.217,0,0,1,193.485,0h17a1.217,1.217,0,0,1,1.288,1.288V11.72A1.291,1.291,0,0,1,210.485,13.008Zm-15.712-2.576H209.2V2.576H194.773Z" transform="translate(-161.673)" fill="#183651"/><path d="M329.483,444.753l-1.8-1.8L330,440.632l-2.318-2.447,1.8-1.8,4.121,4.25Z" transform="translate(-275.004 -365.031)" fill="#183651"/><rect width="7.985" height="2.576" transform="translate(48.812 74.313)" fill="#183651"/><path d="M142.929,440.943,141,439.14l2.447-2.447L141,434.246l1.932-1.8,4.121,4.25Z" transform="translate(-118.845 -361.737)" fill="#183651"/><path d="M31.787,369.455H15.045a9.467,9.467,0,1,1,.129-18.932H37.325V353.1H15.173a6.955,6.955,0,0,0,0,13.909H31.916v2.447h-.129Z" transform="translate(-5.514 -293.211)" fill="#183651"/><path d="M142.929,228.925l-1.932-1.8,2.447-2.318L141,222.357l1.932-1.8,4.121,4.25Z" transform="translate(-118.845 -184.492)" fill="#183651"/><path d="M31.787,156.908H15.045a9.509,9.509,0,0,1-9.531-9.531,9.62,9.62,0,0,1,9.659-9.531H37.325v2.576H15.173a6.955,6.955,0,1,0,0,13.909H31.916v2.576h-.129Z" transform="translate(-5.514 -115.308)" fill="#183651"/><path d="M330.226,339.2l-4.121-4.25,4.121-4.121,1.932,1.8-2.447,2.318,2.447,2.447Z" transform="translate(-273.687 -276.739)" fill="#183651"/><path d="M326.2,263.1H309.458v-2.576H326.2a6.926,6.926,0,0,0,6.955-6.955v-.644a6.926,6.926,0,0,0-6.955-6.955H304.049V243.4H326.2a9.509,9.509,0,0,1,9.53,9.531v.644A9.509,9.509,0,0,1,326.2,263.1Z" transform="translate(-255.237 -203.601)" fill="#183651"/><path d="M330.226,126.654l-4.121-4.25,4.121-4.25,1.932,1.8-2.447,2.447,2.447,2.447Z" transform="translate(-273.687 -98.835)" fill="#183651"/><path d="M326.2,51.213H309.458V48.637H326.2a6.926,6.926,0,0,0,6.955-6.955v-.644a6.926,6.926,0,0,0-6.955-6.955H304.049V31.508H326.2a9.509,9.509,0,0,1,9.53,9.531v.644A9.509,9.509,0,0,1,326.2,51.213Z" transform="translate(-255.237 -26.356)" fill="#183651"/></g><rect width="17" height="10.432" transform="translate(64.138 70.706)" fill="#ffb500"/><path d="M402.682,437.574h-17a1.217,1.217,0,0,1-1.288-1.288V425.854a1.217,1.217,0,0,1,1.288-1.288h17a1.217,1.217,0,0,1,1.288,1.288v10.432A1.217,1.217,0,0,1,402.682,437.574ZM386.97,435h14.425v-7.856H386.97Z" transform="translate(-321.544 -355.147)" fill="#183651"/><rect width="17" height="10.432" transform="translate(1.288 1.288)" fill="#ffb500"/><path d="M18.288,13.008h-17A1.217,1.217,0,0,1,0,11.72V1.288A1.217,1.217,0,0,1,1.288,0h17a1.217,1.217,0,0,1,1.288,1.288V11.72A1.291,1.291,0,0,1,18.288,13.008ZM2.576,10.432H17V2.576H2.576Z" fill="#183651"/></g></g><g transform="translate(0 26)"><circle cx="54.5" cy="54.5" r="54.5" transform="translate(1082 4549)" fill="#e9f3dd"/><g transform="translate(1097 4564)"><path d="M86.194,53.363V42.832a1.549,1.549,0,0,0-1.549-1.549H78.851a31.3,31.3,0,0,0-4.187-10.116l4.1-4.1a1.548,1.548,0,0,0,0-2.19l-7.446-7.446a1.548,1.548,0,0,0-2.19,0l-4.1,4.1a31.3,31.3,0,0,0-10.116-4.187V11.549A1.549,1.549,0,0,0,53.363,10H42.832a1.549,1.549,0,0,0-1.549,1.549v5.8a31.3,31.3,0,0,0-10.1,4.194l-4.111-4.111a1.548,1.548,0,0,0-2.19,0l-7.446,7.446a1.548,1.548,0,0,0,0,2.19l4.12,4.12a31.291,31.291,0,0,0-4.172,10.092H11.549A1.549,1.549,0,0,0,10,42.832V53.363a1.549,1.549,0,0,0,1.549,1.549h5.843A31.3,31.3,0,0,0,21.57,64.988l-4.135,4.135a1.548,1.548,0,0,0,0,2.19l7.446,7.446a1.548,1.548,0,0,0,2.19,0l4.135-4.135A31.3,31.3,0,0,0,41.283,78.8v5.843a1.549,1.549,0,0,0,1.549,1.549H53.363a1.549,1.549,0,0,0,1.549-1.549V78.812A31.282,31.282,0,0,0,65,74.639l4.12,4.12a1.548,1.548,0,0,0,2.19,0l7.446-7.446a1.548,1.548,0,0,0,0-2.19l-4.111-4.111a31.292,31.292,0,0,0,4.194-10.1h5.8A1.549,1.549,0,0,0,86.194,53.363Zm0,0" transform="translate(-8.451 -8.451)" fill="#f5db9a"/><path d="M44.911,79.292H34.38a3.1,3.1,0,0,1-3.1-3.1V71.571a32.717,32.717,0,0,1-8.3-3.44L19.716,71.4a3.1,3.1,0,0,1-4.38,0L7.889,63.956a3.1,3.1,0,0,1,0-4.38L11.161,56.3a32.717,32.717,0,0,1-3.44-8.3H3.1a3.1,3.1,0,0,1-3.1-3.1V34.38a3.1,3.1,0,0,1,3.1-3.1H7.711a32.717,32.717,0,0,1,3.436-8.31L7.889,19.715a3.1,3.1,0,0,1,0-4.38l7.447-7.447a3.1,3.1,0,0,1,4.38,0l3.247,3.247a32.717,32.717,0,0,1,8.32-3.454V3.1A3.1,3.1,0,0,1,34.38,0H44.911a3.1,3.1,0,0,1,3.1,3.1V7.671a32.732,32.732,0,0,1,8.334,3.45l3.233-3.233a3.1,3.1,0,0,1,4.38,0L71.4,15.335a3.1,3.1,0,0,1,0,4.38L68.17,22.949a32.732,32.732,0,0,1,3.45,8.334h4.574a3.1,3.1,0,0,1,3.1,3.1V44.911a3.1,3.1,0,0,1-3.1,3.1H71.61a32.738,32.738,0,0,1-3.454,8.32L71.4,59.576a3.1,3.1,0,0,1,0,4.38L63.956,71.4a3.1,3.1,0,0,1-4.38,0l-3.258-3.258a32.735,32.735,0,0,1-8.31,3.436v4.613A3.1,3.1,0,0,1,44.911,79.292ZM22.756,64.624a1.547,1.547,0,0,1,.833.243,29.653,29.653,0,0,0,9.578,3.972,1.549,1.549,0,0,1,1.214,1.512v5.843H44.911V70.36a1.548,1.548,0,0,1,1.216-1.512,29.676,29.676,0,0,0,9.592-3.966,1.549,1.549,0,0,1,1.927.211l4.12,4.12,7.446-7.446L65.1,57.656a1.549,1.549,0,0,1-.209-1.93,29.673,29.673,0,0,0,3.987-9.6,1.548,1.548,0,0,1,1.512-1.214h5.8V34.38H70.4a1.548,1.548,0,0,1-1.512-1.216,29.656,29.656,0,0,0-3.981-9.615,1.55,1.55,0,0,1,.211-1.929l4.1-4.1-7.446-7.446-4.1,4.1a1.55,1.55,0,0,1-1.929.211A29.669,29.669,0,0,0,46.127,10.4a1.548,1.548,0,0,1-1.216-1.512V3.1H34.38V8.9a1.549,1.549,0,0,1-1.214,1.512,29.669,29.669,0,0,0-9.6,3.986,1.548,1.548,0,0,1-1.929-.209l-4.111-4.111-7.446,7.446,4.12,4.12a1.548,1.548,0,0,1,.211,1.927,29.676,29.676,0,0,0-3.966,9.592A1.548,1.548,0,0,1,8.931,34.38H3.1V44.911H8.94a1.549,1.549,0,0,1,1.512,1.214A29.661,29.661,0,0,0,14.424,55.7a1.549,1.549,0,0,1-.211,1.929l-4.135,4.135,7.446,7.447,4.135-4.135A1.549,1.549,0,0,1,22.756,64.624Zm0,0"/><path d="M162.124,141.062A21.062,21.062,0,1,1,141.062,120,21.062,21.062,0,0,1,162.124,141.062Zm0,0" transform="translate(-101.416 -101.416)" fill="#fff"/><path d="M132.667,155.227A22.606,22.606,0,1,1,143.72,112.9a1.548,1.548,0,1,1-1.515,2.7,19.513,19.513,0,1,0,7.925,8.31,1.549,1.549,0,1,1,2.771-1.384,22.6,22.6,0,0,1-20.234,32.7Zm0,0" transform="translate(-93.022 -92.981)"/><path d="M345.9,155.109a1.55,1.55,0,1,1,1.095-.454A1.558,1.558,0,0,1,345.9,155.109Zm0,0" transform="translate(-291.023 -128.47)"/><path d="M197.052,192.332l-8.61,8.61L184.2,196.7l-5.555,5.555,4.239,4.239,5.555,5.555,14.165-14.165Zm0,0" transform="translate(-150.982 -162.546)" fill="#78b62e"/><path d="M179.991,205.149a1.549,1.549,0,0,1-1.095-.454L169.1,194.9a1.548,1.548,0,0,1,0-2.19l5.555-5.555a1.55,1.55,0,0,1,2.191,0l3.143,3.144,7.515-7.515a1.548,1.548,0,0,1,2.19,0l5.555,5.555a1.549,1.549,0,0,1,0,2.19L181.086,204.7A1.551,1.551,0,0,1,179.991,205.149Zm-7.6-11.343,7.6,7.6,11.975-11.974-3.365-3.365-7.515,7.515a1.549,1.549,0,0,1-2.191,0l-3.144-3.144Zm0,0" transform="translate(-142.53 -154.095)"/></g></g></g></svg>