<svg xmlns="http://www.w3.org/2000/svg" width="330" height="237" viewBox="0 0 330 237"><g transform="translate(-971 -2399)"><rect width="330" height="237" transform="translate(971 2399)" fill="#bada95"/><path d="M11.973,9.154H7.617V21H4.688V9.154H.391V6.781H11.973ZM18.76,13.08A7.667,7.667,0,0,0,17.744,13a2.067,2.067,0,0,0-2.1,1.084V21H12.822V10.434h2.666l.078,1.26a2.615,2.615,0,0,1,2.354-1.455,2.957,2.957,0,0,1,.879.127ZM25.947,21a3.134,3.134,0,0,1-.283-.947A3.415,3.415,0,0,1,23,21.2a3.752,3.752,0,0,1-2.573-.9A2.89,2.89,0,0,1,19.4,18.031a2.986,2.986,0,0,1,1.245-2.578,6.144,6.144,0,0,1,3.6-.908h1.3v-.605a1.741,1.741,0,0,0-.376-1.172,1.479,1.479,0,0,0-1.187-.439,1.682,1.682,0,0,0-1.118.342,1.161,1.161,0,0,0-.405.938H19.639a2.835,2.835,0,0,1,.566-1.7,3.744,3.744,0,0,1,1.6-1.226,5.837,5.837,0,0,1,2.324-.444,4.611,4.611,0,0,1,3.1.981,3.433,3.433,0,0,1,1.147,2.759v4.58a5.052,5.052,0,0,0,.42,2.275V21Zm-2.334-1.963a2.431,2.431,0,0,0,1.152-.278,1.828,1.828,0,0,0,.781-.747V16.2H24.492q-2.119,0-2.256,1.465l-.01.166a1.13,1.13,0,0,0,.371.869A1.441,1.441,0,0,0,23.613,19.037Zm10.176-.312h5.166V21h-8.77V19.281l4.971-6.562H30.332V10.434H38.8V12.1ZM46.846,21a3.134,3.134,0,0,1-.283-.947A3.415,3.415,0,0,1,43.9,21.2a3.752,3.752,0,0,1-2.573-.9A2.89,2.89,0,0,1,40.3,18.031a2.986,2.986,0,0,1,1.245-2.578,6.144,6.144,0,0,1,3.6-.908h1.3v-.605a1.741,1.741,0,0,0-.376-1.172,1.479,1.479,0,0,0-1.187-.439,1.682,1.682,0,0,0-1.118.342,1.161,1.161,0,0,0-.405.938H40.537a2.835,2.835,0,0,1,.566-1.7,3.744,3.744,0,0,1,1.6-1.226,5.837,5.837,0,0,1,2.324-.444,4.611,4.611,0,0,1,3.1.981,3.433,3.433,0,0,1,1.147,2.759v4.58a5.052,5.052,0,0,0,.42,2.275V21Zm-2.334-1.963a2.431,2.431,0,0,0,1.152-.278,1.828,1.828,0,0,0,.781-.747V16.2H45.391q-2.119,0-2.256,1.465l-.01.166a1.13,1.13,0,0,0,.371.869A1.441,1.441,0,0,0,44.512,19.037Zm16.455-3.223a6.4,6.4,0,0,1-1.084,3.96A3.591,3.591,0,0,1,56.855,21.2a3.3,3.3,0,0,1-2.744-1.318L53.984,21H51.445V6h2.822v5.381a3.214,3.214,0,0,1,2.568-1.143,3.62,3.62,0,0,1,3.032,1.421,6.408,6.408,0,0,1,1.1,4Zm-2.822-.205a4.2,4.2,0,0,0-.508-2.339,1.717,1.717,0,0,0-1.514-.737,1.862,1.862,0,0,0-1.855,1.1v4.17a1.887,1.887,0,0,0,1.875,1.113,1.742,1.742,0,0,0,1.8-1.348A6.952,6.952,0,0,0,58.145,15.609ZM65.684,21H62.852V10.434h2.832Zm-3-13.3a1.39,1.39,0,0,1,.425-1.045,1.831,1.831,0,0,1,2.31,0A1.382,1.382,0,0,1,65.85,7.7a1.386,1.386,0,0,1-.435,1.055,1.81,1.81,0,0,1-2.295,0A1.386,1.386,0,0,1,62.686,7.7Zm8.3,13.3H68.154V6h2.832Zm5.3,0H73.457V10.434h2.832Zm-3-13.3a1.39,1.39,0,0,1,.425-1.045,1.831,1.831,0,0,1,2.31,0,1.382,1.382,0,0,1,.43,1.045,1.386,1.386,0,0,1-.435,1.055,1.81,1.81,0,0,1-2.295,0A1.386,1.386,0,0,1,73.291,7.7Zm4.883,7.939A6.368,6.368,0,0,1,79.282,11.7a3.6,3.6,0,0,1,3.032-1.465,3.236,3.236,0,0,1,2.549,1.152V6H87.7V21H85.146l-.137-1.123A3.321,3.321,0,0,1,82.295,21.2a3.587,3.587,0,0,1-2.993-1.47A6.573,6.573,0,0,1,78.174,15.639ZM81,15.844a4.16,4.16,0,0,0,.518,2.275,1.687,1.687,0,0,0,1.5.791,1.889,1.889,0,0,0,1.846-1.1v-4.17a1.862,1.862,0,0,0-1.826-1.1Q81,12.533,81,15.844ZM96.006,21a3.134,3.134,0,0,1-.283-.947A3.415,3.415,0,0,1,93.057,21.2a3.752,3.752,0,0,1-2.573-.9,2.89,2.89,0,0,1-1.021-2.266,2.986,2.986,0,0,1,1.245-2.578,6.144,6.144,0,0,1,3.6-.908h1.3v-.605a1.741,1.741,0,0,0-.376-1.172,1.479,1.479,0,0,0-1.187-.439,1.682,1.682,0,0,0-1.118.342,1.161,1.161,0,0,0-.405.938H89.7a2.835,2.835,0,0,1,.566-1.7,3.744,3.744,0,0,1,1.6-1.226,5.837,5.837,0,0,1,2.324-.444,4.611,4.611,0,0,1,3.1.981,3.433,3.433,0,0,1,1.147,2.759v4.58a5.052,5.052,0,0,0,.42,2.275V21Zm-2.334-1.963a2.431,2.431,0,0,0,1.152-.278,1.828,1.828,0,0,0,.781-.747V16.2H94.551q-2.119,0-2.256,1.465l-.01.166a1.13,1.13,0,0,0,.371.869A1.441,1.441,0,0,0,93.672,19.037Zm6.494-3.4a6.368,6.368,0,0,1,1.108-3.936,3.6,3.6,0,0,1,3.032-1.465,3.236,3.236,0,0,1,2.549,1.152V6h2.832V21h-2.549L107,19.877a3.321,3.321,0,0,1-2.715,1.318,3.587,3.587,0,0,1-2.993-1.47A6.573,6.573,0,0,1,100.166,15.639Zm2.822.205a4.16,4.16,0,0,0,.518,2.275,1.687,1.687,0,0,0,1.5.791,1.889,1.889,0,0,0,1.846-1.1v-4.17a1.862,1.862,0,0,0-1.826-1.1Q102.988,12.533,102.988,15.844Zm13.428-.205a6.368,6.368,0,0,1,1.108-3.936,3.6,3.6,0,0,1,3.032-1.465,3.236,3.236,0,0,1,2.549,1.152V6h2.832V21h-2.549l-.137-1.123a3.321,3.321,0,0,1-2.715,1.318,3.587,3.587,0,0,1-2.993-1.47A6.573,6.573,0,0,1,116.416,15.639Zm2.822.205a4.16,4.16,0,0,0,.518,2.275,1.687,1.687,0,0,0,1.5.791,1.889,1.889,0,0,0,1.846-1.1v-4.17a1.862,1.862,0,0,0-1.826-1.1Q119.238,12.533,119.238,15.844Zm13.75,5.352A5.187,5.187,0,0,1,129.2,19.77a5.068,5.068,0,0,1-1.46-3.8V15.7a6.383,6.383,0,0,1,.615-2.847,4.515,4.515,0,0,1,1.743-1.934,4.893,4.893,0,0,1,2.573-.679,4.385,4.385,0,0,1,3.413,1.367,5.555,5.555,0,0,1,1.245,3.877v1.152h-6.729a2.622,2.622,0,0,0,.825,1.66,2.5,2.5,0,0,0,1.743.625,3.046,3.046,0,0,0,2.549-1.182l1.387,1.553a4.237,4.237,0,0,1-1.719,1.4A5.639,5.639,0,0,1,132.988,21.2Zm-.322-8.672a1.767,1.767,0,0,0-1.362.566,2.926,2.926,0,0,0-.669,1.621h3.926v-.225a2.086,2.086,0,0,0-.508-1.45A1.824,1.824,0,0,0,132.666,12.523ZM141.914,21h-2.832V6h2.832Zm16.816-5.186a6.337,6.337,0,0,1-1.108,3.911,3.554,3.554,0,0,1-2.993,1.47,3.292,3.292,0,0,1-2.588-1.113v4.98h-2.822V10.434h2.617l.1,1.035a3.317,3.317,0,0,1,2.676-1.23,3.578,3.578,0,0,1,3.037,1.445,6.509,6.509,0,0,1,1.084,3.984Zm-2.822-.205a4.158,4.158,0,0,0-.522-2.275,1.7,1.7,0,0,0-1.519-.8,1.848,1.848,0,0,0-1.826,1.016v4.326a1.879,1.879,0,0,0,1.846,1.045Q155.908,18.92,155.908,15.609Zm10.508-2.529A7.667,7.667,0,0,0,165.4,13a2.067,2.067,0,0,0-2.1,1.084V21h-2.822V10.434h2.666l.078,1.26a2.615,2.615,0,0,1,2.354-1.455,2.957,2.957,0,0,1,.879.127Zm.566,2.539a6.267,6.267,0,0,1,.605-2.8,4.432,4.432,0,0,1,1.743-1.9,5.086,5.086,0,0,1,2.642-.674,4.812,4.812,0,0,1,3.491,1.309,5.252,5.252,0,0,1,1.509,3.555l.02.723a5.523,5.523,0,0,1-1.357,3.9,5.261,5.261,0,0,1-7.29,0,5.62,5.62,0,0,1-1.362-3.984Zm2.822.205a3.939,3.939,0,0,0,.566,2.3,2.037,2.037,0,0,0,3.223.01,4.31,4.31,0,0,0,.576-2.515,3.9,3.9,0,0,0-.576-2.285,1.874,1.874,0,0,0-1.621-.811,1.843,1.843,0,0,0-1.6.806A4.383,4.383,0,0,0,169.8,15.824Zm13.32,3.1a1.851,1.851,0,0,0,1.27-.43,1.506,1.506,0,0,0,.508-1.143h2.646a3.62,3.62,0,0,1-.586,1.968,3.866,3.866,0,0,1-1.577,1.387,4.936,4.936,0,0,1-2.212.493,4.587,4.587,0,0,1-3.574-1.44,5.7,5.7,0,0,1-1.309-3.979V15.59a5.635,5.635,0,0,1,1.3-3.9,4.534,4.534,0,0,1,3.564-1.455,4.444,4.444,0,0,1,3.179,1.128,3.994,3.994,0,0,1,1.216,3H184.9a1.923,1.923,0,0,0-.508-1.333,1.892,1.892,0,0,0-2.778.205,4.155,4.155,0,0,0-.5,2.329v.293a4.207,4.207,0,0,0,.5,2.344A1.722,1.722,0,0,0,183.125,18.92Zm10.9,2.275a5.187,5.187,0,0,1-3.784-1.426,5.068,5.068,0,0,1-1.46-3.8V15.7a6.383,6.383,0,0,1,.615-2.847,4.515,4.515,0,0,1,1.743-1.934,4.893,4.893,0,0,1,2.573-.679,4.385,4.385,0,0,1,3.413,1.367,5.555,5.555,0,0,1,1.245,3.877v1.152h-6.729a2.622,2.622,0,0,0,.825,1.66,2.5,2.5,0,0,0,1.743.625,3.046,3.046,0,0,0,2.549-1.182l1.387,1.553a4.237,4.237,0,0,1-1.719,1.4A5.639,5.639,0,0,1,194.023,21.2Zm-.322-8.672a1.767,1.767,0,0,0-1.362.566,2.926,2.926,0,0,0-.669,1.621H195.6v-.225a2.086,2.086,0,0,0-.508-1.45A1.824,1.824,0,0,0,193.7,12.523Zm11.992,5.557a.909.909,0,0,0-.513-.815,5.824,5.824,0,0,0-1.646-.532q-3.77-.791-3.77-3.2a2.9,2.9,0,0,1,1.167-2.349,4.707,4.707,0,0,1,3.052-.942,5.067,5.067,0,0,1,3.218.947,2.985,2.985,0,0,1,1.206,2.461h-2.822a1.366,1.366,0,0,0-.391-1,1.653,1.653,0,0,0-1.221-.4,1.689,1.689,0,0,0-1.1.322,1.017,1.017,0,0,0-.391.82.87.87,0,0,0,.444.757,4.571,4.571,0,0,0,1.5.5,12.244,12.244,0,0,1,1.777.474,2.92,2.92,0,0,1,2.236,2.842A2.756,2.756,0,0,1,207.2,20.3a5.35,5.35,0,0,1-3.2.894,5.588,5.588,0,0,1-2.358-.474,3.957,3.957,0,0,1-1.616-1.3,3.018,3.018,0,0,1-.586-1.782h2.676a1.473,1.473,0,0,0,.557,1.152,2.208,2.208,0,0,0,1.387.4,2.044,2.044,0,0,0,1.226-.308A.957.957,0,0,0,205.693,18.08Zm4.121-2.461a6.267,6.267,0,0,1,.605-2.8,4.432,4.432,0,0,1,1.743-1.9,5.086,5.086,0,0,1,2.642-.674,4.812,4.812,0,0,1,3.491,1.309A5.252,5.252,0,0,1,219.8,15.1l.02.723a5.523,5.523,0,0,1-1.357,3.9,5.261,5.261,0,0,1-7.29,0,5.62,5.62,0,0,1-1.362-3.984Zm2.822.205a3.939,3.939,0,0,0,.566,2.3,2.037,2.037,0,0,0,3.223.01A4.31,4.31,0,0,0,217,15.619a3.9,3.9,0,0,0-.576-2.285,1.874,1.874,0,0,0-1.621-.811,1.843,1.843,0,0,0-1.6.806A4.383,4.383,0,0,0,212.637,15.824Z" transform="translate(1029 2563)" fill="#12263f"/><g transform="translate(1023 2429.537)"><path d="M64.636,64.636a3.948,3.948,0,0,1-5.583,0L48.58,54.163l2.346-3.238,3.238-2.346L64.636,59.053a3.964,3.964,0,0,1,0,5.583Z" transform="translate(31.665 31.665)" fill="#7e94a0"/><path d="M0,0H7.9V6.891H0Z" transform="translate(75.355 80.955) rotate(-45)" fill="#a3bdce"/><path d="M70.376,93.5a3.314,3.314,0,0,1-3.3,3.3H4.3A3.314,3.314,0,0,1,1,93.5V4.3A3.314,3.314,0,0,1,4.3,1H58.136a1.625,1.625,0,0,1,1.156.479l10.6,10.6a1.625,1.625,0,0,1,.479,1.156Z" transform="translate(0.652 0.652)" fill="#e5e5e5"/><rect width="33.036" height="6.607" rx="2" transform="translate(19.822 13.215)" fill="#f5db9a"/><path d="M47.414,12.5H39.3A3.314,3.314,0,0,1,36,9.2V1.09a1.781,1.781,0,0,1,.479.33l10.6,10.6a1.781,1.781,0,0,1,.33.479Z" transform="translate(23.465 0.71)" fill="#a3bdce"/><circle cx="31.385" cy="31.385" r="31.385" transform="translate(24.777 24.777)" fill="#c4ddf0"/><circle cx="24.777" cy="24.777" r="24.777" transform="translate(31.385 31.385)" fill="#f5db9a"/><g transform="translate(0 0)"><path d="M42.385,16.911a4.955,4.955,0,1,0,0-9.911H15.955a4.955,4.955,0,0,0,0,9.911ZM14.3,11.955A1.652,1.652,0,0,1,15.955,10.3H42.385a1.652,1.652,0,1,1,0,3.3H15.955A1.652,1.652,0,0,1,14.3,11.955Z" transform="translate(7.17 4.563)" fill="#373737"/><path d="M83.118,75.2A32.917,32.917,0,0,0,72.68,27.6v-13.7a3.266,3.266,0,0,0-.963-2.329L61.117.963A3.266,3.266,0,0,0,58.788,0H4.955A4.955,4.955,0,0,0,0,4.955v89.2a4.955,4.955,0,0,0,4.955,4.955H67.725a4.955,4.955,0,0,0,4.955-4.955v-3.3a1.652,1.652,0,1,0-3.3,0v3.3a1.652,1.652,0,0,1-1.652,1.652H4.955A1.652,1.652,0,0,1,3.3,94.154V4.955A1.652,1.652,0,0,1,4.955,3.3H57.814V9.911a4.955,4.955,0,0,0,4.955,4.955h6.607V25.9A33.036,33.036,0,1,0,75.2,83.116L89.54,97.457a5.6,5.6,0,0,0,7.929.013,5.667,5.667,0,0,0,0-7.919Zm-22-65.286V5.638l5.928,5.925H62.769A1.652,1.652,0,0,1,61.117,9.911ZM26.429,56.162A29.733,29.733,0,1,1,56.162,85.895,29.733,29.733,0,0,1,26.429,56.162ZM81.058,77.8l2.436,2.436-3.249,3.256-2.435-2.435a33.131,33.131,0,0,0,3.247-3.249ZM95.127,95.145a2.372,2.372,0,0,1-3.238-.012l-9.3-9.3,3.247-3.247,9.306,9.3a2.332,2.332,0,0,1-.018,3.259Z" transform="translate(0 0)" fill="#373737"/><path d="M6,18.652A1.652,1.652,0,0,0,7.652,20.3h18.17a1.652,1.652,0,0,0,0-3.3H7.652A1.652,1.652,0,0,0,6,18.652Z" transform="translate(3.911 11.081)" fill="#373737"/><path d="M7.652,25.3H19.215a1.652,1.652,0,0,0,0-3.3H7.652a1.652,1.652,0,0,0,0,3.3Z" transform="translate(3.911 14.34)" fill="#373737"/><path d="M7.652,30.3h8.259a1.652,1.652,0,0,0,0-3.3H7.652a1.652,1.652,0,0,0,0,3.3Z" transform="translate(3.911 17.599)" fill="#373737"/><path d="M7.652,35.3h6.607a1.652,1.652,0,1,0,0-3.3H7.652a1.652,1.652,0,0,0,0,3.3Z" transform="translate(3.911 20.858)" fill="#373737"/><path d="M7.652,40.3h6.607a1.652,1.652,0,0,0,0-3.3H7.652a1.652,1.652,0,0,0,0,3.3Z" transform="translate(3.911 24.117)" fill="#373737"/><path d="M7.652,45.3h8.259a1.652,1.652,0,1,0,0-3.3H7.652a1.652,1.652,0,1,0,0,3.3Z" transform="translate(3.911 27.376)" fill="#373737"/><path d="M7.652,50.3H20.866a1.652,1.652,0,1,0,0-3.3H7.652a1.652,1.652,0,1,0,0,3.3Z" transform="translate(3.911 30.635)" fill="#373737"/><path d="M7.652,55.3H29.125a1.652,1.652,0,1,0,0-3.3H7.652a1.652,1.652,0,1,0,0,3.3Z" transform="translate(3.911 33.895)" fill="#373737"/><path d="M50.679,18.754a1.652,1.652,0,1,0-.785,3.209,23.149,23.149,0,1,1-5.507-.661,1.652,1.652,0,1,0,0-3.3,26.4,26.4,0,1,0,6.292.753Z" transform="translate(11.745 11.732)" fill="#373737"/><path d="M30.82,39.395a1.652,1.652,0,1,0-2.336,2.336l3.3,3.3a1.652,1.652,0,0,0,2.336,0L47.338,31.82A1.652,1.652,0,1,0,45,29.484L32.955,41.531Z" transform="translate(18.251 18.903)" fill="#373737"/></g></g></g></svg>