<svg xmlns="http://www.w3.org/2000/svg" width="108.41" height="108.37" viewBox="0 0 108.41 108.37"><g transform="translate(-7.997 -8.2)"><path d="M9.047,74.426,50.75,91.8a1.8,1.8,0,0,0,1.923,0L62.9,87.54a1.722,1.722,0,0,0-1.4-3.147L53.46,87.7V46.012L91.928,29.983V50.121a1.749,1.749,0,1,0,3.5,0V27.39a2.052,2.052,0,0,0-.315-.88,2.081,2.081,0,0,0-.95-.783l-41.75-17.4a1.915,1.915,0,0,0-1.4,0l-41.75,17.4A1.652,1.652,0,0,0,8,27.39V72.852a1.636,1.636,0,0,0,1.049,1.574ZM51.711,42.952l-11.1-4.614L78,22.762,89.13,27.39ZM73.519,20.9,36.135,36.474l-7.945-3.3L65.574,17.593ZM25.483,35.813l8.743,3.642V55.716l-8.743-3.147ZM51.711,11.828l9.381,3.9L23.708,31.307,14.293,27.39ZM11.495,29.983l10.491,4.371V53.793a1.532,1.532,0,0,0,1.224,1.574l12.24,4.546c.542.544,2.273-.21,2.273-1.574V40.912l12.24,5.1V87.685L11.495,71.628Z" transform="translate(0)" fill="#12263f"/><path d="M314.707,224.743c-8.218,0-15.562-.7-23.255-8.218a1.69,1.69,0,0,0-2.448,0c-7.694,7.519-15.037,8.218-23.256,8.218A1.652,1.652,0,0,0,264,226.491c0,34.446,10.142,45.812,25.529,52.281a1.451,1.451,0,0,0,1.4,0c15.387-6.47,25.529-17.835,25.529-52.281A1.652,1.652,0,0,0,314.707,224.743Zm-24.479,50.533c-13.813-5.945-22.381-16.261-22.731-47.036,6.47,0,14.688-.7,22.731-8.043,8.043,7.344,16.261,8.043,22.731,8.043C312.609,259.014,304.041,269.33,290.228,275.275Z" transform="translate(-200.049 -162.382)" fill="#12263f"/><path d="M320.218,311.519a1.69,1.69,0,0,0-2.448,0l-5.246,5.246a1.69,1.69,0,0,0,0,2.448l12.24,12.24a1.674,1.674,0,0,0,2.448,0l19.234-19.234a1.69,1.69,0,0,0,0-2.448l-5.246-5.246a1.69,1.69,0,0,0-2.448,0l-12.764,12.764Zm19.758-3.322,2.8,2.8L325.988,327.78l-9.792-9.792,2.8-2.8,5.77,5.77a1.69,1.69,0,0,0,2.448,0Z" transform="translate(-237.558 -231.148)" fill="#12263f"/></g></svg>