<svg xmlns="http://www.w3.org/2000/svg" width="330" height="237" viewBox="0 0 330 237"><g transform="translate(-299 -2399)"><rect width="330" height="237" transform="translate(299 2399)" fill="#bada95"/><g transform="translate(356.739 2388.753)"><g transform="translate(1.798 43.08)"><g transform="translate(0 0)"><g transform="translate(64.851 12.53)"><path d="M329.072,126.254h-51.1v33.382h7a1.209,1.209,0,0,1,1.209,1.209v26.583l3.263-3.254a10.3,10.3,0,0,1,14.544,0l16.823,16.776h8.254v-74.7Z" transform="translate(-277.976 -120.209)" fill="#3c6d9d"/><path d="M277.976,126.254h6.705v33.382h-6.705Z" transform="translate(-277.976 -120.209)" fill="#82b8eb"/><path d="M331.08,101.041h-53.1v6.045h53.1a1.209,1.209,0,0,0,1.209-1.209V102.25A1.209,1.209,0,0,0,331.08,101.041Z" transform="translate(-277.976 -101.041)" fill="#b2d9ff"/><path d="M284.481,105.876v-3.627a1.209,1.209,0,0,1,1.209-1.209h-7.714v6.045h7.714A1.209,1.209,0,0,1,284.481,105.876Z" transform="translate(-277.976 -101.04)" fill="#3c6d9d"/><g transform="translate(42.893 80.793)"><path d="M467.08,438.005H456.869l6.062,6.045h4.149a1.209,1.209,0,0,0,1.209-1.209v-3.627A1.209,1.209,0,0,0,467.08,438.005Z" transform="translate(-456.869 -438.005)" fill="#0182fc"/></g></g><path d="M20.918,72.995v87.757H43.353v-40.4a1.209,1.209,0,0,1,1.209-1.209H82.552V72.995Z" transform="translate(-17.701 -67.189)" fill="#f5db9a"/><path d="M20.918,74h8.646v87.517H20.918Z" transform="translate(-17.701 -67.95)" fill="#fac600"/><g transform="translate(0 0)"><path d="M74.359,48.782H8.709A1.209,1.209,0,0,0,7.5,49.991v3.627a1.209,1.209,0,0,0,1.209,1.209h65.65a1.209,1.209,0,0,0,1.209-1.209V49.991A1.209,1.209,0,0,0,74.359,48.782Z" transform="translate(-7.5 -48.782)" fill="#fac600"/></g><path d="M17.69,53.617V49.99A1.209,1.209,0,0,1,18.9,48.781H8.709A1.209,1.209,0,0,0,7.5,49.99v3.627a1.209,1.209,0,0,0,1.209,1.209H18.9A1.209,1.209,0,0,1,17.69,53.617Z" transform="translate(-7.5 -48.781)" fill="#e8b800"/><g transform="translate(0 93.323)"><path d="M8.709,438.005A1.209,1.209,0,0,0,7.5,439.214v3.627a1.209,1.209,0,0,0,1.209,1.209H33.153v-6.045H8.709Z" transform="translate(-7.5 -438.005)" fill="#fac600"/></g><g transform="translate(0 93.323)"><path d="M17.69,442.84v-3.627A1.209,1.209,0,0,1,18.9,438H8.709A1.209,1.209,0,0,0,7.5,439.213v3.627a1.209,1.209,0,0,0,1.209,1.209H18.9A1.209,1.209,0,0,1,17.69,442.84Z" transform="translate(-7.5 -438.004)" fill="#e8b800"/></g></g><g transform="translate(25.652 51.958)"><path d="M161.9,266.69a1.209,1.209,0,0,0-1.209-1.209H115.7a1.209,1.209,0,0,0-1.209,1.209v46.2h27.738L161.9,293.273V266.69Z" transform="translate(-114.489 -265.481)" fill="#fcef91"/><g transform="translate(0)"><path d="M123.8,265.481h-8.1a1.209,1.209,0,0,0-1.209,1.209v46.2h8.1v-46.2A1.209,1.209,0,0,1,123.8,265.481Z" transform="translate(-114.49 -265.481)" fill="#f0de59"/></g><g transform="translate(19.641)"><path d="M203.81,277h-6.677a.726.726,0,0,1-.726-.726V265.481h8.128V276.27A.725.725,0,0,1,203.81,277Z" transform="translate(-196.408 -265.481)" fill="#fe646f"/></g><g transform="translate(19.642)"><path d="M200.411,276.27V265.481h-4V276.27a.726.726,0,0,0,.726.726h4A.726.726,0,0,1,200.411,276.27Z" transform="translate(-196.409 -265.481)" fill="#fd4755"/></g><g transform="translate(6.121 29.083)"><path d="M151.486,398.968h-10.74a.726.726,0,0,1-.726-.726V387.5a.726.726,0,0,1,.726-.726h10.74a.726.726,0,0,1,.726.726v10.74a.726.726,0,0,1-.726.725Z" transform="translate(-140.02 -386.777)" fill="#fff"/></g><g transform="translate(6.121 29.083)"><path d="M146.045,398.244V387.5a.726.726,0,0,1,.726-.726h-6.026a.726.726,0,0,0-.726.726v10.74a.726.726,0,0,0,.726.725h6.026A.726.726,0,0,1,146.045,398.244Z" transform="translate(-140.019 -386.778)" fill="#f3f0f3"/></g><g transform="translate(27.738 21.532)"><path d="M253.112,358.292l-22.935,22.872h60.415l-22.935-22.872A10.3,10.3,0,0,0,253.112,358.292Z" transform="translate(-230.177 -355.286)" fill="#d6cf9f"/></g><g transform="translate(27.738 21.534)"><path d="M265.039,356.4a10.3,10.3,0,0,0-11.927,1.895l-22.935,22.872h9.308L262.421,358.3A10.29,10.29,0,0,1,265.039,356.4Z" transform="translate(-230.177 -355.292)" fill="#b2ac83"/></g></g></g><g transform="translate(0 41.282)"><path d="M145.784,379.278H135.044a2.526,2.526,0,0,0-2.524,2.524v10.74a2.526,2.526,0,0,0,2.524,2.524h10.741a2.526,2.526,0,0,0,2.524-2.524V381.8A2.526,2.526,0,0,0,145.784,379.278Zm-1.073,12.191h-8.595v-8.595h8.595v8.595Z" transform="translate(-100.746 -298.238)"/><path d="M117.745,70.106a1.8,1.8,0,0,0,1.8-1.8V63.454h.21a3.01,3.01,0,0,0,3.007-3.007V56.819a3.01,3.01,0,0,0-3.007-3.007H68.448V50.924h.21a3.011,3.011,0,0,0,3.007-3.007V44.289a3.01,3.01,0,0,0-3.007-3.007H3.007A3.01,3.01,0,0,0,0,44.289v3.627a3.011,3.011,0,0,0,3.007,3.007h.21V71.9H3.188a1.8,1.8,0,1,0,0,3.6h.029v27.221H3.188a1.8,1.8,0,1,0,0,3.6h.029V134.6h-.21A3.011,3.011,0,0,0,0,137.612v3.627a3.011,3.011,0,0,0,3.007,3.007H87.755a1.8,1.8,0,1,0,0-3.6H59.539l19.855-19.8a8.515,8.515,0,0,1,12,0l19.855,19.8H96.147a1.8,1.8,0,1,0,0,3.6h23.607a3.011,3.011,0,0,0,3.007-3.007v-3.627a3.01,3.01,0,0,0-3.007-3.007h-.21v-23.65h.029a1.8,1.8,0,1,0,0-3.6h-.029V84.627h.029a1.8,1.8,0,1,0,0-3.6h-.029V76.7a1.8,1.8,0,1,0-3.6,0v4.331h-47.5V75.5h.029a1.8,1.8,0,1,0,0-3.6h-.029V63.454h47.5v4.855a1.8,1.8,0,0,0,1.8,1.8ZM16.3,50.924a1.8,1.8,0,0,0,0-3.6H3.6V44.879H68.068v2.449H24.7a1.8,1.8,0,0,0,0,3.6H64.851V71.9H6.814V50.924Zm9.349,89.726H3.6V138.2H25.653Zm0-6.045H6.814V106.318H25.653Zm0-38.358v6.475H6.814V75.5H64.851V93.239H28.66a3.011,3.011,0,0,0-3.007,3.008Zm23.238.589h4.531v7.918H48.891Zm24.173,25.248L54.445,140.65h-25.2V96.836H45.294v8.991a2.526,2.526,0,0,0,2.524,2.524h6.677a2.527,2.527,0,0,0,2.524-2.524V96.836H73.063v25.248ZM110.286,134.6,93.939,118.3a12.118,12.118,0,0,0-17.084,0l-.195.194v-7.542h39.287V134.6h-5.661Zm8.879,3.6v2.449h-2.817l-2.456-2.449Zm-3.217-53.574v22.731H76.66V96.246a3.011,3.011,0,0,0-3.007-3.007h-5.2V84.627Zm-47.5-24.77V57.408h50.716v2.449Z" transform="translate(0 -41.282)"/><path d="M366.721,389.783H365.27a1.8,1.8,0,0,0,0,3.6h1.451a1.8,1.8,0,0,0,0-3.6Z" transform="translate(-276.323 -306.224)"/><path d="M340.057,415a1.8,1.8,0,0,0,0,3.6h1.451a1.8,1.8,0,0,0,0-3.6Z" transform="translate(-257.156 -325.392)"/><path d="M395.526,429.688h1.451a1.8,1.8,0,1,0,0-3.6h-1.451a1.8,1.8,0,0,0,0,3.6Z" transform="translate(-299.325 -333.826)"/></g></g><path d="M12.432,16.264a5.031,5.031,0,0,1-1.694,3.613A5.951,5.951,0,0,1,6.709,21.2a5.351,5.351,0,0,1-4.3-1.841A7.548,7.548,0,0,1,.84,14.3v-.869a8.523,8.523,0,0,1,.723-3.613,5.416,5.416,0,0,1,2.065-2.4,5.786,5.786,0,0,1,3.12-.835A5.8,5.8,0,0,1,10.713,7.9a5.407,5.407,0,0,1,1.738,3.7H9.521a2.97,2.97,0,0,0-.767-2,2.839,2.839,0,0,0-2.007-.62,2.489,2.489,0,0,0-2.192,1.05,5.883,5.883,0,0,0-.747,3.257v1.074a6.3,6.3,0,0,0,.7,3.369,2.443,2.443,0,0,0,2.2,1.064,2.892,2.892,0,0,0,2.026-.62A2.8,2.8,0,0,0,9.5,16.264Zm1.3-.645a6.267,6.267,0,0,1,.605-2.8,4.432,4.432,0,0,1,1.743-1.9,5.086,5.086,0,0,1,2.642-.674,4.812,4.812,0,0,1,3.491,1.309A5.252,5.252,0,0,1,23.721,15.1l.02.723a5.523,5.523,0,0,1-1.357,3.9A4.718,4.718,0,0,1,18.74,21.2a4.742,4.742,0,0,1-3.647-1.465,5.62,5.62,0,0,1-1.362-3.984Zm2.822.205a3.939,3.939,0,0,0,.566,2.3,2.037,2.037,0,0,0,3.223.01,4.31,4.31,0,0,0,.576-2.515,3.9,3.9,0,0,0-.576-2.285,1.874,1.874,0,0,0-1.621-.811,1.843,1.843,0,0,0-1.6.806A4.383,4.383,0,0,0,16.553,15.824Zm11.523-5.391.088,1.221A3.689,3.689,0,0,1,31.2,10.238a3.066,3.066,0,0,1,2.5.986,4.6,4.6,0,0,1,.84,2.949V21H31.719V14.242a1.831,1.831,0,0,0-.391-1.3,1.749,1.749,0,0,0-1.3-.405,1.942,1.942,0,0,0-1.787,1.016V21H25.42V10.434ZM42.4,18.08a.909.909,0,0,0-.513-.815,5.824,5.824,0,0,0-1.646-.532q-3.77-.791-3.77-3.2a2.9,2.9,0,0,1,1.167-2.349,4.707,4.707,0,0,1,3.052-.942,5.067,5.067,0,0,1,3.218.947,2.985,2.985,0,0,1,1.206,2.461H42.295a1.366,1.366,0,0,0-.391-1,1.653,1.653,0,0,0-1.221-.4,1.689,1.689,0,0,0-1.1.322,1.017,1.017,0,0,0-.391.82.87.87,0,0,0,.444.757,4.571,4.571,0,0,0,1.5.5,12.244,12.244,0,0,1,1.777.474,2.92,2.92,0,0,1,2.236,2.842,2.756,2.756,0,0,1-1.24,2.339,5.35,5.35,0,0,1-3.2.894,5.588,5.588,0,0,1-2.358-.474,3.957,3.957,0,0,1-1.616-1.3,3.018,3.018,0,0,1-.586-1.782h2.676a1.473,1.473,0,0,0,.557,1.152,2.208,2.208,0,0,0,1.387.4,2.044,2.044,0,0,0,1.226-.308A.957.957,0,0,0,42.4,18.08ZM51.826,21.2a5.187,5.187,0,0,1-3.784-1.426,5.068,5.068,0,0,1-1.46-3.8V15.7a6.383,6.383,0,0,1,.615-2.847,4.515,4.515,0,0,1,1.743-1.934,4.893,4.893,0,0,1,2.573-.679,4.385,4.385,0,0,1,3.413,1.367,5.555,5.555,0,0,1,1.245,3.877v1.152H49.443a2.622,2.622,0,0,0,.825,1.66,2.5,2.5,0,0,0,1.743.625,3.046,3.046,0,0,0,2.549-1.182l1.387,1.553a4.237,4.237,0,0,1-1.719,1.4A5.639,5.639,0,0,1,51.826,21.2ZM51.5,12.523a1.767,1.767,0,0,0-1.362.566,2.926,2.926,0,0,0-.669,1.621H53.4v-.225a2.086,2.086,0,0,0-.508-1.45A1.824,1.824,0,0,0,51.5,12.523Zm5.859,3.115a6.193,6.193,0,0,1,1.157-3.916,3.75,3.75,0,0,1,3.12-1.484,3.289,3.289,0,0,1,2.705,1.191l.117-1h2.559V20.648a4.516,4.516,0,0,1-.63,2.412,4.045,4.045,0,0,1-1.772,1.563,6.231,6.231,0,0,1-2.676.537,5.794,5.794,0,0,1-2.266-.464,4.021,4.021,0,0,1-1.67-1.2l1.25-1.719a3.306,3.306,0,0,0,2.559,1.182,2.42,2.42,0,0,0,1.748-.6,2.253,2.253,0,0,0,.625-1.7v-.566a3.264,3.264,0,0,1-2.568,1.1,3.74,3.74,0,0,1-3.081-1.489,6.191,6.191,0,0,1-1.177-3.95Zm2.822.205a3.846,3.846,0,0,0,.576,2.251,1.834,1.834,0,0,0,1.582.815,1.961,1.961,0,0,0,1.846-.967V13.5a1.956,1.956,0,0,0-1.826-.967,1.845,1.845,0,0,0-1.6.83A4.334,4.334,0,0,0,60.186,15.844Zm15.332,4.082a3.539,3.539,0,0,1-2.891,1.27,3.338,3.338,0,0,1-2.593-.977,4.169,4.169,0,0,1-.913-2.861V10.434h2.822V17.26q0,1.65,1.5,1.65a2.038,2.038,0,0,0,1.973-1v-7.48h2.832V21H75.6ZM83.359,21H80.527V10.434h2.832Zm-3-13.3a1.39,1.39,0,0,1,.425-1.045,1.831,1.831,0,0,1,2.31,0,1.382,1.382,0,0,1,.43,1.045,1.386,1.386,0,0,1-.435,1.055,1.81,1.81,0,0,1-2.295,0A1.386,1.386,0,0,1,80.361,7.7Zm11.26,5.381A7.667,7.667,0,0,0,90.605,13a2.067,2.067,0,0,0-2.1,1.084V21H85.684V10.434H88.35l.078,1.26a2.615,2.615,0,0,1,2.354-1.455,2.957,2.957,0,0,1,.879.127Zm8.984-2.646.088,1.182a3.713,3.713,0,0,1,3.037-1.377,2.818,2.818,0,0,1,2.8,1.611,3.628,3.628,0,0,1,3.174-1.611,3.152,3.152,0,0,1,2.559,1,4.6,4.6,0,0,1,.84,3.013V21h-2.832V14.262a2.012,2.012,0,0,0-.352-1.313,1.558,1.558,0,0,0-1.24-.415,1.762,1.762,0,0,0-1.758,1.211l.01,7.256h-2.822V14.271a1.988,1.988,0,0,0-.361-1.328,1.573,1.573,0,0,0-1.23-.41,1.829,1.829,0,0,0-1.738,1V21H97.959V10.434ZM121.4,21a3.134,3.134,0,0,1-.283-.947,3.415,3.415,0,0,1-2.666,1.143,3.752,3.752,0,0,1-2.573-.9,2.89,2.89,0,0,1-1.021-2.266,2.986,2.986,0,0,1,1.245-2.578,6.144,6.144,0,0,1,3.6-.908H121v-.605a1.741,1.741,0,0,0-.376-1.172,1.479,1.479,0,0,0-1.187-.439,1.682,1.682,0,0,0-1.118.342,1.161,1.161,0,0,0-.405.938h-2.822a2.835,2.835,0,0,1,.566-1.7,3.744,3.744,0,0,1,1.6-1.226,5.837,5.837,0,0,1,2.324-.444,4.611,4.611,0,0,1,3.1.981,3.433,3.433,0,0,1,1.147,2.759v4.58a5.052,5.052,0,0,0,.42,2.275V21Zm-2.334-1.963a2.431,2.431,0,0,0,1.152-.278,1.828,1.828,0,0,0,.781-.747V16.2h-1.055q-2.119,0-2.256,1.465l-.01.166a1.13,1.13,0,0,0,.371.869A1.441,1.441,0,0,0,119.063,19.037Zm10.313-11.2v2.6h1.807V12.5h-1.807v5.273a1.259,1.259,0,0,0,.225.84,1.128,1.128,0,0,0,.859.254,4.5,4.5,0,0,0,.83-.068v2.139a5.81,5.81,0,0,1-1.709.254q-2.969,0-3.027-3V12.5H125.01v-2.07h1.543v-2.6ZM137.617,21.2a5.187,5.187,0,0,1-3.784-1.426,5.068,5.068,0,0,1-1.46-3.8V15.7a6.383,6.383,0,0,1,.615-2.847,4.515,4.515,0,0,1,1.743-1.934,4.893,4.893,0,0,1,2.573-.679,4.385,4.385,0,0,1,3.413,1.367,5.555,5.555,0,0,1,1.245,3.877v1.152h-6.729a2.622,2.622,0,0,0,.825,1.66,2.5,2.5,0,0,0,1.743.625,3.046,3.046,0,0,0,2.549-1.182l1.387,1.553a4.237,4.237,0,0,1-1.719,1.4A5.639,5.639,0,0,1,137.617,21.2Zm-.322-8.672a1.767,1.767,0,0,0-1.362.566,2.926,2.926,0,0,0-.669,1.621h3.926v-.225a2.086,2.086,0,0,0-.508-1.45A1.824,1.824,0,0,0,137.295,12.523Zm12.207.557A7.667,7.667,0,0,0,148.486,13a2.067,2.067,0,0,0-2.1,1.084V21h-2.822V10.434h2.666l.078,1.26a2.615,2.615,0,0,1,2.354-1.455,2.957,2.957,0,0,1,.879.127ZM153.838,21h-2.832V10.434h2.832Zm-3-13.3a1.39,1.39,0,0,1,.425-1.045,1.831,1.831,0,0,1,2.31,0A1.382,1.382,0,0,1,154,7.7a1.386,1.386,0,0,1-.435,1.055,1.81,1.81,0,0,1-2.295,0A1.386,1.386,0,0,1,150.84,7.7ZM162.285,21a3.134,3.134,0,0,1-.283-.947,3.415,3.415,0,0,1-2.666,1.143,3.752,3.752,0,0,1-2.573-.9,2.889,2.889,0,0,1-1.021-2.266,2.986,2.986,0,0,1,1.245-2.578,6.144,6.144,0,0,1,3.6-.908h1.3v-.605a1.741,1.741,0,0,0-.376-1.172,1.479,1.479,0,0,0-1.187-.439,1.682,1.682,0,0,0-1.118.342,1.161,1.161,0,0,0-.405.938h-2.822a2.835,2.835,0,0,1,.566-1.7,3.744,3.744,0,0,1,1.6-1.226,5.837,5.837,0,0,1,2.324-.444,4.611,4.611,0,0,1,3.1.981,3.433,3.433,0,0,1,1.147,2.759v4.58a5.052,5.052,0,0,0,.42,2.275V21Zm-2.334-1.963a2.431,2.431,0,0,0,1.152-.278,1.828,1.828,0,0,0,.781-.747V16.2H160.83q-2.119,0-2.256,1.465l-.01.166a1.13,1.13,0,0,0,.371.869A1.441,1.441,0,0,0,159.951,19.037Zm21.426-3.223a6.337,6.337,0,0,1-1.108,3.911,3.554,3.554,0,0,1-2.993,1.47,3.292,3.292,0,0,1-2.588-1.113v4.98h-2.822V10.434h2.617l.1,1.035a3.317,3.317,0,0,1,2.676-1.23,3.578,3.578,0,0,1,3.037,1.445,6.509,6.509,0,0,1,1.084,3.984Zm-2.822-.205a4.158,4.158,0,0,0-.522-2.275,1.7,1.7,0,0,0-1.519-.8,1.848,1.848,0,0,0-1.826,1.016v4.326a1.879,1.879,0,0,0,1.846,1.045Q178.555,18.92,178.555,15.609Zm10.508-2.529A7.667,7.667,0,0,0,188.047,13a2.067,2.067,0,0,0-2.1,1.084V21h-2.822V10.434h2.666l.078,1.26a2.615,2.615,0,0,1,2.354-1.455,2.957,2.957,0,0,1,.879.127ZM193.4,21h-2.832V10.434H193.4Zm-3-13.3a1.39,1.39,0,0,1,.425-1.045,1.831,1.831,0,0,1,2.31,0,1.382,1.382,0,0,1,.43,1.045,1.386,1.386,0,0,1-.435,1.055,1.81,1.81,0,0,1-2.295,0A1.386,1.386,0,0,1,190.4,7.7Zm7.969,2.734.088,1.182a3.713,3.713,0,0,1,3.037-1.377,2.818,2.818,0,0,1,2.8,1.611,3.628,3.628,0,0,1,3.174-1.611,3.152,3.152,0,0,1,2.559,1,4.6,4.6,0,0,1,.84,3.013V21h-2.832V14.262a2.012,2.012,0,0,0-.352-1.313,1.558,1.558,0,0,0-1.24-.415,1.761,1.761,0,0,0-1.758,1.211L204.7,21h-2.822V14.271a1.988,1.988,0,0,0-.361-1.328,1.573,1.573,0,0,0-1.23-.41,1.829,1.829,0,0,0-1.738,1V21h-2.822V10.434ZM219.16,21a3.134,3.134,0,0,1-.283-.947,3.415,3.415,0,0,1-2.666,1.143,3.752,3.752,0,0,1-2.573-.9,2.889,2.889,0,0,1-1.021-2.266,2.986,2.986,0,0,1,1.245-2.578,6.144,6.144,0,0,1,3.6-.908h1.3v-.605a1.741,1.741,0,0,0-.376-1.172,1.479,1.479,0,0,0-1.187-.439,1.682,1.682,0,0,0-1.118.342,1.161,1.161,0,0,0-.405.938h-2.822a2.835,2.835,0,0,1,.566-1.7,3.744,3.744,0,0,1,1.6-1.226,5.837,5.837,0,0,1,2.324-.444,4.611,4.611,0,0,1,3.1.981,3.433,3.433,0,0,1,1.147,2.759v4.58a5.052,5.052,0,0,0,.42,2.275V21Zm-2.334-1.963a2.431,2.431,0,0,0,1.152-.278,1.828,1.828,0,0,0,.781-.747V16.2h-1.055q-2.119,0-2.256,1.465l-.01.166a1.13,1.13,0,0,0,.371.869A1.441,1.441,0,0,0,216.826,19.037ZM6.807,43.08a.909.909,0,0,0-.513-.815,5.824,5.824,0,0,0-1.646-.532q-3.77-.791-3.77-3.2a2.9,2.9,0,0,1,1.167-2.349A4.708,4.708,0,0,1,5.1,35.238a5.067,5.067,0,0,1,3.218.947,2.985,2.985,0,0,1,1.206,2.461H6.7a1.366,1.366,0,0,0-.391-1,1.653,1.653,0,0,0-1.221-.4,1.689,1.689,0,0,0-1.1.322,1.017,1.017,0,0,0-.391.82.87.87,0,0,0,.444.757,4.571,4.571,0,0,0,1.5.5,12.244,12.244,0,0,1,1.777.474,2.92,2.92,0,0,1,2.236,2.842A2.756,2.756,0,0,1,8.311,45.3a5.35,5.35,0,0,1-3.2.894,5.588,5.588,0,0,1-2.358-.474,3.957,3.957,0,0,1-1.616-1.3,3.018,3.018,0,0,1-.586-1.782H3.223a1.473,1.473,0,0,0,.557,1.152,2.208,2.208,0,0,0,1.387.4,2.044,2.044,0,0,0,1.226-.308A.957.957,0,0,0,6.807,43.08ZM14.346,46H11.514V35.434h2.832Zm-3-13.3a1.39,1.39,0,0,1,.425-1.045,1.6,1.6,0,0,1,1.157-.41,1.6,1.6,0,0,1,1.152.41,1.491,1.491,0,0,1,0,2.1,1.6,1.6,0,0,1-1.147.41,1.6,1.6,0,0,1-1.147-.41A1.386,1.386,0,0,1,11.348,32.7Zm7.92,2.734.088,1.221a3.689,3.689,0,0,1,3.037-1.416,3.066,3.066,0,0,1,2.5.986,4.6,4.6,0,0,1,.84,2.949V46H22.91V39.242a1.831,1.831,0,0,0-.391-1.3,1.749,1.749,0,0,0-1.3-.405,1.942,1.942,0,0,0-1.787,1.016V46H16.611V35.434ZM37.246,43.92a1.851,1.851,0,0,0,1.27-.43,1.506,1.506,0,0,0,.508-1.143H41.67a3.62,3.62,0,0,1-.586,1.968A3.866,3.866,0,0,1,39.507,45.7a4.936,4.936,0,0,1-2.212.493,4.587,4.587,0,0,1-3.574-1.44,5.7,5.7,0,0,1-1.309-3.979V40.59a5.635,5.635,0,0,1,1.3-3.9,4.534,4.534,0,0,1,3.564-1.455,4.444,4.444,0,0,1,3.179,1.128,3.994,3.994,0,0,1,1.216,3H39.023a1.923,1.923,0,0,0-.508-1.333,1.892,1.892,0,0,0-2.778.205,4.155,4.155,0,0,0-.5,2.329v.293a4.207,4.207,0,0,0,.5,2.344A1.722,1.722,0,0,0,37.246,43.92Zm5.6-3.3a6.267,6.267,0,0,1,.605-2.8,4.432,4.432,0,0,1,1.743-1.9,5.086,5.086,0,0,1,2.642-.674,4.812,4.812,0,0,1,3.491,1.309A5.252,5.252,0,0,1,52.832,40.1l.02.723a5.523,5.523,0,0,1-1.357,3.9,5.261,5.261,0,0,1-7.29,0,5.62,5.62,0,0,1-1.362-3.984Zm2.822.205a3.939,3.939,0,0,0,.566,2.3,2.037,2.037,0,0,0,3.223.01,4.31,4.31,0,0,0,.576-2.515,3.9,3.9,0,0,0-.576-2.285,1.874,1.874,0,0,0-1.621-.811,1.843,1.843,0,0,0-1.6.806A4.383,4.383,0,0,0,45.664,40.824Zm11.523-5.391.088,1.221a3.689,3.689,0,0,1,3.037-1.416,3.066,3.066,0,0,1,2.5.986,4.6,4.6,0,0,1,.84,2.949V46H60.83V39.242a1.831,1.831,0,0,0-.391-1.3,1.749,1.749,0,0,0-1.3-.405,1.942,1.942,0,0,0-1.787,1.016V46H54.531V35.434Zm11.982-2.6v2.6h1.807V37.5H69.17v5.273a1.259,1.259,0,0,0,.225.84,1.128,1.128,0,0,0,.859.254,4.5,4.5,0,0,0,.83-.068v2.139a5.81,5.81,0,0,1-1.709.254q-2.969,0-3.027-3V37.5H64.8v-2.07h1.543v-2.6ZM78.672,46a3.134,3.134,0,0,1-.283-.947A3.415,3.415,0,0,1,75.723,46.2a3.752,3.752,0,0,1-2.573-.9,2.89,2.89,0,0,1-1.021-2.266,2.986,2.986,0,0,1,1.245-2.578,6.144,6.144,0,0,1,3.6-.908h1.3v-.605a1.741,1.741,0,0,0-.376-1.172,1.479,1.479,0,0,0-1.187-.439,1.682,1.682,0,0,0-1.118.342,1.161,1.161,0,0,0-.405.938H72.363a2.835,2.835,0,0,1,.566-1.7,3.744,3.744,0,0,1,1.6-1.226,5.837,5.837,0,0,1,2.324-.444,4.611,4.611,0,0,1,3.1.981A3.433,3.433,0,0,1,81.1,38.979v4.58a5.052,5.052,0,0,0,.42,2.275V46Zm-2.334-1.963a2.431,2.431,0,0,0,1.152-.278,1.828,1.828,0,0,0,.781-.747V41.2H77.217q-2.119,0-2.256,1.465l-.01.166a1.13,1.13,0,0,0,.371.869A1.441,1.441,0,0,0,76.338,44.037Zm9.58-8.6.088,1.182a3.713,3.713,0,0,1,3.037-1.377,2.818,2.818,0,0,1,2.8,1.611,3.628,3.628,0,0,1,3.174-1.611,3.152,3.152,0,0,1,2.559,1,4.6,4.6,0,0,1,.84,3.013V46H95.586V39.262a2.012,2.012,0,0,0-.352-1.313,1.558,1.558,0,0,0-1.24-.415,1.761,1.761,0,0,0-1.758,1.211L92.246,46H89.424V39.271a1.988,1.988,0,0,0-.361-1.328,1.573,1.573,0,0,0-1.23-.41,1.829,1.829,0,0,0-1.738,1V46H83.271V35.434ZM103.564,46h-2.832V35.434h2.832Zm-3-13.3a1.39,1.39,0,0,1,.425-1.045,1.831,1.831,0,0,1,2.31,0,1.491,1.491,0,0,1,0,2.1,1.81,1.81,0,0,1-2.295,0A1.386,1.386,0,0,1,100.566,32.7Zm7.92,2.734.088,1.221a3.689,3.689,0,0,1,3.037-1.416,3.066,3.066,0,0,1,2.5.986,4.6,4.6,0,0,1,.84,2.949V46h-2.822V39.242a1.831,1.831,0,0,0-.391-1.3,1.749,1.749,0,0,0-1.3-.405,1.942,1.942,0,0,0-1.787,1.016V46H105.83V35.434ZM123.213,46a3.134,3.134,0,0,1-.283-.947,3.415,3.415,0,0,1-2.666,1.143,3.752,3.752,0,0,1-2.573-.9,2.89,2.89,0,0,1-1.021-2.266,2.986,2.986,0,0,1,1.245-2.578,6.144,6.144,0,0,1,3.6-.908h1.3v-.605a1.741,1.741,0,0,0-.376-1.172,1.479,1.479,0,0,0-1.187-.439,1.682,1.682,0,0,0-1.118.342,1.161,1.161,0,0,0-.405.938H116.9a2.835,2.835,0,0,1,.566-1.7,3.744,3.744,0,0,1,1.6-1.226,5.837,5.837,0,0,1,2.324-.444,4.611,4.611,0,0,1,3.1.981,3.433,3.433,0,0,1,1.147,2.759v4.58a5.052,5.052,0,0,0,.42,2.275V46Zm-2.334-1.963a2.431,2.431,0,0,0,1.152-.278,1.828,1.828,0,0,0,.781-.747V41.2h-1.055q-2.119,0-2.256,1.465l-.01.166a1.13,1.13,0,0,0,.371.869A1.441,1.441,0,0,0,120.879,44.037Zm9.531-8.6.088,1.221a3.689,3.689,0,0,1,3.037-1.416,3.066,3.066,0,0,1,2.5.986,4.6,4.6,0,0,1,.84,2.949V46h-2.822V39.242a1.831,1.831,0,0,0-.391-1.3,1.749,1.749,0,0,0-1.3-.405,1.942,1.942,0,0,0-1.787,1.016V46h-2.822V35.434Zm11.982-2.6v2.6H144.2V37.5h-1.807v5.273a1.259,1.259,0,0,0,.225.84,1.128,1.128,0,0,0,.859.254,4.5,4.5,0,0,0,.83-.068v2.139a5.81,5.81,0,0,1-1.709.254q-2.969,0-3.027-3V37.5h-1.543v-2.07h1.543v-2.6ZM150.635,46.2a5.187,5.187,0,0,1-3.784-1.426,5.068,5.068,0,0,1-1.46-3.8V40.7a6.383,6.383,0,0,1,.615-2.847,4.515,4.515,0,0,1,1.743-1.934,4.893,4.893,0,0,1,2.573-.679,4.385,4.385,0,0,1,3.413,1.367,5.555,5.555,0,0,1,1.245,3.877v1.152h-6.729a2.622,2.622,0,0,0,.825,1.66,2.494,2.494,0,0,0,1.743.625,3.046,3.046,0,0,0,2.549-1.182l1.387,1.553a4.237,4.237,0,0,1-1.719,1.4A5.639,5.639,0,0,1,150.635,46.2Zm-.322-8.672a1.767,1.767,0,0,0-1.362.566,2.926,2.926,0,0,0-.669,1.621h3.926v-.225a2.086,2.086,0,0,0-.508-1.45A1.824,1.824,0,0,0,150.313,37.523ZM162.3,43.08a.909.909,0,0,0-.513-.815,5.824,5.824,0,0,0-1.646-.532q-3.77-.791-3.77-3.2a2.9,2.9,0,0,1,1.167-2.349,4.708,4.708,0,0,1,3.052-.942,5.067,5.067,0,0,1,3.218.947,2.985,2.985,0,0,1,1.206,2.461H162.2a1.366,1.366,0,0,0-.391-1,1.653,1.653,0,0,0-1.221-.4,1.689,1.689,0,0,0-1.1.322,1.017,1.017,0,0,0-.391.82.87.87,0,0,0,.444.757,4.571,4.571,0,0,0,1.5.5,12.243,12.243,0,0,1,1.777.474,2.92,2.92,0,0,1,2.236,2.842,2.756,2.756,0,0,1-1.24,2.339,5.35,5.35,0,0,1-3.2.894,5.588,5.588,0,0,1-2.358-.474,3.957,3.957,0,0,1-1.616-1.3,3.018,3.018,0,0,1-.586-1.782h2.676a1.473,1.473,0,0,0,.557,1.152,2.208,2.208,0,0,0,1.387.4,2.044,2.044,0,0,0,1.226-.308A.957.957,0,0,0,162.3,43.08Z" transform="translate(357 2563)" fill="#12263f"/></g></svg>